<svg width="230" height="129" fill="none" xmlns="http://www.w3.org/2000/svg"><g clip-path="url(#clip0)"><path d="M230 9a9 9 0 00-9-9H-2a9 9 0 00-9 9v126h241V9z" fill="#F6B028"/><path fill-rule="evenodd" clip-rule="evenodd" d="M200.517 45.784c-17.89-5.552-33.509-23.445-51.731-18.227-18.535 5.309-33.635 24.308-38.242 43.994-4.325 18.481 16.099 33.549 15.662 52.487-.551 23.882-27.65 46.001-18.433 67.57 8.701 20.36 36.562 28.406 57.592 24.06 20.198-4.175 24.493-35.856 43.306-44.915 18.964-9.131 47.21 12.142 60.371-5.007 12.4-16.157-7.377-38.648-11.536-58.625-3.513-16.873.463-36.968-10.915-49.214-11.295-12.156-30.52-7.297-46.074-12.123z" fill="#BD67D5"/><path fill-rule="evenodd" clip-rule="evenodd" d="M-40.975 40.908c-11.899 12.427-25.129 25.347-25.113 44.43.016 18.784 11.572 38.549 25.197 54.981C-28.934 154.74-11.678 161.44 4.39 170.34c15.407 8.534 30.46 20.211 46.378 20.748 16.507.557 32.302-5.478 40.623-17.813 7.876-11.674-.23-30.022 1.73-44.965 2.235-17.054 21.169-31.58 10.507-48.375C92.833 62.93 67.047 71.821 50.2 60.702 31.328 48.246 23.437 17.87 2.806 13.392c-19.946-4.33-31.673 14.872-43.78 27.516z" fill="#DB538C"/><g filter="url(#filter0_bi)"><path fill-rule="evenodd" clip-rule="evenodd" d="M58.856 46.611C47.29 59.017 25.952 66.588 25.613 83.48c-.331 16.505 20.416 23.859 31.791 35.498 10.681 10.928 17.432 29.235 32.696 30.482 15.358 1.254 24.234-18.286 38.422-24.675 14.325-6.45 33.622-.653 44.109-12.485 10.767-12.149 11.636-30.938 8.344-46.696-3.106-14.867-15.064-25.18-25.601-35.91-9.986-10.17-19.526-22.818-33.706-24.487-13.869-1.632-26.213 8.255-38.029 16.043-10.087 6.65-16.517 16.499-24.783 25.363z" fill="#fff" fill-opacity=".3"/></g><path d="M154.637 68.507c.878-26.481-17.222-48.573-40.426-49.344-23.204-.77-42.726 20.072-43.604 46.553-.877 26.482 17.222 48.574 40.427 49.345 23.204.771 42.726-20.072 43.603-46.554z" fill="#8CC754"/><path d="M98.764 49.584a29.131 29.131 0 0010.611 1.593 29.507 29.507 0 0014.871-4.792" stroke="#063" stroke-width="4" stroke-miterlimit="10"/><path d="M94.47 34.913c6.729 0 12.185-5.463 12.185-12.201s-5.456-12.2-12.186-12.2c-6.73 0-12.185 5.462-12.185 12.2 0 6.738 5.455 12.2 12.185 12.2z" fill="#FBFBFB" stroke="#272727" stroke-miterlimit="10"/><path d="M94.16 34.913c5.027 0 9.101-4.15 9.101-9.267 0-5.118-4.074-9.266-9.1-9.266s-9.1 4.148-9.1 9.266 4.074 9.267 9.1 9.267z" fill="#272727" stroke="#272727" stroke-miterlimit="10"/><path d="M124.855 34.913c6.815 0 12.34-5.463 12.34-12.201s-5.525-12.2-12.34-12.2c-6.815 0-12.34 5.462-12.34 12.2 0 6.738 5.525 12.2 12.34 12.2z" fill="#FBFBFB" stroke="#272727" stroke-miterlimit="10"/><path d="M111.899 114.603c14.482 0 26.222-12.239 26.222-27.336 0-15.097-11.74-27.335-26.222-27.335-14.482 0-26.222 12.238-26.222 27.335 0 15.097 11.74 27.336 26.222 27.336z" fill="#72B236"/><path d="M124.546 34.913c5.112 0 9.255-4.15 9.255-9.267 0-5.118-4.143-9.266-9.255-9.266-5.111 0-9.254 4.148-9.254 9.266s4.143 9.267 9.254 9.267z" fill="#272727" stroke="#272727" stroke-miterlimit="10"/><rect x="144.148" y="49.139" width="15.8" height="66.584" rx="3" transform="rotate(25.553 144.148 49.14)" fill="#2C3A6A"/><rect x="147.711" y="50.843" width="7.9" height="66.584" rx="3" transform="rotate(25.553 147.711 50.843)" fill="#586BAF"/><path d="M115.943 104.674c-.142-1.533 1.43-2.644 2.828-2l14.124 6.506c1.399.644 1.576 2.56.319 3.449l-12.697 8.98c-1.257.889-3.005.083-3.146-1.45l-1.428-15.485z" fill="#9A968E"/><path d="M116.75 114.995l8.264 3.806-7.428 5.254-.836-9.06z" fill="#EE9E15"/><circle cx="61.32" cy="103.087" r="22.668" fill="#AF832D"/><circle cx="61.32" cy="100.919" r="22.668" fill="#F6B028"/><path d="M53.351 86.148l24.97 14.416-24.97 14.416V86.148z" fill="#FBFBFB"/><path d="M152.276 62.866c4.866.98 5.348-.15 7.322 1.051a6.601 6.601 0 012.907 3.583 5.643 5.643 0 01-.166 4.088c-1.232 2.65-4.218 3.069-4.629 3.116-1.018.127-3.309.135-3.83-1.091-.419-.989.561-2.23.632-2.317a4.066 4.066 0 012.78-1.44c.055.15-3.365 2.507-6.437 1.732-1.193-.292-2.701-1.154-2.741-2.19-.047-1.337 2.772-2.436 4.249-2.823a16.55 16.55 0 012.654-.42s-3.665 1.092-5.007-.419c-.695-.79-.79-2.238-.127-2.823.506-.474 1.351-.253 2.393-.047z" fill="#72B236" stroke="#72B236" stroke-width=".25" stroke-miterlimit="10"/></g><defs><clipPath id="clip0"><path d="M230 9a9 9 0 00-9-9H9a9 9 0 00-9 9v120h230V9z" fill="#fff"/></clipPath><filter id="filter0_bi" x=".13" y="-30" width="217.87" height="217.869" filterUnits="userSpaceOnUse" color-interpolation-filters="sRGB"><feFlood flood-opacity="0" result="BackgroundImageFix"/><feGaussianBlur in="BackgroundImage" stdDeviation="5"/><feComposite in2="SourceAlpha" operator="in" result="effect1_backgroundBlur"/><feBlend in="SourceGraphic" in2="effect1_backgroundBlur" result="shape"/><feColorMatrix in="SourceAlpha" values="0 0 0 0 0 0 0 0 0 0 0 0 0 0 0 0 0 0 127 0" result="hardAlpha"/><feOffset/><feGaussianBlur stdDeviation="5"/><feComposite in2="hardAlpha" operator="arithmetic" k2="-1" k3="1"/><feColorMatrix values="0 0 0 0 1 0 0 0 0 1 0 0 0 0 1 0 0 0 0.2 0"/><feBlend in2="shape" result="effect2_innerShadow"/></filter></defs></svg>