<svg width="230" height="129" fill="none" xmlns="http://www.w3.org/2000/svg"><g clip-path="url(#clip0)"><path d="M0 9a9 9 0 019-9h223a9 9 0 019 9v126H0V9z" fill="#DB538C"/><path fill-rule="evenodd" clip-rule="evenodd" d="M29.483 45.784c17.89-5.552 33.51-23.445 51.73-18.227 18.536 5.309 33.636 24.308 38.243 43.994 4.325 18.481-16.099 33.549-15.662 52.487.551 23.882 27.651 46.001 18.433 67.57-8.701 20.36-36.562 28.406-57.592 24.06-20.198-4.175-24.493-35.856-43.306-44.915-18.964-9.131-47.21 12.142-60.371-5.007-12.4-16.157 7.377-38.648 11.536-58.625 3.513-16.873-.463-36.968 10.915-49.214 11.295-12.156 30.52-7.297 46.074-12.123z" fill="#BD67D5"/><path fill-rule="evenodd" clip-rule="evenodd" d="M270.975 40.908c11.899 12.427 25.129 25.347 25.113 44.43-.016 18.784-11.572 38.549-25.197 54.981-11.957 14.421-29.214 21.121-45.282 30.021-15.407 8.534-30.46 20.211-46.378 20.748-16.507.557-32.302-5.478-40.623-17.813-7.876-11.674.229-30.022-1.73-44.965-2.235-17.054-21.169-31.58-10.507-48.375 10.796-17.005 36.582-8.114 53.429-19.233 18.872-12.456 26.763-42.832 47.394-47.31 19.945-4.33 31.673 14.872 43.781 27.516z" fill="#F6B028"/><g filter="url(#filter0_bi)"><path fill-rule="evenodd" clip-rule="evenodd" d="M164.143 46.611c11.567 12.405 32.905 19.976 33.244 36.868.331 16.505-20.416 23.859-31.792 35.498-10.68 10.928-12.331 7.277-27.595 8.523-15.358 1.254-29.334 3.673-43.522-2.716-14.326-6.45-33.622-.653-44.109-12.485-10.768-12.149-11.636-30.938-8.344-46.696 3.106-14.867 15.064-25.18 25.6-35.91 9.987-10.17 19.527-22.818 33.706-24.487 13.87-1.632 26.214 8.255 38.029 16.043 10.087 6.65 16.518 16.499 24.783 25.362z" fill="#fff" fill-opacity=".3"/></g><path d="M59.866 11.583c0 1.496-.246 2.604-.738 3.323-.489.718-1.242 1.078-2.262 1.078-.988 0-1.734-.371-2.238-1.114-.5-.742-.75-1.837-.75-3.287 0-1.511.244-2.625.732-3.34.488-.718 1.24-1.078 2.256-1.078.988 0 1.734.375 2.238 1.125.508.75.762 1.848.762 3.293zm-4.19 0c0 1.051.09 1.805.27 2.262.184.453.49.68.92.68.422 0 .727-.23.914-.692.188-.46.281-1.21.281-2.25 0-1.05-.095-1.804-.287-2.261-.187-.461-.49-.692-.908-.692-.426 0-.73.23-.914.692-.184.457-.276 1.21-.276 2.261zm9.58 4.284h-1.81V10.91l.018-.815.029-.89c-.3.3-.51.498-.627.591l-.984.791-.873-1.09 2.76-2.197h1.488v8.567zm8.32-4.284c0 1.496-.245 2.604-.737 3.323-.489.718-1.243 1.078-2.262 1.078-.988 0-1.734-.371-2.238-1.114-.5-.742-.75-1.837-.75-3.287 0-1.511.244-2.625.732-3.34.488-.718 1.24-1.078 2.256-1.078.988 0 1.734.375 2.238 1.125.508.75.762 1.848.762 3.293zm-4.188 0c0 1.051.09 1.805.269 2.262.184.453.49.68.92.68.422 0 .727-.23.914-.692.188-.46.281-1.21.281-2.25 0-1.05-.096-1.804-.287-2.261-.187-.461-.49-.692-.908-.692-.426 0-.73.23-.914.692-.184.457-.275 1.21-.275 2.261zm9.58 4.284h-1.811V10.91l.018-.815.029-.89c-.3.3-.51.498-.627.591l-.984.791-.874-1.09L77.48 7.3h1.489v8.567zm8.32-4.284c0 1.496-.246 2.604-.738 3.323-.489.718-1.243 1.078-2.262 1.078-.988 0-1.734-.371-2.238-1.114-.5-.742-.75-1.837-.75-3.287 0-1.511.244-2.625.732-3.34.488-.718 1.24-1.078 2.256-1.078.988 0 1.734.375 2.238 1.125.508.75.762 1.848.762 3.293zm-4.19 0c0 1.051.09 1.805.27 2.262.184.453.49.68.92.68.422 0 .726-.23.914-.692.187-.46.281-1.21.281-2.25 0-1.05-.096-1.804-.287-2.261-.188-.461-.49-.692-.908-.692-.426 0-.73.23-.914.692-.184.457-.276 1.21-.276 2.261zm11.045 0c0 1.496-.246 2.604-.738 3.323-.488.718-1.242 1.078-2.262 1.078-.988 0-1.734-.371-2.238-1.114-.5-.742-.75-1.837-.75-3.287 0-1.511.244-2.625.733-3.34.488-.718 1.24-1.078 2.255-1.078.989 0 1.735.375 2.239 1.125.507.75.761 1.848.761 3.293zm-4.19 0c0 1.051.09 1.805.27 2.262.184.453.49.68.92.68.422 0 .727-.23.914-.692.188-.46.282-1.21.282-2.25 0-1.05-.096-1.804-.287-2.261-.188-.461-.49-.692-.909-.692-.425 0-.73.23-.914.692-.183.457-.275 1.21-.275 2.261zm11.046 0c0 1.496-.246 2.604-.739 3.323-.488.718-1.242 1.078-2.261 1.078-.989 0-1.735-.371-2.239-1.114-.5-.742-.75-1.837-.75-3.287 0-1.511.245-2.625.733-3.34.488-.718 1.24-1.078 2.256-1.078.988 0 1.734.375 2.238 1.125.508.75.762 1.848.762 3.293zm-4.19 0c0 1.051.09 1.805.27 2.262.184.453.49.68.92.68.422 0 .726-.23.914-.692.187-.46.281-1.21.281-2.25 0-1.05-.096-1.804-.287-2.261-.188-.461-.49-.692-.908-.692-.426 0-.73.23-.914.692-.184.457-.276 1.21-.276 2.261zm9.58 4.284h-1.81V10.91l.017-.815.03-.89c-.301.3-.51.498-.627.591l-.985.791-.873-1.09 2.76-2.197h1.488v8.567zm8.321-4.284c0 1.496-.246 2.604-.739 3.323-.488.718-1.242 1.078-2.261 1.078-.989 0-1.735-.371-2.239-1.114-.5-.742-.75-1.837-.75-3.287 0-1.511.245-2.625.733-3.34.488-.718 1.24-1.078 2.256-1.078.988 0 1.734.375 2.238 1.125.508.75.762 1.848.762 3.293zm-4.19 0c0 1.051.09 1.805.27 2.262.183.453.49.68.92.68.422 0 .726-.23.914-.692.187-.46.281-1.21.281-2.25 0-1.05-.096-1.804-.287-2.261-.188-.461-.49-.692-.908-.692-.426 0-.731.23-.914.692-.184.457-.276 1.21-.276 2.261zm9.58 4.284h-1.81V10.91l.017-.815.03-.89c-.301.3-.51.498-.627.591l-.985.791-.873-1.09 2.76-2.197h1.488v8.567zm8.321-4.284c0 1.496-.246 2.604-.739 3.323-.488.718-1.242 1.078-2.261 1.078-.989 0-1.735-.371-2.239-1.114-.5-.742-.75-1.837-.75-3.287 0-1.511.245-2.625.733-3.34.488-.718 1.24-1.078 2.256-1.078.988 0 1.734.375 2.238 1.125.508.75.762 1.848.762 3.293zm-4.19 0c0 1.051.09 1.805.27 2.262.183.453.49.68.92.68.422 0 .726-.23.914-.692.187-.46.281-1.21.281-2.25 0-1.05-.096-1.804-.287-2.261-.188-.461-.49-.692-.908-.692-.426 0-.731.23-.914.692-.184.457-.276 1.21-.276 2.261zm11.045 0c0 1.496-.246 2.604-.738 3.323-.488.718-1.242 1.078-2.262 1.078-.988 0-1.734-.371-2.238-1.114-.5-.742-.75-1.837-.75-3.287 0-1.511.244-2.625.732-3.34.489-.718 1.24-1.078 2.256-1.078.988 0 1.734.375 2.238 1.125.508.75.762 1.848.762 3.293zm-4.189 0c0 1.051.09 1.805.269 2.262.184.453.49.68.92.68.422 0 .727-.23.914-.692.188-.46.281-1.21.281-2.25 0-1.05-.095-1.804-.287-2.261-.187-.461-.49-.692-.908-.692-.426 0-.73.23-.914.692-.184.457-.275 1.21-.275 2.261zm9.58 4.284h-1.811V10.91l.018-.815.029-.89c-.301.3-.51.498-.627.591l-.984.791-.873-1.09 2.759-2.197h1.489v8.567zm8.32-4.284c0 1.496-.246 2.604-.738 3.323-.489.718-1.242 1.078-2.262 1.078-.988 0-1.734-.371-2.238-1.114-.5-.742-.75-1.837-.75-3.287 0-1.511.244-2.625.732-3.34.488-.718 1.24-1.078 2.256-1.078.988 0 1.734.375 2.238 1.125.508.75.762 1.848.762 3.293zm-4.189 0c0 1.051.089 1.805.269 2.262.184.453.49.68.92.68.422 0 .727-.23.914-.692.188-.46.281-1.21.281-2.25 0-1.05-.095-1.804-.287-2.261-.187-.461-.49-.692-.908-.692-.426 0-.73.23-.914.692-.184.457-.275 1.21-.275 2.261zm11.045 0c0 1.496-.247 2.604-.739 3.323-.488.718-1.242 1.078-2.261 1.078-.989 0-1.735-.371-2.239-1.114-.5-.742-.75-1.837-.75-3.287 0-1.511.244-2.625.733-3.34.488-.718 1.24-1.078 2.256-1.078.988 0 1.734.375 2.238 1.125.508.75.762 1.848.762 3.293zm-4.19 0c0 1.051.09 1.805.27 2.262.183.453.49.68.92.68.421 0 .726-.23.914-.692.187-.46.281-1.21.281-2.25 0-1.05-.096-1.804-.287-2.261-.188-.461-.491-.692-.908-.692-.426 0-.731.23-.915.692-.183.457-.275 1.21-.275 2.261zm9.58 4.284h-1.81V10.91l.017-.815.029-.89c-.3.3-.509.498-.626.591l-.985.791-.873-1.09 2.76-2.197h1.488v8.567zm6.856 0h-1.811V10.91l.018-.815.029-.89c-.301.3-.51.498-.627.591l-.984.791-.873-1.09L166.6 7.3h1.489v8.567zm8.32-4.284c0 1.496-.246 2.604-.738 3.323-.489.718-1.243 1.078-2.262 1.078-.988 0-1.734-.371-2.238-1.114-.5-.742-.75-1.837-.75-3.287 0-1.511.244-2.625.732-3.34.488-.718 1.24-1.078 2.256-1.078.988 0 1.734.375 2.238 1.125.508.75.762 1.848.762 3.293zm-4.19 0c0 1.051.09 1.805.27 2.262.184.453.49.68.92.68.422 0 .726-.23.914-.692.187-.46.281-1.21.281-2.25 0-1.05-.095-1.804-.287-2.261-.187-.461-.49-.692-.908-.692-.426 0-.731.23-.914.692-.184.457-.276 1.21-.276 2.261zm-112.353 16c0 1.497-.246 2.604-.738 3.323-.489.719-1.242 1.078-2.262 1.078-.988 0-1.734-.371-2.238-1.114-.5-.742-.75-1.837-.75-3.287 0-1.511.244-2.625.732-3.34.488-.718 1.24-1.077 2.256-1.077.988 0 1.734.375 2.238 1.125.508.75.762 1.847.762 3.292zm-4.19 0c0 1.051.09 1.805.27 2.262.184.453.49.68.92.68.422 0 .727-.23.914-.692.188-.46.281-1.21.281-2.25 0-1.05-.095-1.804-.287-2.261-.187-.461-.49-.692-.908-.692-.426 0-.73.23-.914.692-.184.457-.276 1.21-.276 2.261zm9.58 4.284h-1.81V26.91l.018-.815.029-.89c-.3.3-.51.498-.627.591l-.984.791-.873-1.09 2.76-2.197h1.488v8.567zm8.32-4.284c0 1.497-.245 2.604-.737 3.323-.489.719-1.243 1.078-2.262 1.078-.988 0-1.734-.371-2.238-1.114-.5-.742-.75-1.837-.75-3.287 0-1.511.244-2.625.732-3.34.488-.718 1.24-1.077 2.256-1.077.988 0 1.734.375 2.238 1.125.508.75.762 1.847.762 3.292zm-4.188 0c0 1.051.09 1.805.269 2.262.184.453.49.68.92.68.422 0 .727-.23.914-.692.188-.46.281-1.21.281-2.25 0-1.05-.096-1.804-.287-2.261-.187-.461-.49-.692-.908-.692-.426 0-.73.23-.914.692-.184.457-.275 1.21-.275 2.261zm9.58 4.284h-1.811V26.91l.018-.815.029-.89c-.3.3-.51.498-.627.591l-.984.791-.874-1.09 2.76-2.197h1.489v8.567zm8.32-4.284c0 1.497-.246 2.604-.738 3.323-.489.719-1.243 1.078-2.262 1.078-.988 0-1.734-.371-2.238-1.114-.5-.742-.75-1.837-.75-3.287 0-1.511.244-2.625.732-3.34.488-.718 1.24-1.077 2.256-1.077.988 0 1.734.375 2.238 1.125.508.75.762 1.847.762 3.292zm-4.19 0c0 1.051.09 1.805.27 2.262.184.453.49.68.92.68.422 0 .726-.23.914-.692.187-.46.281-1.21.281-2.25 0-1.05-.096-1.804-.287-2.261-.188-.461-.49-.692-.908-.692-.426 0-.73.23-.914.692-.184.457-.276 1.21-.276 2.261zm9.58 4.284h-1.81V26.91l.017-.815.03-.89c-.301.3-.51.498-.627.591l-.984.791-.874-1.09 2.76-2.197h1.489v8.567zM101 27.583c0 1.497-.246 2.604-.739 3.323-.488.719-1.242 1.078-2.261 1.078-.989 0-1.735-.371-2.239-1.114-.5-.742-.75-1.837-.75-3.287 0-1.511.245-2.625.733-3.34.488-.718 1.24-1.077 2.256-1.077.988 0 1.734.375 2.238 1.125.508.75.762 1.847.762 3.292zm-4.19 0c0 1.051.09 1.805.27 2.262.184.453.49.68.92.68.422 0 .726-.23.914-.692.187-.46.281-1.21.281-2.25 0-1.05-.096-1.804-.287-2.261-.188-.461-.49-.692-.908-.692-.426 0-.73.23-.914.692-.184.457-.276 1.21-.276 2.261zm11.045 0c0 1.497-.246 2.604-.738 3.323-.488.719-1.242 1.078-2.262 1.078-.988 0-1.734-.371-2.238-1.114-.5-.742-.75-1.837-.75-3.287 0-1.511.244-2.625.732-3.34.489-.718 1.241-1.077 2.256-1.077.989 0 1.735.375 2.239 1.125.507.75.761 1.847.761 3.292zm-4.189 0c0 1.051.09 1.805.269 2.262.184.453.491.68.92.68.422 0 .727-.23.914-.692.188-.46.282-1.21.282-2.25 0-1.05-.096-1.804-.288-2.261-.187-.461-.49-.692-.908-.692-.426 0-.73.23-.914.692-.183.457-.275 1.21-.275 2.261zm9.58 4.284h-1.811V26.91l.018-.815.029-.89c-.301.3-.51.498-.627.591l-.984.791-.873-1.09 2.76-2.197h1.488v8.567zm8.32-4.284c0 1.497-.246 2.604-.738 3.323-.488.719-1.242 1.078-2.262 1.078-.988 0-1.734-.371-2.238-1.114-.5-.742-.75-1.837-.75-3.287 0-1.511.244-2.625.732-3.34.489-.718 1.241-1.077 2.256-1.077.988 0 1.735.375 2.238 1.125.508.75.762 1.847.762 3.292zm-4.189 0c0 1.051.09 1.805.269 2.262.184.453.49.68.92.68.422 0 .727-.23.914-.692.188-.46.281-1.21.281-2.25 0-1.05-.095-1.804-.287-2.261-.187-.461-.49-.692-.908-.692-.426 0-.73.23-.914.692-.183.457-.275 1.21-.275 2.261zm9.58 4.284h-1.811V26.91l.018-.815.029-.89c-.301.3-.51.498-.627.591l-.984.791-.873-1.09 2.76-2.197h1.488v8.567zm8.32-4.284c0 1.497-.246 2.604-.738 3.323-.488.719-1.242 1.078-2.262 1.078-.988 0-1.734-.371-2.238-1.114-.5-.742-.75-1.837-.75-3.287 0-1.511.244-2.625.732-3.34.489-.718 1.24-1.077 2.256-1.077.988 0 1.734.375 2.238 1.125.508.75.762 1.847.762 3.292zm-4.189 0c0 1.051.09 1.805.269 2.262.184.453.49.68.92.68.422 0 .727-.23.914-.692.188-.46.281-1.21.281-2.25 0-1.05-.095-1.804-.287-2.261-.187-.461-.49-.692-.908-.692-.426 0-.73.23-.914.692-.184.457-.275 1.21-.275 2.261zm11.045 0c0 1.497-.247 2.604-.739 3.323-.488.719-1.242 1.078-2.261 1.078-.989 0-1.735-.371-2.239-1.114-.5-.742-.75-1.837-.75-3.287 0-1.511.244-2.625.733-3.34.488-.718 1.24-1.077 2.256-1.077.988 0 1.734.375 2.238 1.125.508.75.762 1.847.762 3.292zm-4.19 0c0 1.051.09 1.805.27 2.262.183.453.49.68.92.68.421 0 .726-.23.914-.692.187-.46.281-1.21.281-2.25 0-1.05-.096-1.804-.287-2.261-.188-.461-.49-.692-.908-.692-.426 0-.731.23-.914.692-.184.457-.276 1.21-.276 2.261zm11.045 0c0 1.497-.246 2.604-.738 3.323-.489.719-1.242 1.078-2.262 1.078-.988 0-1.734-.371-2.238-1.114-.5-.742-.75-1.837-.75-3.287 0-1.511.244-2.625.732-3.34.488-.718 1.24-1.077 2.256-1.077.988 0 1.734.375 2.238 1.125.508.75.762 1.847.762 3.292zm-4.189 0c0 1.051.089 1.805.269 2.262.184.453.49.68.92.68.422 0 .727-.23.914-.692.188-.46.281-1.21.281-2.25 0-1.05-.095-1.804-.287-2.261-.187-.461-.49-.692-.908-.692-.426 0-.73.23-.914.692-.184.457-.275 1.21-.275 2.261zm11.045 0c0 1.497-.247 2.604-.739 3.323-.488.719-1.242 1.078-2.261 1.078-.989 0-1.735-.371-2.239-1.114-.5-.742-.75-1.837-.75-3.287 0-1.511.244-2.625.733-3.34.488-.718 1.24-1.077 2.256-1.077.988 0 1.734.375 2.238 1.125.508.75.762 1.847.762 3.292zm-4.19 0c0 1.051.09 1.805.27 2.262.183.453.49.68.92.68.421 0 .726-.23.914-.692.187-.46.281-1.21.281-2.25 0-1.05-.096-1.804-.287-2.261-.188-.461-.491-.692-.908-.692-.426 0-.731.23-.915.692-.183.457-.275 1.21-.275 2.261zm11.045 0c0 1.497-.246 2.604-.738 3.323-.489.719-1.242 1.078-2.262 1.078-.988 0-1.734-.371-2.238-1.114-.5-.742-.75-1.837-.75-3.287 0-1.511.244-2.625.732-3.34.488-.718 1.24-1.077 2.256-1.077.988 0 1.734.375 2.238 1.125.508.75.762 1.847.762 3.292zm-4.189 0c0 1.051.089 1.805.269 2.262.184.453.49.68.92.68.422 0 .727-.23.914-.692.188-.46.281-1.21.281-2.25 0-1.05-.095-1.804-.287-2.261-.187-.461-.49-.692-.908-.692-.426 0-.73.23-.914.692-.184.457-.275 1.21-.275 2.261zm9.58 4.284h-1.811V26.91l.018-.815.029-.89c-.301.3-.51.498-.627.591l-.984.791-.873-1.09L166.6 23.3h1.489v8.567zm8.32-4.284c0 1.497-.246 2.604-.738 3.323-.489.719-1.243 1.078-2.262 1.078-.988 0-1.734-.371-2.238-1.114-.5-.742-.75-1.837-.75-3.287 0-1.511.244-2.625.732-3.34.488-.718 1.24-1.077 2.256-1.077.988 0 1.734.375 2.238 1.125.508.75.762 1.847.762 3.292zm-4.19 0c0 1.051.09 1.805.27 2.262.184.453.49.68.92.68.422 0 .726-.23.914-.692.187-.46.281-1.21.281-2.25 0-1.05-.095-1.804-.287-2.261-.187-.461-.49-.692-.908-.692-.426 0-.731.23-.914.692-.184.457-.276 1.21-.276 2.261zM58.401 47.867h-1.81V42.91l.017-.815.03-.89c-.301.3-.51.498-.627.591l-.985.791-.873-1.09 2.76-2.197H58.4v8.567zm8.32-4.284c0 1.497-.246 2.604-.738 3.323-.488.718-1.242 1.078-2.262 1.078-.988 0-1.734-.371-2.238-1.114-.5-.742-.75-1.837-.75-3.287 0-1.511.244-2.625.733-3.34.488-.718 1.24-1.078 2.255-1.078.989 0 1.735.376 2.239 1.126.508.75.761 1.847.761 3.292zm-4.189 0c0 1.051.09 1.805.27 2.262.183.453.49.68.92.68.421 0 .726-.23.913-.692.188-.46.282-1.21.282-2.25 0-1.05-.096-1.804-.287-2.261-.188-.461-.49-.692-.909-.692-.425 0-.73.23-.914.692-.183.457-.275 1.21-.275 2.261zm11.045 0c0 1.497-.246 2.604-.738 3.323-.489.718-1.243 1.078-2.262 1.078-.988 0-1.734-.371-2.238-1.114-.5-.742-.75-1.837-.75-3.287 0-1.511.244-2.625.732-3.34.488-.718 1.24-1.078 2.256-1.078.988 0 1.734.376 2.238 1.126.508.75.762 1.847.762 3.292zm-4.19 0c0 1.051.09 1.805.27 2.262.184.453.49.68.92.68.422 0 .727-.23.914-.692.188-.46.281-1.21.281-2.25 0-1.05-.096-1.804-.287-2.261-.187-.461-.49-.692-.908-.692-.426 0-.73.23-.914.692-.184.457-.275 1.21-.275 2.261zm9.58 4.284h-1.81V42.91l.018-.815.029-.89c-.3.3-.51.498-.627.591l-.984.791-.874-1.09 2.76-2.197h1.489v8.567zm8.32-4.284c0 1.497-.245 2.604-.737 3.323-.489.718-1.243 1.078-2.262 1.078-.988 0-1.734-.371-2.238-1.114-.5-.742-.75-1.837-.75-3.287 0-1.511.244-2.625.732-3.34.488-.718 1.24-1.078 2.256-1.078.988 0 1.734.376 2.238 1.126.508.75.762 1.847.762 3.292zm-4.189 0c0 1.051.09 1.805.27 2.262.184.453.49.68.92.68.422 0 .726-.23.914-.692.187-.46.281-1.21.281-2.25 0-1.05-.096-1.804-.287-2.261-.188-.461-.49-.692-.908-.692-.426 0-.73.23-.914.692-.184.457-.276 1.21-.276 2.261zm11.045 0c0 1.497-.246 2.604-.738 3.323-.488.718-1.242 1.078-2.262 1.078-.988 0-1.734-.371-2.238-1.114-.5-.742-.75-1.837-.75-3.287 0-1.511.244-2.625.733-3.34.488-.718 1.24-1.078 2.255-1.078.989 0 1.735.376 2.239 1.126.507.75.761 1.847.761 3.292zm-4.19 0c0 1.051.09 1.805.27 2.262.184.453.49.68.92.68.422 0 .727-.23.914-.692.188-.46.282-1.21.282-2.25 0-1.05-.096-1.804-.287-2.261-.188-.461-.49-.692-.909-.692-.425 0-.73.23-.914.692-.183.457-.275 1.21-.275 2.261zm9.58 4.284h-1.81V42.91l.018-.815.03-.89c-.302.3-.51.498-.628.591l-.984.791-.873-1.09 2.76-2.197h1.488v8.567zm8.321-4.284c0 1.497-.246 2.604-.738 3.323-.488.718-1.242 1.078-2.262 1.078-.988 0-1.734-.371-2.238-1.114-.5-.742-.75-1.837-.75-3.287 0-1.511.244-2.625.732-3.34.489-.718 1.241-1.078 2.256-1.078.989 0 1.735.376 2.239 1.126.507.75.761 1.847.761 3.292zm-4.189 0c0 1.051.09 1.805.269 2.262.184.453.491.68.92.68.422 0 .727-.23.914-.692.188-.46.282-1.21.282-2.25 0-1.05-.096-1.804-.288-2.261-.187-.461-.49-.692-.908-.692-.426 0-.73.23-.914.692-.183.457-.275 1.21-.275 2.261zm11.045 0c0 1.497-.246 2.604-.739 3.323-.488.718-1.242 1.078-2.261 1.078-.989 0-1.735-.371-2.239-1.114-.5-.742-.75-1.837-.75-3.287 0-1.511.245-2.625.733-3.34.488-.718 1.24-1.078 2.256-1.078.988 0 1.734.376 2.238 1.126.508.75.762 1.847.762 3.292zm-4.19 0c0 1.051.09 1.805.27 2.262.183.453.49.68.92.68.422 0 .726-.23.914-.692.187-.46.281-1.21.281-2.25 0-1.05-.096-1.804-.287-2.261-.188-.461-.49-.692-.908-.692-.426 0-.731.23-.914.692-.184.457-.276 1.21-.276 2.261zm11.045 0c0 1.497-.246 2.604-.738 3.323-.488.718-1.242 1.078-2.262 1.078-.988 0-1.734-.371-2.238-1.114-.5-.742-.75-1.837-.75-3.287 0-1.511.244-2.625.732-3.34.489-.718 1.241-1.078 2.256-1.078.988 0 1.735.376 2.238 1.126.508.75.762 1.847.762 3.292zm-4.189 0c0 1.051.09 1.805.269 2.262.184.453.49.68.92.68.422 0 .727-.23.914-.692.188-.46.281-1.21.281-2.25 0-1.05-.095-1.804-.287-2.261-.187-.461-.49-.692-.908-.692-.426 0-.73.23-.914.692-.183.457-.275 1.21-.275 2.261zm11.045 0c0 1.497-.246 2.604-.739 3.323-.488.718-1.242 1.078-2.261 1.078-.989 0-1.735-.371-2.239-1.114-.5-.742-.75-1.837-.75-3.287 0-1.511.245-2.625.733-3.34.488-.718 1.24-1.078 2.256-1.078.988 0 1.734.376 2.238 1.126.508.75.762 1.847.762 3.292zm-4.19 0c0 1.051.09 1.805.27 2.262.183.453.49.68.92.68.422 0 .726-.23.914-.692.187-.46.281-1.21.281-2.25 0-1.05-.096-1.804-.287-2.261-.188-.461-.49-.692-.908-.692-.426 0-.731.23-.914.692-.184.457-.276 1.21-.276 2.261zm9.58 4.284h-1.81V42.91l.017-.815.03-.89c-.301.3-.51.498-.627.591l-.985.791-.873-1.09 2.76-2.197h1.488v8.567zm8.321-4.284c0 1.497-.247 2.604-.739 3.323-.488.718-1.242 1.078-2.261 1.078-.989 0-1.735-.371-2.239-1.114-.5-.742-.75-1.837-.75-3.287 0-1.511.244-2.625.733-3.34.488-.718 1.24-1.078 2.256-1.078.988 0 1.734.376 2.238 1.126.508.75.762 1.847.762 3.292zm-4.19 0c0 1.051.09 1.805.27 2.262.183.453.49.68.92.68.421 0 .726-.23.914-.692.187-.46.281-1.21.281-2.25 0-1.05-.096-1.804-.287-2.261-.188-.461-.49-.692-.908-.692-.426 0-.731.23-.914.692-.184.457-.276 1.21-.276 2.261zm9.58 4.284h-1.81V42.91l.017-.815.03-.89c-.301.3-.51.498-.627.591l-.985.791-.873-1.09 2.76-2.197h1.488v8.567zm8.321-4.284c0 1.497-.247 2.604-.739 3.323-.488.718-1.242 1.078-2.261 1.078-.989 0-1.735-.371-2.239-1.114-.5-.742-.75-1.837-.75-3.287 0-1.511.244-2.625.733-3.34.488-.718 1.24-1.078 2.256-1.078.988 0 1.734.376 2.238 1.126.508.75.762 1.847.762 3.292zm-4.19 0c0 1.051.09 1.805.27 2.262.183.453.49.68.92.68.421 0 .726-.23.914-.692.187-.46.281-1.21.281-2.25 0-1.05-.096-1.804-.287-2.261-.188-.461-.491-.692-.908-.692-.426 0-.731.23-.915.692-.183.457-.275 1.21-.275 2.261zm11.045 0c0 1.497-.246 2.604-.738 3.323-.489.718-1.242 1.078-2.262 1.078-.988 0-1.734-.371-2.238-1.114-.5-.742-.75-1.837-.75-3.287 0-1.511.244-2.625.732-3.34.488-.718 1.24-1.078 2.256-1.078.988 0 1.734.376 2.238 1.126.508.75.762 1.847.762 3.292zm-4.189 0c0 1.051.089 1.805.269 2.262.184.453.49.68.92.68.422 0 .727-.23.914-.692.188-.46.281-1.21.281-2.25 0-1.05-.095-1.804-.287-2.261-.187-.461-.49-.692-.908-.692-.426 0-.73.23-.914.692-.184.457-.275 1.21-.275 2.261zm11.044 0c0 1.497-.246 2.604-.738 3.323-.488.718-1.242 1.078-2.262 1.078-.988 0-1.734-.371-2.238-1.114-.5-.742-.75-1.837-.75-3.287 0-1.511.244-2.625.733-3.34.488-.718 1.24-1.078 2.255-1.078.989 0 1.735.376 2.239 1.126.508.75.761 1.847.761 3.292zm-4.189 0c0 1.051.09 1.805.27 2.262.183.453.49.68.919.68.422 0 .727-.23.915-.692.187-.46.281-1.21.281-2.25 0-1.05-.096-1.804-.287-2.261-.188-.461-.491-.692-.909-.692-.425 0-.73.23-.914.692-.183.457-.275 1.21-.275 2.261zm9.58 4.284h-1.81V42.91l.017-.815.029-.89c-.3.3-.509.498-.627.591l-.984.791-.873-1.09 2.76-2.197h1.488v8.567zM59.866 59.583c0 1.497-.246 2.604-.738 3.323-.489.718-1.242 1.078-2.262 1.078-.988 0-1.734-.371-2.238-1.114-.5-.742-.75-1.837-.75-3.287 0-1.511.244-2.625.732-3.34.488-.718 1.24-1.078 2.256-1.078.988 0 1.734.376 2.238 1.126.508.75.762 1.847.762 3.292zm-4.19 0c0 1.051.09 1.805.27 2.262.184.453.49.68.92.68.422 0 .727-.23.914-.692.188-.46.281-1.21.281-2.25 0-1.05-.095-1.804-.287-2.261-.187-.461-.49-.692-.908-.692-.426 0-.73.23-.914.692-.184.457-.276 1.21-.276 2.261zm9.58 4.284h-1.81V58.91l.018-.815.029-.89c-.3.3-.51.498-.627.591l-.984.791-.873-1.09 2.76-2.197h1.488v8.567zm8.32-4.284c0 1.497-.245 2.604-.737 3.323-.489.718-1.243 1.078-2.262 1.078-.988 0-1.734-.371-2.238-1.114-.5-.742-.75-1.837-.75-3.287 0-1.511.244-2.625.732-3.34.488-.718 1.24-1.078 2.256-1.078.988 0 1.734.376 2.238 1.126.508.75.762 1.847.762 3.292zm-4.188 0c0 1.051.09 1.805.269 2.262.184.453.49.68.92.68.422 0 .727-.23.914-.692.188-.46.281-1.21.281-2.25 0-1.05-.096-1.804-.287-2.261-.187-.461-.49-.692-.908-.692-.426 0-.73.23-.914.692-.184.457-.275 1.21-.275 2.261zm9.58 4.284h-1.811V58.91l.018-.815.029-.89c-.3.3-.51.498-.627.591l-.984.791-.874-1.09 2.76-2.197h1.489v8.567zm8.32-4.284c0 1.497-.246 2.604-.738 3.323-.489.718-1.243 1.078-2.262 1.078-.988 0-1.734-.371-2.238-1.114-.5-.742-.75-1.837-.75-3.287 0-1.511.244-2.625.732-3.34.488-.718 1.24-1.078 2.256-1.078.988 0 1.734.376 2.238 1.126.508.75.762 1.847.762 3.292zm-4.19 0c0 1.051.09 1.805.27 2.262.184.453.49.68.92.68.422 0 .726-.23.914-.692.187-.46.281-1.21.281-2.25 0-1.05-.096-1.804-.287-2.261-.188-.461-.49-.692-.908-.692-.426 0-.73.23-.914.692-.184.457-.276 1.21-.276 2.261zm11.045 0c0 1.497-.246 2.604-.738 3.323-.488.718-1.242 1.078-2.262 1.078-.988 0-1.734-.371-2.238-1.114-.5-.742-.75-1.837-.75-3.287 0-1.511.244-2.625.733-3.34.488-.718 1.24-1.078 2.255-1.078.989 0 1.735.376 2.239 1.126.507.75.761 1.847.761 3.292zm-4.19 0c0 1.051.09 1.805.27 2.262.184.453.49.68.92.68.422 0 .727-.23.914-.692.188-.46.282-1.21.282-2.25 0-1.05-.096-1.804-.287-2.261-.188-.461-.49-.692-.909-.692-.425 0-.73.23-.914.692-.183.457-.275 1.21-.275 2.261zm9.58 4.284h-1.81V58.91l.018-.815.03-.89c-.302.3-.51.498-.628.591l-.984.791-.873-1.09 2.76-2.197h1.488v8.567zm8.321-4.284c0 1.497-.246 2.604-.738 3.323-.488.718-1.242 1.078-2.262 1.078-.988 0-1.734-.371-2.238-1.114-.5-.742-.75-1.837-.75-3.287 0-1.511.244-2.625.732-3.34.489-.718 1.241-1.078 2.256-1.078.989 0 1.735.376 2.239 1.126.507.75.761 1.847.761 3.292zm-4.189 0c0 1.051.09 1.805.269 2.262.184.453.491.68.92.68.422 0 .727-.23.914-.692.188-.46.282-1.21.282-2.25 0-1.05-.096-1.804-.288-2.261-.187-.461-.49-.692-.908-.692-.426 0-.73.23-.914.692-.183.457-.275 1.21-.275 2.261zm9.58 4.284h-1.811V58.91l.018-.815.029-.89c-.301.3-.51.498-.627.591l-.984.791-.873-1.09 2.76-2.197h1.488v8.567zm8.32-4.284c0 1.497-.246 2.604-.738 3.323-.488.718-1.242 1.078-2.262 1.078-.988 0-1.734-.371-2.238-1.114-.5-.742-.75-1.837-.75-3.287 0-1.511.244-2.625.732-3.34.489-.718 1.241-1.078 2.256-1.078.988 0 1.735.376 2.238 1.126.508.75.762 1.847.762 3.292zm-4.189 0c0 1.051.09 1.805.269 2.262.184.453.49.68.92.68.422 0 .727-.23.914-.692.188-.46.281-1.21.281-2.25 0-1.05-.095-1.804-.287-2.261-.187-.461-.49-.692-.908-.692-.426 0-.73.23-.914.692-.183.457-.275 1.21-.275 2.261zm9.58 4.284h-1.811V58.91l.018-.815.029-.89c-.301.3-.51.498-.627.591l-.984.791-.873-1.09 2.76-2.197h1.488v8.567zm8.32-4.284c0 1.497-.246 2.604-.738 3.323-.488.718-1.242 1.078-2.262 1.078-.988 0-1.734-.371-2.238-1.114-.5-.742-.75-1.837-.75-3.287 0-1.511.244-2.625.732-3.34.489-.718 1.24-1.078 2.256-1.078.988 0 1.734.376 2.238 1.126.508.75.762 1.847.762 3.292zm-4.189 0c0 1.051.09 1.805.269 2.262.184.453.49.68.92.68.422 0 .727-.23.914-.692.188-.46.281-1.21.281-2.25 0-1.05-.095-1.804-.287-2.261-.187-.461-.49-.692-.908-.692-.426 0-.73.23-.914.692-.184.457-.275 1.21-.275 2.261zm11.045 0c0 1.497-.247 2.604-.739 3.323-.488.718-1.242 1.078-2.261 1.078-.989 0-1.735-.371-2.239-1.114-.5-.742-.75-1.837-.75-3.287 0-1.511.244-2.625.733-3.34.488-.718 1.24-1.078 2.256-1.078.988 0 1.734.376 2.238 1.126.508.75.762 1.847.762 3.292zm-4.19 0c0 1.051.09 1.805.27 2.262.183.453.49.68.92.68.421 0 .726-.23.914-.692.187-.46.281-1.21.281-2.25 0-1.05-.096-1.804-.287-2.261-.188-.461-.49-.692-.908-.692-.426 0-.731.23-.914.692-.184.457-.276 1.21-.276 2.261zm9.58 4.284h-1.81V58.91l.017-.815.03-.89c-.301.3-.51.498-.627.591l-.985.791-.873-1.09 2.76-2.197h1.488v8.567zm8.321-4.284c0 1.497-.247 2.604-.739 3.323-.488.718-1.242 1.078-2.261 1.078-.989 0-1.735-.371-2.239-1.114-.5-.742-.75-1.837-.75-3.287 0-1.511.244-2.625.733-3.34.488-.718 1.24-1.078 2.256-1.078.988 0 1.734.376 2.238 1.126.508.75.762 1.847.762 3.292zm-4.19 0c0 1.051.09 1.805.27 2.262.183.453.49.68.92.68.421 0 .726-.23.914-.692.187-.46.281-1.21.281-2.25 0-1.05-.096-1.804-.287-2.261-.188-.461-.491-.692-.908-.692-.426 0-.731.23-.915.692-.183.457-.275 1.21-.275 2.261zm9.58 4.284h-1.81V58.91l.017-.815.029-.89c-.3.3-.509.498-.626.591l-.985.791-.873-1.09 2.76-2.197h1.488v8.567zm8.32-4.284c0 1.497-.246 2.604-.738 3.323-.488.718-1.242 1.078-2.262 1.078-.988 0-1.734-.371-2.238-1.114-.5-.742-.75-1.837-.75-3.287 0-1.511.244-2.625.733-3.34.488-.718 1.24-1.078 2.255-1.078.989 0 1.735.376 2.239 1.126.508.75.761 1.847.761 3.292zm-4.189 0c0 1.051.09 1.805.27 2.262.183.453.49.68.919.68.422 0 .727-.23.915-.692.187-.46.281-1.21.281-2.25 0-1.05-.096-1.804-.287-2.261-.188-.461-.491-.692-.909-.692-.425 0-.73.23-.914.692-.183.457-.275 1.21-.275 2.261zm11.045 0c0 1.497-.246 2.604-.738 3.323-.489.718-1.243 1.078-2.262 1.078-.988 0-1.734-.371-2.238-1.114-.5-.742-.75-1.837-.75-3.287 0-1.511.244-2.625.732-3.34.488-.718 1.24-1.078 2.256-1.078.988 0 1.734.376 2.238 1.126.508.75.762 1.847.762 3.292zm-4.19 0c0 1.051.09 1.805.27 2.262.184.453.49.68.92.68.422 0 .726-.23.914-.692.187-.46.281-1.21.281-2.25 0-1.05-.095-1.804-.287-2.261-.187-.461-.49-.692-.908-.692-.426 0-.731.23-.914.692-.184.457-.276 1.21-.276 2.261zM58.401 79.867h-1.81V74.91l.017-.815.03-.89c-.301.3-.51.498-.627.591l-.985.791-.873-1.09 2.76-2.197H58.4v8.567zm6.856 0h-1.811V74.91l.018-.815.029-.89c-.3.3-.51.498-.627.591l-.984.791-.873-1.09 2.76-2.197h1.488v8.567zm8.32-4.284c0 1.496-.246 2.604-.738 3.323-.489.718-1.243 1.078-2.262 1.078-.988 0-1.734-.371-2.238-1.113-.5-.743-.75-1.838-.75-3.288 0-1.511.244-2.625.732-3.34.488-.718 1.24-1.078 2.256-1.078.988 0 1.734.375 2.238 1.125.508.75.762 1.848.762 3.293zm-4.19 0c0 1.051.09 1.805.27 2.262.184.453.49.68.92.68.422 0 .727-.23.914-.692.188-.46.281-1.21.281-2.25 0-1.05-.096-1.804-.287-2.261-.187-.461-.49-.692-.908-.692-.426 0-.73.23-.914.692-.184.457-.275 1.21-.275 2.261zm9.58 4.284h-1.81V74.91l.018-.815.029-.89c-.3.3-.51.498-.627.591l-.984.791-.874-1.09 2.76-2.197h1.489v8.567zm8.32-4.284c0 1.496-.245 2.604-.737 3.323-.489.718-1.243 1.078-2.262 1.078-.988 0-1.734-.371-2.238-1.113-.5-.743-.75-1.838-.75-3.288 0-1.511.244-2.625.732-3.34.488-.718 1.24-1.078 2.256-1.078.988 0 1.734.375 2.238 1.125.508.75.762 1.848.762 3.293zm-4.189 0c0 1.051.09 1.805.27 2.262.184.453.49.68.92.68.422 0 .726-.23.914-.692.187-.46.281-1.21.281-2.25 0-1.05-.096-1.804-.287-2.261-.188-.461-.49-.692-.908-.692-.426 0-.73.23-.914.692-.184.457-.276 1.21-.276 2.261zm9.58 4.284h-1.81V74.91l.017-.815.03-.89c-.301.3-.51.498-.627.591l-.984.791-.874-1.09 2.76-2.197h1.489v8.567zM101 75.583c0 1.496-.246 2.604-.739 3.323-.488.718-1.242 1.078-2.261 1.078-.989 0-1.735-.371-2.239-1.113-.5-.743-.75-1.838-.75-3.288 0-1.511.245-2.625.733-3.34.488-.718 1.24-1.078 2.256-1.078.988 0 1.734.375 2.238 1.125.508.75.762 1.848.762 3.293zm-4.19 0c0 1.051.09 1.805.27 2.262.184.453.49.68.92.68.422 0 .726-.23.914-.692.187-.46.281-1.21.281-2.25 0-1.05-.096-1.804-.287-2.261-.188-.461-.49-.692-.908-.692-.426 0-.73.23-.914.692-.184.457-.276 1.21-.276 2.261zm11.045 0c0 1.496-.246 2.604-.738 3.323-.488.718-1.242 1.078-2.262 1.078-.988 0-1.734-.371-2.238-1.113-.5-.743-.75-1.838-.75-3.288 0-1.511.244-2.625.732-3.34.489-.718 1.241-1.078 2.256-1.078.989 0 1.735.375 2.239 1.125.507.75.761 1.848.761 3.293zm-4.189 0c0 1.051.09 1.805.269 2.262.184.453.491.68.92.68.422 0 .727-.23.914-.692.188-.46.282-1.21.282-2.25 0-1.05-.096-1.804-.288-2.261-.187-.461-.49-.692-.908-.692-.426 0-.73.23-.914.692-.183.457-.275 1.21-.275 2.261zm9.58 4.284h-1.811V74.91l.018-.815.029-.89c-.301.3-.51.498-.627.591l-.984.791-.873-1.09 2.76-2.197h1.488v8.567zm6.855 0h-1.81V74.91l.017-.815.03-.89c-.301.3-.51.498-.627.591l-.985.791-.873-1.09 2.76-2.197h1.488v8.567zm6.856 0h-1.811V74.91l.018-.815.029-.89c-.301.3-.51.498-.627.591l-.984.791-.873-1.09 2.76-2.197h1.488v8.567zm6.855 0h-1.81V74.91l.017-.815.03-.89c-.301.3-.51.498-.627.591l-.985.791-.873-1.09 2.76-2.197h1.488v8.567zm8.321-4.284c0 1.496-.247 2.604-.739 3.323-.488.718-1.242 1.078-2.261 1.078-.989 0-1.735-.371-2.239-1.113-.5-.743-.75-1.838-.75-3.288 0-1.511.244-2.625.733-3.34.488-.718 1.24-1.078 2.256-1.078.988 0 1.734.375 2.238 1.125.508.75.762 1.848.762 3.293zm-4.19 0c0 1.051.09 1.805.27 2.262.183.453.49.68.92.68.421 0 .726-.23.914-.692.187-.46.281-1.21.281-2.25 0-1.05-.096-1.804-.287-2.261-.188-.461-.49-.692-.908-.692-.426 0-.731.23-.914.692-.184.457-.276 1.21-.276 2.261zm9.58 4.284h-1.81V74.91l.017-.815.03-.89c-.301.3-.51.498-.627.591l-.985.791-.873-1.09 2.76-2.197h1.488v8.567zm8.321-4.284c0 1.496-.247 2.604-.739 3.323-.488.718-1.242 1.078-2.261 1.078-.989 0-1.735-.371-2.239-1.113-.5-.743-.75-1.838-.75-3.288 0-1.511.244-2.625.733-3.34.488-.718 1.24-1.078 2.256-1.078.988 0 1.734.375 2.238 1.125.508.75.762 1.848.762 3.293zm-4.19 0c0 1.051.09 1.805.27 2.262.183.453.49.68.92.68.421 0 .726-.23.914-.692.187-.46.281-1.21.281-2.25 0-1.05-.096-1.804-.287-2.261-.188-.461-.491-.692-.908-.692-.426 0-.731.23-.915.692-.183.457-.275 1.21-.275 2.261zm11.045 0c0 1.496-.246 2.604-.738 3.323-.489.718-1.242 1.078-2.262 1.078-.988 0-1.734-.371-2.238-1.113-.5-.743-.75-1.838-.75-3.288 0-1.511.244-2.625.732-3.34.488-.718 1.24-1.078 2.256-1.078.988 0 1.734.375 2.238 1.125.508.75.762 1.848.762 3.293zm-4.189 0c0 1.051.089 1.805.269 2.262.184.453.49.68.92.68.422 0 .727-.23.914-.692.188-.46.281-1.21.281-2.25 0-1.05-.095-1.804-.287-2.261-.187-.461-.49-.692-.908-.692-.426 0-.73.23-.914.692-.184.457-.275 1.21-.275 2.261zm9.58 4.284h-1.811V74.91l.018-.815.029-.89c-.301.3-.51.498-.627.591l-.984.791-.873-1.09L166.6 71.3h1.489v8.567zm8.32-4.284c0 1.496-.246 2.604-.738 3.323-.489.718-1.243 1.078-2.262 1.078-.988 0-1.734-.371-2.238-1.113-.5-.743-.75-1.838-.75-3.288 0-1.511.244-2.625.732-3.34.488-.718 1.24-1.078 2.256-1.078.988 0 1.734.375 2.238 1.125.508.75.762 1.848.762 3.293zm-4.19 0c0 1.051.09 1.805.27 2.262.184.453.49.68.92.68.422 0 .726-.23.914-.692.187-.46.281-1.21.281-2.25 0-1.05-.095-1.804-.287-2.261-.187-.461-.49-.692-.908-.692-.426 0-.731.23-.914.692-.184.457-.276 1.21-.276 2.261zm-112.353 16c0 1.496-.246 2.604-.738 3.323-.489.718-1.242 1.078-2.262 1.078-.988 0-1.734-.371-2.238-1.113-.5-.743-.75-1.838-.75-3.288 0-1.511.244-2.625.732-3.34.488-.718 1.24-1.078 2.256-1.078.988 0 1.734.375 2.238 1.125.508.75.762 1.848.762 3.293zm-4.19 0c0 1.051.09 1.805.27 2.262.184.453.49.68.92.68.422 0 .727-.23.914-.692.188-.46.281-1.21.281-2.25 0-1.05-.095-1.804-.287-2.261-.187-.461-.49-.692-.908-.692-.426 0-.73.23-.914.692-.184.457-.276 1.21-.276 2.261zm9.58 4.284h-1.81V90.91l.018-.815.029-.89c-.3.3-.51.498-.627.591l-.984.791-.873-1.09 2.76-2.197h1.488v8.567zm8.32-4.284c0 1.496-.245 2.604-.737 3.323-.489.718-1.243 1.078-2.262 1.078-.988 0-1.734-.371-2.238-1.113-.5-.743-.75-1.838-.75-3.288 0-1.511.244-2.625.732-3.34.488-.718 1.24-1.078 2.256-1.078.988 0 1.734.375 2.238 1.125.508.75.762 1.848.762 3.293zm-4.188 0c0 1.051.09 1.805.269 2.262.184.453.49.68.92.68.422 0 .727-.23.914-.692.188-.46.281-1.21.281-2.25 0-1.05-.096-1.804-.287-2.261-.187-.461-.49-.692-.908-.692-.426 0-.73.23-.914.692-.184.457-.275 1.21-.275 2.261zm9.58 4.284h-1.811V90.91l.018-.815.029-.89c-.3.3-.51.498-.627.591l-.984.791-.874-1.09 2.76-2.197h1.489v8.567zm8.32-4.284c0 1.496-.246 2.604-.738 3.323-.489.718-1.243 1.078-2.262 1.078-.988 0-1.734-.371-2.238-1.113-.5-.743-.75-1.838-.75-3.288 0-1.511.244-2.625.732-3.34.488-.718 1.24-1.078 2.256-1.078.988 0 1.734.375 2.238 1.125.508.75.762 1.848.762 3.293zm-4.19 0c0 1.051.09 1.805.27 2.262.184.453.49.68.92.68.422 0 .726-.23.914-.692.187-.46.281-1.21.281-2.25 0-1.05-.096-1.804-.287-2.261-.188-.461-.49-.692-.908-.692-.426 0-.73.23-.914.692-.184.457-.276 1.21-.276 2.261z" fill="#fff"/><path d="M161.234 80.123c.99-27.135-19.434-49.772-45.617-50.562-26.184-.79-48.213 20.567-49.203 47.702-.99 27.135 19.434 49.772 45.617 50.562 26.184.79 48.213-20.567 49.203-47.702z" fill="#8CC754"/><path d="M93.34 45.855c7.639 0 13.833-5.63 13.833-12.577S100.979 20.7 93.339 20.7s-13.833 5.631-13.833 12.578c0 6.946 6.194 12.578 13.834 12.578z" fill="#FBFBFB" stroke="#272727" stroke-miterlimit="10"/><path d="M92.972 45.565c5.729 0 10.373-4.222 10.373-9.43 0-5.21-4.644-9.432-10.373-9.432-5.729 0-10.373 4.223-10.373 9.431 0 5.209 4.644 9.431 10.373 9.431z" fill="#272727" stroke="#272727" stroke-miterlimit="10"/><path d="M127.657 45.855c7.64 0 13.833-5.63 13.833-12.577S135.297 20.7 127.657 20.7c-7.64 0-13.833 5.631-13.833 12.578 0 6.946 6.193 12.578 13.833 12.578z" fill="#FBFBFB" stroke="#272727" stroke-miterlimit="10"/><path d="M112.857 127.359c16.327 0 29.562-12.545 29.562-28.02s-13.235-28.02-29.562-28.02c-16.326 0-29.561 12.545-29.561 28.02s13.235 28.02 29.561 28.02z" fill="#72B236"/><path d="M127.251 45.565c5.729 0 10.373-4.222 10.373-9.43 0-5.21-4.644-9.432-10.373-9.432-5.728 0-10.372 4.223-10.372 9.431 0 5.209 4.644 9.431 10.372 9.431z" fill="#272727" stroke="#272727" stroke-miterlimit="10"/><path d="M91.28 60.138c8.778 0 15.893-6.47 15.893-14.45 0-7.98-7.115-14.45-15.893-14.45-8.777 0-15.892 6.47-15.892 14.45 0 7.98 7.115 14.45 15.892 14.45zm42.458 0c8.777 0 15.893-6.47 15.893-14.45 0-7.98-7.116-14.45-15.893-14.45-8.777 0-15.892 6.47-15.892 14.45 0 7.98 7.115 14.45 15.892 14.45zm-26.565-14.45h10.662" stroke="#37441D" stroke-width="4" stroke-miterlimit="10"/><path opacity=".41" d="M91.832 60.138c8.158 0 14.771-6.013 14.771-13.43s-6.613-13.43-14.771-13.43c-8.158 0-14.771 6.013-14.771 13.43s6.613 13.43 14.77 13.43zm41.905 0c8.158 0 14.771-6.013 14.771-13.43s-6.613-13.43-14.771-13.43c-8.157 0-14.771 6.013-14.771 13.43s6.614 13.43 14.771 13.43z" fill="#9D9D9C"/><path d="M75.378 20.946l27.977-6.926m15.611-.307l26.855 6.275" stroke="#37441D" stroke-width="4" stroke-miterlimit="10"/><path d="M108.081 65.922a24.81 24.81 0 008.391 1.142c4.18-.16 8.235-1.344 11.736-3.427" stroke="#063" stroke-width="4" stroke-miterlimit="10"/></g><defs><clipPath id="clip0"><path d="M0 9a9 9 0 019-9h212a9 9 0 019 9v120H0V9z" fill="#fff"/></clipPath><filter id="filter0_bi" x="5" y="-30" width="212.75" height="209.002" filterUnits="userSpaceOnUse" color-interpolation-filters="sRGB"><feFlood flood-opacity="0" result="BackgroundImageFix"/><feGaussianBlur in="BackgroundImage" stdDeviation="5"/><feComposite in2="SourceAlpha" operator="in" result="effect1_backgroundBlur"/><feBlend in="SourceGraphic" in2="effect1_backgroundBlur" result="shape"/><feColorMatrix in="SourceAlpha" values="0 0 0 0 0 0 0 0 0 0 0 0 0 0 0 0 0 0 127 0" result="hardAlpha"/><feOffset/><feGaussianBlur stdDeviation="5"/><feComposite in2="hardAlpha" operator="arithmetic" k2="-1" k3="1"/><feColorMatrix values="0 0 0 0 1 0 0 0 0 1 0 0 0 0 1 0 0 0 0.2 0"/><feBlend in2="shape" result="effect2_innerShadow"/></filter></defs></svg>