<svg width="229" height="129" fill="none" xmlns="http://www.w3.org/2000/svg"><g clip-path="url(#clip0)"><path d="M0 9a9 9 0 019-9h223a9 9 0 019 9v126H0V9z" fill="#F6B028"/><path fill-rule="evenodd" clip-rule="evenodd" d="M-65.537 87.123C-56.85 72.271-48.055 56.005-29.7 50.785c18.067-5.137 40.244.554 59.783 9.148 17.148 7.542 28.325 22.299 41.292 35.31 12.432 12.474 27.79 23.747 32.674 38.906 5.063 15.721 3.593 32.566-5.986 43.952-9.065 10.776-28.933 8.015-42.765 13.998-15.787 6.828-24.562 29.02-43.637 23.374-19.314-5.717-17.838-32.952-33.152-46.103-17.155-14.731-48.53-13.986-58.497-32.597-9.636-17.993 5.614-34.538 14.451-49.65z" fill="#DB538C"/><path fill-rule="evenodd" clip-rule="evenodd" d="M132.217 106c-1.607-18.663-15.757-37.74-6.772-54.428 9.14-16.977 30.922-27.676 51.138-27.978 18.979-.284 29.344 22.885 47.939 26.497 23.45 4.556 50.84-17.202 69.946-3.596 18.036 12.844 19.954 41.78 11.222 61.399-8.387 18.842-40.255 16.281-53.118 32.728-12.967 16.581 1.792 48.714-17.77 57.914-18.43 8.668-36.184-15.451-54.815-23.775-15.736-7.031-36.216-7.433-45.753-21.162-9.467-13.628-.619-31.374-2.017-47.599z" fill="#BD67D5"/><g filter="url(#filter0_bi)"><path fill-rule="evenodd" clip-rule="evenodd" d="M174.032 100.746c-4.959 16.218-3.573 15.626-18.032 24.366-14.128 8.539-56.233 4.032-72 0-14.804-3.786-24.288-10.516-33-23.112-8.765-12.673 22.061-7.018 20.5-22.5-1.578-15.631-16.246-29.444-11.242-44.442 5.137-15.4 20.974-25.546 36.267-30.574 14.428-4.744 29.339.456 43.9 4.216 13.8 3.563 29.523 5.501 38.059 16.946 8.348 11.195 5.958 26.83 5.121 40.956-.715 12.06-6.03 22.554-9.573 34.144z" fill="#fff" fill-opacity=".3"/></g><path d="M174.518 75.191c1.069-29.764-21-54.595-49.294-55.462-28.294-.866-52.098 22.56-53.168 52.325-1.07 29.765 21 54.596 49.294 55.462 28.294.866 52.098-22.56 53.168-52.325z" fill="#8CC754"/><path d="M100.722 38.222c8.397 0 15.203-6.417 15.203-14.333s-6.806-14.333-15.203-14.333c-8.396 0-15.203 6.417-15.203 14.333s6.807 14.333 15.203 14.333z" fill="#FBFBFB" stroke="#272727" stroke-miterlimit="10"/><path d="M100.247 37.267c6.035 0 10.927-4.492 10.927-10.034 0-5.54-4.892-10.033-10.927-10.033-6.035 0-10.927 4.492-10.927 10.033 0 5.542 4.892 10.034 10.927 10.034z" fill="#272727" stroke="#272727" stroke-miterlimit="10"/><path d="M138.73 38.222c8.397 0 15.204-6.417 15.204-14.333S147.127 9.556 138.73 9.556c-8.396 0-15.203 6.417-15.203 14.333s6.807 14.333 15.203 14.333z" fill="#FBFBFB" stroke="#272727" stroke-miterlimit="10"/><path d="M122.577 127.089c17.843 0 32.307-13.904 32.307-31.056 0-17.151-14.464-31.055-32.307-31.055-17.843 0-32.307 13.904-32.307 31.055 0 17.152 14.464 31.056 32.307 31.056z" fill="#72B236"/><path d="M137.78 37.267c6.298 0 11.403-4.492 11.403-10.034 0-5.54-5.105-10.033-11.403-10.033-6.297 0-11.402 4.492-11.402 10.033 0 5.542 5.105 10.034 11.402 10.034z" fill="#272727" stroke="#272727" stroke-miterlimit="10"/><path d="M109.201 54.467H65.638c-6.863 0-12.426 5.176-12.426 11.56v13.19c0 6.385 5.563 11.56 12.426 11.56H109.2c6.862 0 12.426-5.175 12.426-11.56v-13.19c0-6.384-5.564-11.56-12.426-11.56z" fill="#575756" stroke="#72B236" stroke-width=".5" stroke-miterlimit="10"/><path d="M102.147 88.867c9.184 0 16.629-7.06 16.629-15.767 0-8.708-7.445-15.767-16.629-15.767-9.183 0-16.628 7.06-16.628 15.767 0 8.708 7.445 15.767 16.628 15.767z" fill="#272727"/><path d="M102.147 85.044c6.56 0 11.878-5.347 11.878-11.944s-5.318-11.944-11.878-11.944c-6.56 0-11.877 5.347-11.877 11.944s5.318 11.944 11.877 11.944z" fill="#9D9D9C"/><path d="M77.16 48.733h-8.938c-1.468 0-2.657.968-2.657 2.161v1.412c0 1.193 1.19 2.16 2.657 2.16h8.938c1.468 0 2.658-.967 2.658-2.16v-1.412c0-1.193-1.19-2.16-2.658-2.16z" fill="#272727"/><path d="M80.29 94.293c-5.642 3.027-5.148 4.496-8.144 4.963a8.952 8.952 0 01-5.91-1.052 7.154 7.154 0 01-3.284-4.04c-1.03-3.544 1.586-6.373 1.957-6.76.905-.943 3.17-2.82 4.725-2.075 1.246.606 1.328 2.581 1.328 2.73a4.933 4.933 0 01-.394 1.966 5.083 5.083 0 01-1.15 1.667c-.185-.1 1.215-5.132 4.921-6.899 1.431-.685 3.655-1.102 4.571-.139 1.174 1.231-.69 4.576-1.832 6.155a21.314 21.314 0 01-2.245 2.57s2.708-4.03 5.323-3.682a2.99 2.99 0 011.725.872c.457.47.734 1.076.787 1.719-.103.883-1.132 1.36-2.378 2.005z" fill="#72B236" stroke="#72B236" stroke-width=".25" stroke-miterlimit="10"/><path d="M113.976 53.808c6.606 1.236 7.26-.19 9.941 1.325 1.857 1.015 3.258 2.619 3.946 4.516a6.638 6.638 0 01-.225 5.154c-1.673 3.34-5.727 3.868-6.284 3.927-1.384.16-4.493.17-5.201-1.375-.569-1.246.761-2.811.858-2.921a5.474 5.474 0 011.692-1.257 5.858 5.858 0 012.082-.557c.075.19-4.568 3.16-8.739 2.183-1.62-.369-3.668-1.456-3.721-2.761-.065-1.685 3.764-3.07 5.769-3.56a23.964 23.964 0 013.603-.527s-4.976 1.375-6.799-.529c-.943-.997-1.072-2.82-.171-3.559.686-.598 1.833-.318 3.249-.06z" fill="#72B236" stroke="#063" stroke-width=".25" stroke-miterlimit="10"/><path d="M108.324 48.316c3.718 2.878 8.228 4.652 12.979 5.106 12.047 1.043 20.215-7.419 21.228-8.51" stroke="#063" stroke-width="3" stroke-miterlimit="10"/></g><defs><clipPath id="clip0"><path d="M0 9a9 9 0 019-9h211a9 9 0 019 9v120H0V9z" fill="#fff"/></clipPath><filter id="filter0_bi" x="15.382" y="-35.509" width="205.862" height="207.032" filterUnits="userSpaceOnUse" color-interpolation-filters="sRGB"><feFlood flood-opacity="0" result="BackgroundImageFix"/><feGaussianBlur in="BackgroundImage" stdDeviation="5"/><feComposite in2="SourceAlpha" operator="in" result="effect1_backgroundBlur"/><feBlend in="SourceGraphic" in2="effect1_backgroundBlur" result="shape"/><feColorMatrix in="SourceAlpha" values="0 0 0 0 0 0 0 0 0 0 0 0 0 0 0 0 0 0 127 0" result="hardAlpha"/><feOffset/><feGaussianBlur stdDeviation="5"/><feComposite in2="hardAlpha" operator="arithmetic" k2="-1" k3="1"/><feColorMatrix values="0 0 0 0 1 0 0 0 0 1 0 0 0 0 1 0 0 0 0.2 0"/><feBlend in2="shape" result="effect2_innerShadow"/></filter></defs></svg>