<svg width="25" height="26" fill="none" xmlns="http://www.w3.org/2000/svg"><path d="M12.5 0C5.596 0 0 5.82 0 13s5.596 13 12.5 13S25 20.18 25 13 19.404 0 12.5 0zm4.807 14.667s1.106 1.135 1.378 1.661a.102.102 0 01.014.028c.11.193.137.344.082.456-.09.187-.403.279-.51.287h-1.953c-.136 0-.42-.037-.763-.283-.265-.192-.525-.508-.779-.815-.379-.458-.707-.853-1.038-.853a.383.383 0 00-.123.02c-.25.084-.57.455-.57 1.444 0 .308-.235.486-.4.486h-.895c-.305 0-1.892-.111-3.298-1.654C6.73 13.555 5.18 9.766 5.168 9.731c-.098-.245.104-.376.324-.376h1.973c.263 0 .349.166.409.314.07.172.328.856.751 1.625.686 1.254 1.107 1.763 1.444 1.763a.379.379 0 00.181-.049c.44-.254.358-1.886.338-2.225 0-.063 0-.73-.226-1.05-.162-.23-.436-.319-.603-.351a.725.725 0 01.26-.23c.301-.156.846-.18 1.386-.18h.3c.587.009.738.048.95.104.43.107.439.395.401 1.382-.012.28-.023.597-.023.971 0 .081-.004.168-.004.26-.013.503-.029 1.073.312 1.307a.283.283 0 00.149.045c.118 0 .475 0 1.441-1.724a13.48 13.48 0 00.775-1.725c.02-.036.077-.144.144-.186a.335.335 0 01.162-.04h2.319c.252 0 .425.04.458.142.057.16-.01.652-1.069 2.143l-.473.649c-.96 1.308-.96 1.374.06 2.367z" fill="#fff"/></svg>