<svg width="12" height="14" fill="none" xmlns="http://www.w3.org/2000/svg"><path d="M2.5 8.363h-1v2.167c0 .596.45 1.083 1 1.083h2V10.53h-2V8.363zm0-5.417h2V1.863h-2c-.55 0-1 .488-1 1.083v2.167h1V2.946zm7-1.083h-2v1.083h2v2.167h1V2.946c0-.595-.45-1.083-1-1.083zm0 8.667h-2v1.083h2c.55 0 1-.487 1-1.083V8.363h-1v2.167zM6 4.57c-1.105 0-2 .97-2 2.167 0 1.197.895 2.167 2 2.167s2-.97 2-2.167C8 5.54 7.105 4.57 6 4.57zm0 3.25c-.55 0-1-.487-1-1.083s.45-1.083 1-1.083 1 .487 1 1.083S6.55 7.82 6 7.82z" fill="#72B236"/></svg>