<svg width="51" height="19" fill="none" xmlns="http://www.w3.org/2000/svg"><path d="M29.251 4.691a6.259 6.259 0 00-4.128-1.545 6.267 6.267 0 00-4.128 1.545h8.256zm0 0a10.1 10.1 0 00-.029.052l.219.12.172-.18a4.925 4.925 0 00-.045-.042 9.422 9.422 0 0117.409 3.216h1.699a1.57 1.57 0 010 3.14h-1.7a9.42 9.42 0 01-18.713-1.57 3.14 3.14 0 00-6.28 0 9.422 9.422 0 01-18.714 1.57H1.57a1.57 1.57 0 110-3.14L29.251 4.69zm-8.665.294l.156.282.235-.221a6.02 6.02 0 014.146-1.65h0a6.009 6.009 0 014.146 1.65l.235.222.156-.283a9.171 9.171 0 0117.07 2.913l.035.209h1.911a1.32 1.32 0 010 2.64h-1.91l-.036.209a9.171 9.171 0 01-18.217-1.529v0a3.39 3.39 0 10-6.78 0v0a9.171 9.171 0 01-18.217 1.529l-.035-.209H1.57a1.32 1.32 0 010-2.64h1.91l.036-.209a9.171 9.171 0 0117.07-2.913zm-3.407-.176a6.53 6.53 0 10-9.235 9.235 6.53 6.53 0 009.235-9.235zm25.123 9.236a6.53 6.53 0 10-9.235-9.236 6.53 6.53 0 009.235 9.236z" fill="#FBFBFB" stroke="#8CC754" stroke-width=".5"/></svg>