<svg width="223" height="118" viewBox="0 0 223 118" fill="none" xmlns="http://www.w3.org/2000/svg">
<g clip-path="url(#clip0)">
<path d="M12.5667 0.214108C16.4255 -0.449761 20.5298 0.45884 23.7285 2.71206C26.885 4.89495 29.1529 8.32119 29.8891 12.0822C30.7071 16.0626 29.8214 20.3581 27.4661 23.6746C24.9499 27.2949 20.7723 29.7141 16.3606 30.0489C12.1295 30.4286 7.77416 28.9068 4.71079 25.9728C2.04515 23.4692 0.349855 19.9699 0.0593142 16.327C-0.307388 12.3072 1.05505 8.17492 3.7348 5.14812C5.99425 2.55734 9.16763 0.779523 12.5667 0.214108Z" fill="#F6B028"/>
<path d="M39.8211 0.0030061C58.8925 0.0030061 77.9638 0.0030061 97.0351 0.0030061C101.083 -0.022311 105.083 1.80614 107.709 4.87513C109.72 7.1818 110.942 10.1608 111.111 13.2129C111.176 14.4816 111.131 15.753 111.139 17.0217C102.084 17.002 93.0127 19.0386 84.9255 23.1175C76.0033 27.5705 68.3675 34.2992 62.173 42.0462C52.5739 54.0943 46.1115 68.3759 41.9142 83.1161C38.7577 94.3709 36.865 106.025 36.8114 117.727C29.2404 117.727 21.6694 117.73 14.0956 117.727C10.4314 117.741 6.78974 116.251 4.19744 113.668C1.57129 111.103 0.025496 107.482 0.00575047 103.817C0.000108903 82.4494 0.00575047 61.079 0.00292969 39.7114C5.37652 42.9717 11.8248 44.3979 18.0785 43.7256C25.2066 43.0111 31.9906 39.5061 36.7211 34.1445C40.8338 29.5452 43.4007 23.5985 43.9 17.4549C44.4359 11.3985 42.9889 5.19582 39.8211 0.0030061Z" fill="#F6B028"/>
<path d="M89.2694 36.7013C95.4272 33.2722 102.411 31.3284 109.461 31.1259C110.442 30.9909 111.255 31.9473 111.139 32.8897C111.142 60.6568 111.147 88.4268 111.136 116.197C111.193 117.08 110.27 117.781 109.432 117.721C105.774 117.727 102.115 117.744 98.4567 117.713C97.6133 117.736 96.8855 116.968 96.9053 116.141C96.8799 110.247 96.9053 104.351 96.8968 98.458C84.1469 98.458 71.3997 98.458 58.6526 98.458C58.6442 104.177 58.6639 109.899 58.6442 115.617C58.6949 116.923 57.2056 117.302 56.1816 117.485C53.4708 117.882 50.6783 117.896 47.9759 117.443C47.0225 117.26 45.6911 116.852 45.7334 115.657C45.708 107.296 45.7334 98.9362 45.7221 90.5732C45.7447 89.4873 45.6149 88.3424 46.0635 87.3185C46.4414 86.514 47.4315 86.3508 48.2298 86.3621C50.6924 86.3621 53.1549 86.3677 55.6175 86.3621C58.8614 74.8372 63.6369 63.6274 70.6438 53.8578C75.5999 46.9688 81.8028 40.842 89.2694 36.7013ZM82.8155 61.7539C76.748 68.823 72.8242 77.4758 70.2686 86.3621C79.1428 86.3649 88.0198 86.3649 96.8968 86.3649C96.8968 74.4574 96.8968 62.5528 96.894 50.6453C91.5289 53.3768 86.7251 57.1828 82.8155 61.7539Z" fill="#72B236"/>
<path d="M120.67 68.8455C123.088 68.3364 125.593 68.3335 128.041 68.598C128.859 68.7049 130.12 68.9721 130.035 70.041C130.05 76.1537 130.035 82.2692 130.041 88.3818C132.128 88.3706 134.379 88.5984 136.258 87.4901C138.577 86.1539 139.776 83.6138 140.704 81.2199C142.06 77.473 143.231 73.6586 144.588 69.9116C144.974 68.8399 146.227 68.6373 147.222 68.5389C149.307 68.3982 151.423 68.3392 153.49 68.6852C154.066 68.7864 154.822 69.0565 154.847 69.7513C154.884 71.3913 154.142 72.9075 153.606 74.4209C152.229 77.9118 151.05 81.4843 149.504 84.905C148.097 88.0021 145.818 90.9529 142.467 92.0612C144.139 92.7814 145.764 93.704 147.025 95.0374C148.932 97.0346 150.142 99.5635 151.186 102.087C152.528 105.46 153.86 108.835 155.2 112.208C155.688 113.51 156.331 114.793 156.461 116.197C156.523 116.683 156.328 117.229 155.846 117.429C154.743 117.918 153.504 117.921 152.32 117.977C150.644 117.989 148.943 118.045 147.296 117.685C146.571 117.533 145.891 117.055 145.674 116.326C144.266 112.413 142.847 108.506 141.429 104.599C140.509 102.177 139.386 99.631 137.223 98.0642C135.141 96.593 132.467 96.7449 130.041 96.7477C130.03 103.33 130.058 109.915 130.027 116.501C130.024 117.342 129.051 117.615 128.377 117.764C126.275 118.084 124.117 118.059 122.01 117.817C121.102 117.702 119.835 117.3 119.977 116.152C119.965 100.869 119.971 85.5885 119.974 70.3055C119.895 69.7035 120.25 69.2253 120.67 68.8455Z" fill="#72B236"/>
<path d="M165.828 68.6036C167.893 68.3701 169.997 68.3504 172.056 68.6542C172.781 68.7667 173.845 69.0874 173.712 70.0241C173.712 83.2115 173.712 96.4017 173.709 109.592C178.646 109.592 183.579 109.592 188.516 109.592C188.51 96.7843 188.521 83.9767 188.51 71.1662C188.535 70.5839 188.431 69.9763 188.623 69.4165C189.162 68.6964 190.149 68.657 190.964 68.5389C192.944 68.3926 194.958 68.3448 196.916 68.7105C197.573 68.8286 198.428 69.214 198.301 70.027C198.31 83.2143 198.298 96.4045 198.307 109.595C203.249 109.589 208.194 109.592 213.136 109.592C213.138 96.4073 213.133 83.2228 213.138 70.0382C213.028 68.9243 214.365 68.7161 215.189 68.5923C217.271 68.3729 219.401 68.3392 221.474 68.6908C222.156 68.8089 223.118 69.1577 222.989 70.027C222.977 85.0315 223 100.039 222.977 115.043C223.017 116.397 221.942 117.727 220.534 117.719C202.589 117.741 184.643 117.719 166.697 117.73C165.789 117.764 164.855 117.353 164.353 116.588C163.825 115.811 163.859 114.833 163.831 113.938C163.842 99.3019 163.82 84.663 163.842 70.027C163.772 68.9524 165.016 68.7161 165.828 68.6036Z" fill="#72B236"/>
</g>
<defs>
<clipPath id="clip0">
<rect width="223" height="118" fill="white"/>
</clipPath>
</defs>
</svg>
