<svg width="109" height="135" viewBox="0 0 109 135" fill="none" xmlns="http://www.w3.org/2000/svg">
<path d="M106.427 62.7283C107.394 34.5429 87.4471 11.029 61.8739 10.2087C36.3007 9.38834 14.7857 31.5722 13.8188 59.7577C12.8518 87.9432 32.7991 111.457 58.3723 112.277C83.9455 113.098 105.46 90.9138 106.427 62.7283Z" fill="#8CC754"/>
<path d="M40.1166 26.9716C47.5335 26.9716 53.546 21.1576 53.546 13.9858C53.546 6.81393 47.5335 1 40.1166 1C32.6998 1 26.6872 6.81393 26.6872 13.9858C26.6872 21.1576 32.6998 26.9716 40.1166 26.9716Z" fill="#FBFBFB" stroke="#272727" stroke-miterlimit="10"/>
<path d="M39.7769 26.9716C45.3161 26.9716 49.8065 22.5559 49.8065 17.1089C49.8065 11.662 45.3161 7.24634 39.7769 7.24634C34.2378 7.24634 29.7474 11.662 29.7474 17.1089C29.7474 22.5559 34.2378 26.9716 39.7769 26.9716Z" fill="#272727" stroke="#272727" stroke-miterlimit="10"/>
<path d="M73.6047 26.9716C81.1155 26.9716 87.2041 21.1576 87.2041 13.9858C87.2041 6.81393 81.1155 1 73.6047 1C66.094 1 60.0054 6.81393 60.0054 13.9858C60.0054 21.1576 66.094 26.9716 73.6047 26.9716Z" fill="#FBFBFB" stroke="#272727" stroke-miterlimit="10"/>
<path d="M59.326 111.79C75.2863 111.79 88.2247 98.7639 88.2247 82.6953C88.2247 66.6267 75.2863 53.6006 59.326 53.6006C43.3657 53.6006 30.4273 66.6267 30.4273 82.6953C30.4273 98.7639 43.3657 111.79 59.326 111.79Z" fill="#72B236"/>
<path d="M73.2649 26.9716C78.8979 26.9716 83.4644 22.5559 83.4644 17.1089C83.4644 11.662 78.8979 7.24634 73.2649 7.24634C67.6318 7.24634 63.0653 11.662 63.0653 17.1089C63.0653 22.5559 67.6318 26.9716 73.2649 26.9716Z" fill="#272727" stroke="#272727" stroke-miterlimit="10"/>
<path d="M41.8694 39.2133C45.0314 41.6756 48.8668 43.1936 52.9068 43.5817C63.152 44.4739 70.0982 37.2353 70.96 36.301" stroke="#006633" stroke-width="3" stroke-miterlimit="10"/>
<rect x="19.5182" y="109.785" width="82.6996" height="25.2151" rx="10" fill="#2C3A6A"/>
<rect x="20.2631" y="109.785" width="39.4872" height="25.2151" rx="10" fill="#465998"/>
<rect x="24.7334" y="99.699" width="14.9008" height="10.086" rx="5.04301" fill="#2C3A6A"/>
<rect x="53.0451" y="99.699" width="14.9008" height="10.086" rx="5.04301" fill="#2C3A6A"/>
<rect x="81.3564" y="99.699" width="14.9008" height="10.086" rx="5.04301" fill="#2C3A6A"/>
<rect x="0.147232" y="75.9248" width="64.8186" height="21.6129" rx="10" fill="#DF9300"/>
<rect y="76" width="32" height="22" rx="10" fill="#F6B028"/>
<rect x="4.23456" y="67.2795" width="11.679" height="8.64517" rx="4.32258" fill="#DF9300"/>
<rect x="26.4251" y="67.2795" width="11.679" height="8.64517" rx="4.32258" fill="#DF9300"/>
<rect x="48.6149" y="67.2795" width="11.679" height="8.64517" rx="4.32258" fill="#DF9300"/>
</svg>
