<svg width="230" height="129" viewBox="0 0 230 129" fill="none" xmlns="http://www.w3.org/2000/svg">
<g clip-path="url(#clip0)">
<path d="M0 9C0 4.02944 4.02944 0 9 0H232C236.971 0 241 4.02944 241 9V135H0V9Z" fill="#BD67D5"/>
<path fill-rule="evenodd" clip-rule="evenodd" d="M14.5651 43.4941C30.2587 38.8035 44.2054 24.4774 59.9846 28.2264C76.0354 32.04 88.8344 46.6545 92.4781 62.0056C95.8988 76.4174 77.8179 88.6185 77.842 103.461C77.8724 122.18 101.069 139.014 92.6307 156.102C84.6653 172.233 60.2373 179.068 41.9944 176.055C24.4736 173.162 21.328 148.398 5.10626 141.649C-11.2465 134.845 -36.2591 152.06 -47.4043 138.86C-57.9043 126.423 -40.2483 108.413 -36.2478 92.6684C-32.869 79.3703 -35.9548 63.6872 -25.8098 53.8694C-15.7391 44.1234 0.921644 47.572 14.5651 43.4941Z" fill="#F6B028"/>
<path fill-rule="evenodd" clip-rule="evenodd" d="M238.183 35.1167C251.732 49.1927 266.734 63.886 268.011 84.2613C269.268 104.318 258.268 124.639 244.834 141.261C233.044 155.85 215.071 161.834 198.517 170.248C182.644 178.316 167.362 189.764 150.402 189.258C132.813 188.733 115.538 181.218 105.816 167.484C96.6147 154.484 104.026 135.442 100.921 119.353C97.3772 100.99 76.1754 84.1958 86.4217 66.9855C96.7964 49.5594 124.933 60.8015 142.168 50.0708C161.475 38.0501 167.842 6.14964 189.568 2.76579C210.573 -0.505624 224.397 20.7942 238.183 35.1167Z" fill="#DB538C"/>
<g filter="url(#filter0_bi)">
<path fill-rule="evenodd" clip-rule="evenodd" d="M168.476 105.746C163.442 122.514 170.076 113.087 155 122C140.269 130.709 116.58 126.344 100 122C84.4325 117.921 62.2679 135.152 53.0001 122C43.6754 108.768 62.5075 98.7261 60.7094 82.6559C58.894 66.43 43.3658 51.9545 48.4587 36.4542C53.6882 20.5381 70.1954 10.1801 86.184 5.12403C101.269 0.353668 116.962 5.89982 132.274 9.9491C146.787 13.7868 151.929 24.4974 161 36.4543C169.873 48.1495 178.897 55.7985 178.165 70.4388C177.54 82.9377 172.074 93.7647 168.476 105.746Z" fill="white" fill-opacity="0.3"/>
</g>
<path d="M79.9936 21.1657C75.875 25.486 75.3052 32.3265 77.3045 36.8174C82.7527 49.0299 108.704 47.3529 116.871 46.8318C127.398 46.1497 135.865 45.6096 139.144 40.0955C144.922 30.4696 129.267 11.8808 127.428 12.6198C127.008 12.7904 127.688 13.8231 127.238 14.9884C124.549 21.8763 91.3499 9.2659 79.9936 21.1657Z" fill="#3A2222"/>
<path d="M153.01 70.671C153.865 46.3472 135.757 26.0403 112.565 25.3144C89.3719 24.5885 69.8772 43.7185 69.0219 68.0423C68.1667 92.3662 86.2748 112.673 109.468 113.399C132.66 114.125 152.155 94.9949 153.01 70.671Z" fill="#8CC754"/>
<path d="M124.759 41.4786C131.527 41.4786 137.013 36.431 137.013 30.2043C137.013 23.9777 131.527 18.9301 124.759 18.9301C117.992 18.9301 112.506 23.9777 112.506 30.2043C112.506 36.431 117.992 41.4786 124.759 41.4786Z" fill="#FBFBFB" stroke="#272727" stroke-miterlimit="10"/>
<path d="M95.8595 41.4786C102.627 41.4786 108.113 36.431 108.113 30.2043C108.113 23.9777 102.627 18.9301 95.8595 18.9301C89.0921 18.9301 83.606 23.9777 83.606 30.2043C83.606 36.431 89.0921 41.4786 95.8595 41.4786Z" fill="#FBFBFB" stroke="#272727" stroke-miterlimit="10"/>
<path d="M136.129 88.2697C136.129 101.994 124.528 113.137 110.194 113.137C95.8603 113.137 84.2585 101.994 84.2585 88.2697C84.2585 74.5458 95.8603 63.4027 110.194 63.4027C124.528 63.4027 136.129 74.5458 136.129 88.2697Z" fill="#75B539" stroke="#75B539" stroke-width="0.5"/>
<path d="M96.5445 41.2344C101.619 41.2344 105.732 37.4495 105.732 32.7807C105.732 28.1118 101.619 24.3269 96.5445 24.3269C91.4701 24.3269 87.3564 28.1118 87.3564 32.7807C87.3564 37.4495 91.4701 41.2344 96.5445 41.2344Z" fill="#272727" stroke="#272727" stroke-miterlimit="10"/>
<path d="M124.168 41.2344C129.242 41.2344 133.356 37.4495 133.356 32.7807C133.356 28.1118 129.242 24.3269 124.168 24.3269C119.094 24.3269 114.98 28.1118 114.98 32.7807C114.98 37.4495 119.094 41.2344 124.168 41.2344Z" fill="#272727" stroke="#272727" stroke-miterlimit="10"/>
<path d="M134.188 18.63C133.629 18.7094 133.059 18.6022 132.494 18.6212C127.257 18.7972 122.255 21.1612 117.018 21.6877C109.101 22.4777 95.7154 26.1644 85.5287 33.9702C79.4407 38.6725 76.2517 43.4313 74.2024 42.4344C72.153 41.4375 73.2027 36.1333 73.6226 33.9702C74.5372 27.86 77.5739 22.2058 82.2598 17.8883C87.608 13.1389 93.3462 11.8881 99.7441 10.4868C106.166 9.09428 112.809 8.84863 119.328 9.76263C125.946 10.6091 124.076 11.5589 131.424 12.838C132.502 13.0232 134.358 13.3188 135.396 14.3921C135.747 14.7544 136.035 15.1909 136.186 15.6716C136.25 15.8727 136.284 16.082 136.288 16.2941C136.297 16.7573 136.157 17.2123 135.889 17.6005C135.62 17.9887 135.234 18.2925 134.78 18.4729C134.59 18.5487 134.39 18.6013 134.188 18.63Z" fill="#9F2E2E"/>
<path d="M99.0847 12.1308C99.6936 10.472 93.8107 5.45845 89.6562 6.969C88.5661 7.35822 87.1714 8.35908 87.2009 9.46187C87.2598 11.3894 91.6794 13.0297 95.3133 13.0205C96.5901 13.0112 98.7704 13.0112 99.0847 12.1308Z" fill="#3A2222"/>
<path d="M87.2004 51.0101C93.3585 56.1312 101.344 58.8419 109.536 58.5921C116.806 58.2617 123.772 55.7291 129.407 51.3675" stroke="#006633" stroke-width="3" stroke-miterlimit="10"/>
<rect width="68.9906" height="40.2784" rx="10" transform="matrix(0.998731 0.0503654 -0.0597629 0.998213 65.4072 84.6223)" fill="#C4C4C4"/>
<rect width="63.8939" height="33.1721" rx="10" transform="matrix(0.998731 0.0503654 -0.0597629 0.998213 67.637 88.097)" fill="#DFDFDF"/>
<rect width="13.9558" height="55.7335" rx="6.97788" transform="matrix(0.915717 0.401825 -0.462019 0.88687 166.575 61.7097)" fill="#2C3A6A"/>
<rect width="6.97788" height="55.7335" rx="3.48894" transform="matrix(0.915717 0.401825 -0.462019 0.88687 169.77 63.1116)" fill="#586BAF"/>
<path d="M141.909 113.579C141.501 109.517 145.922 106.647 149.959 108.354C154.084 110.097 154.711 115.289 151.081 117.646C147.451 120.002 142.326 117.73 141.909 113.579Z" fill="#9A968E"/>
<path d="M142.379 119.545C142.213 117.901 144.003 116.74 145.637 117.43C147.307 118.136 147.561 120.238 146.091 121.191C144.622 122.145 142.548 121.225 142.379 119.545Z" fill="#EE9E15"/>
</g>
<defs>
<filter id="filter0_bi" x="1.36084" y="-31.1031" width="212.742" height="211.512" filterUnits="userSpaceOnUse" color-interpolation-filters="sRGB">
<feFlood flood-opacity="0" result="BackgroundImageFix"/>
<feGaussianBlur in="BackgroundImage" stdDeviation="5"/>
<feComposite in2="SourceAlpha" operator="in" result="effect1_backgroundBlur"/>
<feBlend mode="normal" in="SourceGraphic" in2="effect1_backgroundBlur" result="shape"/>
<feColorMatrix in="SourceAlpha" type="matrix" values="0 0 0 0 0 0 0 0 0 0 0 0 0 0 0 0 0 0 127 0" result="hardAlpha"/>
<feOffset/>
<feGaussianBlur stdDeviation="5"/>
<feComposite in2="hardAlpha" operator="arithmetic" k2="-1" k3="1"/>
<feColorMatrix type="matrix" values="0 0 0 0 1 0 0 0 0 1 0 0 0 0 1 0 0 0 0.2 0"/>
<feBlend mode="normal" in2="shape" result="effect2_innerShadow"/>
</filter>
<clipPath id="clip0">
<path d="M0 9C0 4.02943 4.02944 0 9 0H221C225.971 0 230 4.02944 230 9V129H0V9Z" fill="white"/>
</clipPath>
</defs>
</svg>
