<svg width="130" height="114" viewBox="0 0 130 114" fill="none" xmlns="http://www.w3.org/2000/svg">
<path d="M17.667 14.7591C14.3083 18.5871 13.8436 24.648 15.4741 28.6271C19.917 39.4478 41.08 37.9619 47.7403 37.5002C56.3245 36.8958 63.2294 36.4173 65.9033 31.5316C70.6153 23.0027 57.849 6.53239 56.349 7.18717C56.0066 7.33827 56.5609 8.25329 56.1941 9.28583C54.0012 15.3887 26.9278 4.21545 17.667 14.7591Z" fill="#3A2222"/>
<path d="M81.473 63.6488C82.3079 37.7326 65.0847 16.1119 43.004 15.3576C20.9234 14.6033 2.34661 35.0011 1.51171 60.9173C0.676816 86.8335 17.8999 108.454 39.9806 109.209C62.0613 109.963 80.6381 89.565 81.473 63.6488Z" fill="#8CC754"/>
<path d="M40.8434 109.232C54.6114 109.232 65.7726 97.2505 65.7726 82.4701C65.7726 67.6898 54.6114 55.708 40.8434 55.708C27.0753 55.708 15.9141 67.6898 15.9141 82.4701C15.9141 97.2505 27.0753 109.232 40.8434 109.232Z" fill="#72B236"/>
<path d="M28.7375 36.3919C35.1803 36.3919 40.4032 31.0136 40.4032 24.3792C40.4032 17.7447 35.1803 12.3665 28.7375 12.3665C22.2947 12.3665 17.0718 17.7447 17.0718 24.3792C17.0718 31.0136 22.2947 36.3919 28.7375 36.3919Z" fill="#FBFBFB" stroke="#272727" stroke-miterlimit="10"/>
<path d="M53.4873 36.3919C59.9301 36.3919 65.153 31.0136 65.153 24.3792C65.153 17.7447 59.9301 12.3665 53.4873 12.3665C47.0445 12.3665 41.8215 17.7447 41.8215 24.3792C41.8215 31.0136 47.0445 36.3919 53.4873 36.3919Z" fill="#FBFBFB" stroke="#272727" stroke-miterlimit="10"/>
<path d="M28.7378 36.3919C33.5687 36.3919 37.485 32.3591 37.485 27.3844C37.485 22.4097 33.5687 18.377 28.7378 18.377C23.9068 18.377 19.9905 22.4097 19.9905 27.3844C19.9905 32.3591 23.9068 36.3919 28.7378 36.3919Z" fill="#272727" stroke="#272727" stroke-miterlimit="10"/>
<path d="M53.4875 36.3919C58.3185 36.3919 62.2348 32.3591 62.2348 27.3844C62.2348 22.4097 58.3185 18.377 53.4875 18.377C48.6565 18.377 44.7402 22.4097 44.7402 27.3844C44.7402 32.3591 48.6565 36.3919 53.4875 36.3919Z" fill="#272727" stroke="#272727" stroke-miterlimit="10"/>
<path d="M111.866 89.8952C121.881 76.8134 122.602 60.203 113.476 52.7949C104.351 45.3867 88.8339 49.9861 78.819 63.0679C68.804 76.1497 68.0832 92.7601 77.2089 100.168C86.3347 107.576 101.851 102.977 111.866 89.8952Z" fill="#B17F4A"/>
<path d="M93.4921 96.1375C96.0313 92.8206 96.4102 88.7682 94.3382 87.0863C92.2663 85.4043 88.5282 86.7296 85.9889 90.0465C83.4496 93.3634 83.0707 97.4157 85.1427 99.0977C87.2146 100.78 90.9528 99.4544 93.4921 96.1375Z" fill="#FBFBFB"/>
<path d="M101.398 63.977C103.919 63.977 105.963 61.8722 105.963 59.2759C105.963 56.6797 103.919 54.575 101.398 54.575C98.8764 54.575 96.8325 56.6797 96.8325 59.2759C96.8325 61.8722 98.8764 63.977 101.398 63.977Z" fill="#C21B1C"/>
<path d="M90.2858 73.7398C93.0097 73.7398 95.2179 71.466 95.2179 68.661C95.2179 65.8561 93.0097 63.5823 90.2858 63.5823C87.5619 63.5823 85.3538 65.8561 85.3538 68.661C85.3538 71.466 87.5619 73.7398 90.2858 73.7398Z" fill="#DCDD25"/>
<path d="M112.688 77.0809C114.728 77.0809 116.381 75.3783 116.381 73.2781C116.381 71.1779 114.728 69.4753 112.688 69.4753C110.649 69.4753 108.995 71.1779 108.995 73.2781C108.995 75.3783 110.649 77.0809 112.688 77.0809Z" fill="#2E4697"/>
<path d="M103.419 89.8405C106.409 89.8405 108.832 87.3449 108.832 84.2664C108.832 81.188 106.409 78.6924 103.419 78.6924C100.43 78.6924 98.0063 81.188 98.0063 84.2664C98.0063 87.3449 100.43 89.8405 103.419 89.8405Z" fill="#72B236"/>
<path d="M103.55 75.0745C105.454 75.0745 106.998 73.4847 106.998 71.5236C106.998 69.5625 105.454 67.9727 103.55 67.9727C101.645 67.9727 100.102 69.5625 100.102 71.5236C100.102 73.4847 101.645 75.0745 103.55 75.0745Z" fill="#752D87"/>
<path d="M86.8871 82.2012C88.8355 87.0785 90.0746 86.8435 90.148 89.2947C90.2375 90.977 89.7369 92.6365 88.7376 93.9706C87.8551 95.1632 86.5685 95.9695 85.1344 96.2287C82.1507 96.6988 80.0882 94.3063 79.811 93.9706C79.1181 93.1311 77.8056 91.1248 78.5556 89.9411C79.167 88.9841 80.7811 89.1016 80.9034 89.1016C81.4536 89.1655 81.986 89.3408 82.4701 89.6174C83.338 90.1134 83.0617 90.5617 82.1983 90.0579C80.9243 89.3145 79.2147 87.9572 78.5556 86.0376C78.1317 84.812 78.0012 82.9736 78.8654 82.3272C79.9904 81.4877 82.542 83.3429 83.7567 84.4258C84.4385 85.0718 85.0683 85.7736 85.6398 86.5245C85.6398 86.5245 82.6072 83.9222 83.129 81.8487C83.398 80.7742 84.6208 79.8592 85.4768 80.069C86.186 80.2957 86.4713 81.1351 86.8871 82.2012Z" fill="#72B236" stroke="#72B236" stroke-width="0.25" stroke-miterlimit="10"/>
<path d="M58.0493 10.8888C57.4555 11.0555 56.8205 10.9084 56.2046 10.9413C52.0184 11.1647 48.0107 13.2066 43.819 13.6679C37.3625 14.3731 26.4468 17.6638 18.1397 24.6313C13.1751 28.8286 10.5745 33.0763 8.90331 32.1865C7.23212 31.2967 8.08811 26.5621 8.4305 24.6313C9.17633 19.1773 11.6527 14.1304 15.4739 10.2765C19.8354 6.03717 24.5147 4.92069 29.7321 3.66989C34.9692 2.42692 40.3864 2.20765 45.7022 3.0235C51.0989 3.77901 49.5744 4.62688 55.5662 5.76855C56.4297 5.93086 57.9039 6.18809 58.7586 7.10379C59.0885 7.45721 59.3462 7.88975 59.4665 8.35798C59.5078 8.51893 59.5304 8.68527 59.5332 8.85351C59.5399 9.26697 59.4264 9.67307 59.2073 10.0196C58.9882 10.3662 58.6735 10.6373 58.3036 10.7983C58.2206 10.8344 58.1356 10.8646 58.0493 10.8888Z" fill="#9F2E2E"/>
<path d="M32.5447 5.92784C33.0501 4.4252 28.167 -0.116311 24.7186 1.25202C23.8137 1.60459 22.6561 2.51121 22.6806 3.51018C22.7295 5.25626 26.3979 6.74211 29.4142 6.73372C30.474 6.72532 32.2838 6.72533 32.5447 5.92784Z" fill="#3A2222"/>
<path d="M24.6206 44.1487C29.6732 48.7187 36.2252 51.1377 42.9467 50.9148C48.9118 50.6199 54.6273 48.3599 59.251 44.4677" stroke="#006633" stroke-width="3" stroke-miterlimit="10"/>
</svg>
