<svg width="131" height="134" viewBox="0 0 131 134" fill="none" xmlns="http://www.w3.org/2000/svg">
<path d="M6.42188 9.48584C6.42188 10.9819 6.17578 12.0894 5.68359 12.8081C5.19531 13.5269 4.44141 13.8862 3.42188 13.8862C2.43359 13.8862 1.6875 13.5151 1.18359 12.7729C0.683594 12.0308 0.433594 10.9351 0.433594 9.48584C0.433594 7.97412 0.677734 6.86084 1.16602 6.146C1.6543 5.42725 2.40625 5.06787 3.42188 5.06787C4.41016 5.06787 5.15625 5.44287 5.66016 6.19287C6.16797 6.94287 6.42188 8.04053 6.42188 9.48584ZM2.23242 9.48584C2.23242 10.5366 2.32227 11.2905 2.50195 11.7476C2.68555 12.2007 2.99219 12.4272 3.42188 12.4272C3.84375 12.4272 4.14844 12.1968 4.33594 11.7358C4.52344 11.2749 4.61719 10.5249 4.61719 9.48584C4.61719 8.43506 4.52148 7.68115 4.33008 7.22412C4.14258 6.76318 3.83984 6.53271 3.42188 6.53271C2.99609 6.53271 2.69141 6.76318 2.50781 7.22412C2.32422 7.68115 2.23242 8.43506 2.23242 9.48584ZM11.8125 13.769H10.002V8.81201L10.0195 7.99756L10.0488 7.10693C9.74805 7.40771 9.53906 7.60498 9.42188 7.69873L8.4375 8.48975L7.56445 7.3999L10.3242 5.20264H11.8125V13.769ZM20.1328 9.48584C20.1328 10.9819 19.8867 12.0894 19.3945 12.8081C18.9062 13.5269 18.1523 13.8862 17.1328 13.8862C16.1445 13.8862 15.3984 13.5151 14.8945 12.7729C14.3945 12.0308 14.1445 10.9351 14.1445 9.48584C14.1445 7.97412 14.3887 6.86084 14.877 6.146C15.3652 5.42725 16.1172 5.06787 17.1328 5.06787C18.1211 5.06787 18.8672 5.44287 19.3711 6.19287C19.8789 6.94287 20.1328 8.04053 20.1328 9.48584ZM15.9434 9.48584C15.9434 10.5366 16.0332 11.2905 16.2129 11.7476C16.3965 12.2007 16.7031 12.4272 17.1328 12.4272C17.5547 12.4272 17.8594 12.1968 18.0469 11.7358C18.2344 11.2749 18.3281 10.5249 18.3281 9.48584C18.3281 8.43506 18.2324 7.68115 18.041 7.22412C17.8535 6.76318 17.5508 6.53271 17.1328 6.53271C16.707 6.53271 16.4023 6.76318 16.2188 7.22412C16.0352 7.68115 15.9434 8.43506 15.9434 9.48584ZM25.5234 13.769H23.7129V8.81201L23.7305 7.99756L23.7598 7.10693C23.459 7.40771 23.25 7.60498 23.1328 7.69873L22.1484 8.48975L21.2754 7.3999L24.0352 5.20264H25.5234V13.769ZM33.8438 9.48584C33.8438 10.9819 33.5977 12.0894 33.1055 12.8081C32.6172 13.5269 31.8633 13.8862 30.8438 13.8862C29.8555 13.8862 29.1094 13.5151 28.6055 12.7729C28.1055 12.0308 27.8555 10.9351 27.8555 9.48584C27.8555 7.97412 28.0996 6.86084 28.5879 6.146C29.0762 5.42725 29.8281 5.06787 30.8438 5.06787C31.832 5.06787 32.5781 5.44287 33.082 6.19287C33.5898 6.94287 33.8438 8.04053 33.8438 9.48584ZM29.6543 9.48584C29.6543 10.5366 29.7441 11.2905 29.9238 11.7476C30.1074 12.2007 30.4141 12.4272 30.8438 12.4272C31.2656 12.4272 31.5703 12.1968 31.7578 11.7358C31.9453 11.2749 32.0391 10.5249 32.0391 9.48584C32.0391 8.43506 31.9434 7.68115 31.752 7.22412C31.5645 6.76318 31.2617 6.53271 30.8438 6.53271C30.418 6.53271 30.1133 6.76318 29.9297 7.22412C29.7461 7.68115 29.6543 8.43506 29.6543 9.48584ZM40.6992 9.48584C40.6992 10.9819 40.4531 12.0894 39.9609 12.8081C39.4727 13.5269 38.7188 13.8862 37.6992 13.8862C36.7109 13.8862 35.9648 13.5151 35.4609 12.7729C34.9609 12.0308 34.7109 10.9351 34.7109 9.48584C34.7109 7.97412 34.9551 6.86084 35.4434 6.146C35.9316 5.42725 36.6836 5.06787 37.6992 5.06787C38.6875 5.06787 39.4336 5.44287 39.9375 6.19287C40.4453 6.94287 40.6992 8.04053 40.6992 9.48584ZM36.5098 9.48584C36.5098 10.5366 36.5996 11.2905 36.7793 11.7476C36.9629 12.2007 37.2695 12.4272 37.6992 12.4272C38.1211 12.4272 38.4258 12.1968 38.6133 11.7358C38.8008 11.2749 38.8945 10.5249 38.8945 9.48584C38.8945 8.43506 38.7988 7.68115 38.6074 7.22412C38.4199 6.76318 38.1172 6.53271 37.6992 6.53271C37.2734 6.53271 36.9688 6.76318 36.7852 7.22412C36.6016 7.68115 36.5098 8.43506 36.5098 9.48584ZM47.5547 9.48584C47.5547 10.9819 47.3086 12.0894 46.8164 12.8081C46.3281 13.5269 45.5742 13.8862 44.5547 13.8862C43.5664 13.8862 42.8203 13.5151 42.3164 12.7729C41.8164 12.0308 41.5664 10.9351 41.5664 9.48584C41.5664 7.97412 41.8105 6.86084 42.2988 6.146C42.7871 5.42725 43.5391 5.06787 44.5547 5.06787C45.543 5.06787 46.2891 5.44287 46.793 6.19287C47.3008 6.94287 47.5547 8.04053 47.5547 9.48584ZM43.3652 9.48584C43.3652 10.5366 43.4551 11.2905 43.6348 11.7476C43.8184 12.2007 44.125 12.4272 44.5547 12.4272C44.9766 12.4272 45.2812 12.1968 45.4688 11.7358C45.6562 11.2749 45.75 10.5249 45.75 9.48584C45.75 8.43506 45.6543 7.68115 45.4629 7.22412C45.2754 6.76318 44.9727 6.53271 44.5547 6.53271C44.1289 6.53271 43.8242 6.76318 43.6406 7.22412C43.457 7.68115 43.3652 8.43506 43.3652 9.48584ZM52.9453 13.769H51.1348V8.81201L51.1523 7.99756L51.1816 7.10693C50.8809 7.40771 50.6719 7.60498 50.5547 7.69873L49.5703 8.48975L48.6973 7.3999L51.457 5.20264H52.9453V13.769ZM61.2656 9.48584C61.2656 10.9819 61.0195 12.0894 60.5273 12.8081C60.0391 13.5269 59.2852 13.8862 58.2656 13.8862C57.2773 13.8862 56.5312 13.5151 56.0273 12.7729C55.5273 12.0308 55.2773 10.9351 55.2773 9.48584C55.2773 7.97412 55.5215 6.86084 56.0098 6.146C56.498 5.42725 57.25 5.06787 58.2656 5.06787C59.2539 5.06787 60 5.44287 60.5039 6.19287C61.0117 6.94287 61.2656 8.04053 61.2656 9.48584ZM57.0762 9.48584C57.0762 10.5366 57.166 11.2905 57.3457 11.7476C57.5293 12.2007 57.8359 12.4272 58.2656 12.4272C58.6875 12.4272 58.9922 12.1968 59.1797 11.7358C59.3672 11.2749 59.4609 10.5249 59.4609 9.48584C59.4609 8.43506 59.3652 7.68115 59.1738 7.22412C58.9863 6.76318 58.6836 6.53271 58.2656 6.53271C57.8398 6.53271 57.5352 6.76318 57.3516 7.22412C57.168 7.68115 57.0762 8.43506 57.0762 9.48584ZM66.6562 13.769H64.8457V8.81201L64.8633 7.99756L64.8926 7.10693C64.5918 7.40771 64.3828 7.60498 64.2656 7.69873L63.2812 8.48975L62.4082 7.3999L65.168 5.20264H66.6562V13.769ZM74.9766 9.48584C74.9766 10.9819 74.7305 12.0894 74.2383 12.8081C73.75 13.5269 72.9961 13.8862 71.9766 13.8862C70.9883 13.8862 70.2422 13.5151 69.7383 12.7729C69.2383 12.0308 68.9883 10.9351 68.9883 9.48584C68.9883 7.97412 69.2324 6.86084 69.7207 6.146C70.209 5.42725 70.9609 5.06787 71.9766 5.06787C72.9648 5.06787 73.7109 5.44287 74.2148 6.19287C74.7227 6.94287 74.9766 8.04053 74.9766 9.48584ZM70.7871 9.48584C70.7871 10.5366 70.877 11.2905 71.0566 11.7476C71.2402 12.2007 71.5469 12.4272 71.9766 12.4272C72.3984 12.4272 72.7031 12.1968 72.8906 11.7358C73.0781 11.2749 73.1719 10.5249 73.1719 9.48584C73.1719 8.43506 73.0762 7.68115 72.8848 7.22412C72.6973 6.76318 72.3945 6.53271 71.9766 6.53271C71.5508 6.53271 71.2461 6.76318 71.0625 7.22412C70.8789 7.68115 70.7871 8.43506 70.7871 9.48584ZM81.832 9.48584C81.832 10.9819 81.5859 12.0894 81.0938 12.8081C80.6055 13.5269 79.8516 13.8862 78.832 13.8862C77.8438 13.8862 77.0977 13.5151 76.5938 12.7729C76.0938 12.0308 75.8438 10.9351 75.8438 9.48584C75.8438 7.97412 76.0879 6.86084 76.5762 6.146C77.0645 5.42725 77.8164 5.06787 78.832 5.06787C79.8203 5.06787 80.5664 5.44287 81.0703 6.19287C81.5781 6.94287 81.832 8.04053 81.832 9.48584ZM77.6426 9.48584C77.6426 10.5366 77.7324 11.2905 77.9121 11.7476C78.0957 12.2007 78.4023 12.4272 78.832 12.4272C79.2539 12.4272 79.5586 12.1968 79.7461 11.7358C79.9336 11.2749 80.0273 10.5249 80.0273 9.48584C80.0273 8.43506 79.9316 7.68115 79.7402 7.22412C79.5527 6.76318 79.25 6.53271 78.832 6.53271C78.4062 6.53271 78.1016 6.76318 77.918 7.22412C77.7344 7.68115 77.6426 8.43506 77.6426 9.48584ZM87.2227 13.769H85.4121V8.81201L85.4297 7.99756L85.459 7.10693C85.1582 7.40771 84.9492 7.60498 84.832 7.69873L83.8477 8.48975L82.9746 7.3999L85.7344 5.20264H87.2227V13.769ZM95.543 9.48584C95.543 10.9819 95.2969 12.0894 94.8047 12.8081C94.3164 13.5269 93.5625 13.8862 92.543 13.8862C91.5547 13.8862 90.8086 13.5151 90.3047 12.7729C89.8047 12.0308 89.5547 10.9351 89.5547 9.48584C89.5547 7.97412 89.7988 6.86084 90.2871 6.146C90.7754 5.42725 91.5273 5.06787 92.543 5.06787C93.5312 5.06787 94.2773 5.44287 94.7812 6.19287C95.2891 6.94287 95.543 8.04053 95.543 9.48584ZM91.3535 9.48584C91.3535 10.5366 91.4434 11.2905 91.623 11.7476C91.8066 12.2007 92.1133 12.4272 92.543 12.4272C92.9648 12.4272 93.2695 12.1968 93.457 11.7358C93.6445 11.2749 93.7383 10.5249 93.7383 9.48584C93.7383 8.43506 93.6426 7.68115 93.4512 7.22412C93.2637 6.76318 92.9609 6.53271 92.543 6.53271C92.1172 6.53271 91.8125 6.76318 91.6289 7.22412C91.4453 7.68115 91.3535 8.43506 91.3535 9.48584ZM102.398 9.48584C102.398 10.9819 102.152 12.0894 101.66 12.8081C101.172 13.5269 100.418 13.8862 99.3984 13.8862C98.4102 13.8862 97.6641 13.5151 97.1602 12.7729C96.6602 12.0308 96.4102 10.9351 96.4102 9.48584C96.4102 7.97412 96.6543 6.86084 97.1426 6.146C97.6309 5.42725 98.3828 5.06787 99.3984 5.06787C100.387 5.06787 101.133 5.44287 101.637 6.19287C102.145 6.94287 102.398 8.04053 102.398 9.48584ZM98.209 9.48584C98.209 10.5366 98.2988 11.2905 98.4785 11.7476C98.6621 12.2007 98.9688 12.4272 99.3984 12.4272C99.8203 12.4272 100.125 12.1968 100.312 11.7358C100.5 11.2749 100.594 10.5249 100.594 9.48584C100.594 8.43506 100.498 7.68115 100.307 7.22412C100.119 6.76318 99.8164 6.53271 99.3984 6.53271C98.9727 6.53271 98.668 6.76318 98.4844 7.22412C98.3008 7.68115 98.209 8.43506 98.209 9.48584ZM107.789 13.769H105.979V8.81201L105.996 7.99756L106.025 7.10693C105.725 7.40771 105.516 7.60498 105.398 7.69873L104.414 8.48975L103.541 7.3999L106.301 5.20264H107.789V13.769ZM114.645 13.769H112.834V8.81201L112.852 7.99756L112.881 7.10693C112.58 7.40771 112.371 7.60498 112.254 7.69873L111.27 8.48975L110.396 7.3999L113.156 5.20264H114.645V13.769ZM122.965 9.48584C122.965 10.9819 122.719 12.0894 122.227 12.8081C121.738 13.5269 120.984 13.8862 119.965 13.8862C118.977 13.8862 118.23 13.5151 117.727 12.7729C117.227 12.0308 116.977 10.9351 116.977 9.48584C116.977 7.97412 117.221 6.86084 117.709 6.146C118.197 5.42725 118.949 5.06787 119.965 5.06787C120.953 5.06787 121.699 5.44287 122.203 6.19287C122.711 6.94287 122.965 8.04053 122.965 9.48584ZM118.775 9.48584C118.775 10.5366 118.865 11.2905 119.045 11.7476C119.229 12.2007 119.535 12.4272 119.965 12.4272C120.387 12.4272 120.691 12.1968 120.879 11.7358C121.066 11.2749 121.16 10.5249 121.16 9.48584C121.16 8.43506 121.064 7.68115 120.873 7.22412C120.686 6.76318 120.383 6.53271 119.965 6.53271C119.539 6.53271 119.234 6.76318 119.051 7.22412C118.867 7.68115 118.775 8.43506 118.775 9.48584ZM129.82 9.48584C129.82 10.9819 129.574 12.0894 129.082 12.8081C128.594 13.5269 127.84 13.8862 126.82 13.8862C125.832 13.8862 125.086 13.5151 124.582 12.7729C124.082 12.0308 123.832 10.9351 123.832 9.48584C123.832 7.97412 124.076 6.86084 124.564 6.146C125.053 5.42725 125.805 5.06787 126.82 5.06787C127.809 5.06787 128.555 5.44287 129.059 6.19287C129.566 6.94287 129.82 8.04053 129.82 9.48584ZM125.631 9.48584C125.631 10.5366 125.721 11.2905 125.9 11.7476C126.084 12.2007 126.391 12.4272 126.82 12.4272C127.242 12.4272 127.547 12.1968 127.734 11.7358C127.922 11.2749 128.016 10.5249 128.016 9.48584C128.016 8.43506 127.92 7.68115 127.729 7.22412C127.541 6.76318 127.238 6.53271 126.82 6.53271C126.395 6.53271 126.09 6.76318 125.906 7.22412C125.723 7.68115 125.631 8.43506 125.631 9.48584ZM4.95703 29.769H3.14648V24.812L3.16406 23.9976L3.19336 23.1069C2.89258 23.4077 2.68359 23.605 2.56641 23.6987L1.58203 24.4897L0.708984 23.3999L3.46875 21.2026H4.95703V29.769ZM13.2773 25.4858C13.2773 26.9819 13.0312 28.0894 12.5391 28.8081C12.0508 29.5269 11.2969 29.8862 10.2773 29.8862C9.28906 29.8862 8.54297 29.5151 8.03906 28.7729C7.53906 28.0308 7.28906 26.9351 7.28906 25.4858C7.28906 23.9741 7.5332 22.8608 8.02148 22.146C8.50977 21.4272 9.26172 21.0679 10.2773 21.0679C11.2656 21.0679 12.0117 21.4429 12.5156 22.1929C13.0234 22.9429 13.2773 24.0405 13.2773 25.4858ZM9.08789 25.4858C9.08789 26.5366 9.17773 27.2905 9.35742 27.7476C9.54102 28.2007 9.84766 28.4272 10.2773 28.4272C10.6992 28.4272 11.0039 28.1968 11.1914 27.7358C11.3789 27.2749 11.4727 26.5249 11.4727 25.4858C11.4727 24.4351 11.377 23.6812 11.1855 23.2241C10.998 22.7632 10.6953 22.5327 10.2773 22.5327C9.85156 22.5327 9.54688 22.7632 9.36328 23.2241C9.17969 23.6812 9.08789 24.4351 9.08789 25.4858ZM18.668 29.769H16.8574V24.812L16.875 23.9976L16.9043 23.1069C16.6035 23.4077 16.3945 23.605 16.2773 23.6987L15.293 24.4897L14.4199 23.3999L17.1797 21.2026H18.668V29.769ZM26.9883 25.4858C26.9883 26.9819 26.7422 28.0894 26.25 28.8081C25.7617 29.5269 25.0078 29.8862 23.9883 29.8862C23 29.8862 22.2539 29.5151 21.75 28.7729C21.25 28.0308 21 26.9351 21 25.4858C21 23.9741 21.2441 22.8608 21.7324 22.146C22.2207 21.4272 22.9727 21.0679 23.9883 21.0679C24.9766 21.0679 25.7227 21.4429 26.2266 22.1929C26.7344 22.9429 26.9883 24.0405 26.9883 25.4858ZM22.7988 25.4858C22.7988 26.5366 22.8887 27.2905 23.0684 27.7476C23.252 28.2007 23.5586 28.4272 23.9883 28.4272C24.4102 28.4272 24.7148 28.1968 24.9023 27.7358C25.0898 27.2749 25.1836 26.5249 25.1836 25.4858C25.1836 24.4351 25.0879 23.6812 24.8965 23.2241C24.709 22.7632 24.4062 22.5327 23.9883 22.5327C23.5625 22.5327 23.2578 22.7632 23.0742 23.2241C22.8906 23.6812 22.7988 24.4351 22.7988 25.4858ZM32.3789 29.769H30.5684V24.812L30.5859 23.9976L30.6152 23.1069C30.3145 23.4077 30.1055 23.605 29.9883 23.6987L29.0039 24.4897L28.1309 23.3999L30.8906 21.2026H32.3789V29.769ZM40.6992 25.4858C40.6992 26.9819 40.4531 28.0894 39.9609 28.8081C39.4727 29.5269 38.7188 29.8862 37.6992 29.8862C36.7109 29.8862 35.9648 29.5151 35.4609 28.7729C34.9609 28.0308 34.7109 26.9351 34.7109 25.4858C34.7109 23.9741 34.9551 22.8608 35.4434 22.146C35.9316 21.4272 36.6836 21.0679 37.6992 21.0679C38.6875 21.0679 39.4336 21.4429 39.9375 22.1929C40.4453 22.9429 40.6992 24.0405 40.6992 25.4858ZM36.5098 25.4858C36.5098 26.5366 36.5996 27.2905 36.7793 27.7476C36.9629 28.2007 37.2695 28.4272 37.6992 28.4272C38.1211 28.4272 38.4258 28.1968 38.6133 27.7358C38.8008 27.2749 38.8945 26.5249 38.8945 25.4858C38.8945 24.4351 38.7988 23.6812 38.6074 23.2241C38.4199 22.7632 38.1172 22.5327 37.6992 22.5327C37.2734 22.5327 36.9688 22.7632 36.7852 23.2241C36.6016 23.6812 36.5098 24.4351 36.5098 25.4858ZM47.5547 25.4858C47.5547 26.9819 47.3086 28.0894 46.8164 28.8081C46.3281 29.5269 45.5742 29.8862 44.5547 29.8862C43.5664 29.8862 42.8203 29.5151 42.3164 28.7729C41.8164 28.0308 41.5664 26.9351 41.5664 25.4858C41.5664 23.9741 41.8105 22.8608 42.2988 22.146C42.7871 21.4272 43.5391 21.0679 44.5547 21.0679C45.543 21.0679 46.2891 21.4429 46.793 22.1929C47.3008 22.9429 47.5547 24.0405 47.5547 25.4858ZM43.3652 25.4858C43.3652 26.5366 43.4551 27.2905 43.6348 27.7476C43.8184 28.2007 44.125 28.4272 44.5547 28.4272C44.9766 28.4272 45.2812 28.1968 45.4688 27.7358C45.6562 27.2749 45.75 26.5249 45.75 25.4858C45.75 24.4351 45.6543 23.6812 45.4629 23.2241C45.2754 22.7632 44.9727 22.5327 44.5547 22.5327C44.1289 22.5327 43.8242 22.7632 43.6406 23.2241C43.457 23.6812 43.3652 24.4351 43.3652 25.4858ZM52.9453 29.769H51.1348V24.812L51.1523 23.9976L51.1816 23.1069C50.8809 23.4077 50.6719 23.605 50.5547 23.6987L49.5703 24.4897L48.6973 23.3999L51.457 21.2026H52.9453V29.769ZM61.2656 25.4858C61.2656 26.9819 61.0195 28.0894 60.5273 28.8081C60.0391 29.5269 59.2852 29.8862 58.2656 29.8862C57.2773 29.8862 56.5312 29.5151 56.0273 28.7729C55.5273 28.0308 55.2773 26.9351 55.2773 25.4858C55.2773 23.9741 55.5215 22.8608 56.0098 22.146C56.498 21.4272 57.25 21.0679 58.2656 21.0679C59.2539 21.0679 60 21.4429 60.5039 22.1929C61.0117 22.9429 61.2656 24.0405 61.2656 25.4858ZM57.0762 25.4858C57.0762 26.5366 57.166 27.2905 57.3457 27.7476C57.5293 28.2007 57.8359 28.4272 58.2656 28.4272C58.6875 28.4272 58.9922 28.1968 59.1797 27.7358C59.3672 27.2749 59.4609 26.5249 59.4609 25.4858C59.4609 24.4351 59.3652 23.6812 59.1738 23.2241C58.9863 22.7632 58.6836 22.5327 58.2656 22.5327C57.8398 22.5327 57.5352 22.7632 57.3516 23.2241C57.168 23.6812 57.0762 24.4351 57.0762 25.4858ZM66.6562 29.769H64.8457V24.812L64.8633 23.9976L64.8926 23.1069C64.5918 23.4077 64.3828 23.605 64.2656 23.6987L63.2812 24.4897L62.4082 23.3999L65.168 21.2026H66.6562V29.769ZM74.9766 25.4858C74.9766 26.9819 74.7305 28.0894 74.2383 28.8081C73.75 29.5269 72.9961 29.8862 71.9766 29.8862C70.9883 29.8862 70.2422 29.5151 69.7383 28.7729C69.2383 28.0308 68.9883 26.9351 68.9883 25.4858C68.9883 23.9741 69.2324 22.8608 69.7207 22.146C70.209 21.4272 70.9609 21.0679 71.9766 21.0679C72.9648 21.0679 73.7109 21.4429 74.2148 22.1929C74.7227 22.9429 74.9766 24.0405 74.9766 25.4858ZM70.7871 25.4858C70.7871 26.5366 70.877 27.2905 71.0566 27.7476C71.2402 28.2007 71.5469 28.4272 71.9766 28.4272C72.3984 28.4272 72.7031 28.1968 72.8906 27.7358C73.0781 27.2749 73.1719 26.5249 73.1719 25.4858C73.1719 24.4351 73.0762 23.6812 72.8848 23.2241C72.6973 22.7632 72.3945 22.5327 71.9766 22.5327C71.5508 22.5327 71.2461 22.7632 71.0625 23.2241C70.8789 23.6812 70.7871 24.4351 70.7871 25.4858ZM81.832 25.4858C81.832 26.9819 81.5859 28.0894 81.0938 28.8081C80.6055 29.5269 79.8516 29.8862 78.832 29.8862C77.8438 29.8862 77.0977 29.5151 76.5938 28.7729C76.0938 28.0308 75.8438 26.9351 75.8438 25.4858C75.8438 23.9741 76.0879 22.8608 76.5762 22.146C77.0645 21.4272 77.8164 21.0679 78.832 21.0679C79.8203 21.0679 80.5664 21.4429 81.0703 22.1929C81.5781 22.9429 81.832 24.0405 81.832 25.4858ZM77.6426 25.4858C77.6426 26.5366 77.7324 27.2905 77.9121 27.7476C78.0957 28.2007 78.4023 28.4272 78.832 28.4272C79.2539 28.4272 79.5586 28.1968 79.7461 27.7358C79.9336 27.2749 80.0273 26.5249 80.0273 25.4858C80.0273 24.4351 79.9316 23.6812 79.7402 23.2241C79.5527 22.7632 79.25 22.5327 78.832 22.5327C78.4062 22.5327 78.1016 22.7632 77.918 23.2241C77.7344 23.6812 77.6426 24.4351 77.6426 25.4858ZM88.6875 25.4858C88.6875 26.9819 88.4414 28.0894 87.9492 28.8081C87.4609 29.5269 86.707 29.8862 85.6875 29.8862C84.6992 29.8862 83.9531 29.5151 83.4492 28.7729C82.9492 28.0308 82.6992 26.9351 82.6992 25.4858C82.6992 23.9741 82.9434 22.8608 83.4316 22.146C83.9199 21.4272 84.6719 21.0679 85.6875 21.0679C86.6758 21.0679 87.4219 21.4429 87.9258 22.1929C88.4336 22.9429 88.6875 24.0405 88.6875 25.4858ZM84.498 25.4858C84.498 26.5366 84.5879 27.2905 84.7676 27.7476C84.9512 28.2007 85.2578 28.4272 85.6875 28.4272C86.1094 28.4272 86.4141 28.1968 86.6016 27.7358C86.7891 27.2749 86.8828 26.5249 86.8828 25.4858C86.8828 24.4351 86.7871 23.6812 86.5957 23.2241C86.4082 22.7632 86.1055 22.5327 85.6875 22.5327C85.2617 22.5327 84.957 22.7632 84.7734 23.2241C84.5898 23.6812 84.498 24.4351 84.498 25.4858ZM95.543 25.4858C95.543 26.9819 95.2969 28.0894 94.8047 28.8081C94.3164 29.5269 93.5625 29.8862 92.543 29.8862C91.5547 29.8862 90.8086 29.5151 90.3047 28.7729C89.8047 28.0308 89.5547 26.9351 89.5547 25.4858C89.5547 23.9741 89.7988 22.8608 90.2871 22.146C90.7754 21.4272 91.5273 21.0679 92.543 21.0679C93.5312 21.0679 94.2773 21.4429 94.7812 22.1929C95.2891 22.9429 95.543 24.0405 95.543 25.4858ZM91.3535 25.4858C91.3535 26.5366 91.4434 27.2905 91.623 27.7476C91.8066 28.2007 92.1133 28.4272 92.543 28.4272C92.9648 28.4272 93.2695 28.1968 93.457 27.7358C93.6445 27.2749 93.7383 26.5249 93.7383 25.4858C93.7383 24.4351 93.6426 23.6812 93.4512 23.2241C93.2637 22.7632 92.9609 22.5327 92.543 22.5327C92.1172 22.5327 91.8125 22.7632 91.6289 23.2241C91.4453 23.6812 91.3535 24.4351 91.3535 25.4858ZM102.398 25.4858C102.398 26.9819 102.152 28.0894 101.66 28.8081C101.172 29.5269 100.418 29.8862 99.3984 29.8862C98.4102 29.8862 97.6641 29.5151 97.1602 28.7729C96.6602 28.0308 96.4102 26.9351 96.4102 25.4858C96.4102 23.9741 96.6543 22.8608 97.1426 22.146C97.6309 21.4272 98.3828 21.0679 99.3984 21.0679C100.387 21.0679 101.133 21.4429 101.637 22.1929C102.145 22.9429 102.398 24.0405 102.398 25.4858ZM98.209 25.4858C98.209 26.5366 98.2988 27.2905 98.4785 27.7476C98.6621 28.2007 98.9688 28.4272 99.3984 28.4272C99.8203 28.4272 100.125 28.1968 100.312 27.7358C100.5 27.2749 100.594 26.5249 100.594 25.4858C100.594 24.4351 100.498 23.6812 100.307 23.2241C100.119 22.7632 99.8164 22.5327 99.3984 22.5327C98.9727 22.5327 98.668 22.7632 98.4844 23.2241C98.3008 23.6812 98.209 24.4351 98.209 25.4858ZM107.789 29.769H105.979V24.812L105.996 23.9976L106.025 23.1069C105.725 23.4077 105.516 23.605 105.398 23.6987L104.414 24.4897L103.541 23.3999L106.301 21.2026H107.789V29.769ZM116.109 25.4858C116.109 26.9819 115.863 28.0894 115.371 28.8081C114.883 29.5269 114.129 29.8862 113.109 29.8862C112.121 29.8862 111.375 29.5151 110.871 28.7729C110.371 28.0308 110.121 26.9351 110.121 25.4858C110.121 23.9741 110.365 22.8608 110.854 22.146C111.342 21.4272 112.094 21.0679 113.109 21.0679C114.098 21.0679 114.844 21.4429 115.348 22.1929C115.855 22.9429 116.109 24.0405 116.109 25.4858ZM111.92 25.4858C111.92 26.5366 112.01 27.2905 112.189 27.7476C112.373 28.2007 112.68 28.4272 113.109 28.4272C113.531 28.4272 113.836 28.1968 114.023 27.7358C114.211 27.2749 114.305 26.5249 114.305 25.4858C114.305 24.4351 114.209 23.6812 114.018 23.2241C113.83 22.7632 113.527 22.5327 113.109 22.5327C112.684 22.5327 112.379 22.7632 112.195 23.2241C112.012 23.6812 111.92 24.4351 111.92 25.4858ZM121.5 29.769H119.689V24.812L119.707 23.9976L119.736 23.1069C119.436 23.4077 119.227 23.605 119.109 23.6987L118.125 24.4897L117.252 23.3999L120.012 21.2026H121.5V29.769ZM129.82 25.4858C129.82 26.9819 129.574 28.0894 129.082 28.8081C128.594 29.5269 127.84 29.8862 126.82 29.8862C125.832 29.8862 125.086 29.5151 124.582 28.7729C124.082 28.0308 123.832 26.9351 123.832 25.4858C123.832 23.9741 124.076 22.8608 124.564 22.146C125.053 21.4272 125.805 21.0679 126.82 21.0679C127.809 21.0679 128.555 21.4429 129.059 22.1929C129.566 22.9429 129.82 24.0405 129.82 25.4858ZM125.631 25.4858C125.631 26.5366 125.721 27.2905 125.9 27.7476C126.084 28.2007 126.391 28.4272 126.82 28.4272C127.242 28.4272 127.547 28.1968 127.734 27.7358C127.922 27.2749 128.016 26.5249 128.016 25.4858C128.016 24.4351 127.92 23.6812 127.729 23.2241C127.541 22.7632 127.238 22.5327 126.82 22.5327C126.395 22.5327 126.09 22.7632 125.906 23.2241C125.723 23.6812 125.631 24.4351 125.631 25.4858ZM6.42188 41.4858C6.42188 42.9819 6.17578 44.0894 5.68359 44.8081C5.19531 45.5269 4.44141 45.8862 3.42188 45.8862C2.43359 45.8862 1.6875 45.5151 1.18359 44.7729C0.683594 44.0308 0.433594 42.9351 0.433594 41.4858C0.433594 39.9741 0.677734 38.8608 1.16602 38.146C1.6543 37.4272 2.40625 37.0679 3.42188 37.0679C4.41016 37.0679 5.15625 37.4429 5.66016 38.1929C6.16797 38.9429 6.42188 40.0405 6.42188 41.4858ZM2.23242 41.4858C2.23242 42.5366 2.32227 43.2905 2.50195 43.7476C2.68555 44.2007 2.99219 44.4272 3.42188 44.4272C3.84375 44.4272 4.14844 44.1968 4.33594 43.7358C4.52344 43.2749 4.61719 42.5249 4.61719 41.4858C4.61719 40.4351 4.52148 39.6812 4.33008 39.2241C4.14258 38.7632 3.83984 38.5327 3.42188 38.5327C2.99609 38.5327 2.69141 38.7632 2.50781 39.2241C2.32422 39.6812 2.23242 40.4351 2.23242 41.4858ZM11.8125 45.769H10.002V40.812L10.0195 39.9976L10.0488 39.1069C9.74805 39.4077 9.53906 39.605 9.42188 39.6987L8.4375 40.4897L7.56445 39.3999L10.3242 37.2026H11.8125V45.769ZM20.1328 41.4858C20.1328 42.9819 19.8867 44.0894 19.3945 44.8081C18.9062 45.5269 18.1523 45.8862 17.1328 45.8862C16.1445 45.8862 15.3984 45.5151 14.8945 44.7729C14.3945 44.0308 14.1445 42.9351 14.1445 41.4858C14.1445 39.9741 14.3887 38.8608 14.877 38.146C15.3652 37.4272 16.1172 37.0679 17.1328 37.0679C18.1211 37.0679 18.8672 37.4429 19.3711 38.1929C19.8789 38.9429 20.1328 40.0405 20.1328 41.4858ZM15.9434 41.4858C15.9434 42.5366 16.0332 43.2905 16.2129 43.7476C16.3965 44.2007 16.7031 44.4272 17.1328 44.4272C17.5547 44.4272 17.8594 44.1968 18.0469 43.7358C18.2344 43.2749 18.3281 42.5249 18.3281 41.4858C18.3281 40.4351 18.2324 39.6812 18.041 39.2241C17.8535 38.7632 17.5508 38.5327 17.1328 38.5327C16.707 38.5327 16.4023 38.7632 16.2188 39.2241C16.0352 39.6812 15.9434 40.4351 15.9434 41.4858ZM26.9883 41.4858C26.9883 42.9819 26.7422 44.0894 26.25 44.8081C25.7617 45.5269 25.0078 45.8862 23.9883 45.8862C23 45.8862 22.2539 45.5151 21.75 44.7729C21.25 44.0308 21 42.9351 21 41.4858C21 39.9741 21.2441 38.8608 21.7324 38.146C22.2207 37.4272 22.9727 37.0679 23.9883 37.0679C24.9766 37.0679 25.7227 37.4429 26.2266 38.1929C26.7344 38.9429 26.9883 40.0405 26.9883 41.4858ZM22.7988 41.4858C22.7988 42.5366 22.8887 43.2905 23.0684 43.7476C23.252 44.2007 23.5586 44.4272 23.9883 44.4272C24.4102 44.4272 24.7148 44.1968 24.9023 43.7358C25.0898 43.2749 25.1836 42.5249 25.1836 41.4858C25.1836 40.4351 25.0879 39.6812 24.8965 39.2241C24.709 38.7632 24.4062 38.5327 23.9883 38.5327C23.5625 38.5327 23.2578 38.7632 23.0742 39.2241C22.8906 39.6812 22.7988 40.4351 22.7988 41.4858ZM32.3789 45.769H30.5684V40.812L30.5859 39.9976L30.6152 39.1069C30.3145 39.4077 30.1055 39.605 29.9883 39.6987L29.0039 40.4897L28.1309 39.3999L30.8906 37.2026H32.3789V45.769ZM40.6992 41.4858C40.6992 42.9819 40.4531 44.0894 39.9609 44.8081C39.4727 45.5269 38.7188 45.8862 37.6992 45.8862C36.7109 45.8862 35.9648 45.5151 35.4609 44.7729C34.9609 44.0308 34.7109 42.9351 34.7109 41.4858C34.7109 39.9741 34.9551 38.8608 35.4434 38.146C35.9316 37.4272 36.6836 37.0679 37.6992 37.0679C38.6875 37.0679 39.4336 37.4429 39.9375 38.1929C40.4453 38.9429 40.6992 40.0405 40.6992 41.4858ZM36.5098 41.4858C36.5098 42.5366 36.5996 43.2905 36.7793 43.7476C36.9629 44.2007 37.2695 44.4272 37.6992 44.4272C38.1211 44.4272 38.4258 44.1968 38.6133 43.7358C38.8008 43.2749 38.8945 42.5249 38.8945 41.4858C38.8945 40.4351 38.7988 39.6812 38.6074 39.2241C38.4199 38.7632 38.1172 38.5327 37.6992 38.5327C37.2734 38.5327 36.9688 38.7632 36.7852 39.2241C36.6016 39.6812 36.5098 40.4351 36.5098 41.4858ZM47.5547 41.4858C47.5547 42.9819 47.3086 44.0894 46.8164 44.8081C46.3281 45.5269 45.5742 45.8862 44.5547 45.8862C43.5664 45.8862 42.8203 45.5151 42.3164 44.7729C41.8164 44.0308 41.5664 42.9351 41.5664 41.4858C41.5664 39.9741 41.8105 38.8608 42.2988 38.146C42.7871 37.4272 43.5391 37.0679 44.5547 37.0679C45.543 37.0679 46.2891 37.4429 46.793 38.1929C47.3008 38.9429 47.5547 40.0405 47.5547 41.4858ZM43.3652 41.4858C43.3652 42.5366 43.4551 43.2905 43.6348 43.7476C43.8184 44.2007 44.125 44.4272 44.5547 44.4272C44.9766 44.4272 45.2812 44.1968 45.4688 43.7358C45.6562 43.2749 45.75 42.5249 45.75 41.4858C45.75 40.4351 45.6543 39.6812 45.4629 39.2241C45.2754 38.7632 44.9727 38.5327 44.5547 38.5327C44.1289 38.5327 43.8242 38.7632 43.6406 39.2241C43.457 39.6812 43.3652 40.4351 43.3652 41.4858ZM54.4102 41.4858C54.4102 42.9819 54.1641 44.0894 53.6719 44.8081C53.1836 45.5269 52.4297 45.8862 51.4102 45.8862C50.4219 45.8862 49.6758 45.5151 49.1719 44.7729C48.6719 44.0308 48.4219 42.9351 48.4219 41.4858C48.4219 39.9741 48.666 38.8608 49.1543 38.146C49.6426 37.4272 50.3945 37.0679 51.4102 37.0679C52.3984 37.0679 53.1445 37.4429 53.6484 38.1929C54.1562 38.9429 54.4102 40.0405 54.4102 41.4858ZM50.2207 41.4858C50.2207 42.5366 50.3105 43.2905 50.4902 43.7476C50.6738 44.2007 50.9805 44.4272 51.4102 44.4272C51.832 44.4272 52.1367 44.1968 52.3242 43.7358C52.5117 43.2749 52.6055 42.5249 52.6055 41.4858C52.6055 40.4351 52.5098 39.6812 52.3184 39.2241C52.1309 38.7632 51.8281 38.5327 51.4102 38.5327C50.9844 38.5327 50.6797 38.7632 50.4961 39.2241C50.3125 39.6812 50.2207 40.4351 50.2207 41.4858ZM61.2656 41.4858C61.2656 42.9819 61.0195 44.0894 60.5273 44.8081C60.0391 45.5269 59.2852 45.8862 58.2656 45.8862C57.2773 45.8862 56.5312 45.5151 56.0273 44.7729C55.5273 44.0308 55.2773 42.9351 55.2773 41.4858C55.2773 39.9741 55.5215 38.8608 56.0098 38.146C56.498 37.4272 57.25 37.0679 58.2656 37.0679C59.2539 37.0679 60 37.4429 60.5039 38.1929C61.0117 38.9429 61.2656 40.0405 61.2656 41.4858ZM57.0762 41.4858C57.0762 42.5366 57.166 43.2905 57.3457 43.7476C57.5293 44.2007 57.8359 44.4272 58.2656 44.4272C58.6875 44.4272 58.9922 44.1968 59.1797 43.7358C59.3672 43.2749 59.4609 42.5249 59.4609 41.4858C59.4609 40.4351 59.3652 39.6812 59.1738 39.2241C58.9863 38.7632 58.6836 38.5327 58.2656 38.5327C57.8398 38.5327 57.5352 38.7632 57.3516 39.2241C57.168 39.6812 57.0762 40.4351 57.0762 41.4858ZM66.6562 45.769H64.8457V40.812L64.8633 39.9976L64.8926 39.1069C64.5918 39.4077 64.3828 39.605 64.2656 39.6987L63.2812 40.4897L62.4082 39.3999L65.168 37.2026H66.6562V45.769ZM74.9766 41.4858C74.9766 42.9819 74.7305 44.0894 74.2383 44.8081C73.75 45.5269 72.9961 45.8862 71.9766 45.8862C70.9883 45.8862 70.2422 45.5151 69.7383 44.7729C69.2383 44.0308 68.9883 42.9351 68.9883 41.4858C68.9883 39.9741 69.2324 38.8608 69.7207 38.146C70.209 37.4272 70.9609 37.0679 71.9766 37.0679C72.9648 37.0679 73.7109 37.4429 74.2148 38.1929C74.7227 38.9429 74.9766 40.0405 74.9766 41.4858ZM70.7871 41.4858C70.7871 42.5366 70.877 43.2905 71.0566 43.7476C71.2402 44.2007 71.5469 44.4272 71.9766 44.4272C72.3984 44.4272 72.7031 44.1968 72.8906 43.7358C73.0781 43.2749 73.1719 42.5249 73.1719 41.4858C73.1719 40.4351 73.0762 39.6812 72.8848 39.2241C72.6973 38.7632 72.3945 38.5327 71.9766 38.5327C71.5508 38.5327 71.2461 38.7632 71.0625 39.2241C70.8789 39.6812 70.7871 40.4351 70.7871 41.4858ZM80.3672 45.769H78.5566V40.812L78.5742 39.9976L78.6035 39.1069C78.3027 39.4077 78.0938 39.605 77.9766 39.6987L76.9922 40.4897L76.1191 39.3999L78.8789 37.2026H80.3672V45.769ZM88.6875 41.4858C88.6875 42.9819 88.4414 44.0894 87.9492 44.8081C87.4609 45.5269 86.707 45.8862 85.6875 45.8862C84.6992 45.8862 83.9531 45.5151 83.4492 44.7729C82.9492 44.0308 82.6992 42.9351 82.6992 41.4858C82.6992 39.9741 82.9434 38.8608 83.4316 38.146C83.9199 37.4272 84.6719 37.0679 85.6875 37.0679C86.6758 37.0679 87.4219 37.4429 87.9258 38.1929C88.4336 38.9429 88.6875 40.0405 88.6875 41.4858ZM84.498 41.4858C84.498 42.5366 84.5879 43.2905 84.7676 43.7476C84.9512 44.2007 85.2578 44.4272 85.6875 44.4272C86.1094 44.4272 86.4141 44.1968 86.6016 43.7358C86.7891 43.2749 86.8828 42.5249 86.8828 41.4858C86.8828 40.4351 86.7871 39.6812 86.5957 39.2241C86.4082 38.7632 86.1055 38.5327 85.6875 38.5327C85.2617 38.5327 84.957 38.7632 84.7734 39.2241C84.5898 39.6812 84.498 40.4351 84.498 41.4858ZM95.543 41.4858C95.543 42.9819 95.2969 44.0894 94.8047 44.8081C94.3164 45.5269 93.5625 45.8862 92.543 45.8862C91.5547 45.8862 90.8086 45.5151 90.3047 44.7729C89.8047 44.0308 89.5547 42.9351 89.5547 41.4858C89.5547 39.9741 89.7988 38.8608 90.2871 38.146C90.7754 37.4272 91.5273 37.0679 92.543 37.0679C93.5312 37.0679 94.2773 37.4429 94.7812 38.1929C95.2891 38.9429 95.543 40.0405 95.543 41.4858ZM91.3535 41.4858C91.3535 42.5366 91.4434 43.2905 91.623 43.7476C91.8066 44.2007 92.1133 44.4272 92.543 44.4272C92.9648 44.4272 93.2695 44.1968 93.457 43.7358C93.6445 43.2749 93.7383 42.5249 93.7383 41.4858C93.7383 40.4351 93.6426 39.6812 93.4512 39.2241C93.2637 38.7632 92.9609 38.5327 92.543 38.5327C92.1172 38.5327 91.8125 38.7632 91.6289 39.2241C91.4453 39.6812 91.3535 40.4351 91.3535 41.4858ZM102.398 41.4858C102.398 42.9819 102.152 44.0894 101.66 44.8081C101.172 45.5269 100.418 45.8862 99.3984 45.8862C98.4102 45.8862 97.6641 45.5151 97.1602 44.7729C96.6602 44.0308 96.4102 42.9351 96.4102 41.4858C96.4102 39.9741 96.6543 38.8608 97.1426 38.146C97.6309 37.4272 98.3828 37.0679 99.3984 37.0679C100.387 37.0679 101.133 37.4429 101.637 38.1929C102.145 38.9429 102.398 40.0405 102.398 41.4858ZM98.209 41.4858C98.209 42.5366 98.2988 43.2905 98.4785 43.7476C98.6621 44.2007 98.9688 44.4272 99.3984 44.4272C99.8203 44.4272 100.125 44.1968 100.312 43.7358C100.5 43.2749 100.594 42.5249 100.594 41.4858C100.594 40.4351 100.498 39.6812 100.307 39.2241C100.119 38.7632 99.8164 38.5327 99.3984 38.5327C98.9727 38.5327 98.668 38.7632 98.4844 39.2241C98.3008 39.6812 98.209 40.4351 98.209 41.4858ZM107.789 45.769H105.979V40.812L105.996 39.9976L106.025 39.1069C105.725 39.4077 105.516 39.605 105.398 39.6987L104.414 40.4897L103.541 39.3999L106.301 37.2026H107.789V45.769ZM116.109 41.4858C116.109 42.9819 115.863 44.0894 115.371 44.8081C114.883 45.5269 114.129 45.8862 113.109 45.8862C112.121 45.8862 111.375 45.5151 110.871 44.7729C110.371 44.0308 110.121 42.9351 110.121 41.4858C110.121 39.9741 110.365 38.8608 110.854 38.146C111.342 37.4272 112.094 37.0679 113.109 37.0679C114.098 37.0679 114.844 37.4429 115.348 38.1929C115.855 38.9429 116.109 40.0405 116.109 41.4858ZM111.92 41.4858C111.92 42.5366 112.01 43.2905 112.189 43.7476C112.373 44.2007 112.68 44.4272 113.109 44.4272C113.531 44.4272 113.836 44.1968 114.023 43.7358C114.211 43.2749 114.305 42.5249 114.305 41.4858C114.305 40.4351 114.209 39.6812 114.018 39.2241C113.83 38.7632 113.527 38.5327 113.109 38.5327C112.684 38.5327 112.379 38.7632 112.195 39.2241C112.012 39.6812 111.92 40.4351 111.92 41.4858ZM121.5 45.769H119.689V40.812L119.707 39.9976L119.736 39.1069C119.436 39.4077 119.227 39.605 119.109 39.6987L118.125 40.4897L117.252 39.3999L120.012 37.2026H121.5V45.769ZM129.82 41.4858C129.82 42.9819 129.574 44.0894 129.082 44.8081C128.594 45.5269 127.84 45.8862 126.82 45.8862C125.832 45.8862 125.086 45.5151 124.582 44.7729C124.082 44.0308 123.832 42.9351 123.832 41.4858C123.832 39.9741 124.076 38.8608 124.564 38.146C125.053 37.4272 125.805 37.0679 126.82 37.0679C127.809 37.0679 128.555 37.4429 129.059 38.1929C129.566 38.9429 129.82 40.0405 129.82 41.4858ZM125.631 41.4858C125.631 42.5366 125.721 43.2905 125.9 43.7476C126.084 44.2007 126.391 44.4272 126.82 44.4272C127.242 44.4272 127.547 44.1968 127.734 43.7358C127.922 43.2749 128.016 42.5249 128.016 41.4858C128.016 40.4351 127.92 39.6812 127.729 39.2241C127.541 38.7632 127.238 38.5327 126.82 38.5327C126.395 38.5327 126.09 38.7632 125.906 39.2241C125.723 39.6812 125.631 40.4351 125.631 41.4858ZM4.95703 61.769H3.14648V56.812L3.16406 55.9976L3.19336 55.1069C2.89258 55.4077 2.68359 55.605 2.56641 55.6987L1.58203 56.4897L0.708984 55.3999L3.46875 53.2026H4.95703V61.769ZM13.2773 57.4858C13.2773 58.9819 13.0312 60.0894 12.5391 60.8081C12.0508 61.5269 11.2969 61.8862 10.2773 61.8862C9.28906 61.8862 8.54297 61.5151 8.03906 60.7729C7.53906 60.0308 7.28906 58.9351 7.28906 57.4858C7.28906 55.9741 7.5332 54.8608 8.02148 54.146C8.50977 53.4272 9.26172 53.0679 10.2773 53.0679C11.2656 53.0679 12.0117 53.4429 12.5156 54.1929C13.0234 54.9429 13.2773 56.0405 13.2773 57.4858ZM9.08789 57.4858C9.08789 58.5366 9.17773 59.2905 9.35742 59.7476C9.54102 60.2007 9.84766 60.4272 10.2773 60.4272C10.6992 60.4272 11.0039 60.1968 11.1914 59.7358C11.3789 59.2749 11.4727 58.5249 11.4727 57.4858C11.4727 56.4351 11.377 55.6812 11.1855 55.2241C10.998 54.7632 10.6953 54.5327 10.2773 54.5327C9.85156 54.5327 9.54688 54.7632 9.36328 55.2241C9.17969 55.6812 9.08789 56.4351 9.08789 57.4858ZM20.1328 57.4858C20.1328 58.9819 19.8867 60.0894 19.3945 60.8081C18.9062 61.5269 18.1523 61.8862 17.1328 61.8862C16.1445 61.8862 15.3984 61.5151 14.8945 60.7729C14.3945 60.0308 14.1445 58.9351 14.1445 57.4858C14.1445 55.9741 14.3887 54.8608 14.877 54.146C15.3652 53.4272 16.1172 53.0679 17.1328 53.0679C18.1211 53.0679 18.8672 53.4429 19.3711 54.1929C19.8789 54.9429 20.1328 56.0405 20.1328 57.4858ZM15.9434 57.4858C15.9434 58.5366 16.0332 59.2905 16.2129 59.7476C16.3965 60.2007 16.7031 60.4272 17.1328 60.4272C17.5547 60.4272 17.8594 60.1968 18.0469 59.7358C18.2344 59.2749 18.3281 58.5249 18.3281 57.4858C18.3281 56.4351 18.2324 55.6812 18.041 55.2241C17.8535 54.7632 17.5508 54.5327 17.1328 54.5327C16.707 54.5327 16.4023 54.7632 16.2188 55.2241C16.0352 55.6812 15.9434 56.4351 15.9434 57.4858ZM25.5234 61.769H23.7129V56.812L23.7305 55.9976L23.7598 55.1069C23.459 55.4077 23.25 55.605 23.1328 55.6987L22.1484 56.4897L21.2754 55.3999L24.0352 53.2026H25.5234V61.769ZM33.8438 57.4858C33.8438 58.9819 33.5977 60.0894 33.1055 60.8081C32.6172 61.5269 31.8633 61.8862 30.8438 61.8862C29.8555 61.8862 29.1094 61.5151 28.6055 60.7729C28.1055 60.0308 27.8555 58.9351 27.8555 57.4858C27.8555 55.9741 28.0996 54.8608 28.5879 54.146C29.0762 53.4272 29.8281 53.0679 30.8438 53.0679C31.832 53.0679 32.5781 53.4429 33.082 54.1929C33.5898 54.9429 33.8438 56.0405 33.8438 57.4858ZM29.6543 57.4858C29.6543 58.5366 29.7441 59.2905 29.9238 59.7476C30.1074 60.2007 30.4141 60.4272 30.8438 60.4272C31.2656 60.4272 31.5703 60.1968 31.7578 59.7358C31.9453 59.2749 32.0391 58.5249 32.0391 57.4858C32.0391 56.4351 31.9434 55.6812 31.752 55.2241C31.5645 54.7632 31.2617 54.5327 30.8438 54.5327C30.418 54.5327 30.1133 54.7632 29.9297 55.2241C29.7461 55.6812 29.6543 56.4351 29.6543 57.4858ZM39.2344 61.769H37.4238V56.812L37.4414 55.9976L37.4707 55.1069C37.1699 55.4077 36.9609 55.605 36.8438 55.6987L35.8594 56.4897L34.9863 55.3999L37.7461 53.2026H39.2344V61.769ZM47.5547 57.4858C47.5547 58.9819 47.3086 60.0894 46.8164 60.8081C46.3281 61.5269 45.5742 61.8862 44.5547 61.8862C43.5664 61.8862 42.8203 61.5151 42.3164 60.7729C41.8164 60.0308 41.5664 58.9351 41.5664 57.4858C41.5664 55.9741 41.8105 54.8608 42.2988 54.146C42.7871 53.4272 43.5391 53.0679 44.5547 53.0679C45.543 53.0679 46.2891 53.4429 46.793 54.1929C47.3008 54.9429 47.5547 56.0405 47.5547 57.4858ZM43.3652 57.4858C43.3652 58.5366 43.4551 59.2905 43.6348 59.7476C43.8184 60.2007 44.125 60.4272 44.5547 60.4272C44.9766 60.4272 45.2812 60.1968 45.4688 59.7358C45.6562 59.2749 45.75 58.5249 45.75 57.4858C45.75 56.4351 45.6543 55.6812 45.4629 55.2241C45.2754 54.7632 44.9727 54.5327 44.5547 54.5327C44.1289 54.5327 43.8242 54.7632 43.6406 55.2241C43.457 55.6812 43.3652 56.4351 43.3652 57.4858ZM52.9453 61.769H51.1348V56.812L51.1523 55.9976L51.1816 55.1069C50.8809 55.4077 50.6719 55.605 50.5547 55.6987L49.5703 56.4897L48.6973 55.3999L51.457 53.2026H52.9453V61.769ZM61.2656 57.4858C61.2656 58.9819 61.0195 60.0894 60.5273 60.8081C60.0391 61.5269 59.2852 61.8862 58.2656 61.8862C57.2773 61.8862 56.5312 61.5151 56.0273 60.7729C55.5273 60.0308 55.2773 58.9351 55.2773 57.4858C55.2773 55.9741 55.5215 54.8608 56.0098 54.146C56.498 53.4272 57.25 53.0679 58.2656 53.0679C59.2539 53.0679 60 53.4429 60.5039 54.1929C61.0117 54.9429 61.2656 56.0405 61.2656 57.4858ZM57.0762 57.4858C57.0762 58.5366 57.166 59.2905 57.3457 59.7476C57.5293 60.2007 57.8359 60.4272 58.2656 60.4272C58.6875 60.4272 58.9922 60.1968 59.1797 59.7358C59.3672 59.2749 59.4609 58.5249 59.4609 57.4858C59.4609 56.4351 59.3652 55.6812 59.1738 55.2241C58.9863 54.7632 58.6836 54.5327 58.2656 54.5327C57.8398 54.5327 57.5352 54.7632 57.3516 55.2241C57.168 55.6812 57.0762 56.4351 57.0762 57.4858ZM68.1211 57.4858C68.1211 58.9819 67.875 60.0894 67.3828 60.8081C66.8945 61.5269 66.1406 61.8862 65.1211 61.8862C64.1328 61.8862 63.3867 61.5151 62.8828 60.7729C62.3828 60.0308 62.1328 58.9351 62.1328 57.4858C62.1328 55.9741 62.377 54.8608 62.8652 54.146C63.3535 53.4272 64.1055 53.0679 65.1211 53.0679C66.1094 53.0679 66.8555 53.4429 67.3594 54.1929C67.8672 54.9429 68.1211 56.0405 68.1211 57.4858ZM63.9316 57.4858C63.9316 58.5366 64.0215 59.2905 64.2012 59.7476C64.3848 60.2007 64.6914 60.4272 65.1211 60.4272C65.543 60.4272 65.8477 60.1968 66.0352 59.7358C66.2227 59.2749 66.3164 58.5249 66.3164 57.4858C66.3164 56.4351 66.2207 55.6812 66.0293 55.2241C65.8418 54.7632 65.5391 54.5327 65.1211 54.5327C64.6953 54.5327 64.3906 54.7632 64.207 55.2241C64.0234 55.6812 63.9316 56.4351 63.9316 57.4858ZM73.5117 61.769H71.7012V56.812L71.7188 55.9976L71.748 55.1069C71.4473 55.4077 71.2383 55.605 71.1211 55.6987L70.1367 56.4897L69.2637 55.3999L72.0234 53.2026H73.5117V61.769ZM81.832 57.4858C81.832 58.9819 81.5859 60.0894 81.0938 60.8081C80.6055 61.5269 79.8516 61.8862 78.832 61.8862C77.8438 61.8862 77.0977 61.5151 76.5938 60.7729C76.0938 60.0308 75.8438 58.9351 75.8438 57.4858C75.8438 55.9741 76.0879 54.8608 76.5762 54.146C77.0645 53.4272 77.8164 53.0679 78.832 53.0679C79.8203 53.0679 80.5664 53.4429 81.0703 54.1929C81.5781 54.9429 81.832 56.0405 81.832 57.4858ZM77.6426 57.4858C77.6426 58.5366 77.7324 59.2905 77.9121 59.7476C78.0957 60.2007 78.4023 60.4272 78.832 60.4272C79.2539 60.4272 79.5586 60.1968 79.7461 59.7358C79.9336 59.2749 80.0273 58.5249 80.0273 57.4858C80.0273 56.4351 79.9316 55.6812 79.7402 55.2241C79.5527 54.7632 79.25 54.5327 78.832 54.5327C78.4062 54.5327 78.1016 54.7632 77.918 55.2241C77.7344 55.6812 77.6426 56.4351 77.6426 57.4858ZM87.2227 61.769H85.4121V56.812L85.4297 55.9976L85.459 55.1069C85.1582 55.4077 84.9492 55.605 84.832 55.6987L83.8477 56.4897L82.9746 55.3999L85.7344 53.2026H87.2227V61.769ZM95.543 57.4858C95.543 58.9819 95.2969 60.0894 94.8047 60.8081C94.3164 61.5269 93.5625 61.8862 92.543 61.8862C91.5547 61.8862 90.8086 61.5151 90.3047 60.7729C89.8047 60.0308 89.5547 58.9351 89.5547 57.4858C89.5547 55.9741 89.7988 54.8608 90.2871 54.146C90.7754 53.4272 91.5273 53.0679 92.543 53.0679C93.5312 53.0679 94.2773 53.4429 94.7812 54.1929C95.2891 54.9429 95.543 56.0405 95.543 57.4858ZM91.3535 57.4858C91.3535 58.5366 91.4434 59.2905 91.623 59.7476C91.8066 60.2007 92.1133 60.4272 92.543 60.4272C92.9648 60.4272 93.2695 60.1968 93.457 59.7358C93.6445 59.2749 93.7383 58.5249 93.7383 57.4858C93.7383 56.4351 93.6426 55.6812 93.4512 55.2241C93.2637 54.7632 92.9609 54.5327 92.543 54.5327C92.1172 54.5327 91.8125 54.7632 91.6289 55.2241C91.4453 55.6812 91.3535 56.4351 91.3535 57.4858ZM102.398 57.4858C102.398 58.9819 102.152 60.0894 101.66 60.8081C101.172 61.5269 100.418 61.8862 99.3984 61.8862C98.4102 61.8862 97.6641 61.5151 97.1602 60.7729C96.6602 60.0308 96.4102 58.9351 96.4102 57.4858C96.4102 55.9741 96.6543 54.8608 97.1426 54.146C97.6309 53.4272 98.3828 53.0679 99.3984 53.0679C100.387 53.0679 101.133 53.4429 101.637 54.1929C102.145 54.9429 102.398 56.0405 102.398 57.4858ZM98.209 57.4858C98.209 58.5366 98.2988 59.2905 98.4785 59.7476C98.6621 60.2007 98.9688 60.4272 99.3984 60.4272C99.8203 60.4272 100.125 60.1968 100.312 59.7358C100.5 59.2749 100.594 58.5249 100.594 57.4858C100.594 56.4351 100.498 55.6812 100.307 55.2241C100.119 54.7632 99.8164 54.5327 99.3984 54.5327C98.9727 54.5327 98.668 54.7632 98.4844 55.2241C98.3008 55.6812 98.209 56.4351 98.209 57.4858ZM107.789 61.769H105.979V56.812L105.996 55.9976L106.025 55.1069C105.725 55.4077 105.516 55.605 105.398 55.6987L104.414 56.4897L103.541 55.3999L106.301 53.2026H107.789V61.769ZM114.645 61.769H112.834V56.812L112.852 55.9976L112.881 55.1069C112.58 55.4077 112.371 55.605 112.254 55.6987L111.27 56.4897L110.396 55.3999L113.156 53.2026H114.645V61.769ZM122.965 57.4858C122.965 58.9819 122.719 60.0894 122.227 60.8081C121.738 61.5269 120.984 61.8862 119.965 61.8862C118.977 61.8862 118.23 61.5151 117.727 60.7729C117.227 60.0308 116.977 58.9351 116.977 57.4858C116.977 55.9741 117.221 54.8608 117.709 54.146C118.197 53.4272 118.949 53.0679 119.965 53.0679C120.953 53.0679 121.699 53.4429 122.203 54.1929C122.711 54.9429 122.965 56.0405 122.965 57.4858ZM118.775 57.4858C118.775 58.5366 118.865 59.2905 119.045 59.7476C119.229 60.2007 119.535 60.4272 119.965 60.4272C120.387 60.4272 120.691 60.1968 120.879 59.7358C121.066 59.2749 121.16 58.5249 121.16 57.4858C121.16 56.4351 121.064 55.6812 120.873 55.2241C120.686 54.7632 120.383 54.5327 119.965 54.5327C119.539 54.5327 119.234 54.7632 119.051 55.2241C118.867 55.6812 118.775 56.4351 118.775 57.4858ZM128.355 61.769H126.545V56.812L126.562 55.9976L126.592 55.1069C126.291 55.4077 126.082 55.605 125.965 55.6987L124.98 56.4897L124.107 55.3999L126.867 53.2026H128.355V61.769ZM6.42188 73.4858C6.42188 74.9819 6.17578 76.0894 5.68359 76.8081C5.19531 77.5269 4.44141 77.8862 3.42188 77.8862C2.43359 77.8862 1.6875 77.5151 1.18359 76.7729C0.683594 76.0308 0.433594 74.9351 0.433594 73.4858C0.433594 71.9741 0.677734 70.8608 1.16602 70.146C1.6543 69.4272 2.40625 69.0679 3.42188 69.0679C4.41016 69.0679 5.15625 69.4429 5.66016 70.1929C6.16797 70.9429 6.42188 72.0405 6.42188 73.4858ZM2.23242 73.4858C2.23242 74.5366 2.32227 75.2905 2.50195 75.7476C2.68555 76.2007 2.99219 76.4272 3.42188 76.4272C3.84375 76.4272 4.14844 76.1968 4.33594 75.7358C4.52344 75.2749 4.61719 74.5249 4.61719 73.4858C4.61719 72.4351 4.52148 71.6812 4.33008 71.2241C4.14258 70.7632 3.83984 70.5327 3.42188 70.5327C2.99609 70.5327 2.69141 70.7632 2.50781 71.2241C2.32422 71.6812 2.23242 72.4351 2.23242 73.4858ZM11.8125 77.769H10.002V72.812L10.0195 71.9976L10.0488 71.1069C9.74805 71.4077 9.53906 71.605 9.42188 71.6987L8.4375 72.4897L7.56445 71.3999L10.3242 69.2026H11.8125V77.769ZM20.1328 73.4858C20.1328 74.9819 19.8867 76.0894 19.3945 76.8081C18.9062 77.5269 18.1523 77.8862 17.1328 77.8862C16.1445 77.8862 15.3984 77.5151 14.8945 76.7729C14.3945 76.0308 14.1445 74.9351 14.1445 73.4858C14.1445 71.9741 14.3887 70.8608 14.877 70.146C15.3652 69.4272 16.1172 69.0679 17.1328 69.0679C18.1211 69.0679 18.8672 69.4429 19.3711 70.1929C19.8789 70.9429 20.1328 72.0405 20.1328 73.4858ZM15.9434 73.4858C15.9434 74.5366 16.0332 75.2905 16.2129 75.7476C16.3965 76.2007 16.7031 76.4272 17.1328 76.4272C17.5547 76.4272 17.8594 76.1968 18.0469 75.7358C18.2344 75.2749 18.3281 74.5249 18.3281 73.4858C18.3281 72.4351 18.2324 71.6812 18.041 71.2241C17.8535 70.7632 17.5508 70.5327 17.1328 70.5327C16.707 70.5327 16.4023 70.7632 16.2188 71.2241C16.0352 71.6812 15.9434 72.4351 15.9434 73.4858ZM26.9883 73.4858C26.9883 74.9819 26.7422 76.0894 26.25 76.8081C25.7617 77.5269 25.0078 77.8862 23.9883 77.8862C23 77.8862 22.2539 77.5151 21.75 76.7729C21.25 76.0308 21 74.9351 21 73.4858C21 71.9741 21.2441 70.8608 21.7324 70.146C22.2207 69.4272 22.9727 69.0679 23.9883 69.0679C24.9766 69.0679 25.7227 69.4429 26.2266 70.1929C26.7344 70.9429 26.9883 72.0405 26.9883 73.4858ZM22.7988 73.4858C22.7988 74.5366 22.8887 75.2905 23.0684 75.7476C23.252 76.2007 23.5586 76.4272 23.9883 76.4272C24.4102 76.4272 24.7148 76.1968 24.9023 75.7358C25.0898 75.2749 25.1836 74.5249 25.1836 73.4858C25.1836 72.4351 25.0879 71.6812 24.8965 71.2241C24.709 70.7632 24.4062 70.5327 23.9883 70.5327C23.5625 70.5327 23.2578 70.7632 23.0742 71.2241C22.8906 71.6812 22.7988 72.4351 22.7988 73.4858ZM32.3789 77.769H30.5684V72.812L30.5859 71.9976L30.6152 71.1069C30.3145 71.4077 30.1055 71.605 29.9883 71.6987L29.0039 72.4897L28.1309 71.3999L30.8906 69.2026H32.3789V77.769ZM39.2344 77.769H37.4238V72.812L37.4414 71.9976L37.4707 71.1069C37.1699 71.4077 36.9609 71.605 36.8438 71.6987L35.8594 72.4897L34.9863 71.3999L37.7461 69.2026H39.2344V77.769ZM46.0898 77.769H44.2793V72.812L44.2969 71.9976L44.3262 71.1069C44.0254 71.4077 43.8164 71.605 43.6992 71.6987L42.7148 72.4897L41.8418 71.3999L44.6016 69.2026H46.0898V77.769ZM52.9453 77.769H51.1348V72.812L51.1523 71.9976L51.1816 71.1069C50.8809 71.4077 50.6719 71.605 50.5547 71.6987L49.5703 72.4897L48.6973 71.3999L51.457 69.2026H52.9453V77.769ZM61.2656 73.4858C61.2656 74.9819 61.0195 76.0894 60.5273 76.8081C60.0391 77.5269 59.2852 77.8862 58.2656 77.8862C57.2773 77.8862 56.5312 77.5151 56.0273 76.7729C55.5273 76.0308 55.2773 74.9351 55.2773 73.4858C55.2773 71.9741 55.5215 70.8608 56.0098 70.146C56.498 69.4272 57.25 69.0679 58.2656 69.0679C59.2539 69.0679 60 69.4429 60.5039 70.1929C61.0117 70.9429 61.2656 72.0405 61.2656 73.4858ZM57.0762 73.4858C57.0762 74.5366 57.166 75.2905 57.3457 75.7476C57.5293 76.2007 57.8359 76.4272 58.2656 76.4272C58.6875 76.4272 58.9922 76.1968 59.1797 75.7358C59.3672 75.2749 59.4609 74.5249 59.4609 73.4858C59.4609 72.4351 59.3652 71.6812 59.1738 71.2241C58.9863 70.7632 58.6836 70.5327 58.2656 70.5327C57.8398 70.5327 57.5352 70.7632 57.3516 71.2241C57.168 71.6812 57.0762 72.4351 57.0762 73.4858ZM66.6562 77.769H64.8457V72.812L64.8633 71.9976L64.8926 71.1069C64.5918 71.4077 64.3828 71.605 64.2656 71.6987L63.2812 72.4897L62.4082 71.3999L65.168 69.2026H66.6562V77.769ZM74.9766 73.4858C74.9766 74.9819 74.7305 76.0894 74.2383 76.8081C73.75 77.5269 72.9961 77.8862 71.9766 77.8862C70.9883 77.8862 70.2422 77.5151 69.7383 76.7729C69.2383 76.0308 68.9883 74.9351 68.9883 73.4858C68.9883 71.9741 69.2324 70.8608 69.7207 70.146C70.209 69.4272 70.9609 69.0679 71.9766 69.0679C72.9648 69.0679 73.7109 69.4429 74.2148 70.1929C74.7227 70.9429 74.9766 72.0405 74.9766 73.4858ZM70.7871 73.4858C70.7871 74.5366 70.877 75.2905 71.0566 75.7476C71.2402 76.2007 71.5469 76.4272 71.9766 76.4272C72.3984 76.4272 72.7031 76.1968 72.8906 75.7358C73.0781 75.2749 73.1719 74.5249 73.1719 73.4858C73.1719 72.4351 73.0762 71.6812 72.8848 71.2241C72.6973 70.7632 72.3945 70.5327 71.9766 70.5327C71.5508 70.5327 71.2461 70.7632 71.0625 71.2241C70.8789 71.6812 70.7871 72.4351 70.7871 73.4858ZM81.832 73.4858C81.832 74.9819 81.5859 76.0894 81.0938 76.8081C80.6055 77.5269 79.8516 77.8862 78.832 77.8862C77.8438 77.8862 77.0977 77.5151 76.5938 76.7729C76.0938 76.0308 75.8438 74.9351 75.8438 73.4858C75.8438 71.9741 76.0879 70.8608 76.5762 70.146C77.0645 69.4272 77.8164 69.0679 78.832 69.0679C79.8203 69.0679 80.5664 69.4429 81.0703 70.1929C81.5781 70.9429 81.832 72.0405 81.832 73.4858ZM77.6426 73.4858C77.6426 74.5366 77.7324 75.2905 77.9121 75.7476C78.0957 76.2007 78.4023 76.4272 78.832 76.4272C79.2539 76.4272 79.5586 76.1968 79.7461 75.7358C79.9336 75.2749 80.0273 74.5249 80.0273 73.4858C80.0273 72.4351 79.9316 71.6812 79.7402 71.2241C79.5527 70.7632 79.25 70.5327 78.832 70.5327C78.4062 70.5327 78.1016 70.7632 77.918 71.2241C77.7344 71.6812 77.6426 72.4351 77.6426 73.4858ZM87.2227 77.769H85.4121V72.812L85.4297 71.9976L85.459 71.1069C85.1582 71.4077 84.9492 71.605 84.832 71.6987L83.8477 72.4897L82.9746 71.3999L85.7344 69.2026H87.2227V77.769ZM95.543 73.4858C95.543 74.9819 95.2969 76.0894 94.8047 76.8081C94.3164 77.5269 93.5625 77.8862 92.543 77.8862C91.5547 77.8862 90.8086 77.5151 90.3047 76.7729C89.8047 76.0308 89.5547 74.9351 89.5547 73.4858C89.5547 71.9741 89.7988 70.8608 90.2871 70.146C90.7754 69.4272 91.5273 69.0679 92.543 69.0679C93.5312 69.0679 94.2773 69.4429 94.7812 70.1929C95.2891 70.9429 95.543 72.0405 95.543 73.4858ZM91.3535 73.4858C91.3535 74.5366 91.4434 75.2905 91.623 75.7476C91.8066 76.2007 92.1133 76.4272 92.543 76.4272C92.9648 76.4272 93.2695 76.1968 93.457 75.7358C93.6445 75.2749 93.7383 74.5249 93.7383 73.4858C93.7383 72.4351 93.6426 71.6812 93.4512 71.2241C93.2637 70.7632 92.9609 70.5327 92.543 70.5327C92.1172 70.5327 91.8125 70.7632 91.6289 71.2241C91.4453 71.6812 91.3535 72.4351 91.3535 73.4858ZM102.398 73.4858C102.398 74.9819 102.152 76.0894 101.66 76.8081C101.172 77.5269 100.418 77.8862 99.3984 77.8862C98.4102 77.8862 97.6641 77.5151 97.1602 76.7729C96.6602 76.0308 96.4102 74.9351 96.4102 73.4858C96.4102 71.9741 96.6543 70.8608 97.1426 70.146C97.6309 69.4272 98.3828 69.0679 99.3984 69.0679C100.387 69.0679 101.133 69.4429 101.637 70.1929C102.145 70.9429 102.398 72.0405 102.398 73.4858ZM98.209 73.4858C98.209 74.5366 98.2988 75.2905 98.4785 75.7476C98.6621 76.2007 98.9688 76.4272 99.3984 76.4272C99.8203 76.4272 100.125 76.1968 100.312 75.7358C100.5 75.2749 100.594 74.5249 100.594 73.4858C100.594 72.4351 100.498 71.6812 100.307 71.2241C100.119 70.7632 99.8164 70.5327 99.3984 70.5327C98.9727 70.5327 98.668 70.7632 98.4844 71.2241C98.3008 71.6812 98.209 72.4351 98.209 73.4858ZM107.789 77.769H105.979V72.812L105.996 71.9976L106.025 71.1069C105.725 71.4077 105.516 71.605 105.398 71.6987L104.414 72.4897L103.541 71.3999L106.301 69.2026H107.789V77.769ZM116.109 73.4858C116.109 74.9819 115.863 76.0894 115.371 76.8081C114.883 77.5269 114.129 77.8862 113.109 77.8862C112.121 77.8862 111.375 77.5151 110.871 76.7729C110.371 76.0308 110.121 74.9351 110.121 73.4858C110.121 71.9741 110.365 70.8608 110.854 70.146C111.342 69.4272 112.094 69.0679 113.109 69.0679C114.098 69.0679 114.844 69.4429 115.348 70.1929C115.855 70.9429 116.109 72.0405 116.109 73.4858ZM111.92 73.4858C111.92 74.5366 112.01 75.2905 112.189 75.7476C112.373 76.2007 112.68 76.4272 113.109 76.4272C113.531 76.4272 113.836 76.1968 114.023 75.7358C114.211 75.2749 114.305 74.5249 114.305 73.4858C114.305 72.4351 114.209 71.6812 114.018 71.2241C113.83 70.7632 113.527 70.5327 113.109 70.5327C112.684 70.5327 112.379 70.7632 112.195 71.2241C112.012 71.6812 111.92 72.4351 111.92 73.4858ZM121.5 77.769H119.689V72.812L119.707 71.9976L119.736 71.1069C119.436 71.4077 119.227 71.605 119.109 71.6987L118.125 72.4897L117.252 71.3999L120.012 69.2026H121.5V77.769ZM129.82 73.4858C129.82 74.9819 129.574 76.0894 129.082 76.8081C128.594 77.5269 127.84 77.8862 126.82 77.8862C125.832 77.8862 125.086 77.5151 124.582 76.7729C124.082 76.0308 123.832 74.9351 123.832 73.4858C123.832 71.9741 124.076 70.8608 124.564 70.146C125.053 69.4272 125.805 69.0679 126.82 69.0679C127.809 69.0679 128.555 69.4429 129.059 70.1929C129.566 70.9429 129.82 72.0405 129.82 73.4858ZM125.631 73.4858C125.631 74.5366 125.721 75.2905 125.9 75.7476C126.084 76.2007 126.391 76.4272 126.82 76.4272C127.242 76.4272 127.547 76.1968 127.734 75.7358C127.922 75.2749 128.016 74.5249 128.016 73.4858C128.016 72.4351 127.92 71.6812 127.729 71.2241C127.541 70.7632 127.238 70.5327 126.82 70.5327C126.395 70.5327 126.09 70.7632 125.906 71.2241C125.723 71.6812 125.631 72.4351 125.631 73.4858Z" fill="#2B2F74"/>
<path d="M112.945 81.6188C113.982 53.2218 92.5818 29.5316 65.1459 28.7051C37.7101 27.8787 14.628 50.2289 13.5906 78.6258C12.5532 107.023 33.9534 130.713 61.3892 131.539C88.8251 132.366 111.907 110.016 112.945 81.6188Z" fill="#8CC754"/>
<path d="M41.8033 45.7573C49.8087 45.7573 56.2983 39.8642 56.2983 32.5947C56.2983 25.3252 49.8087 19.4321 41.8033 19.4321C33.798 19.4321 27.3083 25.3252 27.3083 32.5947C27.3083 39.8642 33.798 45.7573 41.8033 45.7573Z" fill="#FBFBFB" stroke="#272727" stroke-miterlimit="10"/>
<path d="M41.4184 45.4539C47.421 45.4539 52.2871 41.0351 52.2871 35.5842C52.2871 30.1334 47.421 25.7146 41.4184 25.7146C35.4158 25.7146 30.5497 30.1334 30.5497 35.5842C30.5497 41.0351 35.4158 45.4539 41.4184 45.4539Z" fill="#272727" stroke="#272727" stroke-miterlimit="10"/>
<path d="M77.7622 45.7573C85.7676 45.7573 92.2572 39.8642 92.2572 32.5947C92.2572 25.3252 85.7676 19.4321 77.7622 19.4321C69.7569 19.4321 63.2672 25.3252 63.2672 32.5947C63.2672 39.8642 69.7569 45.7573 77.7622 45.7573Z" fill="#FBFBFB" stroke="#272727" stroke-miterlimit="10"/>
<path d="M62.2546 131.052C79.3618 131.052 93.2299 117.923 93.2299 101.728C93.2299 85.5333 79.3618 72.4045 62.2546 72.4045C45.1474 72.4045 31.2793 85.5333 31.2793 101.728C31.2793 117.923 45.1474 131.052 62.2546 131.052Z" fill="#72B236"/>
<path d="M77.3372 45.4539C83.3398 45.4539 88.2059 41.0351 88.2059 35.5842C88.2059 30.1334 83.3398 25.7146 77.3372 25.7146C71.3345 25.7146 66.4685 30.1334 66.4685 35.5842C66.4685 41.0351 71.3345 45.4539 77.3372 45.4539Z" fill="#272727" stroke="#272727" stroke-miterlimit="10"/>
<path d="M39.6459 60.7046C48.8428 60.7046 56.2984 53.9343 56.2984 45.5828C56.2984 37.2312 48.8428 30.4609 39.6459 30.4609C30.4489 30.4609 22.9934 37.2312 22.9934 45.5828C22.9934 53.9343 30.4489 60.7046 39.6459 60.7046Z" stroke="#37441D" stroke-width="4" stroke-miterlimit="10"/>
<path d="M84.1341 60.7046C93.331 60.7046 100.787 53.9343 100.787 45.5828C100.787 37.2312 93.331 30.4609 84.1341 30.4609C74.9371 30.4609 67.4816 37.2312 67.4816 45.5828C67.4816 53.9343 74.9371 60.7046 84.1341 60.7046Z" stroke="#37441D" stroke-width="4" stroke-miterlimit="10"/>
<path d="M56.2983 45.5828H67.4709" stroke="#37441D" stroke-width="4" stroke-miterlimit="10"/>
<path opacity="0.41" d="M40.2234 60.7044C48.7714 60.7044 55.701 54.4118 55.701 46.6496C55.701 38.8873 48.7714 32.5947 40.2234 32.5947C31.6754 32.5947 24.7459 38.8873 24.7459 46.6496C24.7459 54.4118 31.6754 60.7044 40.2234 60.7044Z" fill="#9D9D9C"/>
<path opacity="0.41" d="M84.1335 60.7044C92.6815 60.7044 99.611 54.4118 99.611 46.6496C99.611 38.8873 92.6815 32.5947 84.1335 32.5947C75.5855 32.5947 68.656 38.8873 68.656 46.6496C68.656 54.4118 75.5855 60.7044 84.1335 60.7044Z" fill="#9D9D9C"/>
<path d="M22.9834 19.6896L52.2975 12.4414" stroke="#37441D" stroke-width="4" stroke-miterlimit="10"/>
<path d="M68.656 12.1196L96.7951 18.6871" stroke="#37441D" stroke-width="4" stroke-miterlimit="10"/>
<path d="M57.2504 66.757C60.0724 67.6535 63.0552 68.0591 66.0426 67.9528C70.4228 67.7858 74.6717 66.5462 78.3395 64.3655" stroke="#006633" stroke-width="4" stroke-miterlimit="10"/>
</svg>
