<svg width="230" height="129" viewBox="0 0 230 129" fill="none" xmlns="http://www.w3.org/2000/svg">
<g clip-path="url(#clip0)">
<path d="M0 9C0 4.02944 4.02944 0 9 0H232C236.971 0 241 4.02944 241 9V135H0V9Z" fill="#DB538C"/>
<path fill-rule="evenodd" clip-rule="evenodd" d="M29.4827 45.7837C47.3733 40.2321 62.9922 22.339 81.2139 27.5574C99.7492 32.8657 114.849 51.8646 119.456 71.5508C123.781 90.0323 103.357 105.1 103.794 124.038C104.345 147.92 131.445 170.039 122.227 191.608C113.526 211.968 85.6651 220.014 64.6348 215.668C44.437 211.493 40.142 179.812 21.3294 170.753C2.36486 161.622 -25.8807 182.895 -39.0421 165.746C-51.4417 149.589 -31.6652 127.098 -27.5061 107.121C-23.9932 90.2476 -27.9691 70.1533 -16.5911 57.9072C-5.29627 45.7506 13.9293 50.61 29.4827 45.7837Z" fill="#BD67D5"/>
<path fill-rule="evenodd" clip-rule="evenodd" d="M270.975 40.9084C282.874 53.3351 296.104 66.2554 296.088 85.338C296.072 104.122 284.516 123.887 270.891 140.319C258.934 154.74 241.677 161.44 225.609 170.34C210.202 178.874 195.149 190.551 179.231 191.088C162.724 191.645 146.929 185.61 138.608 173.275C130.732 161.601 138.837 143.253 136.878 128.31C134.643 111.256 115.709 96.7298 126.371 79.9353C137.167 62.9301 162.953 71.8211 179.8 60.7022C198.672 48.2464 206.563 17.8704 227.194 13.3915C247.139 9.06131 258.867 28.2641 270.975 40.9084Z" fill="#F6B028"/>
<g filter="url(#filter0_bi)">
<path fill-rule="evenodd" clip-rule="evenodd" d="M164.143 46.6114C175.71 59.0155 197.048 66.5868 197.387 83.4788C197.718 99.9841 176.971 107.338 165.595 118.977C154.915 129.905 153.264 126.254 138 127.5C122.642 128.754 108.666 131.173 94.4779 124.784C80.1523 118.334 60.8557 124.131 50.3692 112.299C39.6013 100.15 38.733 81.3613 42.0248 65.6035C45.1306 50.7361 57.0889 40.4233 67.6255 29.693C77.6116 19.5232 87.1517 6.8755 101.331 5.20642C115.201 3.57385 127.545 13.4606 139.36 21.2491C149.447 27.8983 155.878 37.7476 164.143 46.6114Z" fill="white" fill-opacity="0.3"/>
</g>
<path d="M59.866 11.5834C59.866 13.0795 59.6199 14.187 59.1277 14.9057C58.6394 15.6245 57.8855 15.9838 56.866 15.9838C55.8777 15.9838 55.1316 15.6127 54.6277 14.8705C54.1277 14.1284 53.8777 13.0327 53.8777 11.5834C53.8777 10.0717 54.1218 8.95844 54.6101 8.24359C55.0984 7.52484 55.8503 7.16547 56.866 7.16547C57.8542 7.16547 58.6003 7.54047 59.1042 8.29047C59.6121 9.04047 59.866 10.1381 59.866 11.5834ZM55.6765 11.5834C55.6765 12.6342 55.7664 13.3881 55.946 13.8452C56.1296 14.2983 56.4363 14.5248 56.866 14.5248C57.2878 14.5248 57.5925 14.2944 57.78 13.8334C57.9675 13.3725 58.0613 12.6225 58.0613 11.5834C58.0613 10.5327 57.9656 9.77875 57.7742 9.32172C57.5867 8.86078 57.2839 8.63031 56.866 8.63031C56.4402 8.63031 56.1355 8.86078 55.9519 9.32172C55.7683 9.77875 55.6765 10.5327 55.6765 11.5834ZM65.2566 15.8666H63.446V10.9096L63.4636 10.0952L63.4929 9.20453C63.1921 9.50531 62.9832 9.70258 62.866 9.79633L61.8816 10.5873L61.0085 9.4975L63.7683 7.30023H65.2566V15.8666ZM73.5769 11.5834C73.5769 13.0795 73.3308 14.187 72.8386 14.9057C72.3503 15.6245 71.5964 15.9838 70.5769 15.9838C69.5886 15.9838 68.8425 15.6127 68.3386 14.8705C67.8386 14.1284 67.5886 13.0327 67.5886 11.5834C67.5886 10.0717 67.8328 8.95844 68.321 8.24359C68.8093 7.52484 69.5613 7.16547 70.5769 7.16547C71.5652 7.16547 72.3113 7.54047 72.8152 8.29047C73.323 9.04047 73.5769 10.1381 73.5769 11.5834ZM69.3875 11.5834C69.3875 12.6342 69.4773 13.3881 69.657 13.8452C69.8406 14.2983 70.1472 14.5248 70.5769 14.5248C70.9988 14.5248 71.3035 14.2944 71.491 13.8334C71.6785 13.3725 71.7722 12.6225 71.7722 11.5834C71.7722 10.5327 71.6765 9.77875 71.4851 9.32172C71.2976 8.86078 70.9949 8.63031 70.5769 8.63031C70.1511 8.63031 69.8464 8.86078 69.6628 9.32172C69.4792 9.77875 69.3875 10.5327 69.3875 11.5834ZM78.9675 15.8666H77.157V10.9096L77.1746 10.0952L77.2039 9.20453C76.9031 9.50531 76.6941 9.70258 76.5769 9.79633L75.5925 10.5873L74.7195 9.4975L77.4792 7.30023H78.9675V15.8666ZM87.2878 11.5834C87.2878 13.0795 87.0417 14.187 86.5496 14.9057C86.0613 15.6245 85.3074 15.9838 84.2878 15.9838C83.2996 15.9838 82.5535 15.6127 82.0496 14.8705C81.5496 14.1284 81.2996 13.0327 81.2996 11.5834C81.2996 10.0717 81.5437 8.95844 82.032 8.24359C82.5203 7.52484 83.2722 7.16547 84.2878 7.16547C85.2761 7.16547 86.0222 7.54047 86.5261 8.29047C87.0339 9.04047 87.2878 10.1381 87.2878 11.5834ZM83.0984 11.5834C83.0984 12.6342 83.1882 13.3881 83.3679 13.8452C83.5515 14.2983 83.8582 14.5248 84.2878 14.5248C84.7097 14.5248 85.0144 14.2944 85.2019 13.8334C85.3894 13.3725 85.4832 12.6225 85.4832 11.5834C85.4832 10.5327 85.3875 9.77875 85.196 9.32172C85.0085 8.86078 84.7058 8.63031 84.2878 8.63031C83.8621 8.63031 83.5574 8.86078 83.3738 9.32172C83.1902 9.77875 83.0984 10.5327 83.0984 11.5834ZM94.1433 11.5834C94.1433 13.0795 93.8972 14.187 93.405 14.9057C92.9167 15.6245 92.1628 15.9838 91.1433 15.9838C90.155 15.9838 89.4089 15.6127 88.905 14.8705C88.405 14.1284 88.155 13.0327 88.155 11.5834C88.155 10.0717 88.3992 8.95844 88.8875 8.24359C89.3757 7.52484 90.1277 7.16547 91.1433 7.16547C92.1316 7.16547 92.8777 7.54047 93.3816 8.29047C93.8894 9.04047 94.1433 10.1381 94.1433 11.5834ZM89.9539 11.5834C89.9539 12.6342 90.0437 13.3881 90.2234 13.8452C90.407 14.2983 90.7136 14.5248 91.1433 14.5248C91.5652 14.5248 91.8699 14.2944 92.0574 13.8334C92.2449 13.3725 92.3386 12.6225 92.3386 11.5834C92.3386 10.5327 92.2429 9.77875 92.0515 9.32172C91.864 8.86078 91.5613 8.63031 91.1433 8.63031C90.7175 8.63031 90.4128 8.86078 90.2292 9.32172C90.0457 9.77875 89.9539 10.5327 89.9539 11.5834ZM100.999 11.5834C100.999 13.0795 100.753 14.187 100.26 14.9057C99.7722 15.6245 99.0183 15.9838 97.9988 15.9838C97.0105 15.9838 96.2644 15.6127 95.7605 14.8705C95.2605 14.1284 95.0105 13.0327 95.0105 11.5834C95.0105 10.0717 95.2546 8.95844 95.7429 8.24359C96.2312 7.52484 96.9832 7.16547 97.9988 7.16547C98.9871 7.16547 99.7332 7.54047 100.237 8.29047C100.745 9.04047 100.999 10.1381 100.999 11.5834ZM96.8093 11.5834C96.8093 12.6342 96.8992 13.3881 97.0789 13.8452C97.2625 14.2983 97.5691 14.5248 97.9988 14.5248C98.4207 14.5248 98.7253 14.2944 98.9128 13.8334C99.1003 13.3725 99.1941 12.6225 99.1941 11.5834C99.1941 10.5327 99.0984 9.77875 98.907 9.32172C98.7195 8.86078 98.4167 8.63031 97.9988 8.63031C97.573 8.63031 97.2683 8.86078 97.0847 9.32172C96.9011 9.77875 96.8093 10.5327 96.8093 11.5834ZM106.389 15.8666H104.579V10.9096L104.596 10.0952L104.626 9.20453C104.325 9.50531 104.116 9.70258 103.999 9.79633L103.014 10.5873L102.141 9.4975L104.901 7.30023H106.389V15.8666ZM114.71 11.5834C114.71 13.0795 114.464 14.187 113.971 14.9057C113.483 15.6245 112.729 15.9838 111.71 15.9838C110.721 15.9838 109.975 15.6127 109.471 14.8705C108.971 14.1284 108.721 13.0327 108.721 11.5834C108.721 10.0717 108.966 8.95844 109.454 8.24359C109.942 7.52484 110.694 7.16547 111.71 7.16547C112.698 7.16547 113.444 7.54047 113.948 8.29047C114.456 9.04047 114.71 10.1381 114.71 11.5834ZM110.52 11.5834C110.52 12.6342 110.61 13.3881 110.79 13.8452C110.973 14.2983 111.28 14.5248 111.71 14.5248C112.132 14.5248 112.436 14.2944 112.624 13.8334C112.811 13.3725 112.905 12.6225 112.905 11.5834C112.905 10.5327 112.809 9.77875 112.618 9.32172C112.43 8.86078 112.128 8.63031 111.71 8.63031C111.284 8.63031 110.979 8.86078 110.796 9.32172C110.612 9.77875 110.52 10.5327 110.52 11.5834ZM120.1 15.8666H118.29V10.9096L118.307 10.0952L118.337 9.20453C118.036 9.50531 117.827 9.70258 117.71 9.79633L116.725 10.5873L115.852 9.4975L118.612 7.30023H120.1V15.8666ZM128.421 11.5834C128.421 13.0795 128.175 14.187 127.682 14.9057C127.194 15.6245 126.44 15.9838 125.421 15.9838C124.432 15.9838 123.686 15.6127 123.182 14.8705C122.682 14.1284 122.432 13.0327 122.432 11.5834C122.432 10.0717 122.677 8.95844 123.165 8.24359C123.653 7.52484 124.405 7.16547 125.421 7.16547C126.409 7.16547 127.155 7.54047 127.659 8.29047C128.167 9.04047 128.421 10.1381 128.421 11.5834ZM124.231 11.5834C124.231 12.6342 124.321 13.3881 124.501 13.8452C124.684 14.2983 124.991 14.5248 125.421 14.5248C125.843 14.5248 126.147 14.2944 126.335 13.8334C126.522 13.3725 126.616 12.6225 126.616 11.5834C126.616 10.5327 126.52 9.77875 126.329 9.32172C126.141 8.86078 125.839 8.63031 125.421 8.63031C124.995 8.63031 124.69 8.86078 124.507 9.32172C124.323 9.77875 124.231 10.5327 124.231 11.5834ZM135.276 11.5834C135.276 13.0795 135.03 14.187 134.538 14.9057C134.05 15.6245 133.296 15.9838 132.276 15.9838C131.288 15.9838 130.542 15.6127 130.038 14.8705C129.538 14.1284 129.288 13.0327 129.288 11.5834C129.288 10.0717 129.532 8.95844 130.02 8.24359C130.509 7.52484 131.26 7.16547 132.276 7.16547C133.264 7.16547 134.01 7.54047 134.514 8.29047C135.022 9.04047 135.276 10.1381 135.276 11.5834ZM131.087 11.5834C131.087 12.6342 131.177 13.3881 131.356 13.8452C131.54 14.2983 131.846 14.5248 132.276 14.5248C132.698 14.5248 133.003 14.2944 133.19 13.8334C133.378 13.3725 133.471 12.6225 133.471 11.5834C133.471 10.5327 133.376 9.77875 133.184 9.32172C132.997 8.86078 132.694 8.63031 132.276 8.63031C131.85 8.63031 131.546 8.86078 131.362 9.32172C131.178 9.77875 131.087 10.5327 131.087 11.5834ZM140.667 15.8666H138.856V10.9096L138.874 10.0952L138.903 9.20453C138.602 9.50531 138.393 9.70258 138.276 9.79633L137.292 10.5873L136.419 9.4975L139.178 7.30023H140.667V15.8666ZM148.987 11.5834C148.987 13.0795 148.741 14.187 148.249 14.9057C147.76 15.6245 147.007 15.9838 145.987 15.9838C144.999 15.9838 144.253 15.6127 143.749 14.8705C143.249 14.1284 142.999 13.0327 142.999 11.5834C142.999 10.0717 143.243 8.95844 143.731 8.24359C144.219 7.52484 144.971 7.16547 145.987 7.16547C146.975 7.16547 147.721 7.54047 148.225 8.29047C148.733 9.04047 148.987 10.1381 148.987 11.5834ZM144.798 11.5834C144.798 12.6342 144.887 13.3881 145.067 13.8452C145.251 14.2983 145.557 14.5248 145.987 14.5248C146.409 14.5248 146.714 14.2944 146.901 13.8334C147.089 13.3725 147.182 12.6225 147.182 11.5834C147.182 10.5327 147.087 9.77875 146.895 9.32172C146.708 8.86078 146.405 8.63031 145.987 8.63031C145.561 8.63031 145.257 8.86078 145.073 9.32172C144.889 9.77875 144.798 10.5327 144.798 11.5834ZM155.843 11.5834C155.843 13.0795 155.596 14.187 155.104 14.9057C154.616 15.6245 153.862 15.9838 152.843 15.9838C151.854 15.9838 151.108 15.6127 150.604 14.8705C150.104 14.1284 149.854 13.0327 149.854 11.5834C149.854 10.0717 150.098 8.95844 150.587 8.24359C151.075 7.52484 151.827 7.16547 152.843 7.16547C153.831 7.16547 154.577 7.54047 155.081 8.29047C155.589 9.04047 155.843 10.1381 155.843 11.5834ZM151.653 11.5834C151.653 12.6342 151.743 13.3881 151.923 13.8452C152.106 14.2983 152.413 14.5248 152.843 14.5248C153.264 14.5248 153.569 14.2944 153.757 13.8334C153.944 13.3725 154.038 12.6225 154.038 11.5834C154.038 10.5327 153.942 9.77875 153.751 9.32172C153.563 8.86078 153.26 8.63031 152.843 8.63031C152.417 8.63031 152.112 8.86078 151.928 9.32172C151.745 9.77875 151.653 10.5327 151.653 11.5834ZM161.233 15.8666H159.423V10.9096L159.44 10.0952L159.469 9.20453C159.169 9.50531 158.96 9.70258 158.843 9.79633L157.858 10.5873L156.985 9.4975L159.745 7.30023H161.233V15.8666ZM168.089 15.8666H166.278V10.9096L166.296 10.0952L166.325 9.20453C166.024 9.50531 165.815 9.70258 165.698 9.79633L164.714 10.5873L163.841 9.4975L166.6 7.30023H168.089V15.8666ZM176.409 11.5834C176.409 13.0795 176.163 14.187 175.671 14.9057C175.182 15.6245 174.428 15.9838 173.409 15.9838C172.421 15.9838 171.675 15.6127 171.171 14.8705C170.671 14.1284 170.421 13.0327 170.421 11.5834C170.421 10.0717 170.665 8.95844 171.153 8.24359C171.641 7.52484 172.393 7.16547 173.409 7.16547C174.397 7.16547 175.143 7.54047 175.647 8.29047C176.155 9.04047 176.409 10.1381 176.409 11.5834ZM172.219 11.5834C172.219 12.6342 172.309 13.3881 172.489 13.8452C172.673 14.2983 172.979 14.5248 173.409 14.5248C173.831 14.5248 174.135 14.2944 174.323 13.8334C174.51 13.3725 174.604 12.6225 174.604 11.5834C174.604 10.5327 174.509 9.77875 174.317 9.32172C174.13 8.86078 173.827 8.63031 173.409 8.63031C172.983 8.63031 172.678 8.86078 172.495 9.32172C172.311 9.77875 172.219 10.5327 172.219 11.5834ZM59.866 27.5834C59.866 29.0795 59.6199 30.187 59.1277 30.9057C58.6394 31.6245 57.8855 31.9838 56.866 31.9838C55.8777 31.9838 55.1316 31.6127 54.6277 30.8705C54.1277 30.1284 53.8777 29.0327 53.8777 27.5834C53.8777 26.0717 54.1218 24.9584 54.6101 24.2436C55.0984 23.5248 55.8503 23.1655 56.866 23.1655C57.8542 23.1655 58.6003 23.5405 59.1042 24.2905C59.6121 25.0405 59.866 26.1381 59.866 27.5834ZM55.6765 27.5834C55.6765 28.6342 55.7664 29.3881 55.946 29.8452C56.1296 30.2983 56.4363 30.5248 56.866 30.5248C57.2878 30.5248 57.5925 30.2944 57.78 29.8334C57.9675 29.3725 58.0613 28.6225 58.0613 27.5834C58.0613 26.5327 57.9656 25.7787 57.7742 25.3217C57.5867 24.8608 57.2839 24.6303 56.866 24.6303C56.4402 24.6303 56.1355 24.8608 55.9519 25.3217C55.7683 25.7787 55.6765 26.5327 55.6765 27.5834ZM65.2566 31.8666H63.446V26.9096L63.4636 26.0952L63.4929 25.2045C63.1921 25.5053 62.9832 25.7026 62.866 25.7963L61.8816 26.5873L61.0085 25.4975L63.7683 23.3002H65.2566V31.8666ZM73.5769 27.5834C73.5769 29.0795 73.3308 30.187 72.8386 30.9057C72.3503 31.6245 71.5964 31.9838 70.5769 31.9838C69.5886 31.9838 68.8425 31.6127 68.3386 30.8705C67.8386 30.1284 67.5886 29.0327 67.5886 27.5834C67.5886 26.0717 67.8328 24.9584 68.321 24.2436C68.8093 23.5248 69.5613 23.1655 70.5769 23.1655C71.5652 23.1655 72.3113 23.5405 72.8152 24.2905C73.323 25.0405 73.5769 26.1381 73.5769 27.5834ZM69.3875 27.5834C69.3875 28.6342 69.4773 29.3881 69.657 29.8452C69.8406 30.2983 70.1472 30.5248 70.5769 30.5248C70.9988 30.5248 71.3035 30.2944 71.491 29.8334C71.6785 29.3725 71.7722 28.6225 71.7722 27.5834C71.7722 26.5327 71.6765 25.7787 71.4851 25.3217C71.2976 24.8608 70.9949 24.6303 70.5769 24.6303C70.1511 24.6303 69.8464 24.8608 69.6628 25.3217C69.4792 25.7787 69.3875 26.5327 69.3875 27.5834ZM78.9675 31.8666H77.157V26.9096L77.1746 26.0952L77.2039 25.2045C76.9031 25.5053 76.6941 25.7026 76.5769 25.7963L75.5925 26.5873L74.7195 25.4975L77.4792 23.3002H78.9675V31.8666ZM87.2878 27.5834C87.2878 29.0795 87.0417 30.187 86.5496 30.9057C86.0613 31.6245 85.3074 31.9838 84.2878 31.9838C83.2996 31.9838 82.5535 31.6127 82.0496 30.8705C81.5496 30.1284 81.2996 29.0327 81.2996 27.5834C81.2996 26.0717 81.5437 24.9584 82.032 24.2436C82.5203 23.5248 83.2722 23.1655 84.2878 23.1655C85.2761 23.1655 86.0222 23.5405 86.5261 24.2905C87.0339 25.0405 87.2878 26.1381 87.2878 27.5834ZM83.0984 27.5834C83.0984 28.6342 83.1882 29.3881 83.3679 29.8452C83.5515 30.2983 83.8582 30.5248 84.2878 30.5248C84.7097 30.5248 85.0144 30.2944 85.2019 29.8334C85.3894 29.3725 85.4832 28.6225 85.4832 27.5834C85.4832 26.5327 85.3875 25.7787 85.196 25.3217C85.0085 24.8608 84.7058 24.6303 84.2878 24.6303C83.8621 24.6303 83.5574 24.8608 83.3738 25.3217C83.1902 25.7787 83.0984 26.5327 83.0984 27.5834ZM92.6785 31.8666H90.8679V26.9096L90.8855 26.0952L90.9148 25.2045C90.614 25.5053 90.405 25.7026 90.2878 25.7963L89.3035 26.5873L88.4304 25.4975L91.1902 23.3002H92.6785V31.8666ZM100.999 27.5834C100.999 29.0795 100.753 30.187 100.26 30.9057C99.7722 31.6245 99.0183 31.9838 97.9988 31.9838C97.0105 31.9838 96.2644 31.6127 95.7605 30.8705C95.2605 30.1284 95.0105 29.0327 95.0105 27.5834C95.0105 26.0717 95.2546 24.9584 95.7429 24.2436C96.2312 23.5248 96.9832 23.1655 97.9988 23.1655C98.9871 23.1655 99.7332 23.5405 100.237 24.2905C100.745 25.0405 100.999 26.1381 100.999 27.5834ZM96.8093 27.5834C96.8093 28.6342 96.8992 29.3881 97.0789 29.8452C97.2625 30.2983 97.5691 30.5248 97.9988 30.5248C98.4207 30.5248 98.7253 30.2944 98.9128 29.8334C99.1003 29.3725 99.1941 28.6225 99.1941 27.5834C99.1941 26.5327 99.0984 25.7787 98.907 25.3217C98.7195 24.8608 98.4167 24.6303 97.9988 24.6303C97.573 24.6303 97.2683 24.8608 97.0847 25.3217C96.9011 25.7787 96.8093 26.5327 96.8093 27.5834ZM107.854 27.5834C107.854 29.0795 107.608 30.187 107.116 30.9057C106.628 31.6245 105.874 31.9838 104.854 31.9838C103.866 31.9838 103.12 31.6127 102.616 30.8705C102.116 30.1284 101.866 29.0327 101.866 27.5834C101.866 26.0717 102.11 24.9584 102.598 24.2436C103.087 23.5248 103.839 23.1655 104.854 23.1655C105.843 23.1655 106.589 23.5405 107.093 24.2905C107.6 25.0405 107.854 26.1381 107.854 27.5834ZM103.665 27.5834C103.665 28.6342 103.755 29.3881 103.934 29.8452C104.118 30.2983 104.425 30.5248 104.854 30.5248C105.276 30.5248 105.581 30.2944 105.768 29.8334C105.956 29.3725 106.05 28.6225 106.05 27.5834C106.05 26.5327 105.954 25.7787 105.762 25.3217C105.575 24.8608 105.272 24.6303 104.854 24.6303C104.428 24.6303 104.124 24.8608 103.94 25.3217C103.757 25.7787 103.665 26.5327 103.665 27.5834ZM113.245 31.8666H111.434V26.9096L111.452 26.0952L111.481 25.2045C111.18 25.5053 110.971 25.7026 110.854 25.7963L109.87 26.5873L108.997 25.4975L111.757 23.3002H113.245V31.8666ZM121.565 27.5834C121.565 29.0795 121.319 30.187 120.827 30.9057C120.339 31.6245 119.585 31.9838 118.565 31.9838C117.577 31.9838 116.831 31.6127 116.327 30.8705C115.827 30.1284 115.577 29.0327 115.577 27.5834C115.577 26.0717 115.821 24.9584 116.309 24.2436C116.798 23.5248 117.55 23.1655 118.565 23.1655C119.553 23.1655 120.3 23.5405 120.803 24.2905C121.311 25.0405 121.565 26.1381 121.565 27.5834ZM117.376 27.5834C117.376 28.6342 117.466 29.3881 117.645 29.8452C117.829 30.2983 118.135 30.5248 118.565 30.5248C118.987 30.5248 119.292 30.2944 119.479 29.8334C119.667 29.3725 119.76 28.6225 119.76 27.5834C119.76 26.5327 119.665 25.7787 119.473 25.3217C119.286 24.8608 118.983 24.6303 118.565 24.6303C118.139 24.6303 117.835 24.8608 117.651 25.3217C117.468 25.7787 117.376 26.5327 117.376 27.5834ZM126.956 31.8666H125.145V26.9096L125.163 26.0952L125.192 25.2045C124.891 25.5053 124.682 25.7026 124.565 25.7963L123.581 26.5873L122.708 25.4975L125.468 23.3002H126.956V31.8666ZM135.276 27.5834C135.276 29.0795 135.03 30.187 134.538 30.9057C134.05 31.6245 133.296 31.9838 132.276 31.9838C131.288 31.9838 130.542 31.6127 130.038 30.8705C129.538 30.1284 129.288 29.0327 129.288 27.5834C129.288 26.0717 129.532 24.9584 130.02 24.2436C130.509 23.5248 131.26 23.1655 132.276 23.1655C133.264 23.1655 134.01 23.5405 134.514 24.2905C135.022 25.0405 135.276 26.1381 135.276 27.5834ZM131.087 27.5834C131.087 28.6342 131.177 29.3881 131.356 29.8452C131.54 30.2983 131.846 30.5248 132.276 30.5248C132.698 30.5248 133.003 30.2944 133.19 29.8334C133.378 29.3725 133.471 28.6225 133.471 27.5834C133.471 26.5327 133.376 25.7787 133.184 25.3217C132.997 24.8608 132.694 24.6303 132.276 24.6303C131.85 24.6303 131.546 24.8608 131.362 25.3217C131.178 25.7787 131.087 26.5327 131.087 27.5834ZM142.132 27.5834C142.132 29.0795 141.885 30.187 141.393 30.9057C140.905 31.6245 140.151 31.9838 139.132 31.9838C138.143 31.9838 137.397 31.6127 136.893 30.8705C136.393 30.1284 136.143 29.0327 136.143 27.5834C136.143 26.0717 136.387 24.9584 136.876 24.2436C137.364 23.5248 138.116 23.1655 139.132 23.1655C140.12 23.1655 140.866 23.5405 141.37 24.2905C141.878 25.0405 142.132 26.1381 142.132 27.5834ZM137.942 27.5834C137.942 28.6342 138.032 29.3881 138.212 29.8452C138.395 30.2983 138.702 30.5248 139.132 30.5248C139.553 30.5248 139.858 30.2944 140.046 29.8334C140.233 29.3725 140.327 28.6225 140.327 27.5834C140.327 26.5327 140.231 25.7787 140.04 25.3217C139.852 24.8608 139.55 24.6303 139.132 24.6303C138.706 24.6303 138.401 24.8608 138.218 25.3217C138.034 25.7787 137.942 26.5327 137.942 27.5834ZM148.987 27.5834C148.987 29.0795 148.741 30.187 148.249 30.9057C147.76 31.6245 147.007 31.9838 145.987 31.9838C144.999 31.9838 144.253 31.6127 143.749 30.8705C143.249 30.1284 142.999 29.0327 142.999 27.5834C142.999 26.0717 143.243 24.9584 143.731 24.2436C144.219 23.5248 144.971 23.1655 145.987 23.1655C146.975 23.1655 147.721 23.5405 148.225 24.2905C148.733 25.0405 148.987 26.1381 148.987 27.5834ZM144.798 27.5834C144.798 28.6342 144.887 29.3881 145.067 29.8452C145.251 30.2983 145.557 30.5248 145.987 30.5248C146.409 30.5248 146.714 30.2944 146.901 29.8334C147.089 29.3725 147.182 28.6225 147.182 27.5834C147.182 26.5327 147.087 25.7787 146.895 25.3217C146.708 24.8608 146.405 24.6303 145.987 24.6303C145.561 24.6303 145.257 24.8608 145.073 25.3217C144.889 25.7787 144.798 26.5327 144.798 27.5834ZM155.843 27.5834C155.843 29.0795 155.596 30.187 155.104 30.9057C154.616 31.6245 153.862 31.9838 152.843 31.9838C151.854 31.9838 151.108 31.6127 150.604 30.8705C150.104 30.1284 149.854 29.0327 149.854 27.5834C149.854 26.0717 150.098 24.9584 150.587 24.2436C151.075 23.5248 151.827 23.1655 152.843 23.1655C153.831 23.1655 154.577 23.5405 155.081 24.2905C155.589 25.0405 155.843 26.1381 155.843 27.5834ZM151.653 27.5834C151.653 28.6342 151.743 29.3881 151.923 29.8452C152.106 30.2983 152.413 30.5248 152.843 30.5248C153.264 30.5248 153.569 30.2944 153.757 29.8334C153.944 29.3725 154.038 28.6225 154.038 27.5834C154.038 26.5327 153.942 25.7787 153.751 25.3217C153.563 24.8608 153.26 24.6303 152.843 24.6303C152.417 24.6303 152.112 24.8608 151.928 25.3217C151.745 25.7787 151.653 26.5327 151.653 27.5834ZM162.698 27.5834C162.698 29.0795 162.452 30.187 161.96 30.9057C161.471 31.6245 160.718 31.9838 159.698 31.9838C158.71 31.9838 157.964 31.6127 157.46 30.8705C156.96 30.1284 156.71 29.0327 156.71 27.5834C156.71 26.0717 156.954 24.9584 157.442 24.2436C157.93 23.5248 158.682 23.1655 159.698 23.1655C160.686 23.1655 161.432 23.5405 161.936 24.2905C162.444 25.0405 162.698 26.1381 162.698 27.5834ZM158.509 27.5834C158.509 28.6342 158.598 29.3881 158.778 29.8452C158.962 30.2983 159.268 30.5248 159.698 30.5248C160.12 30.5248 160.425 30.2944 160.612 29.8334C160.8 29.3725 160.893 28.6225 160.893 27.5834C160.893 26.5327 160.798 25.7787 160.606 25.3217C160.419 24.8608 160.116 24.6303 159.698 24.6303C159.272 24.6303 158.968 24.8608 158.784 25.3217C158.6 25.7787 158.509 26.5327 158.509 27.5834ZM168.089 31.8666H166.278V26.9096L166.296 26.0952L166.325 25.2045C166.024 25.5053 165.815 25.7026 165.698 25.7963L164.714 26.5873L163.841 25.4975L166.6 23.3002H168.089V31.8666ZM176.409 27.5834C176.409 29.0795 176.163 30.187 175.671 30.9057C175.182 31.6245 174.428 31.9838 173.409 31.9838C172.421 31.9838 171.675 31.6127 171.171 30.8705C170.671 30.1284 170.421 29.0327 170.421 27.5834C170.421 26.0717 170.665 24.9584 171.153 24.2436C171.641 23.5248 172.393 23.1655 173.409 23.1655C174.397 23.1655 175.143 23.5405 175.647 24.2905C176.155 25.0405 176.409 26.1381 176.409 27.5834ZM172.219 27.5834C172.219 28.6342 172.309 29.3881 172.489 29.8452C172.673 30.2983 172.979 30.5248 173.409 30.5248C173.831 30.5248 174.135 30.2944 174.323 29.8334C174.51 29.3725 174.604 28.6225 174.604 27.5834C174.604 26.5327 174.509 25.7787 174.317 25.3217C174.13 24.8608 173.827 24.6303 173.409 24.6303C172.983 24.6303 172.678 24.8608 172.495 25.3217C172.311 25.7787 172.219 26.5327 172.219 27.5834ZM58.4011 47.8666H56.5906V42.9096L56.6082 42.0952L56.6375 41.2045C56.3367 41.5053 56.1277 41.7026 56.0105 41.7963L55.0261 42.5873L54.1531 41.4975L56.9128 39.3002H58.4011V47.8666ZM66.7214 43.5834C66.7214 45.0795 66.4753 46.187 65.9832 46.9057C65.4949 47.6245 64.741 47.9838 63.7214 47.9838C62.7332 47.9838 61.9871 47.6127 61.4832 46.8705C60.9832 46.1284 60.7332 45.0327 60.7332 43.5834C60.7332 42.0717 60.9773 40.9584 61.4656 40.2436C61.9539 39.5248 62.7058 39.1655 63.7214 39.1655C64.7097 39.1655 65.4558 39.5405 65.9597 40.2905C66.4675 41.0405 66.7214 42.1381 66.7214 43.5834ZM62.532 43.5834C62.532 44.6342 62.6218 45.3881 62.8015 45.8452C62.9851 46.2983 63.2917 46.5248 63.7214 46.5248C64.1433 46.5248 64.448 46.2944 64.6355 45.8334C64.823 45.3725 64.9167 44.6225 64.9167 43.5834C64.9167 42.5327 64.821 41.7787 64.6296 41.3217C64.4421 40.8608 64.1394 40.6303 63.7214 40.6303C63.2957 40.6303 62.991 40.8608 62.8074 41.3217C62.6238 41.7787 62.532 42.5327 62.532 43.5834ZM73.5769 43.5834C73.5769 45.0795 73.3308 46.187 72.8386 46.9057C72.3503 47.6245 71.5964 47.9838 70.5769 47.9838C69.5886 47.9838 68.8425 47.6127 68.3386 46.8705C67.8386 46.1284 67.5886 45.0327 67.5886 43.5834C67.5886 42.0717 67.8328 40.9584 68.321 40.2436C68.8093 39.5248 69.5613 39.1655 70.5769 39.1655C71.5652 39.1655 72.3113 39.5405 72.8152 40.2905C73.323 41.0405 73.5769 42.1381 73.5769 43.5834ZM69.3875 43.5834C69.3875 44.6342 69.4773 45.3881 69.657 45.8452C69.8406 46.2983 70.1472 46.5248 70.5769 46.5248C70.9988 46.5248 71.3035 46.2944 71.491 45.8334C71.6785 45.3725 71.7722 44.6225 71.7722 43.5834C71.7722 42.5327 71.6765 41.7787 71.4851 41.3217C71.2976 40.8608 70.9949 40.6303 70.5769 40.6303C70.1511 40.6303 69.8464 40.8608 69.6628 41.3217C69.4792 41.7787 69.3875 42.5327 69.3875 43.5834ZM78.9675 47.8666H77.157V42.9096L77.1746 42.0952L77.2039 41.2045C76.9031 41.5053 76.6941 41.7026 76.5769 41.7963L75.5925 42.5873L74.7195 41.4975L77.4792 39.3002H78.9675V47.8666ZM87.2878 43.5834C87.2878 45.0795 87.0417 46.187 86.5496 46.9057C86.0613 47.6245 85.3074 47.9838 84.2878 47.9838C83.2996 47.9838 82.5535 47.6127 82.0496 46.8705C81.5496 46.1284 81.2996 45.0327 81.2996 43.5834C81.2996 42.0717 81.5437 40.9584 82.032 40.2436C82.5203 39.5248 83.2722 39.1655 84.2878 39.1655C85.2761 39.1655 86.0222 39.5405 86.5261 40.2905C87.0339 41.0405 87.2878 42.1381 87.2878 43.5834ZM83.0984 43.5834C83.0984 44.6342 83.1882 45.3881 83.3679 45.8452C83.5515 46.2983 83.8582 46.5248 84.2878 46.5248C84.7097 46.5248 85.0144 46.2944 85.2019 45.8334C85.3894 45.3725 85.4832 44.6225 85.4832 43.5834C85.4832 42.5327 85.3875 41.7787 85.196 41.3217C85.0085 40.8608 84.7058 40.6303 84.2878 40.6303C83.8621 40.6303 83.5574 40.8608 83.3738 41.3217C83.1902 41.7787 83.0984 42.5327 83.0984 43.5834ZM94.1433 43.5834C94.1433 45.0795 93.8972 46.187 93.405 46.9057C92.9167 47.6245 92.1628 47.9838 91.1433 47.9838C90.155 47.9838 89.4089 47.6127 88.905 46.8705C88.405 46.1284 88.155 45.0327 88.155 43.5834C88.155 42.0717 88.3992 40.9584 88.8875 40.2436C89.3757 39.5248 90.1277 39.1655 91.1433 39.1655C92.1316 39.1655 92.8777 39.5405 93.3816 40.2905C93.8894 41.0405 94.1433 42.1381 94.1433 43.5834ZM89.9539 43.5834C89.9539 44.6342 90.0437 45.3881 90.2234 45.8452C90.407 46.2983 90.7136 46.5248 91.1433 46.5248C91.5652 46.5248 91.8699 46.2944 92.0574 45.8334C92.2449 45.3725 92.3386 44.6225 92.3386 43.5834C92.3386 42.5327 92.2429 41.7787 92.0515 41.3217C91.864 40.8608 91.5613 40.6303 91.1433 40.6303C90.7175 40.6303 90.4128 40.8608 90.2292 41.3217C90.0457 41.7787 89.9539 42.5327 89.9539 43.5834ZM99.5339 47.8666H97.7234V42.9096L97.741 42.0952L97.7703 41.2045C97.4695 41.5053 97.2605 41.7026 97.1433 41.7963L96.1589 42.5873L95.2859 41.4975L98.0457 39.3002H99.5339V47.8666ZM107.854 43.5834C107.854 45.0795 107.608 46.187 107.116 46.9057C106.628 47.6245 105.874 47.9838 104.854 47.9838C103.866 47.9838 103.12 47.6127 102.616 46.8705C102.116 46.1284 101.866 45.0327 101.866 43.5834C101.866 42.0717 102.11 40.9584 102.598 40.2436C103.087 39.5248 103.839 39.1655 104.854 39.1655C105.843 39.1655 106.589 39.5405 107.093 40.2905C107.6 41.0405 107.854 42.1381 107.854 43.5834ZM103.665 43.5834C103.665 44.6342 103.755 45.3881 103.934 45.8452C104.118 46.2983 104.425 46.5248 104.854 46.5248C105.276 46.5248 105.581 46.2944 105.768 45.8334C105.956 45.3725 106.05 44.6225 106.05 43.5834C106.05 42.5327 105.954 41.7787 105.762 41.3217C105.575 40.8608 105.272 40.6303 104.854 40.6303C104.428 40.6303 104.124 40.8608 103.94 41.3217C103.757 41.7787 103.665 42.5327 103.665 43.5834ZM114.71 43.5834C114.71 45.0795 114.464 46.187 113.971 46.9057C113.483 47.6245 112.729 47.9838 111.71 47.9838C110.721 47.9838 109.975 47.6127 109.471 46.8705C108.971 46.1284 108.721 45.0327 108.721 43.5834C108.721 42.0717 108.966 40.9584 109.454 40.2436C109.942 39.5248 110.694 39.1655 111.71 39.1655C112.698 39.1655 113.444 39.5405 113.948 40.2905C114.456 41.0405 114.71 42.1381 114.71 43.5834ZM110.52 43.5834C110.52 44.6342 110.61 45.3881 110.79 45.8452C110.973 46.2983 111.28 46.5248 111.71 46.5248C112.132 46.5248 112.436 46.2944 112.624 45.8334C112.811 45.3725 112.905 44.6225 112.905 43.5834C112.905 42.5327 112.809 41.7787 112.618 41.3217C112.43 40.8608 112.128 40.6303 111.71 40.6303C111.284 40.6303 110.979 40.8608 110.796 41.3217C110.612 41.7787 110.52 42.5327 110.52 43.5834ZM121.565 43.5834C121.565 45.0795 121.319 46.187 120.827 46.9057C120.339 47.6245 119.585 47.9838 118.565 47.9838C117.577 47.9838 116.831 47.6127 116.327 46.8705C115.827 46.1284 115.577 45.0327 115.577 43.5834C115.577 42.0717 115.821 40.9584 116.309 40.2436C116.798 39.5248 117.55 39.1655 118.565 39.1655C119.553 39.1655 120.3 39.5405 120.803 40.2905C121.311 41.0405 121.565 42.1381 121.565 43.5834ZM117.376 43.5834C117.376 44.6342 117.466 45.3881 117.645 45.8452C117.829 46.2983 118.135 46.5248 118.565 46.5248C118.987 46.5248 119.292 46.2944 119.479 45.8334C119.667 45.3725 119.76 44.6225 119.76 43.5834C119.76 42.5327 119.665 41.7787 119.473 41.3217C119.286 40.8608 118.983 40.6303 118.565 40.6303C118.139 40.6303 117.835 40.8608 117.651 41.3217C117.468 41.7787 117.376 42.5327 117.376 43.5834ZM128.421 43.5834C128.421 45.0795 128.175 46.187 127.682 46.9057C127.194 47.6245 126.44 47.9838 125.421 47.9838C124.432 47.9838 123.686 47.6127 123.182 46.8705C122.682 46.1284 122.432 45.0327 122.432 43.5834C122.432 42.0717 122.677 40.9584 123.165 40.2436C123.653 39.5248 124.405 39.1655 125.421 39.1655C126.409 39.1655 127.155 39.5405 127.659 40.2905C128.167 41.0405 128.421 42.1381 128.421 43.5834ZM124.231 43.5834C124.231 44.6342 124.321 45.3881 124.501 45.8452C124.684 46.2983 124.991 46.5248 125.421 46.5248C125.843 46.5248 126.147 46.2944 126.335 45.8334C126.522 45.3725 126.616 44.6225 126.616 43.5834C126.616 42.5327 126.52 41.7787 126.329 41.3217C126.141 40.8608 125.839 40.6303 125.421 40.6303C124.995 40.6303 124.69 40.8608 124.507 41.3217C124.323 41.7787 124.231 42.5327 124.231 43.5834ZM133.811 47.8666H132.001V42.9096L132.018 42.0952L132.048 41.2045C131.747 41.5053 131.538 41.7026 131.421 41.7963L130.436 42.5873L129.563 41.4975L132.323 39.3002H133.811V47.8666ZM142.132 43.5834C142.132 45.0795 141.885 46.187 141.393 46.9057C140.905 47.6245 140.151 47.9838 139.132 47.9838C138.143 47.9838 137.397 47.6127 136.893 46.8705C136.393 46.1284 136.143 45.0327 136.143 43.5834C136.143 42.0717 136.387 40.9584 136.876 40.2436C137.364 39.5248 138.116 39.1655 139.132 39.1655C140.12 39.1655 140.866 39.5405 141.37 40.2905C141.878 41.0405 142.132 42.1381 142.132 43.5834ZM137.942 43.5834C137.942 44.6342 138.032 45.3881 138.212 45.8452C138.395 46.2983 138.702 46.5248 139.132 46.5248C139.553 46.5248 139.858 46.2944 140.046 45.8334C140.233 45.3725 140.327 44.6225 140.327 43.5834C140.327 42.5327 140.231 41.7787 140.04 41.3217C139.852 40.8608 139.55 40.6303 139.132 40.6303C138.706 40.6303 138.401 40.8608 138.218 41.3217C138.034 41.7787 137.942 42.5327 137.942 43.5834ZM147.522 47.8666H145.712V42.9096L145.729 42.0952L145.759 41.2045C145.458 41.5053 145.249 41.7026 145.132 41.7963L144.147 42.5873L143.274 41.4975L146.034 39.3002H147.522V47.8666ZM155.843 43.5834C155.843 45.0795 155.596 46.187 155.104 46.9057C154.616 47.6245 153.862 47.9838 152.843 47.9838C151.854 47.9838 151.108 47.6127 150.604 46.8705C150.104 46.1284 149.854 45.0327 149.854 43.5834C149.854 42.0717 150.098 40.9584 150.587 40.2436C151.075 39.5248 151.827 39.1655 152.843 39.1655C153.831 39.1655 154.577 39.5405 155.081 40.2905C155.589 41.0405 155.843 42.1381 155.843 43.5834ZM151.653 43.5834C151.653 44.6342 151.743 45.3881 151.923 45.8452C152.106 46.2983 152.413 46.5248 152.843 46.5248C153.264 46.5248 153.569 46.2944 153.757 45.8334C153.944 45.3725 154.038 44.6225 154.038 43.5834C154.038 42.5327 153.942 41.7787 153.751 41.3217C153.563 40.8608 153.26 40.6303 152.843 40.6303C152.417 40.6303 152.112 40.8608 151.928 41.3217C151.745 41.7787 151.653 42.5327 151.653 43.5834ZM162.698 43.5834C162.698 45.0795 162.452 46.187 161.96 46.9057C161.471 47.6245 160.718 47.9838 159.698 47.9838C158.71 47.9838 157.964 47.6127 157.46 46.8705C156.96 46.1284 156.71 45.0327 156.71 43.5834C156.71 42.0717 156.954 40.9584 157.442 40.2436C157.93 39.5248 158.682 39.1655 159.698 39.1655C160.686 39.1655 161.432 39.5405 161.936 40.2905C162.444 41.0405 162.698 42.1381 162.698 43.5834ZM158.509 43.5834C158.509 44.6342 158.598 45.3881 158.778 45.8452C158.962 46.2983 159.268 46.5248 159.698 46.5248C160.12 46.5248 160.425 46.2944 160.612 45.8334C160.8 45.3725 160.893 44.6225 160.893 43.5834C160.893 42.5327 160.798 41.7787 160.606 41.3217C160.419 40.8608 160.116 40.6303 159.698 40.6303C159.272 40.6303 158.968 40.8608 158.784 41.3217C158.6 41.7787 158.509 42.5327 158.509 43.5834ZM169.553 43.5834C169.553 45.0795 169.307 46.187 168.815 46.9057C168.327 47.6245 167.573 47.9838 166.553 47.9838C165.565 47.9838 164.819 47.6127 164.315 46.8705C163.815 46.1284 163.565 45.0327 163.565 43.5834C163.565 42.0717 163.809 40.9584 164.298 40.2436C164.786 39.5248 165.538 39.1655 166.553 39.1655C167.542 39.1655 168.288 39.5405 168.792 40.2905C169.3 41.0405 169.553 42.1381 169.553 43.5834ZM165.364 43.5834C165.364 44.6342 165.454 45.3881 165.634 45.8452C165.817 46.2983 166.124 46.5248 166.553 46.5248C166.975 46.5248 167.28 46.2944 167.468 45.8334C167.655 45.3725 167.749 44.6225 167.749 43.5834C167.749 42.5327 167.653 41.7787 167.462 41.3217C167.274 40.8608 166.971 40.6303 166.553 40.6303C166.128 40.6303 165.823 40.8608 165.639 41.3217C165.456 41.7787 165.364 42.5327 165.364 43.5834ZM174.944 47.8666H173.134V42.9096L173.151 42.0952L173.18 41.2045C172.88 41.5053 172.671 41.7026 172.553 41.7963L171.569 42.5873L170.696 41.4975L173.456 39.3002H174.944V47.8666ZM59.866 59.5834C59.866 61.0795 59.6199 62.187 59.1277 62.9057C58.6394 63.6245 57.8855 63.9838 56.866 63.9838C55.8777 63.9838 55.1316 63.6127 54.6277 62.8705C54.1277 62.1284 53.8777 61.0327 53.8777 59.5834C53.8777 58.0717 54.1218 56.9584 54.6101 56.2436C55.0984 55.5248 55.8503 55.1655 56.866 55.1655C57.8542 55.1655 58.6003 55.5405 59.1042 56.2905C59.6121 57.0405 59.866 58.1381 59.866 59.5834ZM55.6765 59.5834C55.6765 60.6342 55.7664 61.3881 55.946 61.8452C56.1296 62.2983 56.4363 62.5248 56.866 62.5248C57.2878 62.5248 57.5925 62.2944 57.78 61.8334C57.9675 61.3725 58.0613 60.6225 58.0613 59.5834C58.0613 58.5327 57.9656 57.7787 57.7742 57.3217C57.5867 56.8608 57.2839 56.6303 56.866 56.6303C56.4402 56.6303 56.1355 56.8608 55.9519 57.3217C55.7683 57.7787 55.6765 58.5327 55.6765 59.5834ZM65.2566 63.8666H63.446V58.9096L63.4636 58.0952L63.4929 57.2045C63.1921 57.5053 62.9832 57.7026 62.866 57.7963L61.8816 58.5873L61.0085 57.4975L63.7683 55.3002H65.2566V63.8666ZM73.5769 59.5834C73.5769 61.0795 73.3308 62.187 72.8386 62.9057C72.3503 63.6245 71.5964 63.9838 70.5769 63.9838C69.5886 63.9838 68.8425 63.6127 68.3386 62.8705C67.8386 62.1284 67.5886 61.0327 67.5886 59.5834C67.5886 58.0717 67.8328 56.9584 68.321 56.2436C68.8093 55.5248 69.5613 55.1655 70.5769 55.1655C71.5652 55.1655 72.3113 55.5405 72.8152 56.2905C73.323 57.0405 73.5769 58.1381 73.5769 59.5834ZM69.3875 59.5834C69.3875 60.6342 69.4773 61.3881 69.657 61.8452C69.8406 62.2983 70.1472 62.5248 70.5769 62.5248C70.9988 62.5248 71.3035 62.2944 71.491 61.8334C71.6785 61.3725 71.7722 60.6225 71.7722 59.5834C71.7722 58.5327 71.6765 57.7787 71.4851 57.3217C71.2976 56.8608 70.9949 56.6303 70.5769 56.6303C70.1511 56.6303 69.8464 56.8608 69.6628 57.3217C69.4792 57.7787 69.3875 58.5327 69.3875 59.5834ZM78.9675 63.8666H77.157V58.9096L77.1746 58.0952L77.2039 57.2045C76.9031 57.5053 76.6941 57.7026 76.5769 57.7963L75.5925 58.5873L74.7195 57.4975L77.4792 55.3002H78.9675V63.8666ZM87.2878 59.5834C87.2878 61.0795 87.0417 62.187 86.5496 62.9057C86.0613 63.6245 85.3074 63.9838 84.2878 63.9838C83.2996 63.9838 82.5535 63.6127 82.0496 62.8705C81.5496 62.1284 81.2996 61.0327 81.2996 59.5834C81.2996 58.0717 81.5437 56.9584 82.032 56.2436C82.5203 55.5248 83.2722 55.1655 84.2878 55.1655C85.2761 55.1655 86.0222 55.5405 86.5261 56.2905C87.0339 57.0405 87.2878 58.1381 87.2878 59.5834ZM83.0984 59.5834C83.0984 60.6342 83.1882 61.3881 83.3679 61.8452C83.5515 62.2983 83.8582 62.5248 84.2878 62.5248C84.7097 62.5248 85.0144 62.2944 85.2019 61.8334C85.3894 61.3725 85.4832 60.6225 85.4832 59.5834C85.4832 58.5327 85.3875 57.7787 85.196 57.3217C85.0085 56.8608 84.7058 56.6303 84.2878 56.6303C83.8621 56.6303 83.5574 56.8608 83.3738 57.3217C83.1902 57.7787 83.0984 58.5327 83.0984 59.5834ZM94.1433 59.5834C94.1433 61.0795 93.8972 62.187 93.405 62.9057C92.9167 63.6245 92.1628 63.9838 91.1433 63.9838C90.155 63.9838 89.4089 63.6127 88.905 62.8705C88.405 62.1284 88.155 61.0327 88.155 59.5834C88.155 58.0717 88.3992 56.9584 88.8875 56.2436C89.3757 55.5248 90.1277 55.1655 91.1433 55.1655C92.1316 55.1655 92.8777 55.5405 93.3816 56.2905C93.8894 57.0405 94.1433 58.1381 94.1433 59.5834ZM89.9539 59.5834C89.9539 60.6342 90.0437 61.3881 90.2234 61.8452C90.407 62.2983 90.7136 62.5248 91.1433 62.5248C91.5652 62.5248 91.8699 62.2944 92.0574 61.8334C92.2449 61.3725 92.3386 60.6225 92.3386 59.5834C92.3386 58.5327 92.2429 57.7787 92.0515 57.3217C91.864 56.8608 91.5613 56.6303 91.1433 56.6303C90.7175 56.6303 90.4128 56.8608 90.2292 57.3217C90.0457 57.7787 89.9539 58.5327 89.9539 59.5834ZM99.5339 63.8666H97.7234V58.9096L97.741 58.0952L97.7703 57.2045C97.4695 57.5053 97.2605 57.7026 97.1433 57.7963L96.1589 58.5873L95.2859 57.4975L98.0457 55.3002H99.5339V63.8666ZM107.854 59.5834C107.854 61.0795 107.608 62.187 107.116 62.9057C106.628 63.6245 105.874 63.9838 104.854 63.9838C103.866 63.9838 103.12 63.6127 102.616 62.8705C102.116 62.1284 101.866 61.0327 101.866 59.5834C101.866 58.0717 102.11 56.9584 102.598 56.2436C103.087 55.5248 103.839 55.1655 104.854 55.1655C105.843 55.1655 106.589 55.5405 107.093 56.2905C107.6 57.0405 107.854 58.1381 107.854 59.5834ZM103.665 59.5834C103.665 60.6342 103.755 61.3881 103.934 61.8452C104.118 62.2983 104.425 62.5248 104.854 62.5248C105.276 62.5248 105.581 62.2944 105.768 61.8334C105.956 61.3725 106.05 60.6225 106.05 59.5834C106.05 58.5327 105.954 57.7787 105.762 57.3217C105.575 56.8608 105.272 56.6303 104.854 56.6303C104.428 56.6303 104.124 56.8608 103.94 57.3217C103.757 57.7787 103.665 58.5327 103.665 59.5834ZM113.245 63.8666H111.434V58.9096L111.452 58.0952L111.481 57.2045C111.18 57.5053 110.971 57.7026 110.854 57.7963L109.87 58.5873L108.997 57.4975L111.757 55.3002H113.245V63.8666ZM121.565 59.5834C121.565 61.0795 121.319 62.187 120.827 62.9057C120.339 63.6245 119.585 63.9838 118.565 63.9838C117.577 63.9838 116.831 63.6127 116.327 62.8705C115.827 62.1284 115.577 61.0327 115.577 59.5834C115.577 58.0717 115.821 56.9584 116.309 56.2436C116.798 55.5248 117.55 55.1655 118.565 55.1655C119.553 55.1655 120.3 55.5405 120.803 56.2905C121.311 57.0405 121.565 58.1381 121.565 59.5834ZM117.376 59.5834C117.376 60.6342 117.466 61.3881 117.645 61.8452C117.829 62.2983 118.135 62.5248 118.565 62.5248C118.987 62.5248 119.292 62.2944 119.479 61.8334C119.667 61.3725 119.76 60.6225 119.76 59.5834C119.76 58.5327 119.665 57.7787 119.473 57.3217C119.286 56.8608 118.983 56.6303 118.565 56.6303C118.139 56.6303 117.835 56.8608 117.651 57.3217C117.468 57.7787 117.376 58.5327 117.376 59.5834ZM126.956 63.8666H125.145V58.9096L125.163 58.0952L125.192 57.2045C124.891 57.5053 124.682 57.7026 124.565 57.7963L123.581 58.5873L122.708 57.4975L125.468 55.3002H126.956V63.8666ZM135.276 59.5834C135.276 61.0795 135.03 62.187 134.538 62.9057C134.05 63.6245 133.296 63.9838 132.276 63.9838C131.288 63.9838 130.542 63.6127 130.038 62.8705C129.538 62.1284 129.288 61.0327 129.288 59.5834C129.288 58.0717 129.532 56.9584 130.02 56.2436C130.509 55.5248 131.26 55.1655 132.276 55.1655C133.264 55.1655 134.01 55.5405 134.514 56.2905C135.022 57.0405 135.276 58.1381 135.276 59.5834ZM131.087 59.5834C131.087 60.6342 131.177 61.3881 131.356 61.8452C131.54 62.2983 131.846 62.5248 132.276 62.5248C132.698 62.5248 133.003 62.2944 133.19 61.8334C133.378 61.3725 133.471 60.6225 133.471 59.5834C133.471 58.5327 133.376 57.7787 133.184 57.3217C132.997 56.8608 132.694 56.6303 132.276 56.6303C131.85 56.6303 131.546 56.8608 131.362 57.3217C131.178 57.7787 131.087 58.5327 131.087 59.5834ZM142.132 59.5834C142.132 61.0795 141.885 62.187 141.393 62.9057C140.905 63.6245 140.151 63.9838 139.132 63.9838C138.143 63.9838 137.397 63.6127 136.893 62.8705C136.393 62.1284 136.143 61.0327 136.143 59.5834C136.143 58.0717 136.387 56.9584 136.876 56.2436C137.364 55.5248 138.116 55.1655 139.132 55.1655C140.12 55.1655 140.866 55.5405 141.37 56.2905C141.878 57.0405 142.132 58.1381 142.132 59.5834ZM137.942 59.5834C137.942 60.6342 138.032 61.3881 138.212 61.8452C138.395 62.2983 138.702 62.5248 139.132 62.5248C139.553 62.5248 139.858 62.2944 140.046 61.8334C140.233 61.3725 140.327 60.6225 140.327 59.5834C140.327 58.5327 140.231 57.7787 140.04 57.3217C139.852 56.8608 139.55 56.6303 139.132 56.6303C138.706 56.6303 138.401 56.8608 138.218 57.3217C138.034 57.7787 137.942 58.5327 137.942 59.5834ZM147.522 63.8666H145.712V58.9096L145.729 58.0952L145.759 57.2045C145.458 57.5053 145.249 57.7026 145.132 57.7963L144.147 58.5873L143.274 57.4975L146.034 55.3002H147.522V63.8666ZM155.843 59.5834C155.843 61.0795 155.596 62.187 155.104 62.9057C154.616 63.6245 153.862 63.9838 152.843 63.9838C151.854 63.9838 151.108 63.6127 150.604 62.8705C150.104 62.1284 149.854 61.0327 149.854 59.5834C149.854 58.0717 150.098 56.9584 150.587 56.2436C151.075 55.5248 151.827 55.1655 152.843 55.1655C153.831 55.1655 154.577 55.5405 155.081 56.2905C155.589 57.0405 155.843 58.1381 155.843 59.5834ZM151.653 59.5834C151.653 60.6342 151.743 61.3881 151.923 61.8452C152.106 62.2983 152.413 62.5248 152.843 62.5248C153.264 62.5248 153.569 62.2944 153.757 61.8334C153.944 61.3725 154.038 60.6225 154.038 59.5834C154.038 58.5327 153.942 57.7787 153.751 57.3217C153.563 56.8608 153.26 56.6303 152.843 56.6303C152.417 56.6303 152.112 56.8608 151.928 57.3217C151.745 57.7787 151.653 58.5327 151.653 59.5834ZM161.233 63.8666H159.423V58.9096L159.44 58.0952L159.469 57.2045C159.169 57.5053 158.96 57.7026 158.843 57.7963L157.858 58.5873L156.985 57.4975L159.745 55.3002H161.233V63.8666ZM169.553 59.5834C169.553 61.0795 169.307 62.187 168.815 62.9057C168.327 63.6245 167.573 63.9838 166.553 63.9838C165.565 63.9838 164.819 63.6127 164.315 62.8705C163.815 62.1284 163.565 61.0327 163.565 59.5834C163.565 58.0717 163.809 56.9584 164.298 56.2436C164.786 55.5248 165.538 55.1655 166.553 55.1655C167.542 55.1655 168.288 55.5405 168.792 56.2905C169.3 57.0405 169.553 58.1381 169.553 59.5834ZM165.364 59.5834C165.364 60.6342 165.454 61.3881 165.634 61.8452C165.817 62.2983 166.124 62.5248 166.553 62.5248C166.975 62.5248 167.28 62.2944 167.468 61.8334C167.655 61.3725 167.749 60.6225 167.749 59.5834C167.749 58.5327 167.653 57.7787 167.462 57.3217C167.274 56.8608 166.971 56.6303 166.553 56.6303C166.128 56.6303 165.823 56.8608 165.639 57.3217C165.456 57.7787 165.364 58.5327 165.364 59.5834ZM176.409 59.5834C176.409 61.0795 176.163 62.187 175.671 62.9057C175.182 63.6245 174.428 63.9838 173.409 63.9838C172.421 63.9838 171.675 63.6127 171.171 62.8705C170.671 62.1284 170.421 61.0327 170.421 59.5834C170.421 58.0717 170.665 56.9584 171.153 56.2436C171.641 55.5248 172.393 55.1655 173.409 55.1655C174.397 55.1655 175.143 55.5405 175.647 56.2905C176.155 57.0405 176.409 58.1381 176.409 59.5834ZM172.219 59.5834C172.219 60.6342 172.309 61.3881 172.489 61.8452C172.673 62.2983 172.979 62.5248 173.409 62.5248C173.831 62.5248 174.135 62.2944 174.323 61.8334C174.51 61.3725 174.604 60.6225 174.604 59.5834C174.604 58.5327 174.509 57.7787 174.317 57.3217C174.13 56.8608 173.827 56.6303 173.409 56.6303C172.983 56.6303 172.678 56.8608 172.495 57.3217C172.311 57.7787 172.219 58.5327 172.219 59.5834ZM58.4011 79.8666H56.5906V74.9096L56.6082 74.0952L56.6375 73.2045C56.3367 73.5053 56.1277 73.7026 56.0105 73.7963L55.0261 74.5873L54.1531 73.4975L56.9128 71.3002H58.4011V79.8666ZM65.2566 79.8666H63.446V74.9096L63.4636 74.0952L63.4929 73.2045C63.1921 73.5053 62.9832 73.7026 62.866 73.7963L61.8816 74.5873L61.0085 73.4975L63.7683 71.3002H65.2566V79.8666ZM73.5769 75.5834C73.5769 77.0795 73.3308 78.187 72.8386 78.9057C72.3503 79.6245 71.5964 79.9838 70.5769 79.9838C69.5886 79.9838 68.8425 79.6127 68.3386 78.8705C67.8386 78.1284 67.5886 77.0327 67.5886 75.5834C67.5886 74.0717 67.8328 72.9584 68.321 72.2436C68.8093 71.5248 69.5613 71.1655 70.5769 71.1655C71.5652 71.1655 72.3113 71.5405 72.8152 72.2905C73.323 73.0405 73.5769 74.1381 73.5769 75.5834ZM69.3875 75.5834C69.3875 76.6342 69.4773 77.3881 69.657 77.8452C69.8406 78.2983 70.1472 78.5248 70.5769 78.5248C70.9988 78.5248 71.3035 78.2944 71.491 77.8334C71.6785 77.3725 71.7722 76.6225 71.7722 75.5834C71.7722 74.5327 71.6765 73.7787 71.4851 73.3217C71.2976 72.8608 70.9949 72.6303 70.5769 72.6303C70.1511 72.6303 69.8464 72.8608 69.6628 73.3217C69.4792 73.7787 69.3875 74.5327 69.3875 75.5834ZM78.9675 79.8666H77.157V74.9096L77.1746 74.0952L77.2039 73.2045C76.9031 73.5053 76.6941 73.7026 76.5769 73.7963L75.5925 74.5873L74.7195 73.4975L77.4792 71.3002H78.9675V79.8666ZM87.2878 75.5834C87.2878 77.0795 87.0417 78.187 86.5496 78.9057C86.0613 79.6245 85.3074 79.9838 84.2878 79.9838C83.2996 79.9838 82.5535 79.6127 82.0496 78.8705C81.5496 78.1284 81.2996 77.0327 81.2996 75.5834C81.2996 74.0717 81.5437 72.9584 82.032 72.2436C82.5203 71.5248 83.2722 71.1655 84.2878 71.1655C85.2761 71.1655 86.0222 71.5405 86.5261 72.2905C87.0339 73.0405 87.2878 74.1381 87.2878 75.5834ZM83.0984 75.5834C83.0984 76.6342 83.1882 77.3881 83.3679 77.8452C83.5515 78.2983 83.8582 78.5248 84.2878 78.5248C84.7097 78.5248 85.0144 78.2944 85.2019 77.8334C85.3894 77.3725 85.4832 76.6225 85.4832 75.5834C85.4832 74.5327 85.3875 73.7787 85.196 73.3217C85.0085 72.8608 84.7058 72.6303 84.2878 72.6303C83.8621 72.6303 83.5574 72.8608 83.3738 73.3217C83.1902 73.7787 83.0984 74.5327 83.0984 75.5834ZM92.6785 79.8666H90.8679V74.9096L90.8855 74.0952L90.9148 73.2045C90.614 73.5053 90.405 73.7026 90.2878 73.7963L89.3035 74.5873L88.4304 73.4975L91.1902 71.3002H92.6785V79.8666ZM100.999 75.5834C100.999 77.0795 100.753 78.187 100.26 78.9057C99.7722 79.6245 99.0183 79.9838 97.9988 79.9838C97.0105 79.9838 96.2644 79.6127 95.7605 78.8705C95.2605 78.1284 95.0105 77.0327 95.0105 75.5834C95.0105 74.0717 95.2546 72.9584 95.7429 72.2436C96.2312 71.5248 96.9832 71.1655 97.9988 71.1655C98.9871 71.1655 99.7332 71.5405 100.237 72.2905C100.745 73.0405 100.999 74.1381 100.999 75.5834ZM96.8093 75.5834C96.8093 76.6342 96.8992 77.3881 97.0789 77.8452C97.2625 78.2983 97.5691 78.5248 97.9988 78.5248C98.4207 78.5248 98.7253 78.2944 98.9128 77.8334C99.1003 77.3725 99.1941 76.6225 99.1941 75.5834C99.1941 74.5327 99.0984 73.7787 98.907 73.3217C98.7195 72.8608 98.4167 72.6303 97.9988 72.6303C97.573 72.6303 97.2683 72.8608 97.0847 73.3217C96.9011 73.7787 96.8093 74.5327 96.8093 75.5834ZM107.854 75.5834C107.854 77.0795 107.608 78.187 107.116 78.9057C106.628 79.6245 105.874 79.9838 104.854 79.9838C103.866 79.9838 103.12 79.6127 102.616 78.8705C102.116 78.1284 101.866 77.0327 101.866 75.5834C101.866 74.0717 102.11 72.9584 102.598 72.2436C103.087 71.5248 103.839 71.1655 104.854 71.1655C105.843 71.1655 106.589 71.5405 107.093 72.2905C107.6 73.0405 107.854 74.1381 107.854 75.5834ZM103.665 75.5834C103.665 76.6342 103.755 77.3881 103.934 77.8452C104.118 78.2983 104.425 78.5248 104.854 78.5248C105.276 78.5248 105.581 78.2944 105.768 77.8334C105.956 77.3725 106.05 76.6225 106.05 75.5834C106.05 74.5327 105.954 73.7787 105.762 73.3217C105.575 72.8608 105.272 72.6303 104.854 72.6303C104.428 72.6303 104.124 72.8608 103.94 73.3217C103.757 73.7787 103.665 74.5327 103.665 75.5834ZM113.245 79.8666H111.434V74.9096L111.452 74.0952L111.481 73.2045C111.18 73.5053 110.971 73.7026 110.854 73.7963L109.87 74.5873L108.997 73.4975L111.757 71.3002H113.245V79.8666ZM120.1 79.8666H118.29V74.9096L118.307 74.0952L118.337 73.2045C118.036 73.5053 117.827 73.7026 117.71 73.7963L116.725 74.5873L115.852 73.4975L118.612 71.3002H120.1V79.8666ZM126.956 79.8666H125.145V74.9096L125.163 74.0952L125.192 73.2045C124.891 73.5053 124.682 73.7026 124.565 73.7963L123.581 74.5873L122.708 73.4975L125.468 71.3002H126.956V79.8666ZM133.811 79.8666H132.001V74.9096L132.018 74.0952L132.048 73.2045C131.747 73.5053 131.538 73.7026 131.421 73.7963L130.436 74.5873L129.563 73.4975L132.323 71.3002H133.811V79.8666ZM142.132 75.5834C142.132 77.0795 141.885 78.187 141.393 78.9057C140.905 79.6245 140.151 79.9838 139.132 79.9838C138.143 79.9838 137.397 79.6127 136.893 78.8705C136.393 78.1284 136.143 77.0327 136.143 75.5834C136.143 74.0717 136.387 72.9584 136.876 72.2436C137.364 71.5248 138.116 71.1655 139.132 71.1655C140.12 71.1655 140.866 71.5405 141.37 72.2905C141.878 73.0405 142.132 74.1381 142.132 75.5834ZM137.942 75.5834C137.942 76.6342 138.032 77.3881 138.212 77.8452C138.395 78.2983 138.702 78.5248 139.132 78.5248C139.553 78.5248 139.858 78.2944 140.046 77.8334C140.233 77.3725 140.327 76.6225 140.327 75.5834C140.327 74.5327 140.231 73.7787 140.04 73.3217C139.852 72.8608 139.55 72.6303 139.132 72.6303C138.706 72.6303 138.401 72.8608 138.218 73.3217C138.034 73.7787 137.942 74.5327 137.942 75.5834ZM147.522 79.8666H145.712V74.9096L145.729 74.0952L145.759 73.2045C145.458 73.5053 145.249 73.7026 145.132 73.7963L144.147 74.5873L143.274 73.4975L146.034 71.3002H147.522V79.8666ZM155.843 75.5834C155.843 77.0795 155.596 78.187 155.104 78.9057C154.616 79.6245 153.862 79.9838 152.843 79.9838C151.854 79.9838 151.108 79.6127 150.604 78.8705C150.104 78.1284 149.854 77.0327 149.854 75.5834C149.854 74.0717 150.098 72.9584 150.587 72.2436C151.075 71.5248 151.827 71.1655 152.843 71.1655C153.831 71.1655 154.577 71.5405 155.081 72.2905C155.589 73.0405 155.843 74.1381 155.843 75.5834ZM151.653 75.5834C151.653 76.6342 151.743 77.3881 151.923 77.8452C152.106 78.2983 152.413 78.5248 152.843 78.5248C153.264 78.5248 153.569 78.2944 153.757 77.8334C153.944 77.3725 154.038 76.6225 154.038 75.5834C154.038 74.5327 153.942 73.7787 153.751 73.3217C153.563 72.8608 153.26 72.6303 152.843 72.6303C152.417 72.6303 152.112 72.8608 151.928 73.3217C151.745 73.7787 151.653 74.5327 151.653 75.5834ZM162.698 75.5834C162.698 77.0795 162.452 78.187 161.96 78.9057C161.471 79.6245 160.718 79.9838 159.698 79.9838C158.71 79.9838 157.964 79.6127 157.46 78.8705C156.96 78.1284 156.71 77.0327 156.71 75.5834C156.71 74.0717 156.954 72.9584 157.442 72.2436C157.93 71.5248 158.682 71.1655 159.698 71.1655C160.686 71.1655 161.432 71.5405 161.936 72.2905C162.444 73.0405 162.698 74.1381 162.698 75.5834ZM158.509 75.5834C158.509 76.6342 158.598 77.3881 158.778 77.8452C158.962 78.2983 159.268 78.5248 159.698 78.5248C160.12 78.5248 160.425 78.2944 160.612 77.8334C160.8 77.3725 160.893 76.6225 160.893 75.5834C160.893 74.5327 160.798 73.7787 160.606 73.3217C160.419 72.8608 160.116 72.6303 159.698 72.6303C159.272 72.6303 158.968 72.8608 158.784 73.3217C158.6 73.7787 158.509 74.5327 158.509 75.5834ZM168.089 79.8666H166.278V74.9096L166.296 74.0952L166.325 73.2045C166.024 73.5053 165.815 73.7026 165.698 73.7963L164.714 74.5873L163.841 73.4975L166.6 71.3002H168.089V79.8666ZM176.409 75.5834C176.409 77.0795 176.163 78.187 175.671 78.9057C175.182 79.6245 174.428 79.9838 173.409 79.9838C172.421 79.9838 171.675 79.6127 171.171 78.8705C170.671 78.1284 170.421 77.0327 170.421 75.5834C170.421 74.0717 170.665 72.9584 171.153 72.2436C171.641 71.5248 172.393 71.1655 173.409 71.1655C174.397 71.1655 175.143 71.5405 175.647 72.2905C176.155 73.0405 176.409 74.1381 176.409 75.5834ZM172.219 75.5834C172.219 76.6342 172.309 77.3881 172.489 77.8452C172.673 78.2983 172.979 78.5248 173.409 78.5248C173.831 78.5248 174.135 78.2944 174.323 77.8334C174.51 77.3725 174.604 76.6225 174.604 75.5834C174.604 74.5327 174.509 73.7787 174.317 73.3217C174.13 72.8608 173.827 72.6303 173.409 72.6303C172.983 72.6303 172.678 72.8608 172.495 73.3217C172.311 73.7787 172.219 74.5327 172.219 75.5834ZM59.866 91.5834C59.866 93.0795 59.6199 94.187 59.1277 94.9057C58.6394 95.6245 57.8855 95.9838 56.866 95.9838C55.8777 95.9838 55.1316 95.6127 54.6277 94.8705C54.1277 94.1284 53.8777 93.0327 53.8777 91.5834C53.8777 90.0717 54.1218 88.9584 54.6101 88.2436C55.0984 87.5248 55.8503 87.1655 56.866 87.1655C57.8542 87.1655 58.6003 87.5405 59.1042 88.2905C59.6121 89.0405 59.866 90.1381 59.866 91.5834ZM55.6765 91.5834C55.6765 92.6342 55.7664 93.3881 55.946 93.8452C56.1296 94.2983 56.4363 94.5248 56.866 94.5248C57.2878 94.5248 57.5925 94.2944 57.78 93.8334C57.9675 93.3725 58.0613 92.6225 58.0613 91.5834C58.0613 90.5327 57.9656 89.7787 57.7742 89.3217C57.5867 88.8608 57.2839 88.6303 56.866 88.6303C56.4402 88.6303 56.1355 88.8608 55.9519 89.3217C55.7683 89.7787 55.6765 90.5327 55.6765 91.5834ZM65.2566 95.8666H63.446V90.9096L63.4636 90.0952L63.4929 89.2045C63.1921 89.5053 62.9832 89.7026 62.866 89.7963L61.8816 90.5873L61.0085 89.4975L63.7683 87.3002H65.2566V95.8666ZM73.5769 91.5834C73.5769 93.0795 73.3308 94.187 72.8386 94.9057C72.3503 95.6245 71.5964 95.9838 70.5769 95.9838C69.5886 95.9838 68.8425 95.6127 68.3386 94.8705C67.8386 94.1284 67.5886 93.0327 67.5886 91.5834C67.5886 90.0717 67.8328 88.9584 68.321 88.2436C68.8093 87.5248 69.5613 87.1655 70.5769 87.1655C71.5652 87.1655 72.3113 87.5405 72.8152 88.2905C73.323 89.0405 73.5769 90.1381 73.5769 91.5834ZM69.3875 91.5834C69.3875 92.6342 69.4773 93.3881 69.657 93.8452C69.8406 94.2983 70.1472 94.5248 70.5769 94.5248C70.9988 94.5248 71.3035 94.2944 71.491 93.8334C71.6785 93.3725 71.7722 92.6225 71.7722 91.5834C71.7722 90.5327 71.6765 89.7787 71.4851 89.3217C71.2976 88.8608 70.9949 88.6303 70.5769 88.6303C70.1511 88.6303 69.8464 88.8608 69.6628 89.3217C69.4792 89.7787 69.3875 90.5327 69.3875 91.5834ZM78.9675 95.8666H77.157V90.9096L77.1746 90.0952L77.2039 89.2045C76.9031 89.5053 76.6941 89.7026 76.5769 89.7963L75.5925 90.5873L74.7195 89.4975L77.4792 87.3002H78.9675V95.8666ZM87.2878 91.5834C87.2878 93.0795 87.0417 94.187 86.5496 94.9057C86.0613 95.6245 85.3074 95.9838 84.2878 95.9838C83.2996 95.9838 82.5535 95.6127 82.0496 94.8705C81.5496 94.1284 81.2996 93.0327 81.2996 91.5834C81.2996 90.0717 81.5437 88.9584 82.032 88.2436C82.5203 87.5248 83.2722 87.1655 84.2878 87.1655C85.2761 87.1655 86.0222 87.5405 86.5261 88.2905C87.0339 89.0405 87.2878 90.1381 87.2878 91.5834ZM83.0984 91.5834C83.0984 92.6342 83.1882 93.3881 83.3679 93.8452C83.5515 94.2983 83.8582 94.5248 84.2878 94.5248C84.7097 94.5248 85.0144 94.2944 85.2019 93.8334C85.3894 93.3725 85.4832 92.6225 85.4832 91.5834C85.4832 90.5327 85.3875 89.7787 85.196 89.3217C85.0085 88.8608 84.7058 88.6303 84.2878 88.6303C83.8621 88.6303 83.5574 88.8608 83.3738 89.3217C83.1902 89.7787 83.0984 90.5327 83.0984 91.5834Z" fill="white"/>
<path d="M161.234 80.1231C162.224 52.9883 141.8 30.351 115.617 29.5612C89.433 28.7715 67.4045 50.1284 66.4144 77.2632C65.4244 104.398 85.8478 127.035 112.031 127.825C138.215 128.615 160.244 107.258 161.234 80.1231Z" fill="#8CC754"/>
<path d="M93.3395 45.8555C100.979 45.8555 107.173 40.2243 107.173 33.2779C107.173 26.3315 100.979 20.7003 93.3395 20.7003C85.6995 20.7003 79.5061 26.3315 79.5061 33.2779C79.5061 40.2243 85.6995 45.8555 93.3395 45.8555Z" fill="#FBFBFB" stroke="#272727" stroke-miterlimit="10"/>
<path d="M92.972 45.5654C98.7006 45.5654 103.345 41.343 103.345 36.1344C103.345 30.9258 98.7006 26.7034 92.972 26.7034C87.2433 26.7034 82.5994 30.9258 82.5994 36.1344C82.5994 41.343 87.2433 45.5654 92.972 45.5654Z" fill="#272727" stroke="#272727" stroke-miterlimit="10"/>
<path d="M127.657 45.8555C135.297 45.8555 141.49 40.2243 141.49 33.2779C141.49 26.3315 135.297 20.7003 127.657 20.7003C120.017 20.7003 113.824 26.3315 113.824 33.2779C113.824 40.2243 120.017 45.8555 127.657 45.8555Z" fill="#FBFBFB" stroke="#272727" stroke-miterlimit="10"/>
<path d="M112.857 127.359C129.184 127.359 142.419 114.814 142.419 99.3389C142.419 83.8636 129.184 71.3184 112.857 71.3184C96.5308 71.3184 83.2957 83.8636 83.2957 99.3389C83.2957 114.814 96.5308 127.359 112.857 127.359Z" fill="#72B236"/>
<path d="M127.251 45.5654C132.98 45.5654 137.624 41.343 137.624 36.1344C137.624 30.9258 132.98 26.7034 127.251 26.7034C121.523 26.7034 116.879 30.9258 116.879 36.1344C116.879 41.343 121.523 45.5654 127.251 45.5654Z" fill="#272727" stroke="#272727" stroke-miterlimit="10"/>
<path d="M91.2804 60.1382C100.058 60.1382 107.173 53.6689 107.173 45.6885C107.173 37.7081 100.058 31.2388 91.2804 31.2388C82.5032 31.2388 75.3879 37.7081 75.3879 45.6885C75.3879 53.6689 82.5032 60.1382 91.2804 60.1382Z" stroke="#37441D" stroke-width="4" stroke-miterlimit="10"/>
<path d="M133.738 60.1382C142.515 60.1382 149.631 53.6689 149.631 45.6885C149.631 37.7081 142.515 31.2388 133.738 31.2388C124.961 31.2388 117.846 37.7081 117.846 45.6885C117.846 53.6689 124.961 60.1382 133.738 60.1382Z" stroke="#37441D" stroke-width="4" stroke-miterlimit="10"/>
<path d="M107.173 45.6885H117.835" stroke="#37441D" stroke-width="4" stroke-miterlimit="10"/>
<path opacity="0.41" d="M91.8316 60.1382C99.9895 60.1382 106.603 54.1253 106.603 46.708C106.603 39.2907 99.9895 33.2778 91.8316 33.2778C83.6738 33.2778 77.0605 39.2907 77.0605 46.708C77.0605 54.1253 83.6738 60.1382 91.8316 60.1382Z" fill="#9D9D9C"/>
<path opacity="0.41" d="M133.737 60.1382C141.895 60.1382 148.508 54.1253 148.508 46.708C148.508 39.2907 141.895 33.2778 133.737 33.2778C125.58 33.2778 118.966 39.2907 118.966 46.708C118.966 54.1253 125.58 60.1382 133.737 60.1382Z" fill="#9D9D9C"/>
<path d="M75.3784 20.9463L103.355 14.0203" stroke="#37441D" stroke-width="4" stroke-miterlimit="10"/>
<path d="M118.966 13.7127L145.821 19.9883" stroke="#37441D" stroke-width="4" stroke-miterlimit="10"/>
<path d="M108.081 65.9217C110.775 66.7783 113.621 67.166 116.472 67.0644C120.652 66.9048 124.707 65.7203 128.208 63.6365" stroke="#006633" stroke-width="4" stroke-miterlimit="10"/>
</g>
<defs>
<filter id="filter0_bi" x="5" y="-30" width="212.75" height="209.002" filterUnits="userSpaceOnUse" color-interpolation-filters="sRGB">
<feFlood flood-opacity="0" result="BackgroundImageFix"/>
<feGaussianBlur in="BackgroundImage" stdDeviation="5"/>
<feComposite in2="SourceAlpha" operator="in" result="effect1_backgroundBlur"/>
<feBlend mode="normal" in="SourceGraphic" in2="effect1_backgroundBlur" result="shape"/>
<feColorMatrix in="SourceAlpha" type="matrix" values="0 0 0 0 0 0 0 0 0 0 0 0 0 0 0 0 0 0 127 0" result="hardAlpha"/>
<feOffset/>
<feGaussianBlur stdDeviation="5"/>
<feComposite in2="hardAlpha" operator="arithmetic" k2="-1" k3="1"/>
<feColorMatrix type="matrix" values="0 0 0 0 1 0 0 0 0 1 0 0 0 0 1 0 0 0 0.2 0"/>
<feBlend mode="normal" in2="shape" result="effect2_innerShadow"/>
</filter>
<clipPath id="clip0">
<path d="M0 9C0 4.02943 4.02944 0 9 0H221C225.971 0 230 4.02944 230 9V129H0V9Z" fill="white"/>
</clipPath>
</defs>
</svg>
