<svg width="229" height="129" viewBox="0 0 229 129" fill="none" xmlns="http://www.w3.org/2000/svg">
<g clip-path="url(#clip0)">
<path d="M0 9C0 4.02944 4.02944 0 9 0H232C236.971 0 241 4.02944 241 9V135H0V9Z" fill="#F6B028"/>
<path fill-rule="evenodd" clip-rule="evenodd" d="M-65.5366 87.123C-56.8509 72.2712 -48.0554 56.0046 -29.7004 50.7852C-11.6329 45.6476 10.5441 51.3386 30.083 59.9326C47.2311 67.4751 58.408 82.2318 71.3748 95.2425C83.8071 107.717 99.1658 118.99 104.049 134.149C109.112 149.87 107.642 166.715 98.0635 178.101C88.9979 188.877 69.1302 186.116 55.298 192.099C39.5107 198.927 30.7359 221.119 11.6609 215.473C-7.65341 209.756 -6.17713 182.521 -21.4909 169.37C-38.6459 154.639 -70.0212 155.384 -79.9879 136.773C-89.6235 118.78 -74.3744 102.235 -65.5366 87.123Z" fill="#DB538C"/>
<path fill-rule="evenodd" clip-rule="evenodd" d="M132.217 106C130.61 87.3369 116.46 68.2608 125.445 51.5716C134.585 34.5951 156.367 23.8957 176.583 23.5937C195.562 23.3101 205.927 46.4787 224.522 50.0912C247.972 54.6469 275.362 32.8888 294.468 46.4953C312.504 59.3392 314.422 88.2749 305.69 107.894C297.303 126.736 265.435 124.175 252.572 140.622C239.605 157.203 254.364 189.336 234.802 198.536C216.372 207.204 198.618 183.085 179.987 174.761C164.251 167.73 143.771 167.328 134.234 153.599C124.767 139.971 133.615 122.225 132.217 106Z" fill="#BD67D5"/>
<g filter="url(#filter0_bi)">
<path fill-rule="evenodd" clip-rule="evenodd" d="M174.032 100.746C169.073 116.964 170.459 116.372 156 125.112C141.872 133.651 99.7675 129.144 84 125.112C69.1956 121.326 59.7116 114.596 51 102C42.235 89.3268 73.061 94.9817 71.4993 79.5002C69.9225 63.8687 55.2544 50.0556 60.2576 35.0581C65.395 19.6584 81.2324 9.51207 96.5249 4.48395C110.953 -0.260045 125.864 4.93976 140.425 8.69955C154.225 12.2629 169.948 14.201 178.484 25.6464C186.832 36.8414 184.442 52.4752 183.605 66.6018C182.89 78.662 177.575 89.1559 174.032 100.746Z" fill="white" fill-opacity="0.3"/>
</g>
<path d="M174.518 75.1911C175.587 45.4267 153.518 20.5956 125.224 19.7293C96.9299 18.863 73.1258 42.2896 72.056 72.0541C70.9862 101.819 93.0557 126.65 121.35 127.516C149.644 128.382 173.448 104.956 174.518 75.1911Z" fill="#8CC754"/>
<path d="M100.722 38.2222C109.119 38.2222 115.925 31.805 115.925 23.8889C115.925 15.9728 109.119 9.55554 100.722 9.55554C92.3256 9.55554 85.5188 15.9728 85.5188 23.8889C85.5188 31.805 92.3256 38.2222 100.722 38.2222Z" fill="#FBFBFB" stroke="#272727" stroke-miterlimit="10"/>
<path d="M100.247 37.2667C106.282 37.2667 111.174 32.7746 111.174 27.2334C111.174 21.6921 106.282 17.2 100.247 17.2C94.2119 17.2 89.3196 21.6921 89.3196 27.2334C89.3196 32.7746 94.2119 37.2667 100.247 37.2667Z" fill="#272727" stroke="#272727" stroke-miterlimit="10"/>
<path d="M138.73 38.2222C147.127 38.2222 153.934 31.805 153.934 23.8889C153.934 15.9728 147.127 9.55554 138.73 9.55554C130.334 9.55554 123.527 15.9728 123.527 23.8889C123.527 31.805 130.334 38.2222 138.73 38.2222Z" fill="#FBFBFB" stroke="#272727" stroke-miterlimit="10"/>
<path d="M122.577 127.089C140.42 127.089 154.884 113.185 154.884 96.0334C154.884 78.8818 140.42 64.9778 122.577 64.9778C104.734 64.9778 90.2698 78.8818 90.2698 96.0334C90.2698 113.185 104.734 127.089 122.577 127.089Z" fill="#72B236"/>
<path d="M137.78 37.2667C144.078 37.2667 149.183 32.7746 149.183 27.2334C149.183 21.6921 144.078 17.2 137.78 17.2C131.483 17.2 126.378 21.6921 126.378 27.2334C126.378 32.7746 131.483 37.2667 137.78 37.2667Z" fill="#272727" stroke="#272727" stroke-miterlimit="10"/>
<path d="M109.201 54.4667H65.6376C58.7749 54.4667 53.2117 59.6427 53.2117 66.0277V79.2168C53.2117 85.6018 58.7749 90.7778 65.6376 90.7778H109.201C116.063 90.7778 121.627 85.6018 121.627 79.2168V66.0277C121.627 59.6427 116.063 54.4667 109.201 54.4667Z" fill="#575756" stroke="#72B236" stroke-width="0.5" stroke-miterlimit="10"/>
<path d="M102.147 88.8666C111.331 88.8666 118.776 81.8077 118.776 73.1C118.776 64.3923 111.331 57.3333 102.147 57.3333C92.9637 57.3333 85.5188 64.3923 85.5188 73.1C85.5188 81.8077 92.9637 88.8666 102.147 88.8666Z" fill="#272727"/>
<path d="M102.147 85.0444C108.707 85.0444 114.025 79.6967 114.025 73.1C114.025 66.5032 108.707 61.1555 102.147 61.1555C95.5876 61.1555 90.2698 66.5032 90.2698 73.1C90.2698 79.6967 95.5876 85.0444 102.147 85.0444Z" fill="#9D9D9C"/>
<path d="M77.16 48.7333H68.222C66.7543 48.7333 65.5645 49.7008 65.5645 50.8943V52.3056C65.5645 53.4991 66.7543 54.4667 68.222 54.4667H77.16C78.6277 54.4667 79.8176 53.4991 79.8176 52.3056V50.8943C79.8176 49.7008 78.6277 48.7333 77.16 48.7333Z" fill="#272727"/>
<path d="M80.2899 94.2927C74.648 97.3202 75.1422 98.7893 72.1462 99.2558C70.1092 99.5948 68.0137 99.2217 66.2366 98.2036C64.6581 97.2985 63.4868 95.8578 62.9523 94.1637C61.9228 90.62 64.5378 87.791 64.9085 87.4039C65.8145 86.4609 68.0795 84.5848 69.6341 85.3293C70.8799 85.9348 70.9622 87.9101 70.9622 88.059C70.967 88.733 70.8329 89.4011 70.5678 90.0248C70.3027 90.6484 69.9119 91.2151 69.4179 91.692C69.2326 91.5927 70.6328 86.5601 74.3391 84.7932C75.7702 84.1083 77.9941 83.6914 78.9104 84.6543C80.084 85.8851 78.2206 89.2303 77.0778 90.8086C76.4017 91.7217 75.6512 92.5814 74.8333 93.3795C74.8333 93.3795 77.541 89.3494 80.1561 89.6968C80.8169 89.7913 81.4251 90.0988 81.8813 90.5693C82.3375 91.0399 82.6149 91.6455 82.6682 92.2876C82.5653 93.171 81.5357 93.6475 80.2899 94.2927Z" fill="#72B236" stroke="#72B236" stroke-width="0.25" stroke-miterlimit="10"/>
<path d="M113.976 53.8077C120.582 55.0438 121.236 53.6183 123.917 55.1335C125.774 56.1485 127.175 57.7517 127.863 59.6492C128.486 61.3325 128.405 63.172 127.638 64.8028C125.965 68.1422 121.911 68.6706 121.354 68.7304C119.97 68.8899 116.861 68.8998 116.153 67.3547C115.584 66.1087 116.914 64.5437 117.011 64.434C117.48 63.9153 118.055 63.488 118.703 63.1766C119.351 62.8653 120.059 62.676 120.785 62.6198C120.86 62.8092 116.217 65.7797 112.046 64.8028C110.426 64.434 108.378 63.3474 108.325 62.0416C108.26 60.3569 112.089 58.9713 114.094 58.4829C115.277 58.2161 116.482 58.0394 117.697 57.9546C117.697 57.9546 112.721 59.3302 110.898 57.4262C109.955 56.4294 109.826 54.6052 110.727 53.8675C111.413 53.2694 112.56 53.5486 113.976 53.8077Z" fill="#72B236" stroke="#006633" stroke-width="0.25" stroke-miterlimit="10"/>
<path d="M108.324 48.3155C112.042 51.1939 116.552 52.9685 121.303 53.4222C133.35 54.4652 141.518 46.0033 142.531 44.9111" stroke="#006633" stroke-width="3" stroke-miterlimit="10"/>
</g>
<defs>
<filter id="filter0_bi" x="15.3818" y="-35.5092" width="205.862" height="207.032" filterUnits="userSpaceOnUse" color-interpolation-filters="sRGB">
<feFlood flood-opacity="0" result="BackgroundImageFix"/>
<feGaussianBlur in="BackgroundImage" stdDeviation="5"/>
<feComposite in2="SourceAlpha" operator="in" result="effect1_backgroundBlur"/>
<feBlend mode="normal" in="SourceGraphic" in2="effect1_backgroundBlur" result="shape"/>
<feColorMatrix in="SourceAlpha" type="matrix" values="0 0 0 0 0 0 0 0 0 0 0 0 0 0 0 0 0 0 127 0" result="hardAlpha"/>
<feOffset/>
<feGaussianBlur stdDeviation="5"/>
<feComposite in2="hardAlpha" operator="arithmetic" k2="-1" k3="1"/>
<feColorMatrix type="matrix" values="0 0 0 0 1 0 0 0 0 1 0 0 0 0 1 0 0 0 0.2 0"/>
<feBlend mode="normal" in2="shape" result="effect2_innerShadow"/>
</filter>
<clipPath id="clip0">
<path d="M0 9C0 4.02943 4.02944 0 9 0H220C224.971 0 229 4.02944 229 9V129H0V9Z" fill="white"/>
</clipPath>
</defs>
</svg>
