<svg width="130" height="113" viewBox="0 0 130 113" fill="none" xmlns="http://www.w3.org/2000/svg">
<rect x="27.8605" y="17.2524" width="102.139" height="74.8397" rx="10" fill="#131930"/>
<rect x="35.7167" y="23.0732" width="86.1723" height="63.198" rx="10" fill="#2C3A6A"/>
<rect x="63.3431" y="92.0923" width="31.4275" height="9.70144" rx="4.85072" fill="#131930"/>
<rect x="63.3431" y="92.0923" width="8.61723" height="9.70144" rx="4.30861" fill="#2C3A6A"/>
<rect x="35.7167" y="101.794" width="86.1723" height="5.2665" rx="2.63325" fill="#131930"/>
<rect x="35.7167" y="101.794" width="9.37757" height="5.2665" rx="2.63325" fill="#2C3A6A"/>
<path d="M89.9515 61.8547C90.8733 34.0681 71.8578 10.8869 47.4793 10.0782C23.1008 9.26947 2.59081 31.1394 1.66903 58.9261C0.747249 86.7128 19.7627 109.894 44.1412 110.703C68.5198 111.511 89.0297 89.6414 89.9515 61.8547Z" fill="#8CC754"/>
<path d="M26.7385 26.6041C33.8089 26.6041 39.5406 20.8724 39.5406 13.802C39.5406 6.73167 33.8089 1 26.7385 1C19.6681 1 13.9365 6.73167 13.9365 13.802C13.9365 20.8724 19.6681 26.6041 26.7385 26.6041Z" fill="#FBFBFB" stroke="#272727" stroke-miterlimit="10"/>
<path d="M26.4146 26.6041C31.695 26.6041 35.9756 22.2509 35.9756 16.881C35.9756 11.5111 31.695 7.15796 26.4146 7.15796C21.1342 7.15796 16.8536 11.5111 16.8536 16.881C16.8536 22.2509 21.1342 26.6041 26.4146 26.6041Z" fill="#272727" stroke="#272727" stroke-miterlimit="10"/>
<path d="M58.6622 26.6041C65.822 26.6041 71.6263 20.8724 71.6263 13.802C71.6263 6.73167 65.822 1 58.6622 1C51.5023 1 45.6981 6.73167 45.6981 13.802C45.6981 20.8724 51.5023 26.6041 58.6622 26.6041Z" fill="#FBFBFB" stroke="#272727" stroke-miterlimit="10"/>
<path d="M45.0505 110.222C60.2652 110.222 72.5992 97.3805 72.5992 81.5393C72.5992 65.698 60.2652 52.8562 45.0505 52.8562C29.8357 52.8562 17.5018 65.698 17.5018 81.5393C17.5018 97.3805 29.8357 110.222 45.0505 110.222Z" fill="#72B236"/>
<path d="M58.3383 26.6041C63.7082 26.6041 68.0613 22.2509 68.0613 16.881C68.0613 11.5111 63.7082 7.15796 58.3383 7.15796C52.9684 7.15796 48.6152 11.5111 48.6152 16.881C48.6152 22.2509 52.9684 26.6041 58.3383 26.6041Z" fill="#272727" stroke="#272727" stroke-miterlimit="10"/>
<path d="M30.5401 40.093C33.5544 42.5204 37.2107 44.0169 41.0619 44.3996C50.8285 45.2792 57.4502 38.143 58.2717 37.2219" stroke="#006633" stroke-width="3" stroke-miterlimit="10"/>
<rect x="91.6656" y="27.7004" width="26.6999" height="22.0565" rx="10" fill="#EE9E15"/>
<rect x="92.9589" y="54.4001" width="12.7695" height="26.6999" rx="6.38476" fill="#EE771A"/>
<rect x="106.889" y="66.009" width="12.7695" height="15.0913" rx="6.38476" fill="#DCDD25"/>
</svg>
