<svg width="130" height="140" viewBox="0 0 130 140" fill="none" xmlns="http://www.w3.org/2000/svg">
<path d="M27.7397 17.714C22.6874 23.0005 21.9884 31.3706 24.441 36.8657C31.1242 51.8091 62.9587 49.7572 72.9775 49.1196C85.8903 48.2849 96.2769 47.6241 100.299 40.8769C107.387 29.0984 88.1834 6.35288 85.9271 7.25714C85.412 7.46581 86.2459 8.72945 85.6941 10.1554C82.3954 18.5835 41.6703 3.15319 27.7397 17.714Z" fill="#3A2222"/>
<path d="M117.309 78.2897C118.358 48.5265 96.1448 23.6787 67.6944 22.7904C39.2439 21.9022 15.3298 45.31 14.2807 75.0731C13.2316 104.836 35.4447 129.684 63.8951 130.572C92.3455 131.461 116.26 108.053 117.309 78.2897Z" fill="#8CC754"/>
<path d="M82.6532 42.5694C90.9548 42.5694 97.6846 36.393 97.6846 28.774C97.6846 21.1549 90.9548 14.9785 82.6532 14.9785C74.3516 14.9785 67.6219 21.1549 67.6219 28.774C67.6219 36.393 74.3516 42.5694 82.6532 42.5694Z" fill="#FBFBFB" stroke="#272727" stroke-miterlimit="10"/>
<path d="M47.2021 42.5694C55.5037 42.5694 62.2334 36.393 62.2334 28.774C62.2334 21.1549 55.5037 14.9785 47.2021 14.9785C38.9005 14.9785 32.1707 21.1549 32.1707 28.774C32.1707 36.393 38.9005 42.5694 47.2021 42.5694Z" fill="#FBFBFB" stroke="#272727" stroke-miterlimit="10"/>
<path d="M64.7861 130.557C82.5263 130.557 96.9076 116.797 96.9076 99.8238C96.9076 82.85 82.5263 69.0901 64.7861 69.0901C47.0459 69.0901 32.6646 82.85 32.6646 99.8238C32.6646 116.797 47.0459 130.557 64.7861 130.557Z" fill="#72B236"/>
<path d="M48.0423 42.2706C54.267 42.2706 59.3132 37.6394 59.3132 31.9265C59.3132 26.2135 54.267 21.5823 48.0423 21.5823C41.8176 21.5823 36.7714 26.2135 36.7714 31.9265C36.7714 37.6394 41.8176 42.2706 48.0423 42.2706Z" fill="#272727" stroke="#272727" stroke-miterlimit="10"/>
<path d="M81.9283 42.2706C88.153 42.2706 93.1992 37.6394 93.1992 31.9265C93.1992 26.2135 88.153 21.5823 81.9283 21.5823C75.7036 21.5823 70.6574 26.2135 70.6574 31.9265C70.6574 37.6394 75.7036 42.2706 81.9283 42.2706Z" fill="#272727" stroke="#272727" stroke-miterlimit="10"/>
<path d="M94.0262 14.6327C93.4647 14.6779 92.8997 14.5807 92.3366 14.5948C85.8407 14.7573 79.6457 17.702 73.1578 18.3527C63.4456 19.3194 47.0255 23.8304 34.5295 33.3818C27.0614 39.1357 23.1495 44.9586 20.6356 43.7388C18.1217 42.5189 19.4093 36.0286 19.9244 33.3818C21.0463 25.9052 24.7714 18.9867 30.5195 13.7036C37.0802 7.89222 44.1192 6.3617 51.9675 4.64705C59.8455 2.94314 67.9944 2.64256 75.9906 3.76095C84.1087 4.79664 81.8154 5.95893 90.8287 7.52398C92.1927 7.75762 94.5696 8.13475 95.8168 9.54989C96.1505 9.92846 96.4332 10.3611 96.6151 10.8318C96.7286 11.1258 96.7904 11.4369 96.796 11.753C96.8062 12.3198 96.6355 12.8764 96.3059 13.3515C95.9763 13.8266 95.5029 14.1983 94.9464 14.4189C94.6519 14.5357 94.3413 14.6074 94.0262 14.6327Z" fill="#9F2E2E"/>
<path d="M51.1586 6.65883C51.9055 4.62906 44.6889 -1.5056 39.5927 0.342731C38.2554 0.818989 36.5446 2.04366 36.5808 3.39305C36.653 5.75167 42.0746 7.75875 46.5322 7.74741C48.0984 7.73607 50.773 7.73608 51.1586 6.65883Z" fill="#3A2222"/>
<path d="M36.5802 54.2322C44.1342 60.4985 53.9299 63.8154 63.9789 63.5097C72.8972 63.1054 81.4423 60.0065 88.355 54.6696" stroke="#006633" stroke-width="3" stroke-miterlimit="10"/>
<rect width="77.0811" height="45.0019" rx="10" transform="matrix(0.998731 0.0503654 -0.0597629 0.998213 2.68945 90.8552)" fill="#C4C4C4"/>
<rect width="70.3295" height="35.6483" rx="10" transform="matrix(0.998731 0.0503654 -0.0597629 0.998213 5.09619 96.1487)" fill="#DFDFDF"/>
<rect width="15.5924" height="62.2694" rx="7.79618" transform="matrix(0.915717 0.401825 -0.462019 0.88687 115.722 60.4302)" fill="#2C3A6A"/>
<rect width="7.79618" height="62.2694" rx="3.89809" transform="matrix(0.915717 0.401825 -0.462019 0.88687 119.291 61.9966)" fill="#586BAF"/>
<path d="M88.1624 118.382C87.7063 113.844 92.6465 110.637 97.157 112.544C101.766 114.492 102.466 120.293 98.4105 122.926C94.3547 125.559 88.6284 123.02 88.1624 118.382Z" fill="#9A968E"/>
<path d="M88.6875 125.048C88.5029 123.211 90.5024 121.914 92.3281 122.685C94.1936 123.474 94.4771 125.822 92.8354 126.887C91.1938 127.953 88.8761 126.925 88.6875 125.048Z" fill="#EE9E15"/>
</svg>
