<svg width="89" height="116" viewBox="0 0 89 116" fill="none" xmlns="http://www.w3.org/2000/svg">
<path d="M84.177 56.5951C85.0191 31.21 67.6471 10.0325 45.3756 9.29365C23.1041 8.55483 4.36688 28.5345 3.52477 53.9196C2.68267 79.3046 20.0546 100.482 42.3261 101.221C64.5976 101.96 83.3349 81.9802 84.177 56.5951Z" fill="#8CC754"/>
<path d="M26.4264 24.5331C32.9249 24.5331 38.193 19.265 38.193 12.7665C38.193 6.26806 32.9249 1 26.4264 1C19.928 1 14.6599 6.26806 14.6599 12.7665C14.6599 19.265 19.928 24.5331 26.4264 24.5331Z" fill="#FBFBFB" stroke="#272727" stroke-miterlimit="10"/>
<path d="M26.1224 24.2619C30.9951 24.2619 34.9452 20.3118 34.9452 15.4391C34.9452 10.5663 30.9951 6.61621 26.1224 6.61621C21.2497 6.61621 17.2996 10.5663 17.2996 15.4391C17.2996 20.3118 21.2497 24.2619 26.1224 24.2619Z" fill="#272727" stroke="#272727" stroke-miterlimit="10"/>
<path d="M55.6249 24.5331C62.1234 24.5331 67.3915 19.265 67.3915 12.7665C67.3915 6.26806 62.1234 1 55.6249 1C49.1265 1 43.8584 6.26806 43.8584 12.7665C43.8584 19.265 49.1265 24.5331 55.6249 24.5331Z" fill="#FBFBFB" stroke="#272727" stroke-miterlimit="10"/>
<path d="M43.028 100.781C56.915 100.781 68.1727 89.045 68.1727 74.5677C68.1727 60.0903 56.915 48.354 43.028 48.354C29.141 48.354 17.8833 60.0903 17.8833 74.5677C17.8833 89.045 29.141 100.781 43.028 100.781Z" fill="#72B236"/>
<path d="M55.2796 24.2619C60.1524 24.2619 64.1025 20.3118 64.1025 15.4391C64.1025 10.5663 60.1524 6.61621 55.2796 6.61621C50.4069 6.61621 46.4568 10.5663 46.4568 15.4391C46.4568 20.3118 50.4069 24.2619 55.2796 24.2619Z" fill="#272727" stroke="#272727" stroke-miterlimit="10"/>
<path d="M31.5735 33.8328C34.5604 36.2382 38.1835 37.7211 41.9997 38.1003C51.6777 38.9719 58.2394 31.9005 59.0534 30.9878" stroke="#006633" stroke-width="3" stroke-miterlimit="10"/>
<path d="M22.1633 59.1701C22.1247 59.1769 22.0849 59.1786 22.0458 59.1757C10.4684 58.3036 0.760875 72.0086 5.51129 82.6047C10.1478 94.1218 27.5957 97.245 35.8926 88.0216C43.9333 80.1403 47.0325 68.0133 56.879 61.7911C66.8841 54.959 82.9899 61.4105 84.9421 73.5522C86.8455 85.179 74.3147 96.4886 62.9796 93.0725C54.5973 91.1815 48.5821 84.02 45.1657 76.4802C40.9562 69.2821 35.4534 61.5959 26.8637 59.6439C25.3515 59.3004 23.7914 59.1631 22.2428 59.1632C22.2161 59.1632 22.1895 59.1655 22.1633 59.1701Z" stroke="#2C3A6A" stroke-width="7"/>
<path d="M15.2724 75.6506H29.914" stroke="#2C3A6A" stroke-width="4"/>
<path d="M66.152 69.5505V81.7508V69.5505ZM60.1734 75.6507H72.3747H60.1734Z" stroke="#2C3A6A" stroke-width="4"/>
<path d="M12.2132 114.682C11.5856 114.682 11.0351 114.263 10.8679 113.658L10.762 113.275C10.5323 112.444 9.77607 111.868 8.91383 111.868H6.90182C6.03617 111.868 5.27551 112.443 5.03816 113.275L4.898 113.767C4.7436 114.308 4.24878 114.682 3.68567 114.682C2.8438 114.682 2.23849 113.872 2.47643 113.065L5.65498 102.277C5.96658 101.22 6.93739 100.494 8.03986 100.494C9.14233 100.494 10.1131 101.22 10.4247 102.277L13.5522 112.891C13.8156 113.785 13.1454 114.682 12.2132 114.682ZM9.28492 107.902C8.90567 106.535 6.96777 106.531 6.58387 107.898C6.33255 108.792 7.00473 109.679 7.93375 109.679C8.86079 109.679 9.53266 108.795 9.28492 107.902ZM25.4072 114.716C23.8341 114.695 22.4255 113.744 21.7942 112.303C21.3864 111.372 20.9341 110.363 20.5935 109.667C19.803 108.47 18.3711 109.842 18.3576 111.276C18.3506 112.015 18.3478 112.751 18.3469 113.349C18.3458 114.084 17.7501 114.682 17.0146 114.682C16.281 114.682 15.6863 114.087 15.6863 113.353V106.503C15.6863 103.156 18.3715 100.198 21.6897 100.64C24.9693 101.013 25.8674 104.831 24.1111 106.814C23.6529 107.332 23.28 109.123 23.5648 109.752L25.6916 114.18C25.841 114.483 25.8374 114.718 25.4072 114.716ZM22.1588 104.64C22.1515 103.331 21.3714 102.892 20.3997 102.748C19.2836 102.583 18.355 103.602 18.355 104.73C18.355 105.826 19.2371 106.8 20.3132 106.595C21.3651 106.395 22.1355 105.872 22.1588 104.64ZM37.6315 111.061C37.6327 111.056 37.6254 111.054 37.6234 111.059C36.326 114.016 33.5221 114.706 30.8625 114.657C29.0571 114.657 27.5934 113.193 27.5934 111.388V105.44C27.5934 102.698 29.8227 100.48 32.5639 100.494C38.7131 100.695 38.9319 107.367 37.6315 111.061ZM34.2378 103.517C34.2393 103.516 34.2395 103.513 34.2381 103.512C33.5312 102.902 32.7848 102.712 32.017 102.66C31.0457 102.596 30.2549 103.451 30.2549 104.425V108.708C30.2549 110.753 32.1794 112.96 33.8277 111.75C36.0263 110.356 35.7481 105.077 34.2372 103.521C34.236 103.519 34.2363 103.518 34.2378 103.517ZM50.4101 109.422C50.4067 109.422 50.404 109.425 50.4042 109.429C50.6616 116.59 40.4995 116.564 40.1957 110.976C40.0098 109.263 40.1629 107.551 40.1131 105.839V101.766C40.1131 101.03 40.7103 100.432 41.447 100.432C42.1812 100.432 42.7774 101.026 42.7809 101.76L42.8231 110.584C43.1354 113.385 46.8335 113.141 47.3925 111.587C47.9588 110.352 47.6963 108.958 47.7547 107.637V101.763C47.7547 101.028 48.3504 100.432 49.0854 100.432C49.8203 100.432 50.4161 101.028 50.4161 101.763V109.416C50.4161 109.42 50.4134 109.422 50.4101 109.422ZM54.0507 102.573C53.4461 102.573 52.956 102.083 52.956 101.478C52.956 100.874 53.4461 100.383 54.0507 100.383H60.7935C61.3981 100.383 61.8882 100.874 61.8882 101.478C61.8882 102.083 61.3981 102.573 60.7935 102.573H60.3326C59.4735 102.573 58.7771 103.269 58.7771 104.128V110.851C58.7771 111.71 59.4735 112.407 60.3326 112.407H60.7813C61.3926 112.407 61.8882 112.902 61.8882 113.514C61.8882 114.125 61.3926 114.62 60.7813 114.62H54.0629C53.4516 114.62 52.956 114.125 52.956 113.514C52.956 112.902 53.4516 112.407 54.0629 112.407H54.5115C55.3706 112.407 56.0671 111.71 56.0671 110.851V104.128C56.0671 103.269 55.3706 102.573 54.5115 102.573H54.0507ZM73.0738 114.682C72.2949 114.682 71.5892 114.222 71.274 113.51L70.6723 112.151C69.8841 110.37 67.2232 110.933 67.2232 112.88V113.472C67.2232 114.14 66.6818 114.682 66.014 114.682C65.3462 114.682 64.8048 114.14 64.8048 113.472V102.475C64.8048 101.381 65.6919 100.494 66.7862 100.494C67.5693 100.494 68.2788 100.955 68.5969 101.67L69.2176 103.067C70.0223 104.877 72.626 104.326 72.6249 102.345C72.6248 102.114 72.6247 101.898 72.6246 101.702C72.6242 101.034 73.1655 100.494 73.8335 100.494C74.501 100.494 75.0422 101.035 75.0422 101.702V112.713C75.0422 113.8 74.1609 114.682 73.0738 114.682ZM86.0111 113.489C86.0111 113.477 85.9972 113.47 85.9882 113.478C83.0315 116.012 77.9027 115.439 76.8845 110.413C75.487 102.756 79.6067 98.3531 85.3428 100.922C88.857 102.91 88.6736 111.076 86.0337 113.499C86.0249 113.507 86.0111 113.501 86.0111 113.489ZM82.4504 102.61C79.9348 102.542 79.5703 105.129 79.473 106.377C79.4524 108.737 79.2446 112.663 82.499 112.492C83.5077 112.492 84.3827 111.756 84.7108 110.817C85.3731 109.337 85.8726 102.487 82.4504 102.61ZM83.2376 57C83.1586 57 83.0945 57.0641 83.0945 57.1431C83.0945 57.2221 83.1586 57.2862 83.2376 57.2862H83.4074C83.5803 57.2862 83.7204 57.4263 83.7204 57.5991V58.788C83.7204 58.8773 83.7927 58.9496 83.882 58.9496C83.9713 58.9496 84.0436 58.8773 84.0436 58.788V57.6022C84.0436 57.4277 84.1851 57.2862 84.3596 57.2862H84.5325C84.6115 57.2862 84.6756 57.2221 84.6756 57.1431C84.6756 57.0641 84.6115 57 84.5325 57H83.2376ZM85.1684 57C85.0164 57 84.8931 57.1233 84.8931 57.2753V58.7971C84.8931 58.8786 84.9592 58.9447 85.0408 58.9447C85.1223 58.9447 85.1884 58.8786 85.1884 58.7971V58.7235C85.1884 58.4704 85.5448 58.4157 85.6207 58.6572L85.6674 58.8061C85.6934 58.8886 85.7698 58.9447 85.8563 58.9447C85.9432 58.9447 86.02 58.888 86.0455 58.8048L86.0865 58.6709C86.1578 58.4382 86.5009 58.4896 86.5009 58.7329V58.7989C86.5009 58.8794 86.5662 58.9447 86.6467 58.9447C86.7273 58.9447 86.7926 58.8794 86.7926 58.7989V57.2653C86.7926 57.1188 86.6738 57 86.5272 57C86.4105 57 86.3075 57.0763 86.2734 57.1879L86.2425 57.2892C86.1253 57.6734 85.5821 57.6754 85.4621 57.292L85.4311 57.1931C85.3952 57.0782 85.2888 57 85.1684 57Z" fill="#2C3A6A" stroke="#2C3A6A"/>
</svg>
