<svg width="108" height="135" viewBox="0 0 108 135" fill="none" xmlns="http://www.w3.org/2000/svg">
<path d="M20.343 55.1133C20.343 44.6501 22.7514 41.6598 31.301 29.1998C33.5211 25.9643 33.2884 21.7954 29.6515 20.3225C23.4592 17.8146 14.1038 16.7039 11.8193 19.6701C7.81214 24.8732 2.3033 38.7256 2.30316 48.2533C2.30304 56.4943 7.29295 70.3576 16.121 80.2665C27.4703 93.0052 42.6439 92.9665 56.2067 96.6392C69.7695 100.312 95.6621 103.761 95.6621 112.248C95.6621 135.203 34.7733 128.232 42.6438 130.918C62.3715 137.651 98.7444 130.918 104.601 120.512C108.881 112.908 108.3 102.913 95.6621 96.6392C80.2498 88.9877 58.3644 88.9877 42.6438 82.2543C26.9233 75.521 20.343 64.6455 20.343 55.1133Z" fill="#F6B028" stroke="#F6A514"/>
<path d="M47.9788 13.1913C50.7345 13.1913 52.9686 10.9731 52.9686 8.23689C52.9686 5.50064 50.7345 3.28247 47.9788 3.28247C45.223 3.28247 42.989 5.50064 42.989 8.23689C42.989 10.9731 45.223 13.1913 47.9788 13.1913Z" fill="#ED721C" stroke="#EC671C" stroke-miterlimit="10"/>
<path d="M47.8525 13.1912C49.9107 13.1912 51.5791 11.5065 51.5791 9.42837C51.5791 7.35021 49.9107 5.66553 47.8525 5.66553C45.7944 5.66553 44.126 7.35021 44.126 9.42837C44.126 11.5065 45.7944 13.1912 47.8525 13.1912Z" fill="#ED721C" stroke="#EC671C" stroke-miterlimit="10"/>
<path d="M97.6043 84.5086C98.4045 60.5605 81.8989 40.5817 60.7381 39.8847C39.5774 39.1877 21.7745 58.0365 20.9744 81.9846C20.1743 105.933 36.6799 125.911 57.8407 126.608C79.0014 127.305 96.8042 108.457 97.6043 84.5086Z" fill="#8CC754"/>
<path d="M42.7347 54.1276C48.8719 54.1276 53.847 49.1877 53.847 43.0941C53.847 37.0004 48.8719 32.0605 42.7347 32.0605C36.5976 32.0605 31.6224 37.0004 31.6224 43.0941C31.6224 49.1877 36.5976 54.1276 42.7347 54.1276Z" fill="#FBFBFB" stroke="#272727" stroke-miterlimit="10"/>
<path d="M42.4534 54.1274C47.0368 54.1274 50.7525 50.3756 50.7525 45.7476C50.7525 41.1195 47.0368 37.3677 42.4534 37.3677C37.87 37.3677 34.1544 41.1195 34.1544 45.7476C34.1544 50.3756 37.87 54.1274 42.4534 54.1274Z" fill="#272727" stroke="#272727" stroke-miterlimit="10"/>
<path d="M70.4448 54.1276C76.6596 54.1276 81.6977 49.1877 81.6977 43.0941C81.6977 37.0004 76.6596 32.0605 70.4448 32.0605C64.2299 32.0605 59.1918 37.0004 59.1918 43.0941C59.1918 49.1877 64.2299 54.1276 70.4448 54.1276Z" fill="#FBFBFB" stroke="#272727" stroke-miterlimit="10"/>
<path d="M58.6297 126.194C71.8362 126.194 82.5423 115.127 82.5423 101.474C82.5423 87.821 71.8362 76.7532 58.6297 76.7532C45.4232 76.7532 34.7172 87.821 34.7172 101.474C34.7172 115.127 45.4232 126.194 58.6297 126.194Z" fill="#72B236"/>
<path d="M70.1637 54.1277C74.8248 54.1277 78.6034 50.3759 78.6034 45.7478C78.6034 41.1197 74.8248 37.3679 70.1637 37.3679C65.5026 37.3679 61.724 41.1197 61.724 45.7478C61.724 50.3759 65.5026 54.1277 70.1637 54.1277Z" fill="#272727" stroke="#272727" stroke-miterlimit="10"/>
<path d="M49.7335 70.7674C51.8267 72.4411 54.3656 73.4729 57.0399 73.7368C63.8219 74.3432 68.4201 69.4229 68.9905 68.7878" stroke="#006633" stroke-width="3" stroke-miterlimit="10"/>
<path d="M47.5772 24.6611C46.5474 25.0708 45.4434 25.1767 44.3402 25.2956C29.8944 26.853 -8.07203 50.189 10.0862 20.8413C10.565 20.0675 11.1932 19.3232 11.8733 18.718C22.5002 9.26166 22.9544 9.12004 31.3021 6.51746C38.8405 4.16721 49.1071 4.60104 52.6729 8.31914C53.6347 9.32198 54.3087 10.6017 54.972 11.8213C57.6035 16.6603 54.2786 21.995 47.5772 24.6611Z" fill="#F6B028"/>
<path d="M42.6049 15.4779C45.3607 15.4779 47.5946 13.2596 47.5946 10.5233C47.5946 7.78688 45.3607 5.5686 42.6049 5.5686C39.8492 5.5686 37.6152 7.78688 37.6152 10.5233C37.6152 13.2596 39.8492 15.4779 42.6049 15.4779Z" fill="#FBFBFB" stroke="#272727" stroke-miterlimit="10"/>
<path d="M42.479 15.4777C44.5371 15.4777 46.2055 13.7929 46.2055 11.7147C46.2055 9.63642 44.5371 7.95166 42.479 7.95166C40.4209 7.95166 38.7525 9.63642 38.7525 11.7147C38.7525 13.7929 40.4209 15.4777 42.479 15.4777Z" fill="#272727" stroke="#272727" stroke-miterlimit="10"/>
</svg>
