<svg width="229" height="129" viewBox="0 0 229 129" fill="none" xmlns="http://www.w3.org/2000/svg">
<g clip-path="url(#clip0)">
<path d="M229 9C229 4.02944 224.971 0 220 0H-3C-7.97057 0 -12 4.02944 -12 9V135H229V9Z" fill="#BD67D5"/>
<path fill-rule="evenodd" clip-rule="evenodd" d="M-46.8382 68.8617C-57.2794 84.414 -78.8951 94.2564 -79.1118 113.209C-79.3323 132.489 -65.4516 152.395 -47.9084 162.446C-31.4388 171.881 -11.1541 156.625 6.86583 162.466C29.5907 169.832 43.0246 202.129 66.33 199.472C88.3291 196.964 104.015 172.574 105.871 151.179C107.653 130.632 78.5282 117.446 75.2348 96.8277C71.9148 76.0427 100.384 55.0699 87.7208 37.5496C75.7903 21.0435 48.5791 33.5532 28.247 31.8188C11.0744 30.3539 -7.04053 20.7916 -22.0315 28.1874C-36.9129 35.529 -37.761 55.3411 -46.8382 68.8617Z" fill="#F6B028"/>
<path fill-rule="evenodd" clip-rule="evenodd" d="M184.246 180.856C199.983 187.81 216.637 195.848 234.573 189.332C252.228 182.919 266.875 165.321 277.683 146.914C287.168 130.76 287.589 112.253 290.483 94.1131C293.258 76.7213 299.109 58.5906 294.192 43.442C289.092 27.7324 278.038 14.9377 263.607 11.3156C249.948 7.88736 235.458 21.7582 220.742 25.0066C203.945 28.7142 183.839 15.8614 171.681 31.6067C159.37 47.5495 176.513 68.7645 171.798 88.3912C166.516 110.378 140.644 128.144 143.461 149.067C146.184 169.295 168.234 173.779 184.246 180.856Z" fill="#DB538C"/>
<g filter="url(#filter0_bi)">
<path fill-rule="evenodd" clip-rule="evenodd" d="M120.142 123.499C139.982 122.687 162.94 131.793 178.248 120.322C193.205 109.114 183.993 90.0684 185.72 74.3573C187.341 59.6059 198.523 42.3872 188.035 31.2587C177.483 20.0619 153.33 27.6257 136.858 22.5083C120.226 17.3414 110.728 0.349979 92.2191 1.49194C73.2133 2.66453 55.8135 15.0932 44.2751 28.2203C33.3887 40.6057 33.2865 55.7902 31.7321 70.3077C30.2589 84.0668 26.239 99.242 35.5258 109.934C44.6095 120.392 62.7976 121.846 78.7143 124.398C92.3028 126.576 105.964 124.08 120.142 123.499Z" fill="white" fill-opacity="0.3"/>
</g>
<rect x="43" y="13" width="116.259" height="85.1857" rx="10" fill="#131930"/>
<rect x="51.9421" y="19.6256" width="98.0849" height="71.9346" rx="10" fill="#2C3A6A"/>
<rect x="83.3879" y="98.1855" width="35.7721" height="11.0426" fill="#131930"/>
<rect x="83.3879" y="98.1855" width="9.80849" height="11.0426" fill="#2C3A6A"/>
<rect x="51.9421" y="109.228" width="98.0849" height="5.99455" rx="2.99727" fill="#131930"/>
<rect x="51.9421" y="109.228" width="10.6739" height="5.99455" rx="2.99727" fill="#2C3A6A"/>
<path d="M117.509 56.3998C118.054 39.8694 106.805 26.0788 92.3833 25.5976C77.9615 25.1165 65.8283 38.1271 65.283 54.6576C64.7377 71.188 75.9868 84.9786 90.4086 85.4598C104.83 85.9409 116.964 72.9303 117.509 56.3998Z" fill="#8CC754"/>
<path d="M80.1147 35.5264C84.3228 35.5264 87.7341 32.0959 87.7341 27.8642C87.7341 23.6325 84.3228 20.202 80.1147 20.202C75.9067 20.202 72.4954 23.6325 72.4954 27.8642C72.4954 32.0959 75.9067 35.5264 80.1147 35.5264Z" fill="#FBFBFB" stroke="#272727" stroke-miterlimit="10"/>
<path d="M80.4449 35.3445C83.6002 35.3445 86.1581 32.7722 86.1581 29.5991C86.1581 26.426 83.6002 23.8538 80.4449 23.8538C77.2896 23.8538 74.7317 26.426 74.7317 29.5991C74.7317 32.7722 77.2896 35.3445 80.4449 35.3445Z" fill="#272727" stroke="#272727" stroke-miterlimit="10"/>
<path d="M99.0166 35.5264C103.225 35.5264 106.636 32.0959 106.636 27.8642C106.636 23.6325 103.225 20.202 99.0166 20.202C94.8085 20.202 91.3972 23.6325 91.3972 27.8642C91.3972 32.0959 94.8085 35.5264 99.0166 35.5264Z" fill="#FBFBFB" stroke="#272727" stroke-miterlimit="10"/>
<path d="M90.8648 85.173C99.8573 85.173 107.147 77.5305 107.147 68.103C107.147 58.6755 99.8573 51.033 90.8648 51.033C81.8724 51.033 74.5825 58.6755 74.5825 68.103C74.5825 77.5305 81.8724 85.173 90.8648 85.173Z" fill="#72B236"/>
<path d="M99.3255 35.3445C102.481 35.3445 105.039 32.7722 105.039 29.5991C105.039 26.426 102.481 23.8538 99.3255 23.8538C96.1702 23.8538 93.6123 26.426 93.6123 29.5991C93.6123 32.7722 96.1702 35.3445 99.3255 35.3445Z" fill="#272727" stroke="#272727" stroke-miterlimit="10"/>
<path d="M87.1108 43.949C90.464 43.8991 93.789 43.3246 96.9665 42.2463" stroke="#006633" stroke-width="3" stroke-miterlimit="10"/>
<rect x="113.301" y="122.643" width="38.9166" height="21.1138" rx="10" transform="rotate(-103.048 113.301 122.643)" fill="#F6B028"/>
<rect x="152.431" y="113.575" width="38.9166" height="21.1138" rx="10" transform="rotate(-103.048 152.431 113.575)" fill="#F6B028"/>
<rect x="104.515" y="84.7314" width="61.2814" height="25.2958" rx="10" transform="rotate(-13.048 104.515 84.7314)" fill="#F6B028"/>
<rect x="107.242" y="85.0978" width="55.6168" height="22.8635" rx="10" transform="rotate(-13.048 107.242 85.0978)" fill="#EFC680"/>
<ellipse cx="121.613" cy="93.5022" rx="6.43713" ry="6.08072" transform="rotate(-13.048 121.613 93.5022)" fill="#2C3A6A"/>
<ellipse cx="149.55" cy="84.0318" rx="2.31737" ry="2.18906" transform="rotate(-13.048 149.55 84.0318)" fill="#FAFF00"/>
<ellipse cx="157.075" cy="82.288" rx="2.31737" ry="2.18906" transform="rotate(-13.048 157.075 82.288)" fill="#72B236"/>
<ellipse cx="158.722" cy="89.3963" rx="2.31737" ry="2.18906" transform="rotate(-13.048 158.722 89.3963)" fill="#2C3A6A"/>
<ellipse cx="151.197" cy="91.1403" rx="2.31737" ry="2.18906" transform="rotate(-13.048 151.197 91.1403)" fill="#EC671C"/>
<rect x="129.521" y="85.4277" width="15.9641" height="10.7021" rx="5.35103" transform="rotate(-13.048 129.521 85.4277)" fill="#269C95"/>
<rect x="130.634" y="85.669" width="14.4192" height="9.72915" rx="4.86458" transform="rotate(-13.048 130.634 85.669)" fill="#5DDAD2" fill-opacity="0.64"/>
<path d="M128.111 31.3057C128.411 30.3843 129.714 30.3843 130.013 31.3057L130.666 33.3133C130.8 33.7254 131.184 34.0043 131.617 34.0043H133.728C134.696 34.0043 135.099 35.2439 134.316 35.8133L132.608 37.0542C132.257 37.3088 132.111 37.7602 132.244 38.1722L132.897 40.1799C133.196 41.1012 132.142 41.8673 131.358 41.2979L129.65 40.0571C129.3 39.8025 128.825 39.8025 128.475 40.0571L126.767 41.2979C125.983 41.8673 124.928 41.1012 125.228 40.1799L125.88 38.1722C126.014 37.7602 125.867 37.3088 125.517 37.0542L123.809 35.8133C123.025 35.2439 123.428 34.0043 124.397 34.0043H126.508C126.941 34.0043 127.325 33.7254 127.459 33.3133L128.111 31.3057Z" fill="#FAFF00"/>
</g>
<defs>
<filter id="filter0_bi" x="2" y="-29" width="217.582" height="192.695" filterUnits="userSpaceOnUse" color-interpolation-filters="sRGB">
<feFlood flood-opacity="0" result="BackgroundImageFix"/>
<feGaussianBlur in="BackgroundImage" stdDeviation="5"/>
<feComposite in2="SourceAlpha" operator="in" result="effect1_backgroundBlur"/>
<feBlend mode="normal" in="SourceGraphic" in2="effect1_backgroundBlur" result="shape"/>
<feColorMatrix in="SourceAlpha" type="matrix" values="0 0 0 0 0 0 0 0 0 0 0 0 0 0 0 0 0 0 127 0" result="hardAlpha"/>
<feOffset/>
<feGaussianBlur stdDeviation="5"/>
<feComposite in2="hardAlpha" operator="arithmetic" k2="-1" k3="1"/>
<feColorMatrix type="matrix" values="0 0 0 0 1 0 0 0 0 1 0 0 0 0 1 0 0 0 0.2 0"/>
<feBlend mode="normal" in2="shape" result="effect2_innerShadow"/>
</filter>
<clipPath id="clip0">
<path d="M229 9C229 4.02943 224.971 0 220 0H9C4.02945 0 0 4.02944 0 9V129H229V9Z" fill="white"/>
</clipPath>
</defs>
</svg>
