<svg width="131" height="127" viewBox="0 0 131 127" fill="none" xmlns="http://www.w3.org/2000/svg">
<path d="M128.663 69.6884C129.789 38.5396 106.562 12.5535 76.7859 11.6469C47.0092 10.7403 21.9578 35.2566 20.8319 66.4054C19.706 97.5543 42.932 123.54 72.7087 124.447C102.485 125.353 127.537 100.837 128.663 69.6884Z" fill="#8CC754"/>
<path d="M51 31C59.8366 31 67 24.2843 67 16C67 7.71573 59.8366 1 51 1C42.1634 1 35 7.71573 35 16C35 24.2843 42.1634 31 51 31Z" fill="#FBFBFB" stroke="#272727" stroke-miterlimit="10"/>
<path d="M50.5 30C56.8513 30 62 25.299 62 19.5C62 13.701 56.8513 9 50.5 9C44.1487 9 39 13.701 39 19.5C39 25.299 44.1487 30 50.5 30Z" fill="#272727" stroke="#272727" stroke-miterlimit="10"/>
<path d="M91 31C99.8366 31 107 24.2843 107 16C107 7.71573 99.8366 1 91 1C82.1635 1 75 7.71573 75 16C75 24.2843 82.1635 31 91 31Z" fill="#FBFBFB" stroke="#272727" stroke-miterlimit="10"/>
<path d="M74 124C92.7777 124 108 109.449 108 91.5C108 73.5508 92.7777 59 74 59C55.2223 59 40 73.5508 40 91.5C40 109.449 55.2223 124 74 124Z" fill="#72B236"/>
<path d="M90 30C96.6274 30 102 25.299 102 19.5C102 13.701 96.6274 9 90 9C83.3726 9 78 13.701 78 19.5C78 25.299 83.3726 30 90 30Z" fill="#272727" stroke="#272727" stroke-miterlimit="10"/>
<path d="M59.923 48H14.077C6.85479 48 1 53.4168 1 60.0987V73.9013C1 80.5832 6.85479 86 14.077 86H59.923C67.1452 86 73 80.5832 73 73.9013V60.0987C73 53.4168 67.1452 48 59.923 48Z" fill="#575756" stroke="#72B236" stroke-width="0.5" stroke-miterlimit="10"/>
<path d="M52.5 84C62.165 84 70 76.6127 70 67.5C70 58.3873 62.165 51 52.5 51C42.835 51 35 58.3873 35 67.5C35 76.6127 42.835 84 52.5 84Z" fill="#272727"/>
<path d="M52.5 80C59.4036 80 65 74.4036 65 67.5C65 60.5964 59.4036 55 52.5 55C45.5965 55 40 60.5964 40 67.5C40 74.4036 45.5965 80 52.5 80Z" fill="#9D9D9C"/>
<path d="M26.2032 42H16.7968C15.2522 42 14 43.0125 14 44.2615V45.7385C14 46.9875 15.2522 48 16.7968 48H26.2032C27.7478 48 29 46.9875 29 45.7385V44.2615C29 43.0125 27.7478 42 26.2032 42Z" fill="#272727"/>
<path d="M29.4971 89.6784C23.5595 92.8468 24.0796 94.3842 20.9266 94.8724C18.7829 95.2271 16.5775 94.8367 14.7073 93.7713C13.0461 92.824 11.8135 91.3163 11.251 89.5434C10.1674 85.8349 12.9195 82.8743 13.3096 82.4692C14.2631 81.4823 16.6468 79.519 18.2829 80.2981C19.5939 80.9318 19.6806 82.999 19.6806 83.1548C19.6856 83.8601 19.5445 84.5593 19.2655 85.212C18.9865 85.8646 18.5752 86.4577 18.0553 86.9568C17.8603 86.8529 19.3339 81.5862 23.2345 79.7371C24.7405 79.0204 27.0809 78.584 28.0452 79.5917C29.2804 80.8798 27.3193 84.3806 26.1166 86.0322C25.4051 86.9878 24.6152 87.8875 23.7546 88.7227C23.7546 88.7227 26.6042 84.5052 29.3563 84.8688C30.0517 84.9676 30.6917 85.2895 31.1718 85.7819C31.652 86.2743 31.9439 86.9081 32 87.58C31.8916 88.5046 30.8082 89.0032 29.4971 89.6784Z" fill="#72B236" stroke="#72B236" stroke-width="0.25" stroke-miterlimit="10"/>
<path d="M64.9483 47.3104C71.9002 48.604 72.5886 47.1122 75.41 48.6979C77.3643 49.76 78.8388 51.4378 79.5631 53.4236C80.2186 55.1852 80.134 57.1102 79.3261 58.8169C77.5656 62.3116 73.2996 62.8645 72.7128 62.9271C71.2569 63.094 67.9841 63.1045 67.2393 61.4875C66.6411 60.1835 68.0406 58.5457 68.1421 58.4309C68.6363 57.8881 69.2416 57.4409 69.9234 57.1151C70.6051 56.7892 71.3498 56.5912 72.1146 56.5323C72.1936 56.7305 67.307 59.8392 62.9169 58.8169C61.2128 58.4309 59.0573 57.2938 59.0008 55.9272C58.9331 54.1642 62.9621 52.7142 65.0725 52.203C66.3181 51.9238 67.5863 51.7389 68.8644 51.6501C68.8644 51.6501 63.6279 53.0898 61.7094 51.0972C60.7162 50.054 60.5808 48.145 61.5288 47.373C62.2511 46.7471 63.4586 47.0392 64.9483 47.3104Z" fill="#72B236" stroke="#006633" stroke-width="0.25" stroke-miterlimit="10"/>
<path d="M59 41.5628C62.913 44.5751 67.6594 46.4321 72.6589 46.907C85.3375 47.9985 93.9336 39.143 95 38" stroke="#006633" stroke-width="3" stroke-miterlimit="10"/>
</svg>
