<svg width="68" height="110" viewBox="0 0 68 110" fill="none" xmlns="http://www.w3.org/2000/svg">
<rect x="0.591797" y="110" width="110" height="66.8167" rx="5" transform="rotate(-90 0.591797 110)" fill="#131930"/>
<rect x="5.78886" y="101.539" width="92.804" height="56.423" rx="5" transform="rotate(-90 5.78886 101.539)" fill="#2C3A6A"/>
<path d="M53.8923 77.3158C54.3795 65.499 46.3424 55.5823 35.9409 55.1663C25.5394 54.7503 16.7123 63.9924 16.2251 75.8092C15.7379 87.6259 23.775 97.5426 34.1765 97.9586C44.5781 98.3746 53.4051 89.1325 53.8923 77.3158Z" fill="#8CC754"/>
<path d="M27.0139 62.1391C30.0312 62.1615 32.4954 59.7415 32.5177 56.7339C32.5401 53.7263 30.1121 51.27 27.0947 51.2476C24.0773 51.2252 21.6132 53.6452 21.5909 56.6528C21.5685 59.6604 23.9965 62.1167 27.0139 62.1391Z" fill="#FBFBFB" stroke="#272727" stroke-miterlimit="10"/>
<path d="M26.8765 62.138C29.1299 62.1548 30.9705 60.3166 30.9875 58.0323C31.0044 55.748 29.1914 53.8827 26.9379 53.866C24.6844 53.8493 22.8439 55.6874 22.8269 57.9717C22.8099 60.256 24.623 62.1213 26.8765 62.138Z" fill="#272727" stroke="#272727" stroke-miterlimit="10"/>
<path d="M40.6386 62.2402C43.6942 62.2629 46.1893 59.8431 46.2116 56.8355C46.234 53.8279 43.775 51.3714 40.7195 51.3487C37.6639 51.326 35.1688 53.7458 35.1464 56.7534C35.1241 59.761 37.583 62.2175 40.6386 62.2402Z" fill="#FBFBFB" stroke="#272727" stroke-miterlimit="10"/>
<path d="M34.565 97.7669C41.0581 97.8151 46.3623 92.3915 46.4123 85.6529C46.4624 78.9144 41.2392 73.4126 34.7462 73.3644C28.2531 73.3162 22.9489 78.7398 22.8988 85.4783C22.8488 92.2169 28.0719 97.7187 34.565 97.7669Z" fill="#72B236"/>
<path d="M40.4995 62.2391C42.7912 62.2561 44.6627 60.4182 44.6796 58.1339C44.6966 55.8496 42.8526 53.9841 40.5609 53.9671C38.2692 53.9501 36.3977 55.788 36.3808 58.0723C36.3638 60.3565 38.2078 62.2221 40.4995 62.2391Z" fill="#272727" stroke="#272727" stroke-miterlimit="10"/>
<circle cx="25.5694" cy="26.0182" r="10.4073" transform="rotate(-90 25.5694 26.0182)" fill="#DF9300"/>
<circle cx="53.8534" cy="38.6911" r="6.42852" transform="rotate(-90 53.8534 38.6911)" fill="#F6B028"/>
<path d="M28.4711 66.5793C29.4618 67.1571 30.5858 67.5514 31.7694 67.7362C32.8862 67.8937 34.0279 67.8741 35.1361 67.6784C37.0049 67.412 38.7954 66.8437 40.4098 66.0046" stroke="#006633" stroke-width="3" stroke-miterlimit="10"/>
</svg>
