<svg width="230" height="129" viewBox="0 0 230 129" fill="none" xmlns="http://www.w3.org/2000/svg">
<g clip-path="url(#clip0)">
<path d="M0 9C0 4.02944 4.02944 0 9 0H232C236.971 0 241 4.02944 241 9V135H0V9Z" fill="#F6B028"/>
<path fill-rule="evenodd" clip-rule="evenodd" d="M275.838 68.8617C286.279 84.414 307.895 94.2564 308.112 113.209C308.332 132.489 294.452 152.395 276.908 162.446C260.439 171.881 240.154 156.625 222.134 162.466C199.409 169.832 185.975 202.129 162.67 199.472C140.671 196.964 124.985 172.574 123.129 151.179C121.347 130.632 150.472 117.446 153.765 96.8277C157.085 76.0427 128.616 55.0699 141.279 37.5496C153.21 21.0435 180.421 33.5532 200.753 31.8188C217.926 30.3539 236.041 20.7916 251.032 28.1874C265.913 35.529 266.761 55.3411 275.838 68.8617Z" fill="#BD67D5"/>
<path fill-rule="evenodd" clip-rule="evenodd" d="M44.7539 180.856C29.017 187.81 12.3628 195.848 -5.5731 189.332C-23.2281 182.919 -37.8745 165.321 -48.6826 146.914C-58.1681 130.76 -58.5892 112.253 -61.4834 94.1131C-64.2583 76.7213 -70.1093 58.5906 -65.192 43.442C-60.0925 27.7324 -32.9312 57.6221 -18.5 54C-4.84141 50.5718 -2.2164 26.2516 12.5 29.5C29.2965 33.2076 45.161 15.8614 57.3192 31.6067C69.6298 47.5495 52.4868 68.7645 57.202 88.3912C62.4842 110.378 88.3556 128.144 85.5388 149.067C82.8156 169.295 60.7665 173.779 44.7539 180.856Z" fill="#DB538C"/>
<g filter="url(#filter0_bi)">
<path fill-rule="evenodd" clip-rule="evenodd" d="M65.4384 48.9664C67.472 33.9352 60.3435 14.6865 72.1473 5.09047C83.6809 -4.28593 101.068 6.27818 116.006 7.85683C130.032 9.33907 146.997 3.96084 156.83 14.0397C166.723 24.1803 158.042 41.2662 161.82 54.8151C165.634 68.4951 181.064 78.8985 178.805 92.8509C176.484 107.178 163.643 118.198 150.517 124.604C138.132 130.648 123.795 127.924 109.994 126.434C96.9144 125.022 82.3355 125.297 72.8377 116.217C63.5477 107.336 63.3366 93.1506 61.9447 80.5004C60.7565 69.7005 63.9851 59.7076 65.4384 48.9664Z" fill="white" fill-opacity="0.2"/>
</g>
<path d="M152.866 62.6797C153.67 38.4228 137.091 18.1865 115.836 17.4805C94.5808 16.7745 76.6988 35.8662 75.8951 60.1231C75.0914 84.3799 91.6705 104.616 112.925 105.322C134.18 106.028 152.062 86.9365 152.866 62.6797Z" fill="#8CC754"/>
<path d="M97.7514 32.0427C103.953 32.0427 108.981 27.0088 108.981 20.7991C108.981 14.5895 103.953 9.55554 97.7514 9.55554C91.5496 9.55554 86.522 14.5895 86.522 20.7991C86.522 27.0088 91.5496 32.0427 97.7514 32.0427Z" fill="#FBFBFB" stroke="#272727" stroke-miterlimit="10"/>
<path d="M97.4612 31.7834C102.111 31.7834 105.881 28.0089 105.881 23.3527C105.881 18.6966 102.111 14.922 97.4612 14.922C92.8108 14.922 89.041 18.6966 89.041 23.3527C89.041 28.0089 92.8108 31.7834 97.4612 31.7834Z" fill="#272727" stroke="#272727" stroke-miterlimit="10"/>
<path d="M125.617 32.0427C131.819 32.0427 136.847 27.0088 136.847 20.7991C136.847 14.5895 131.819 9.55554 125.617 9.55554C119.415 9.55554 114.388 14.5895 114.388 20.7991C114.388 27.0088 119.415 32.0427 125.617 32.0427Z" fill="#FBFBFB" stroke="#272727" stroke-miterlimit="10"/>
<path d="M113.595 104.902C126.848 104.902 137.592 93.6875 137.592 79.8535C137.592 66.0196 126.848 54.8049 113.595 54.8049C100.342 54.8049 89.5981 66.0196 89.5981 79.8535C89.5981 93.6875 100.342 104.902 113.595 104.902Z" fill="#72B236"/>
<path d="M125.288 31.7834C129.938 31.7834 133.708 28.0089 133.708 23.3527C133.708 18.6966 129.938 14.922 125.288 14.922C120.638 14.922 116.868 18.6966 116.868 23.3527C116.868 28.0089 120.638 31.7834 125.288 31.7834Z" fill="#272727" stroke="#272727" stroke-miterlimit="10"/>
<path d="M102.664 40.9293C105.514 43.2277 108.972 44.6448 112.614 45.0071C121.85 45.84 128.112 39.0828 128.889 38.2107" stroke="#006633" stroke-width="3" stroke-miterlimit="10"/>
<path d="M93.6829 69.9181C93.646 69.9246 93.6081 69.9263 93.5708 69.9235C82.5218 69.0901 73.2573 82.186 77.7909 92.3112C82.2158 103.316 98.8674 106.301 106.786 97.4874C114.459 89.9563 117.417 78.3682 126.814 72.4227C136.362 65.8942 151.733 72.0589 153.596 83.661C155.413 94.771 143.454 105.578 132.636 102.314C124.637 100.507 118.896 93.6635 115.635 86.4589C111.618 79.5807 106.366 72.2361 98.1687 70.3709C96.7256 70.0426 95.2367 69.9114 93.7587 69.9115C93.7333 69.9115 93.7079 69.9137 93.6829 69.9181V69.9181Z" stroke="#2C3A6A" stroke-width="7"/>
<path d="M87.1064 85.6661H101.08" stroke="#2C3A6A" stroke-width="4"/>
<path d="M135.664 79.8372V91.4952M129.958 85.6662H141.602H129.958Z" stroke="#2C3A6A" stroke-width="4"/>
<path d="M84.1875 122.962C83.5882 122.962 83.0627 122.562 82.9032 121.985L82.8021 121.618C82.5828 120.824 81.8604 120.274 81.0366 120.274H79.1196C78.2926 120.274 77.5659 120.823 77.3394 121.618L77.2055 122.089C77.0583 122.606 76.5859 122.962 76.0483 122.962C75.2449 122.962 74.6672 122.19 74.894 121.42L77.9287 111.107C78.2257 110.098 79.152 109.405 80.2041 109.405C81.2562 109.405 82.1826 110.098 82.4796 111.107L85.4656 121.254C85.7167 122.107 85.077 122.962 84.1875 122.962ZM81.3929 116.486C81.0311 115.18 79.1802 115.177 78.814 116.482C78.5744 117.336 79.2161 118.182 80.1029 118.182C80.9877 118.182 81.6291 117.339 81.3929 116.486ZM96.7788 122.995C95.2776 122.975 93.9335 122.067 93.3317 120.692C92.9423 119.802 92.5101 118.836 92.1848 118.171C91.4308 117.028 90.0638 118.337 90.0509 119.706C90.0443 120.413 90.0416 121.118 90.0407 121.691C90.0397 122.393 89.4711 122.962 88.7692 122.962C88.0691 122.962 87.5016 122.395 87.5016 121.695V115.141C87.5016 111.946 90.0642 109.123 93.2309 109.545C96.3605 109.902 97.2177 113.548 95.5425 115.444C95.105 115.939 94.7485 117.65 95.0205 118.252L97.0501 122.483C97.1928 122.773 97.1893 122.998 96.7788 122.995ZM93.6786 113.367C93.6717 112.118 92.9285 111.698 92.0023 111.56C90.9359 111.401 90.0485 112.375 90.0485 113.454C90.0485 114.5 90.8914 115.431 91.9195 115.235C92.9223 115.043 93.6564 114.543 93.6786 113.367ZM108.445 119.503C108.446 119.498 108.439 119.497 108.437 119.501C107.199 122.327 104.523 122.986 101.985 122.939C100.262 122.939 98.8652 121.542 98.8652 119.819V114.125C98.8652 111.509 100.993 109.392 103.609 109.405C109.477 109.598 109.686 115.973 108.445 119.503ZM105.206 112.294C105.208 112.293 105.208 112.291 105.207 112.289C104.532 111.707 103.821 111.525 103.088 111.476C102.161 111.413 101.405 112.231 101.405 113.161V117.258C101.405 119.21 103.242 121.317 104.815 120.161C106.913 118.829 106.648 113.785 105.206 112.298C105.205 112.296 105.205 112.295 105.206 112.294ZM120.64 117.937C120.637 117.937 120.635 117.94 120.635 117.943C120.88 124.786 111.182 124.761 110.892 119.421C110.715 117.785 110.861 116.149 110.813 114.512V110.62C110.813 109.917 111.383 109.347 112.086 109.347C112.787 109.347 113.356 109.913 113.359 110.614L113.4 119.047C113.698 121.724 117.227 121.49 117.761 120.006C118.301 118.825 118.051 117.493 118.106 116.23V110.617C118.106 109.915 118.675 109.347 119.376 109.347C120.078 109.347 120.646 109.915 120.646 110.617V117.931C120.646 117.934 120.644 117.937 120.64 117.937ZM124.116 111.392C123.538 111.392 123.07 110.924 123.07 110.346C123.07 109.768 123.538 109.3 124.116 109.3H130.549C131.126 109.3 131.595 109.768 131.595 110.346C131.595 110.924 131.126 111.392 130.549 111.392H130.11C129.29 111.392 128.626 112.057 128.626 112.876V119.304C128.626 120.124 129.29 120.789 130.11 120.789H130.537C131.121 120.789 131.595 121.262 131.595 121.846C131.595 122.43 131.121 122.904 130.537 122.904H124.128C123.544 122.904 123.07 122.43 123.07 121.846C123.07 121.262 123.544 120.789 124.128 120.789H124.555C125.375 120.789 126.039 120.124 126.039 119.304V112.876C126.039 112.057 125.375 111.392 124.555 111.392H124.116ZM142.27 122.962C141.527 122.962 140.853 122.524 140.552 121.844L139.979 120.547C139.227 118.846 136.686 119.383 136.686 121.243V121.808C136.686 122.446 136.169 122.962 135.532 122.962C134.895 122.962 134.378 122.446 134.378 121.808V111.296C134.378 110.251 135.225 109.405 136.269 109.405C137.016 109.405 137.693 109.845 137.997 110.529L138.588 111.861C139.356 113.59 141.842 113.064 141.841 111.172C141.841 110.952 141.841 110.746 141.841 110.558C141.841 109.921 142.357 109.405 142.995 109.405C143.632 109.405 144.148 109.921 144.148 110.559V121.084C144.148 122.122 143.307 122.962 142.27 122.962ZM154.617 121.823C154.617 121.811 154.603 121.805 154.595 121.813C151.773 124.234 146.878 123.686 145.907 118.884C144.573 111.567 148.504 107.36 153.979 109.814C157.333 111.714 157.158 119.517 154.638 121.833C154.63 121.84 154.617 121.834 154.617 121.823ZM151.218 111.427C148.818 111.363 148.47 113.835 148.377 115.027C148.357 117.282 148.159 121.034 151.265 120.87C152.227 120.87 153.062 120.167 153.376 119.269C154.008 117.855 154.484 111.31 151.218 111.427ZM151.97 67.8445C151.894 67.8445 151.833 67.9057 151.833 67.9812C151.833 68.0567 151.894 68.118 151.97 68.118H152.132C152.297 68.118 152.43 68.2517 152.43 68.4166V69.5532C152.43 69.6384 152.499 69.7075 152.585 69.7075C152.67 69.7075 152.739 69.6384 152.739 69.5532V68.4195C152.739 68.253 152.874 68.118 153.04 68.118H153.205C153.281 68.118 153.342 68.0567 153.342 67.9812C153.342 67.9057 153.281 67.8445 153.205 67.8445H151.97ZM153.812 67.8445C153.667 67.8445 153.55 67.9621 153.55 68.1072V69.5619C153.55 69.6397 153.613 69.7028 153.69 69.7028C153.768 69.7028 153.831 69.6397 153.831 69.5619V69.4916C153.831 69.2499 154.172 69.1978 154.244 69.4284L154.289 69.5705C154.313 69.6492 154.386 69.7028 154.469 69.7028C154.552 69.7028 154.625 69.6486 154.649 69.5692L154.688 69.4414C154.756 69.2193 155.084 69.2683 155.084 69.5006V69.5636C155.084 69.6405 155.146 69.7028 155.223 69.7028C155.3 69.7028 155.362 69.6405 155.362 69.5636V68.0977C155.362 67.9578 155.249 67.8445 155.109 67.8445C154.998 67.8445 154.899 67.9173 154.867 68.0239L154.837 68.1207C154.726 68.4875 154.207 68.4894 154.092 68.1233L154.063 68.0288C154.029 67.9191 153.927 67.8445 153.812 67.8445Z" fill="#2C3A6A" stroke="#2C3A6A"/>
</g>
<defs>
<filter id="filter0_bi" x="22" y="-28" width="191.673" height="188.97" filterUnits="userSpaceOnUse" color-interpolation-filters="sRGB">
<feFlood flood-opacity="0" result="BackgroundImageFix"/>
<feGaussianBlur in="BackgroundImage" stdDeviation="5"/>
<feComposite in2="SourceAlpha" operator="in" result="effect1_backgroundBlur"/>
<feBlend mode="normal" in="SourceGraphic" in2="effect1_backgroundBlur" result="shape"/>
<feColorMatrix in="SourceAlpha" type="matrix" values="0 0 0 0 0 0 0 0 0 0 0 0 0 0 0 0 0 0 127 0" result="hardAlpha"/>
<feOffset/>
<feGaussianBlur stdDeviation="5"/>
<feComposite in2="hardAlpha" operator="arithmetic" k2="-1" k3="1"/>
<feColorMatrix type="matrix" values="0 0 0 0 1 0 0 0 0 1 0 0 0 0 1 0 0 0 0.2 0"/>
<feBlend mode="normal" in2="shape" result="effect2_innerShadow"/>
</filter>
<clipPath id="clip0">
<path d="M0 0H221C225.971 0 230 4.02944 230 9V129H0V0Z" fill="white"/>
</clipPath>
</defs>
</svg>
