<svg width="230" height="129" viewBox="0 0 230 129" fill="none" xmlns="http://www.w3.org/2000/svg">
<g clip-path="url(#clip0)">
<path d="M0 9C0 4.02944 4.02944 0 9 0H232C236.971 0 241 4.02944 241 9V135H0V9Z" fill="#BD67D5"/>
<path fill-rule="evenodd" clip-rule="evenodd" d="M275.838 68.8617C286.279 84.414 307.895 94.2564 308.112 113.209C308.332 132.489 294.452 152.395 276.908 162.446C260.439 171.881 240.154 156.625 222.134 162.466C199.409 169.832 185.975 202.129 162.67 199.472C140.671 196.964 124.985 172.574 123.129 151.179C121.347 130.632 150.472 117.446 153.765 96.8277C157.085 76.0427 128.616 55.0699 141.279 37.5496C153.21 21.0435 180.421 33.5532 200.753 31.8188C217.926 30.3539 236.041 20.7916 251.032 28.1874C265.913 35.529 266.761 55.3411 275.838 68.8617Z" fill="#DB538C"/>
<path fill-rule="evenodd" clip-rule="evenodd" d="M44.7539 180.856C29.017 187.81 12.3628 195.848 -5.5731 189.332C-23.2281 182.919 -37.8745 165.321 -48.6826 146.914C-58.1681 130.76 -58.5892 112.253 -61.4834 94.1131C-64.2583 76.7213 -70.1093 58.5906 -65.192 43.442C-60.0925 27.7324 -49.0378 14.9377 -34.6066 11.3156C-20.948 7.88736 -6.45838 21.7582 8.25803 25.0066C25.0546 28.7142 45.161 15.8614 57.3192 31.6067C69.6298 47.5495 52.4868 68.7645 57.202 88.3912C62.4842 110.378 88.3556 128.144 85.5388 149.067C82.8156 169.295 60.7665 173.779 44.7539 180.856Z" fill="#F6B028"/>
<g filter="url(#filter0_bi)">
<path fill-rule="evenodd" clip-rule="evenodd" d="M69.6182 48.5026C74.1375 33.431 70.0357 12.6323 83.5952 4.62782C96.8443 -3.19342 112.787 10.2958 127.707 14.2113C141.717 17.8877 159.832 14.9948 168.178 26.8244C176.576 38.7266 164.967 54.8778 166.595 69.3268C168.238 83.9157 182.218 96.9392 177.645 110.872C172.949 125.178 172.883 120.964 158.5 125.5C144.93 129.78 112.279 129.15 98.5 125.5C85.4405 122.041 74.3305 129.229 66.1617 118.474C58.1717 107.954 60.2721 93.402 60.9223 80.2401C61.4774 69.0033 66.3888 59.2726 69.6182 48.5026Z" fill="white" fill-opacity="0.3"/>
</g>
<path d="M89.0583 52.0571C89.0583 42.2921 91.2943 39.4379 99.2006 27.969C101.435 24.7276 101.176 20.5682 97.5039 19.1488C91.6522 16.887 83.1152 15.9375 80.9984 18.6751C77.2092 23.5756 72.0001 36.6224 72 45.5961C71.9999 53.3578 76.7183 66.4149 85.066 75.7475C95.7977 87.7454 110.146 87.709 122.97 91.1681C135.795 94.6273 160.279 97.8757 160.279 105.869C160.279 127.489 102.703 120.923 110.146 123.453C128.8 129.795 163.194 123.453 168.732 113.653C172.778 106.491 172.229 97.0775 160.279 91.1681C145.705 83.9616 125.011 83.9616 110.146 77.6198C95.2805 71.278 89.0583 61.035 89.0583 52.0571Z" fill="#F6B028" stroke="#F6A514"/>
<path d="M109.667 12.5318C112.329 12.5318 114.487 10.3866 114.487 7.74038C114.487 5.09416 112.329 2.94897 109.667 2.94897C107.005 2.94897 104.848 5.09416 104.848 7.74038C104.848 10.3866 107.005 12.5318 109.667 12.5318Z" fill="#ED721C" stroke="#EC671C" stroke-miterlimit="10"/>
<path d="M109.545 12.5317C111.533 12.5317 113.145 10.9024 113.145 8.89264C113.145 6.88285 111.533 5.2536 109.545 5.2536C107.557 5.2536 105.946 6.88285 105.946 8.89264C105.946 10.9024 107.557 12.5317 109.545 12.5317Z" fill="#ED721C" stroke="#EC671C" stroke-miterlimit="10"/>
<path d="M157.599 81.5027C158.372 58.3426 142.429 39.0211 121.991 38.347C101.552 37.6729 84.3562 55.9015 83.5834 79.0617C82.8106 102.222 98.7531 121.543 119.192 122.217C139.631 122.891 156.826 104.663 157.599 81.5027Z" fill="#8CC754"/>
<path d="M104.601 52.1212C110.529 52.1212 115.335 47.3439 115.335 41.4507C115.335 35.5576 110.529 30.7802 104.601 30.7802C98.6736 30.7802 93.8682 35.5576 93.8682 41.4507C93.8682 47.3439 98.6736 52.1212 104.601 52.1212Z" fill="#FBFBFB" stroke="#272727" stroke-miterlimit="10"/>
<path d="M104.33 52.1211C108.757 52.1211 112.346 48.4928 112.346 44.0169C112.346 39.5411 108.757 35.9128 104.33 35.9128C99.9028 35.9128 96.314 39.5411 96.314 44.0169C96.314 48.4928 99.9028 52.1211 104.33 52.1211Z" fill="#272727" stroke="#272727" stroke-miterlimit="10"/>
<path d="M131.366 52.1212C137.369 52.1212 142.235 47.3439 142.235 41.4507C142.235 35.5576 137.369 30.7802 131.366 30.7802C125.363 30.7802 120.497 35.5576 120.497 41.4507C120.497 47.3439 125.363 52.1212 131.366 52.1212Z" fill="#FBFBFB" stroke="#272727" stroke-miterlimit="10"/>
<path d="M119.954 121.817C132.71 121.817 143.05 111.113 143.05 97.9096C143.05 84.706 132.71 74.0023 119.954 74.0023C107.198 74.0023 96.8569 84.706 96.8569 97.9096C96.8569 111.113 107.198 121.817 119.954 121.817Z" fill="#72B236"/>
<path d="M131.095 52.1212C135.597 52.1212 139.246 48.4928 139.246 44.017C139.246 39.5412 135.597 35.9128 131.095 35.9128C126.593 35.9128 122.943 39.5412 122.943 44.017C122.943 48.4928 126.593 52.1212 131.095 52.1212Z" fill="#272727" stroke="#272727" stroke-miterlimit="10"/>
<path d="M111.361 68.2136C113.383 69.8322 115.835 70.8301 118.418 71.0852C124.969 71.6717 129.41 66.9133 129.961 66.2991" stroke="#006633" stroke-width="3" stroke-miterlimit="10"/>
<path d="M114.999 23.0176C113.971 23.4322 112.867 23.5366 111.764 23.6619C98.0746 25.2182 62.4891 47.0471 79.4888 19.5145C79.9669 18.7403 80.5938 17.9983 81.2739 17.3931C91.2468 8.51978 91.6889 8.38195 99.5516 5.93058C106.609 3.7304 116.199 4.11562 119.637 7.54701C120.621 8.52861 121.301 9.81148 121.945 11.041C124.313 15.5582 121.216 20.5094 114.999 23.0176Z" fill="#F6B028"/>
<path d="M105.5 14C107.985 14 110 11.9853 110 9.5C110 7.01472 107.985 5 105.5 5C103.015 5 101 7.01472 101 9.5C101 11.9853 103.015 14 105.5 14Z" fill="#FBFBFB" stroke="#272727" stroke-miterlimit="10"/>
<path d="M105.5 14C107.433 14 109 12.433 109 10.5C109 8.567 107.433 7 105.5 7C103.567 7 102 8.567 102 10.5C102 12.433 103.567 14 105.5 14Z" fill="#272727" stroke="#272727" stroke-miterlimit="10"/>
</g>
<defs>
<filter id="filter0_bi" x="17.2861" y="-28.0001" width="206.374" height="204.637" filterUnits="userSpaceOnUse" color-interpolation-filters="sRGB">
<feFlood flood-opacity="0" result="BackgroundImageFix"/>
<feGaussianBlur in="BackgroundImage" stdDeviation="5"/>
<feComposite in2="SourceAlpha" operator="in" result="effect1_backgroundBlur"/>
<feBlend mode="normal" in="SourceGraphic" in2="effect1_backgroundBlur" result="shape"/>
<feColorMatrix in="SourceAlpha" type="matrix" values="0 0 0 0 0 0 0 0 0 0 0 0 0 0 0 0 0 0 127 0" result="hardAlpha"/>
<feOffset/>
<feGaussianBlur stdDeviation="5"/>
<feComposite in2="hardAlpha" operator="arithmetic" k2="-1" k3="1"/>
<feColorMatrix type="matrix" values="0 0 0 0 1 0 0 0 0 1 0 0 0 0 1 0 0 0 0.2 0"/>
<feBlend mode="normal" in2="shape" result="effect2_innerShadow"/>
</filter>
<clipPath id="clip0">
<path d="M0 9C0 4.02943 4.02944 0 9 0H221C225.971 0 230 4.02944 230 9V129H0V9Z" fill="white"/>
</clipPath>
</defs>
</svg>
