<svg width="230" height="129" viewBox="0 0 230 129" fill="none" xmlns="http://www.w3.org/2000/svg">
<g clip-path="url(#clip0)">
<path d="M0 9C0 4.02944 4.02944 0 9 0H232C236.971 0 241 4.02944 241 9V135H0V9Z" fill="#DB538C"/>
<path fill-rule="evenodd" clip-rule="evenodd" d="M29.4827 45.7837C47.3733 40.2321 62.9922 22.339 81.2139 27.5574C99.7492 32.8657 114.849 51.8646 119.456 71.5508C123.781 90.0323 103.357 105.1 103.794 124.038C104.345 147.92 131.445 170.039 122.227 191.608C113.526 211.968 85.6651 220.014 64.6348 215.668C44.437 211.493 40.142 179.812 21.3294 170.753C2.36486 161.622 -25.8807 182.895 -39.0421 165.746C-51.4417 149.589 -31.6652 127.098 -27.5061 107.121C-23.9932 90.2476 -27.9691 70.1533 -16.5911 57.9072C-5.29627 45.7506 13.9293 50.61 29.4827 45.7837Z" fill="#BD67D5"/>
<path fill-rule="evenodd" clip-rule="evenodd" d="M270.975 40.9084C282.874 53.3351 296.104 66.2554 296.088 85.338C296.072 104.122 284.516 123.887 270.891 140.319C258.934 154.74 241.677 161.44 225.609 170.34C210.202 178.874 195.149 190.551 179.231 191.088C162.724 191.645 146.929 185.61 138.608 173.275C130.732 161.601 138.837 143.253 136.878 128.31C134.643 111.256 115.709 96.7298 126.371 79.9353C137.167 62.9301 162.953 71.8211 179.8 60.7022C198.672 48.2464 206.563 17.8704 227.194 13.3915C247.139 9.06131 258.867 28.2641 270.975 40.9084Z" fill="#F6B028"/>
<g filter="url(#filter0_bi)">
<path fill-rule="evenodd" clip-rule="evenodd" d="M171.144 46.6115C182.71 59.0155 204.048 66.5868 204.387 83.4788C204.718 99.9841 183.971 107.338 172.596 118.977C161.915 129.905 155.164 148.212 139.9 149.459C124.542 150.713 115.666 131.173 101.478 124.784C87.1525 118.334 67.856 124.131 57.3694 112.299C46.6016 100.15 45.7333 81.3613 49.025 65.6035C52.1308 50.7361 64.0891 40.4233 74.6257 29.693C84.6119 19.5232 94.152 6.8755 108.332 5.20642C122.201 3.57385 134.545 13.4606 146.361 21.2491C156.448 27.8983 162.878 37.7476 171.144 46.6115Z" fill="white" fill-opacity="0.2"/>
</g>
<rect x="83.8606" y="28.2526" width="102.139" height="74.8397" rx="10" fill="#131930"/>
<rect x="91.7168" y="34.0734" width="86.1723" height="63.198" rx="10" fill="#2C3A6A"/>
<rect x="119" y="103" width="31.4275" height="9.70144" fill="#131930"/>
<rect x="119.343" y="103.093" width="8.61723" height="9.70144" rx="4.30861" fill="#2C3A6A"/>
<rect x="91.7168" y="111.794" width="86.1723" height="5.2665" rx="2.63325" fill="#131930"/>
<rect x="91.7168" y="112.794" width="9.37757" height="5.2665" rx="2.63325" fill="#2C3A6A"/>
<path d="M139.29 69.6169C140.17 43.0652 122.022 20.9143 98.7563 20.1416C75.4905 19.3688 55.9166 40.2667 55.0369 66.8184C54.1572 93.3701 72.3048 115.521 95.5706 116.294C118.836 117.067 138.41 96.1686 139.29 69.6169Z" fill="#8CC754"/>
<path d="M78.9621 35.9328C85.7098 35.9328 91.1798 30.4559 91.1798 23.6997C91.1798 16.9436 85.7098 11.4667 78.9621 11.4667C72.2144 11.4667 66.7444 16.9436 66.7444 23.6997C66.7444 30.4559 72.2144 35.9328 78.9621 35.9328Z" fill="#FBFBFB" stroke="#272727" stroke-miterlimit="10"/>
<path d="M78.6529 35.9327C83.6923 35.9327 87.7776 31.773 87.7776 26.6418C87.7776 21.5105 83.6923 17.3508 78.6529 17.3508C73.6135 17.3508 69.5283 21.5105 69.5283 26.6418C69.5283 31.773 73.6135 35.9327 78.6529 35.9327Z" fill="#272727" stroke="#272727" stroke-miterlimit="10"/>
<path d="M109.429 35.9328C116.262 35.9328 121.801 30.4559 121.801 23.6997C121.801 16.9436 116.262 11.4667 109.429 11.4667C102.596 11.4667 97.0564 16.9436 97.0564 23.6997C97.0564 30.4559 102.596 35.9328 109.429 35.9328Z" fill="#FBFBFB" stroke="#272727" stroke-miterlimit="10"/>
<path d="M96.4382 115.835C110.959 115.835 122.73 103.564 122.73 88.4266C122.73 73.2894 110.959 61.0183 96.4382 61.0183C81.918 61.0183 70.147 73.2894 70.147 88.4266C70.147 103.564 81.918 115.835 96.4382 115.835Z" fill="#72B236"/>
<path d="M109.12 35.9327C114.244 35.9327 118.399 31.773 118.399 26.6418C118.399 21.5105 114.244 17.3508 109.12 17.3508C103.995 17.3508 99.8403 21.5105 99.8403 26.6418C99.8403 31.773 103.995 35.9327 109.12 35.9327Z" fill="#272727" stroke="#272727" stroke-miterlimit="10"/>
<path d="M82.5903 48.8223C85.467 51.1419 88.9564 52.5719 92.6318 52.9375C101.953 53.778 108.272 46.959 109.056 46.0789" stroke="#006633" stroke-width="3" stroke-miterlimit="10"/>
<rect x="148" y="39" width="26" height="20" rx="10" fill="#EE9E15"/>
<rect x="149" y="65" width="10" height="27" rx="5" fill="#EE771A"/>
<rect x="166" y="77" width="10" height="15" rx="5" fill="#DCDD25"/>
</g>
<defs>
<filter id="filter0_bi" x="12.0002" y="-30" width="217.87" height="217.869" filterUnits="userSpaceOnUse" color-interpolation-filters="sRGB">
<feFlood flood-opacity="0" result="BackgroundImageFix"/>
<feGaussianBlur in="BackgroundImage" stdDeviation="5"/>
<feComposite in2="SourceAlpha" operator="in" result="effect1_backgroundBlur"/>
<feBlend mode="normal" in="SourceGraphic" in2="effect1_backgroundBlur" result="shape"/>
<feColorMatrix in="SourceAlpha" type="matrix" values="0 0 0 0 0 0 0 0 0 0 0 0 0 0 0 0 0 0 127 0" result="hardAlpha"/>
<feOffset/>
<feGaussianBlur stdDeviation="5"/>
<feComposite in2="hardAlpha" operator="arithmetic" k2="-1" k3="1"/>
<feColorMatrix type="matrix" values="0 0 0 0 1 0 0 0 0 1 0 0 0 0 1 0 0 0 0.2 0"/>
<feBlend mode="normal" in2="shape" result="effect2_innerShadow"/>
</filter>
<clipPath id="clip0">
<path d="M0 0H221C225.971 0 230 4.02944 230 9V129H0V0Z" fill="white"/>
</clipPath>
</defs>
</svg>
