<svg width="231" height="129" viewBox="0 0 231 129" fill="none" xmlns="http://www.w3.org/2000/svg">
<g clip-path="url(#clip0)">
<path d="M0 9C0 4.02944 4.02944 0 9 0H232C236.971 0 241 4.02944 241 9V135H0V9Z" fill="#F6B028"/>
<path fill-rule="evenodd" clip-rule="evenodd" d="M88.2103 68.8617C98.6514 84.414 120.267 94.2564 120.484 113.209C120.704 132.489 106.824 152.395 89.2805 162.446C72.8109 171.881 52.5262 156.625 34.5062 162.466C11.7814 169.832 -1.65256 202.129 -24.9579 199.472C-46.957 196.964 -62.6427 172.574 -64.4987 151.179C-66.2813 130.632 -37.1561 117.446 -33.8627 96.8277C-30.5427 76.0427 -59.0122 55.0699 -46.3487 37.5496C-34.4183 21.0435 -7.20702 33.5532 13.1251 31.8188C30.2977 30.3539 48.4126 20.7916 63.4036 28.1874C78.285 35.529 79.1331 55.3411 88.2103 68.8617Z" fill="#DB538C"/>
<path fill-rule="evenodd" clip-rule="evenodd" d="M262.474 180.856C246.737 187.81 230.083 195.848 212.147 189.332C194.492 182.919 179.846 165.321 169.038 146.914C159.552 130.76 159.131 112.253 156.237 94.1131C153.462 76.7213 147.611 58.5906 152.528 43.442C157.628 27.7324 168.682 14.9377 183.114 11.3156C196.772 7.88736 211.262 21.7582 225.978 25.0066C242.775 28.7142 262.881 15.8614 275.039 31.6067C287.35 47.5495 270.207 68.7645 274.922 88.3912C280.204 110.378 306.076 128.144 303.259 149.067C300.536 169.295 278.487 173.779 262.474 180.856Z" fill="#BD67D5"/>
<g filter="url(#filter0_bi)">
<path fill-rule="evenodd" clip-rule="evenodd" d="M174.032 101.255C169.073 117.474 173.185 139.739 158.726 148.478C144.597 157.018 127.855 142.727 112.087 138.695C97.2831 134.909 78.0535 138.217 69.3419 125.621C60.5769 112.948 73.0611 95.4909 71.4994 80.0093C69.9225 64.3779 55.2545 50.5648 60.2577 35.5673C65.395 20.1676 81.2324 10.0213 96.5249 4.99313C110.953 0.249132 125.864 5.44893 140.425 9.20872C154.225 12.7721 169.948 14.7102 178.484 26.1556C186.832 37.3505 184.442 52.9844 183.605 67.111C182.89 79.1712 177.576 89.6651 174.032 101.255Z" fill="white" fill-opacity="0.2"/>
</g>
<path d="M155.671 60.3163C156.528 35.3935 138.836 14.6014 116.153 13.8761C93.47 13.1507 74.3867 32.7667 73.529 57.6895C72.6713 82.6124 90.3641 103.404 113.047 104.13C135.73 104.855 154.813 85.2392 155.671 60.3163Z" fill="#8CC754"/>
<path d="M96.8544 28.6986C103.433 28.6986 108.766 23.5576 108.766 17.216C108.766 10.8743 103.433 5.73334 96.8544 5.73334C90.2759 5.73334 84.9429 10.8743 84.9429 17.216C84.9429 23.5576 90.2759 28.6986 96.8544 28.6986Z" fill="#FBFBFB" stroke="#272727" stroke-miterlimit="10"/>
<path d="M96.5537 28.6986C101.467 28.6986 105.45 24.794 105.45 19.9776C105.45 15.1611 101.467 11.2566 96.5537 11.2566C91.6406 11.2566 87.6577 15.1611 87.6577 19.9776C87.6577 24.794 91.6406 28.6986 96.5537 28.6986Z" fill="#272727" stroke="#272727" stroke-miterlimit="10"/>
<path d="M126.558 28.6986C133.22 28.6986 138.62 23.5576 138.62 17.216C138.62 10.8743 133.22 5.73334 126.558 5.73334C119.896 5.73334 114.496 10.8743 114.496 17.216C114.496 23.5576 119.896 28.6986 126.558 28.6986Z" fill="#FBFBFB" stroke="#272727" stroke-miterlimit="10"/>
<path d="M113.893 103.699C128.049 103.699 139.525 92.1806 139.525 77.972C139.525 63.7634 128.049 52.2451 113.893 52.2451C99.7363 52.2451 88.2603 63.7634 88.2603 77.972C88.2603 92.1806 99.7363 103.699 113.893 103.699Z" fill="#72B236"/>
<path d="M126.256 28.6986C131.253 28.6986 135.303 24.794 135.303 19.9776C135.303 15.1611 131.253 11.2566 126.256 11.2566C121.26 11.2566 117.209 15.1611 117.209 19.9776C117.209 24.794 121.26 28.6986 126.256 28.6986Z" fill="#272727" stroke="#272727" stroke-miterlimit="10"/>
<path d="M98.4092 39.5234C101.214 41.7006 104.616 43.0429 108.199 43.3861C117.286 44.175 123.447 37.7743 124.212 36.9482" stroke="#006633" stroke-width="3" stroke-miterlimit="10"/>
<rect x="54.1611" y="104" width="76.528" height="23.3333" rx="10" fill="#2C3A6A"/>
<rect x="58.9873" y="98.2587" width="13.7888" height="9.33334" rx="2" fill="#2C3A6A"/>
<rect x="85.1865" y="98.2587" width="13.7888" height="9.33334" rx="2" fill="#2C3A6A"/>
<rect x="53" y="104" width="36.5404" height="23.3333" rx="10" fill="#465998"/>
<rect x="111.385" y="98.2587" width="13.7888" height="9.33334" rx="2" fill="#2C3A6A"/>
<rect x="113.913" y="75.3334" width="59.9814" height="20" rx="10" fill="#DF9300"/>
<rect x="117.694" y="68.2587" width="10.8075" height="8" rx="2" fill="#DF9300"/>
<rect x="111" y="75.403" width="29.6119" height="20.3582" rx="10" fill="#F6B028"/>
<rect x="138.229" y="68.2587" width="10.8075" height="8" rx="2" fill="#DF9300"/>
<rect x="158.763" y="68.2587" width="10.8075" height="8" rx="2" fill="#DF9300"/>
</g>
<defs>
<filter id="filter0_bi" x="12" y="-35" width="217.87" height="217.869" filterUnits="userSpaceOnUse" color-interpolation-filters="sRGB">
<feFlood flood-opacity="0" result="BackgroundImageFix"/>
<feGaussianBlur in="BackgroundImage" stdDeviation="5"/>
<feComposite in2="SourceAlpha" operator="in" result="effect1_backgroundBlur"/>
<feBlend mode="normal" in="SourceGraphic" in2="effect1_backgroundBlur" result="shape"/>
<feColorMatrix in="SourceAlpha" type="matrix" values="0 0 0 0 0 0 0 0 0 0 0 0 0 0 0 0 0 0 127 0" result="hardAlpha"/>
<feOffset/>
<feGaussianBlur stdDeviation="5"/>
<feComposite in2="hardAlpha" operator="arithmetic" k2="-1" k3="1"/>
<feColorMatrix type="matrix" values="0 0 0 0 1 0 0 0 0 1 0 0 0 0 1 0 0 0 0.2 0"/>
<feBlend mode="normal" in2="shape" result="effect2_innerShadow"/>
</filter>
<clipPath id="clip0">
<path d="M0 9C0 4.02943 4.02944 0 9 0H222C226.971 0 231 4.02944 231 9V129H0V9Z" fill="white"/>
</clipPath>
</defs>
</svg>
