<svg width="148" height="154" viewBox="0 0 148 154" fill="none" xmlns="http://www.w3.org/2000/svg">
<path d="M131.677 61.8692C132.597 34.156 113.631 11.0362 89.3173 10.2296C65.0033 9.42299 44.5475 31.2351 43.6282 58.9483C42.7089 86.6615 61.674 109.781 85.9881 110.588C110.302 111.394 130.758 89.5824 131.677 61.8692Z" fill="#8CC754"/>
<path d="M73.1311 42.0653C76.7025 43.3039 80.4726 43.8692 84.2502 43.7325C89.8002 43.4899 95.1826 41.7578 99.8324 38.718" stroke="#006633" stroke-width="4" stroke-miterlimit="10"/>
<path d="M68.6312 26.7117C75.6829 26.7117 81.3994 20.9952 81.3994 13.9435C81.3994 6.89181 75.6829 1.17529 68.6312 1.17529C61.5795 1.17529 55.863 6.89181 55.863 13.9435C55.863 20.9952 61.5795 26.7117 68.6312 26.7117Z" fill="#FBFBFB" stroke="#272727" stroke-miterlimit="10"/>
<path d="M68.3082 26.7116C73.5747 26.7116 77.844 22.3699 77.844 17.0142C77.844 11.6585 73.5747 7.31689 68.3082 7.31689C63.0418 7.31689 58.7725 11.6585 58.7725 17.0142C58.7725 22.3699 63.0418 26.7116 68.3082 26.7116Z" fill="#272727" stroke="#272727" stroke-miterlimit="10"/>
<path d="M100.47 26.7117C107.611 26.7117 113.4 20.9952 113.4 13.9435C113.4 6.89181 107.611 1.17529 100.47 1.17529C93.3294 1.17529 87.5405 6.89181 87.5405 13.9435C87.5405 20.9952 93.3294 26.7117 100.47 26.7117Z" fill="#FBFBFB" stroke="#272727" stroke-miterlimit="10"/>
<path d="M86.8949 110.109C102.069 110.109 114.371 97.3008 114.371 81.5015C114.371 65.7022 102.069 52.8943 86.8949 52.8943C71.7204 52.8943 59.4191 65.7022 59.4191 81.5015C59.4191 97.3008 71.7204 110.109 86.8949 110.109Z" fill="#72B236"/>
<path d="M100.147 26.7116C105.503 26.7116 109.844 22.3699 109.844 17.0142C109.844 11.6585 105.503 7.31689 100.147 7.31689C94.7912 7.31689 90.4495 11.6585 90.4495 17.0142C90.4495 22.3699 94.7912 26.7116 100.147 26.7116Z" fill="#272727" stroke="#272727" stroke-miterlimit="10"/>
<rect x="124.792" y="39.3145" width="15.7996" height="66.5839" rx="3" transform="rotate(25.5534 124.792 39.3145)" fill="#2C3A6A"/>
<rect x="128.355" y="41.0183" width="7.89978" height="66.5839" rx="3" transform="rotate(25.5534 128.355 41.0183)" fill="#586BAF"/>
<path d="M96.5868 94.8498C96.4454 93.3167 98.0167 92.2054 99.4151 92.8495L113.54 99.3551C114.938 99.9992 115.115 101.916 113.858 102.805L101.161 111.784C99.9045 112.673 98.1565 111.868 98.0151 110.335L96.5868 94.8498Z" fill="#9A968E"/>
<path d="M97.3943 105.17L105.658 108.976L98.2299 114.23L97.3943 105.17Z" fill="#EE9E15"/>
<circle cx="41.9638" cy="93.2624" r="22.6675" fill="#BE497A"/>
<circle cx="41.9641" cy="91.094" r="22.6675" fill="#DB538C"/>
<path d="M33.9951 76.3235L58.9647 90.7397L33.9951 105.156L33.9951 76.3235Z" fill="#FBFBFB"/>
<path d="M129.203 55.965C134.301 56.9912 134.806 55.8078 136.875 57.0657C138.308 57.9084 139.39 59.2394 139.921 60.8147C140.401 62.2123 140.339 63.7394 139.747 65.0934C138.456 67.8659 135.328 68.3045 134.897 68.3541C133.83 68.4866 131.43 68.4948 130.883 67.2121C130.445 66.1776 131.471 64.8782 131.545 64.7872C131.908 64.3566 132.352 64.0018 132.852 63.7433C133.352 63.4848 133.898 63.3277 134.459 63.281C134.517 63.4382 130.933 65.9045 127.714 65.0934C126.464 64.7872 124.883 63.8851 124.842 62.8009C124.792 61.4023 127.747 60.252 129.294 59.8464C130.208 59.6249 131.138 59.4782 132.075 59.4078C132.075 59.4078 128.235 60.5499 126.828 58.9692C126.1 58.1416 126.001 56.6271 126.696 56.0147C127.225 55.5181 128.111 55.7498 129.203 55.965Z" fill="#72B236" stroke="#72B236" stroke-width="0.25" stroke-miterlimit="10"/>
</svg>
