<svg width="130" height="110" viewBox="0 0 130 110" fill="none" xmlns="http://www.w3.org/2000/svg">
<rect width="116.259" height="85.1857" rx="10" fill="#131930"/>
<rect x="8.94214" y="6.62549" width="98.0849" height="71.9346" rx="10" fill="#2C3A6A"/>
<rect x="40.3879" y="85.1855" width="35.7721" height="11.0426" rx="5.52129" fill="#131930"/>
<rect x="40.3879" y="85.1855" width="9.80849" height="11.0426" rx="4.90424" fill="#2C3A6A"/>
<rect x="8.94214" y="96.2283" width="98.0849" height="5.99455" rx="2.99727" fill="#131930"/>
<rect x="8.94214" y="96.2283" width="10.6739" height="5.99455" rx="2.99727" fill="#2C3A6A"/>
<path d="M68.6665 46.023C69.2404 28.7237 57.4018 14.2917 42.2243 13.7882C27.0468 13.2847 14.2777 26.9004 13.7039 44.1998C13.13 61.4991 24.9686 75.9311 40.1461 76.4346C55.3236 76.9381 68.0926 63.3224 68.6665 46.023Z" fill="#8CC754"/>
<path d="M29.3129 24.1788C33.7414 24.1788 37.3315 20.5888 37.3315 16.1602C37.3315 11.7317 33.7414 8.1416 29.3129 8.1416C24.8843 8.1416 21.2943 11.7317 21.2943 16.1602C21.2943 20.5888 24.8843 24.1788 29.3129 24.1788Z" fill="#FBFBFB" stroke="#272727" stroke-miterlimit="10"/>
<path d="M29.6602 23.9883C32.9808 23.9883 35.6727 21.2964 35.6727 17.9757C35.6727 14.6551 32.9808 11.9631 29.6602 11.9631C26.3395 11.9631 23.6476 14.6551 23.6476 17.9757C23.6476 21.2964 26.3395 23.9883 29.6602 23.9883Z" fill="#272727" stroke="#272727" stroke-miterlimit="10"/>
<path d="M49.2051 24.1788C53.6336 24.1788 57.2237 20.5888 57.2237 16.1602C57.2237 11.7317 53.6336 8.1416 49.2051 8.1416C44.7765 8.1416 41.1864 11.7317 41.1864 16.1602C41.1864 20.5888 44.7765 24.1788 49.2051 24.1788Z" fill="#FBFBFB" stroke="#272727" stroke-miterlimit="10"/>
<path d="M40.6263 76.1345C50.09 76.1345 57.7619 68.1365 57.7619 58.2705C57.7619 48.4045 50.09 40.4065 40.6263 40.4065C31.1626 40.4065 23.4908 48.4045 23.4908 58.2705C23.4908 68.1365 31.1626 76.1345 40.6263 76.1345Z" fill="#72B236"/>
<path d="M49.5301 23.9883C52.8508 23.9883 55.5427 21.2964 55.5427 17.9757C55.5427 14.6551 52.8508 11.9631 49.5301 11.9631C46.2095 11.9631 43.5176 14.6551 43.5176 17.9757C43.5176 21.2964 46.2095 23.9883 49.5301 23.9883Z" fill="#272727" stroke="#272727" stroke-miterlimit="10"/>
<path d="M36.6755 32.9931C40.2043 32.9408 43.7036 32.3397 47.0476 31.2112" stroke="#006633" stroke-width="3" stroke-miterlimit="10"/>
<rect x="70.3008" y="109.643" width="38.9166" height="21.1138" rx="10" transform="rotate(-103.048 70.3008 109.643)" fill="#F6B028"/>
<rect x="109.431" y="100.575" width="38.9166" height="21.1138" rx="10" transform="rotate(-103.048 109.431 100.575)" fill="#F6B028"/>
<rect x="61.5147" y="71.7314" width="61.2814" height="25.2958" rx="10" transform="rotate(-13.048 61.5147 71.7314)" fill="#F6B028"/>
<rect x="64.2425" y="72.0979" width="55.6168" height="22.8635" rx="10" transform="rotate(-13.048 64.2425 72.0979)" fill="#EFC680"/>
<ellipse cx="78.613" cy="80.5022" rx="6.43713" ry="6.08072" transform="rotate(-13.048 78.613 80.5022)" fill="#2C3A6A"/>
<ellipse cx="106.55" cy="71.032" rx="2.31737" ry="2.18906" transform="rotate(-13.048 106.55 71.032)" fill="#FAFF00"/>
<ellipse cx="114.075" cy="69.2881" rx="2.31737" ry="2.18906" transform="rotate(-13.048 114.075 69.2881)" fill="#72B236"/>
<ellipse cx="115.722" cy="76.3965" rx="2.31737" ry="2.18906" transform="rotate(-13.048 115.722 76.3965)" fill="#2C3A6A"/>
<ellipse cx="108.197" cy="78.1404" rx="2.31737" ry="2.18906" transform="rotate(-13.048 108.197 78.1404)" fill="#EC671C"/>
<rect x="86.5209" y="72.4277" width="15.9641" height="10.7021" rx="5.35103" transform="rotate(-13.048 86.5209 72.4277)" fill="#269C95"/>
<rect x="87.6343" y="72.6689" width="14.4192" height="9.72915" rx="4.86458" transform="rotate(-13.048 87.6343 72.6689)" fill="#5DDAD2" fill-opacity="0.64"/>
<path d="M84.5835 19.93C85.049 18.4974 87.0756 18.4974 87.5411 19.93C87.7493 20.5706 88.3463 21.0044 89.0199 21.0044C90.5262 21.0044 91.1525 22.9319 89.9339 23.8173C89.3889 24.2132 89.1609 24.915 89.369 25.5557C89.8345 26.9883 88.1949 28.1795 86.9763 27.2941C86.4313 26.8982 85.6933 26.8982 85.1483 27.2941C83.9297 28.1795 82.2901 26.9883 82.7556 25.5557C82.9637 24.915 82.7357 24.2132 82.1907 23.8173C80.9721 22.9319 81.5984 21.0044 83.1047 21.0044C83.7783 21.0044 84.3753 20.5706 84.5835 19.93Z" fill="#FAFF00"/>
</svg>
