<svg width="230" height="129" viewBox="0 0 230 129" fill="none" xmlns="http://www.w3.org/2000/svg">
<g clip-path="url(#clip0)">
<path d="M230 9C230 4.02944 225.971 0 221 0H-2C-6.97057 0 -11 4.02944 -11 9V135H230V9Z" fill="#F6B028"/>
<path fill-rule="evenodd" clip-rule="evenodd" d="M200.517 45.7837C182.627 40.2321 167.008 22.339 148.786 27.5574C130.251 32.8657 115.151 51.8646 110.544 71.5508C106.219 90.0323 126.643 105.1 126.206 124.038C125.655 147.92 98.5552 170.039 107.773 191.608C116.474 211.968 144.335 220.014 165.365 215.668C185.563 211.493 189.858 179.812 208.671 170.753C227.635 161.622 255.881 182.895 269.042 165.746C281.442 149.589 261.665 127.098 257.506 107.121C253.993 90.2476 257.969 70.1533 246.591 57.9072C235.296 45.7506 216.071 50.61 200.517 45.7837Z" fill="#BD67D5"/>
<path fill-rule="evenodd" clip-rule="evenodd" d="M-40.9746 40.9084C-52.874 53.3351 -66.1037 66.2554 -66.0877 85.338C-66.072 104.122 -54.5157 123.887 -40.8913 140.319C-28.9341 154.74 -11.6775 161.44 4.39123 170.34C19.7976 178.874 34.8509 190.551 50.7686 191.088C67.2757 191.645 83.0709 185.61 91.3923 173.275C99.2682 161.601 91.1627 143.253 93.1216 128.31C95.3574 111.256 114.291 96.7298 103.629 79.9353C92.8328 62.9301 67.0469 71.8211 50.2003 60.7022C31.3282 48.2464 23.4374 17.8704 2.80625 13.3915C-17.1395 9.06131 -28.8667 28.2641 -40.9746 40.9084Z" fill="#DB538C"/>
<g filter="url(#filter0_bi)">
<path fill-rule="evenodd" clip-rule="evenodd" d="M58.8564 46.6115C47.2902 59.0155 25.9518 66.5868 25.6129 83.4788C25.2817 99.9841 46.0288 107.338 57.4044 118.977C68.0852 129.905 74.8356 148.212 90.0998 149.459C105.458 150.713 114.334 131.173 128.522 124.784C142.847 118.334 162.144 124.131 172.631 112.299C183.398 100.15 184.267 81.3613 180.975 65.6035C177.869 50.7361 165.911 40.4233 155.374 29.693C145.388 19.5232 135.848 6.8755 121.668 5.20642C107.799 3.57385 95.4547 13.4606 83.6394 21.2491C73.5524 27.8983 67.1216 37.7476 58.8564 46.6115Z" fill="white" fill-opacity="0.3"/>
</g>
<path d="M154.637 68.5075C155.515 42.026 137.415 19.9337 114.211 19.163C91.0066 18.3923 71.4846 39.235 70.6072 65.7164C69.7298 92.1979 87.8294 114.29 111.034 115.061C134.238 115.832 153.76 94.989 154.637 68.5075Z" fill="#8CC754"/>
<path d="M98.7637 49.5838C102.172 50.7674 105.77 51.3076 109.375 51.177C114.672 50.9451 119.809 49.29 124.246 46.3853" stroke="#006633" stroke-width="4" stroke-miterlimit="10"/>
<path d="M94.4691 34.9125C101.199 34.9125 106.655 29.4501 106.655 22.7118C106.655 15.9736 101.199 10.5111 94.4691 10.5111C87.7393 10.5111 82.2837 15.9736 82.2837 22.7118C82.2837 29.4501 87.7393 34.9125 94.4691 34.9125Z" fill="#FBFBFB" stroke="#272727" stroke-miterlimit="10"/>
<path d="M94.1608 34.9125C99.1868 34.9125 103.261 30.7638 103.261 25.6461C103.261 20.5284 99.1868 16.3798 94.1608 16.3798C89.1347 16.3798 85.0603 20.5284 85.0603 25.6461C85.0603 30.7638 89.1347 34.9125 94.1608 34.9125Z" fill="#272727" stroke="#272727" stroke-miterlimit="10"/>
<path d="M124.855 34.9125C131.67 34.9125 137.195 29.4501 137.195 22.7118C137.195 15.9736 131.67 10.5111 124.855 10.5111C118.04 10.5111 112.515 15.9736 112.515 22.7118C112.515 29.4501 118.04 34.9125 124.855 34.9125Z" fill="#FBFBFB" stroke="#272727" stroke-miterlimit="10"/>
<path d="M111.899 114.603C126.381 114.603 138.121 102.364 138.121 87.2672C138.121 72.1701 126.381 59.9315 111.899 59.9315C97.4174 59.9315 85.6775 72.1701 85.6775 87.2672C85.6775 102.364 97.4174 114.603 111.899 114.603Z" fill="#72B236"/>
<path d="M124.546 34.9125C129.658 34.9125 133.801 30.7638 133.801 25.6461C133.801 20.5284 129.658 16.3798 124.546 16.3798C119.435 16.3798 115.292 20.5284 115.292 25.6461C115.292 30.7638 119.435 34.9125 124.546 34.9125Z" fill="#272727" stroke="#272727" stroke-miterlimit="10"/>
<rect x="144.148" y="49.1392" width="15.7996" height="66.5839" rx="3" transform="rotate(25.5534 144.148 49.1392)" fill="#2C3A6A"/>
<rect x="147.711" y="50.843" width="7.89978" height="66.5839" rx="3" transform="rotate(25.5534 147.711 50.843)" fill="#586BAF"/>
<path d="M115.943 104.674C115.801 103.141 117.373 102.03 118.771 102.674L132.895 109.18C134.294 109.824 134.471 111.74 133.214 112.629L120.517 121.609C119.26 122.498 117.512 121.692 117.371 120.159L115.943 104.674Z" fill="#9A968E"/>
<path d="M116.75 114.995L125.014 118.801L117.586 124.055L116.75 114.995Z" fill="#EE9E15"/>
<circle cx="61.3198" cy="103.087" r="22.6675" fill="#AF832D"/>
<circle cx="61.3201" cy="100.919" r="22.6675" fill="#F6B028"/>
<path d="M53.351 86.148L78.3207 100.564L53.351 114.98L53.351 86.148Z" fill="#FBFBFB"/>
<path d="M152.276 62.8657C157.142 63.8464 157.624 62.7155 159.598 63.9175C160.966 64.7227 161.998 65.9946 162.505 67.4999C162.963 68.8353 162.904 70.2946 162.339 71.5884C161.107 74.2377 158.121 74.6568 157.71 74.7042C156.692 74.8308 154.401 74.8387 153.88 73.6129C153.461 72.6244 154.441 71.3828 154.512 71.2958C154.857 70.8843 155.281 70.5453 155.758 70.2983C156.235 70.0513 156.757 69.9012 157.292 69.8565C157.347 70.0068 153.927 72.3634 150.855 71.5884C149.662 71.2958 148.154 70.4338 148.114 69.3979C148.067 68.0614 150.886 66.9622 152.363 66.5747C153.235 66.363 154.123 66.2228 155.017 66.1555C155.017 66.1555 151.352 67.2469 150.01 65.7364C149.315 64.9456 149.22 63.4984 149.883 62.9132C150.389 62.4387 151.234 62.6601 152.276 62.8657Z" fill="#72B236" stroke="#72B236" stroke-width="0.25" stroke-miterlimit="10"/>
</g>
<defs>
<filter id="filter0_bi" x="0.130127" y="-30" width="217.87" height="217.869" filterUnits="userSpaceOnUse" color-interpolation-filters="sRGB">
<feFlood flood-opacity="0" result="BackgroundImageFix"/>
<feGaussianBlur in="BackgroundImage" stdDeviation="5"/>
<feComposite in2="SourceAlpha" operator="in" result="effect1_backgroundBlur"/>
<feBlend mode="normal" in="SourceGraphic" in2="effect1_backgroundBlur" result="shape"/>
<feColorMatrix in="SourceAlpha" type="matrix" values="0 0 0 0 0 0 0 0 0 0 0 0 0 0 0 0 0 0 127 0" result="hardAlpha"/>
<feOffset/>
<feGaussianBlur stdDeviation="5"/>
<feComposite in2="hardAlpha" operator="arithmetic" k2="-1" k3="1"/>
<feColorMatrix type="matrix" values="0 0 0 0 1 0 0 0 0 1 0 0 0 0 1 0 0 0 0.2 0"/>
<feBlend mode="normal" in2="shape" result="effect2_innerShadow"/>
</filter>
<clipPath id="clip0">
<path d="M230 9C230 4.02943 225.971 0 221 0H9C4.02943 0 0 4.02944 0 9V129H230V9Z" fill="white"/>
</clipPath>
</defs>
</svg>
