<svg width="231" height="129" viewBox="0 0 231 129" fill="none" xmlns="http://www.w3.org/2000/svg">
<g clip-path="url(#clip0)">
<path d="M231 9C231 4.02944 226.971 0 222 0H-1C-5.97057 0 -10 4.02944 -10 9V135H231V9Z" fill="#BD67D5"/>
<path fill-rule="evenodd" clip-rule="evenodd" d="M216.435 43.4941C200.741 38.8035 186.795 24.4774 171.015 28.2264C154.965 32.04 142.166 46.6545 138.522 62.0056C135.101 76.4174 153.182 88.6185 153.158 103.461C153.128 122.18 129.931 139.014 138.369 156.102C146.335 172.233 170.763 179.068 189.006 176.055C206.526 173.162 209.672 148.398 225.894 141.649C242.247 134.845 267.259 152.06 278.404 138.86C288.904 126.423 271.248 108.413 267.248 92.6684C263.869 79.3703 266.955 63.6872 256.81 53.8694C246.739 44.1234 230.078 47.572 216.435 43.4941Z" fill="#DB538C"/>
<path fill-rule="evenodd" clip-rule="evenodd" d="M-7.18288 35.1167C-20.7316 49.1927 -35.7343 63.886 -37.011 84.2613C-38.2678 104.318 -27.268 124.639 -13.834 141.261C-2.04387 155.85 15.9285 161.834 32.4833 170.248C48.3557 178.316 63.6379 189.764 80.5983 189.258C98.1869 188.733 115.462 181.218 125.184 167.484C134.385 154.484 126.974 135.442 130.079 119.353C133.623 100.99 154.825 84.1958 144.578 66.9855C134.204 49.5594 106.067 60.8015 88.8316 50.0708C69.5245 38.0501 63.1582 6.14964 41.4319 2.76579C20.4275 -0.505624 6.60315 20.7942 -7.18288 35.1167Z" fill="#F6B028"/>
<g filter="url(#filter0_bi)">
<path fill-rule="evenodd" clip-rule="evenodd" d="M39.4504 116.993C44.0951 134.786 37.0769 160.181 54.0375 168.723C70.6098 177.071 92.4124 159.521 112.11 153.59C130.604 148.021 153.897 150.035 165.7 135.102C177.574 120.078 163.809 101.56 167.097 84.0173C170.418 66.3049 189.634 49.4757 184.827 33.0595C179.891 16.2028 161.365 6.20067 143.053 1.90406C125.777 -2.14975 107.027 5.01785 88.8334 10.5356C71.5903 15.7652 52.1328 19.3381 40.6488 32.9616C29.4161 46.2871 30.9614 63.6506 30.736 79.4572C30.5435 92.9518 36.1314 104.278 39.4504 116.993Z" fill="white" fill-opacity="0.2"/>
</g>
<rect x="46" y="18" width="116.259" height="85.1857" rx="10" fill="#131930"/>
<rect x="54.9424" y="24.6256" width="98.0849" height="71.9346" rx="10" fill="#2C3A6A"/>
<rect x="86.3877" y="103.186" width="35.7721" height="11.0426" fill="#131930"/>
<rect x="86.3877" y="103.186" width="9.80849" height="11.0426" fill="#2C3A6A"/>
<rect x="54.9424" y="114.228" width="98.0849" height="5.99455" rx="2.99727" fill="#131930"/>
<rect x="54.9424" y="114.228" width="10.6739" height="5.99455" rx="2.99727" fill="#2C3A6A"/>
<path d="M150.678 61.1776C151.228 44.6471 139.881 30.8565 125.333 30.3754C110.785 29.8943 98.546 42.9049 97.996 59.4353C97.4459 75.9658 108.793 89.7564 123.341 90.2375C137.889 90.7186 150.128 77.7081 150.678 61.1776Z" fill="#8CC754"/>
<path d="M112.957 40.3042C117.202 40.3042 120.643 36.8737 120.643 32.642C120.643 28.4102 117.202 24.9797 112.957 24.9797C108.713 24.9797 105.271 28.4102 105.271 32.642C105.271 36.8737 108.713 40.3042 112.957 40.3042Z" fill="#FBFBFB" stroke="#272727" stroke-miterlimit="10"/>
<path d="M113.29 40.1222C116.473 40.1222 119.054 37.5499 119.054 34.3769C119.054 31.2038 116.473 28.6315 113.29 28.6315C110.108 28.6315 107.527 31.2038 107.527 34.3769C107.527 37.5499 110.108 40.1222 113.29 40.1222Z" fill="#272727" stroke="#272727" stroke-miterlimit="10"/>
<path d="M132.024 40.3042C136.269 40.3042 139.71 36.8737 139.71 32.642C139.71 28.4102 136.269 24.9797 132.024 24.9797C127.779 24.9797 124.338 28.4102 124.338 32.642C124.338 36.8737 127.779 40.3042 132.024 40.3042Z" fill="#FBFBFB" stroke="#272727" stroke-miterlimit="10"/>
<path d="M123.801 89.9508C132.872 89.9508 140.226 82.3083 140.226 72.8808C140.226 63.4532 132.872 55.8107 123.801 55.8107C114.73 55.8107 107.377 63.4532 107.377 72.8808C107.377 82.3083 114.73 89.9508 123.801 89.9508Z" fill="#72B236"/>
<path d="M132.336 40.1222C135.519 40.1222 138.099 37.5499 138.099 34.3769C138.099 31.2038 135.519 28.6315 132.336 28.6315C129.153 28.6315 126.573 31.2038 126.573 34.3769C126.573 37.5499 129.153 40.1222 132.336 40.1222Z" fill="#272727" stroke="#272727" stroke-miterlimit="10"/>
<path d="M120.015 48.7268C123.397 48.6768 126.751 48.1024 129.956 47.024" stroke="#006633" stroke-width="3" stroke-miterlimit="10"/>
<path d="M68.1906 35.9271C68.4899 35.0057 69.7933 35.0057 70.0927 35.9271L70.745 37.9347C70.8789 38.3468 71.2629 38.6257 71.6961 38.6257H73.8071C74.7758 38.6257 75.1786 39.8653 74.3949 40.4347L72.687 41.6756C72.3365 41.9302 72.1899 42.3816 72.3238 42.7936L72.9761 44.8013C73.2755 45.7226 72.221 46.4887 71.4373 45.9193L69.7294 44.6785C69.3789 44.4239 68.9043 44.4239 68.5538 44.6785L66.846 45.9193C66.0623 46.4887 65.0078 45.7226 65.3072 44.8013L65.9595 42.7936C66.0934 42.3816 65.9467 41.9302 65.5962 41.6756L63.8884 40.4347C63.1047 39.8653 63.5074 38.6257 64.4762 38.6257H66.5872C67.0204 38.6257 67.4044 38.3468 67.5382 37.9347L68.1906 35.9271Z" fill="#FAFF00"/>
<path d="M86.1906 35.9271C86.4899 35.0057 87.7933 35.0057 88.0927 35.9271L88.745 37.9347C88.8789 38.3468 89.2629 38.6257 89.6961 38.6257H91.8071C92.7758 38.6257 93.1786 39.8653 92.3949 40.4347L90.687 41.6756C90.3365 41.9302 90.1899 42.3816 90.3238 42.7936L90.9761 44.8013C91.2755 45.7226 90.221 46.4887 89.4373 45.9193L87.7294 44.6785C87.3789 44.4239 86.9043 44.4239 86.5538 44.6785L84.846 45.9193C84.0623 46.4887 83.0078 45.7226 83.3072 44.8013L83.9595 42.7936C84.0934 42.3816 83.9467 41.9302 83.5962 41.6756L81.8884 40.4347C81.1047 39.8653 81.5074 38.6257 82.4762 38.6257H84.5872C85.0204 38.6257 85.4044 38.3468 85.5382 37.9347L86.1906 35.9271Z" fill="#FAFF00"/>
<rect x="41" y="109.738" width="38.9166" height="21.1138" rx="10" transform="rotate(-75 41 109.738)" fill="#DB538C"/>
<rect x="79.7988" y="120.135" width="38.9166" height="21.1138" rx="10" transform="rotate(-75 79.7988 120.135)" fill="#DB538C"/>
<rect x="51.0723" y="72.1479" width="61.2814" height="25.2958" rx="10" transform="rotate(15 51.0723 72.1479)" fill="#DB538C"/>
<rect x="53.3076" y="73.754" width="55.6168" height="22.8635" rx="10" transform="rotate(15 53.3076 73.754)" fill="#B45C81"/>
<ellipse cx="62.0385" cy="87.9284" rx="6.43713" ry="6.08072" transform="rotate(15 62.0385 87.9284)" fill="#2C3A6A"/>
<ellipse cx="91.1469" cy="92.7064" rx="2.31737" ry="2.18906" transform="rotate(15 91.1469 92.7064)" fill="#FAFF00"/>
<ellipse cx="98.6079" cy="94.7056" rx="2.31737" ry="2.18906" transform="rotate(15 98.6079 94.7056)" fill="#72B236"/>
<ellipse cx="96.7197" cy="101.754" rx="2.31737" ry="2.18906" transform="rotate(15 96.7197 101.754)" fill="#2C3A6A"/>
<ellipse cx="89.2583" cy="99.7544" rx="2.31737" ry="2.18906" transform="rotate(15 89.2583 99.7544)" fill="#EC671C"/>
<rect x="72.814" y="84.5206" width="15.9641" height="10.7021" rx="5.35103" transform="rotate(15 72.814 84.5206)" fill="#269C95"/>
<rect x="73.6831" y="85.2571" width="14.4192" height="9.72915" rx="4.86458" transform="rotate(15 73.6831 85.2571)" fill="#5DDAD2" fill-opacity="0.64"/>
</g>
<defs>
<filter id="filter0_bi" x="-22" y="-42" width="258" height="247.143" filterUnits="userSpaceOnUse" color-interpolation-filters="sRGB">
<feFlood flood-opacity="0" result="BackgroundImageFix"/>
<feGaussianBlur in="BackgroundImage" stdDeviation="5"/>
<feComposite in2="SourceAlpha" operator="in" result="effect1_backgroundBlur"/>
<feBlend mode="normal" in="SourceGraphic" in2="effect1_backgroundBlur" result="shape"/>
<feColorMatrix in="SourceAlpha" type="matrix" values="0 0 0 0 0 0 0 0 0 0 0 0 0 0 0 0 0 0 127 0" result="hardAlpha"/>
<feOffset/>
<feGaussianBlur stdDeviation="5"/>
<feComposite in2="hardAlpha" operator="arithmetic" k2="-1" k3="1"/>
<feColorMatrix type="matrix" values="0 0 0 0 1 0 0 0 0 1 0 0 0 0 1 0 0 0 0.2 0"/>
<feBlend mode="normal" in2="shape" result="effect2_innerShadow"/>
</filter>
<clipPath id="clip0">
<path d="M231 0H9C4.02943 0 0 4.02944 0 9V129H231V0Z" fill="white"/>
</clipPath>
</defs>
</svg>
