<svg width="230" height="129" viewBox="0 0 230 129" fill="none" xmlns="http://www.w3.org/2000/svg">
<g clip-path="url(#clip0)">
<path d="M0 9C0 4.02944 4.02944 0 9 0H232C236.971 0 241 4.02944 241 9V135H0V9Z" fill="#BD67D5"/>
<path fill-rule="evenodd" clip-rule="evenodd" d="M-68.0208 81.001C-58.8564 65.3307 -49.5762 48.1677 -30.2097 42.6607C-11.1465 37.2399 12.2527 43.2445 32.8684 52.3122C50.9615 60.2703 62.7544 75.8403 76.4358 89.568C89.5532 102.73 105.758 114.624 110.91 130.619C116.253 147.206 114.701 164.98 104.595 176.993C95.0301 188.363 74.0675 185.449 59.473 191.762C42.8156 198.967 33.5573 222.381 13.431 216.424C-6.94768 210.393 -5.39005 181.656 -21.5478 167.781C-39.6481 152.238 -72.7525 153.024 -83.2685 133.387C-93.4351 114.403 -77.3457 96.9458 -68.0208 81.001Z" fill="#F6B028"/>
<path fill-rule="evenodd" clip-rule="evenodd" d="M132.217 106C130.61 87.3368 116.46 68.2607 125.445 51.5715C134.585 34.5951 156.367 23.8956 176.583 23.5936C195.562 23.31 205.927 46.4786 224.522 50.0911C247.972 54.6468 275.362 32.8887 294.468 46.4952C312.504 59.3391 314.422 88.2748 305.69 107.894C297.303 126.736 265.435 124.175 252.572 140.622C239.605 157.203 254.364 189.336 234.802 198.536C216.372 207.204 198.618 183.085 179.987 174.761C164.251 167.729 143.771 167.328 134.234 153.599C124.767 139.971 133.615 122.225 132.217 106Z" fill="#DB538C"/>
<g filter="url(#filter0_bi)">
<path fill-rule="evenodd" clip-rule="evenodd" d="M174.032 100.746C169.073 116.964 168.959 112.76 154.5 121.5C140.371 130.039 112.292 122.532 96.5248 118.5C81.7204 114.714 68.9691 126.596 60.2575 114C51.4926 101.327 73.061 94.9817 71.4992 79.5002C69.9224 63.8687 55.2544 50.0556 60.2575 35.0582C65.3949 19.6584 81.2323 9.51208 96.5248 4.48396C110.953 -0.260038 125.864 4.93976 140.425 8.69955C154.225 12.2629 169.948 14.201 178.483 25.6464C186.832 36.8414 184.442 52.4753 183.605 66.6018C182.89 78.662 177.575 89.1559 174.032 100.746Z" fill="white" fill-opacity="0.2"/>
</g>
<path d="M87.9026 26.867C83.7879 31.1777 83.2186 38.003 85.216 42.4839C90.659 54.6693 116.585 52.9961 124.745 52.4761C135.261 51.7955 143.72 51.2566 146.996 45.7548C152.768 36.1502 137.129 17.6027 135.291 18.3401C134.872 18.5102 135.551 19.5406 135.101 20.7034C132.415 27.576 99.2478 14.9936 87.9026 26.867Z" fill="#3A2222"/>
<path d="M160.849 76.2624C161.703 51.9926 143.612 31.7308 120.442 31.0065C97.2717 30.2822 77.7958 49.3697 76.9414 73.6396C76.0869 97.9095 94.1775 118.171 117.348 118.896C140.518 119.62 159.994 100.532 160.849 76.2624Z" fill="#8CC754"/>
<path d="M132.625 47.1348C139.385 47.1348 144.866 42.0983 144.866 35.8855C144.866 29.6727 139.385 24.6362 132.625 24.6362C125.864 24.6362 120.383 29.6727 120.383 35.8855C120.383 42.0983 125.864 47.1348 132.625 47.1348Z" fill="#FBFBFB" stroke="#272727" stroke-miterlimit="10"/>
<path d="M103.753 47.1348C110.514 47.1348 115.995 42.0983 115.995 35.8855C115.995 29.6727 110.514 24.6362 103.753 24.6362C96.992 24.6362 91.5112 29.6727 91.5112 35.8855C91.5112 42.0983 96.992 47.1348 103.753 47.1348Z" fill="#FBFBFB" stroke="#272727" stroke-miterlimit="10"/>
<path d="M143.984 93.8219C143.984 107.515 132.393 118.633 118.073 118.633C103.753 118.633 92.1633 107.515 92.1633 93.8219C92.1633 80.129 103.753 69.0106 118.073 69.0106C132.393 69.0106 143.984 80.129 143.984 93.8219Z" fill="url(#paint0_linear)" stroke="#75B539" stroke-width="0.5"/>
<path d="M104.437 46.891C109.506 46.891 113.616 43.1145 113.616 38.456C113.616 33.7975 109.506 30.021 104.437 30.021C99.3675 30.021 95.2578 33.7975 95.2578 38.456C95.2578 43.1145 99.3675 46.891 104.437 46.891Z" fill="#272727" stroke="#272727" stroke-miterlimit="10"/>
<path d="M132.034 46.891C137.104 46.891 141.213 43.1145 141.213 38.456C141.213 33.7975 137.104 30.021 132.034 30.021C126.965 30.021 122.855 33.7975 122.855 38.456C122.855 43.1145 126.965 46.891 132.034 46.891Z" fill="#272727" stroke="#272727" stroke-miterlimit="10"/>
<path d="M142.044 24.3368C141.485 24.416 140.916 24.3091 140.352 24.328C135.12 24.5036 130.122 26.8624 124.891 27.3877C116.981 28.176 103.609 31.8544 93.4319 39.643C87.3497 44.3348 84.1638 49.083 82.1165 48.0884C80.0691 47.0937 81.1178 41.8012 81.5372 39.643C82.451 33.5463 85.4847 27.9047 90.1661 23.5967C95.5092 18.8579 101.242 17.6098 107.634 16.2116C114.049 14.8222 120.686 14.5771 127.198 15.4891C133.81 16.3336 131.942 17.2814 139.283 18.5576C140.36 18.7423 142.213 19.0371 143.25 20.107C143.601 20.4691 143.89 20.9057 144.041 21.3868C144.104 21.5868 144.139 21.7951 144.142 22.0061C144.151 22.4682 144.012 22.9222 143.743 23.3096C143.475 23.697 143.089 24.0001 142.636 24.18C142.445 24.2557 142.246 24.3081 142.044 24.3368Z" fill="#9F2E2E"/>
<path d="M106.975 17.8521C107.583 16.1969 101.706 11.1945 97.5557 12.7017C96.4666 13.0901 95.0733 14.0887 95.1028 15.1891C95.1616 17.1123 99.577 18.749 103.207 18.7397C104.483 18.7305 106.661 18.7305 106.975 17.8521Z" fill="#3A2222"/>
<path d="M95.1023 56.645C101.254 61.7548 109.232 64.4595 117.416 64.2103C124.679 63.8806 131.638 61.3536 137.268 57.0017" stroke="#006633" stroke-width="3" stroke-miterlimit="10"/>
<path d="M167.421 103.052C177.349 90.2483 178.064 73.9913 169.017 66.7407C159.971 59.4901 144.589 63.9917 134.661 76.7952C124.732 89.5987 124.018 105.856 133.064 113.106C142.111 120.357 157.493 115.855 167.421 103.052Z" fill="#B17F4A"/>
<path d="M149.206 109.161C151.724 105.915 152.099 101.949 150.045 100.303C147.991 98.6566 144.285 99.9537 141.768 103.2C139.251 106.446 138.875 110.412 140.929 112.059C142.983 113.705 146.689 112.408 149.206 109.161Z" fill="#FBFBFB"/>
<path d="M156.787 77.7601C159.288 77.7601 161.316 75.758 161.316 73.2883C161.316 70.8186 159.288 68.8165 156.787 68.8165C154.285 68.8165 152.257 70.8186 152.257 73.2883C152.257 75.758 154.285 77.7601 156.787 77.7601Z" fill="#C21B1C"/>
<path d="M146.369 87.5979C149.121 87.5979 151.352 85.1954 151.352 82.2317C151.352 79.2681 149.121 76.8656 146.369 76.8656C143.618 76.8656 141.387 79.2681 141.387 82.2317C141.387 85.1954 143.618 87.5979 146.369 87.5979Z" fill="#DCDD25"/>
<path d="M168.563 90.2809C170.564 90.2809 172.186 88.6793 172.186 86.7035C172.186 84.7278 170.564 83.1261 168.563 83.1261C166.561 83.1261 164.939 84.7278 164.939 86.7035C164.939 88.6793 166.561 90.2809 168.563 90.2809Z" fill="#2E4697"/>
<path d="M159.051 102.802C161.803 102.802 164.034 100.399 164.034 97.4357C164.034 94.4721 161.803 92.0696 159.051 92.0696C156.3 92.0696 154.069 94.4721 154.069 97.4357C154.069 100.399 156.3 102.802 159.051 102.802Z" fill="#72B236"/>
<path d="M159.051 88.4922C160.802 88.4922 162.222 86.8906 162.222 84.9148C162.222 82.9391 160.802 81.3374 159.051 81.3374C157.3 81.3374 155.881 82.9391 155.881 84.9148C155.881 86.8906 157.3 88.4922 159.051 88.4922Z" fill="#752D87"/>
<path d="M142.688 95.1061C144.611 99.9377 145.834 99.7048 145.906 102.133C145.994 103.8 145.501 105.443 144.514 106.765C143.643 107.946 142.374 108.745 140.958 109.002C138.014 109.468 135.979 107.098 135.705 106.765C135.021 105.933 133.726 103.946 134.466 102.773C135.069 101.825 136.662 101.942 136.783 101.942C137.326 102.005 137.851 102.179 138.329 102.453C139.187 102.945 138.913 103.388 138.059 102.888C136.802 102.152 135.116 100.807 134.466 98.9065C134.048 97.6924 133.919 95.8712 134.772 95.2309C135.882 94.3993 138.4 96.2371 139.599 97.3099C140.272 97.9497 140.893 98.645 141.457 99.3888C141.457 99.3888 138.464 96.8109 138.979 94.7569C139.245 93.6924 140.452 92.786 141.296 92.9939C141.996 93.2184 142.278 94.05 142.688 95.1061Z" fill="#72B236" stroke="#72B236" stroke-width="0.25" stroke-miterlimit="10"/>
</g>
<defs>
<filter id="filter0_bi" x="14.7195" y="-35.5092" width="205.654" height="207.676" filterUnits="userSpaceOnUse" color-interpolation-filters="sRGB">
<feFlood flood-opacity="0" result="BackgroundImageFix"/>
<feGaussianBlur in="BackgroundImage" stdDeviation="5"/>
<feComposite in2="SourceAlpha" operator="in" result="effect1_backgroundBlur"/>
<feBlend mode="normal" in="SourceGraphic" in2="effect1_backgroundBlur" result="shape"/>
<feColorMatrix in="SourceAlpha" type="matrix" values="0 0 0 0 0 0 0 0 0 0 0 0 0 0 0 0 0 0 127 0" result="hardAlpha"/>
<feOffset/>
<feGaussianBlur stdDeviation="5"/>
<feComposite in2="hardAlpha" operator="arithmetic" k2="-1" k3="1"/>
<feColorMatrix type="matrix" values="0 0 0 0 1 0 0 0 0 1 0 0 0 0 1 0 0 0 0.2 0"/>
<feBlend mode="normal" in2="shape" result="effect2_innerShadow"/>
</filter>
<linearGradient id="paint0_linear" x1="118.073" y1="68.7606" x2="118.073" y2="118.883" gradientUnits="userSpaceOnUse">
<stop offset="0.427083" stop-color="#72B236"/>
</linearGradient>
<clipPath id="clip0">
<path d="M0 0H221C225.971 0 230 4.02944 230 9V129H0V0Z" fill="white"/>
</clipPath>
</defs>
</svg>
