<svg width="12" height="14" viewBox="0 0 12 14" fill="none" xmlns="http://www.w3.org/2000/svg">
<path d="M2.5 8.36304H1.5V10.5297C1.5 11.1255 1.95 11.613 2.5 11.613H4.5V10.5297H2.5V8.36304ZM2.5 2.94637H4.5V1.86304H2.5C1.95 1.86304 1.5 2.35054 1.5 2.94637V5.11304H2.5V2.94637ZM9.5 1.86304H7.5V2.94637H9.5V5.11304H10.5V2.94637C10.5 2.35054 10.05 1.86304 9.5 1.86304ZM9.5 10.5297H7.5V11.613H9.5C10.05 11.613 10.5 11.1255 10.5 10.5297V8.36304H9.5V10.5297ZM6 4.57137C4.895 4.57137 4 5.54095 4 6.73804C4 7.93512 4.895 8.9047 6 8.9047C7.105 8.9047 8 7.93512 8 6.73804C8 5.54095 7.105 4.57137 6 4.57137ZM6 7.82137C5.45 7.82137 5 7.33387 5 6.73804C5 6.1422 5.45 5.6547 6 5.6547C6.55 5.6547 7 6.1422 7 6.73804C7 7.33387 6.55 7.82137 6 7.82137Z" fill="#72B236"/>
</svg>
