<svg width="223" height="118" fill="none" xmlns="http://www.w3.org/2000/svg"><g clip-path="url(#clip0)"><path d="M12.567.214C16.425-.45 20.53.46 23.729 2.712c3.156 2.183 5.424 5.61 6.16 9.37.818 3.98-.068 8.276-2.423 11.593-2.516 3.62-6.694 6.04-11.105 6.374-4.232.38-8.587-1.142-11.65-4.076C2.045 23.469.35 19.97.059 16.327c-.366-4.02.996-8.152 3.676-11.179A15.116 15.116 0 0112.567.214z" fill="#F6B028"/><path d="M39.821.003h57.214c4.048-.025 8.048 1.803 10.674 4.872a13.976 13.976 0 013.402 8.338c.065 1.269.02 2.54.028 3.809-9.055-.02-18.126 2.017-26.213 6.096-8.923 4.453-16.558 11.181-22.753 18.928-9.6 12.048-16.062 26.33-20.259 41.07-3.156 11.255-5.049 22.909-5.103 34.611-7.57 0-15.142.003-22.715 0-3.665.014-7.306-1.476-9.899-4.059-2.626-2.565-4.172-6.186-4.191-9.851C0 82.449.006 61.079.003 39.711c5.374 3.26 11.822 4.687 18.075 4.015 7.129-.715 13.913-4.22 18.643-9.581 4.113-4.6 6.68-10.547 7.179-16.69A28.866 28.866 0 0039.821.003z" fill="#F6B028"/><path d="M89.27 36.701c6.157-3.429 13.141-5.373 20.191-5.575.981-.135 1.794.821 1.678 1.764.003 27.767.008 55.537-.003 83.307.057.883-.866 1.584-1.704 1.524-3.658.006-7.317.023-10.975-.008-.844.023-1.572-.745-1.552-1.572-.025-5.894 0-11.79-.008-17.683H58.653c-.009 5.719.01 11.441-.009 17.159.05 1.306-1.438 1.685-2.462 1.868-2.711.397-5.504.411-8.206-.042-.953-.183-2.285-.591-2.243-1.786-.025-8.361 0-16.72-.01-25.084.022-1.086-.108-2.23.34-3.254.378-.805 1.368-.968 2.167-.957 2.462 0 4.925.006 7.388 0 3.243-11.525 8.019-22.735 15.026-32.504C75.6 46.968 81.803 40.842 89.269 36.7zm-6.454 25.053c-6.068 7.069-9.992 15.722-12.547 24.608 8.874.003 17.75.003 26.628.003 0-11.908 0-23.812-.003-35.72a46.14 46.14 0 00-14.079 11.109zm37.854 7.092c2.418-.51 4.923-.513 7.371-.248.818.107 2.079.374 1.994 1.443.015 6.113 0 12.228.006 18.34 2.087-.01 4.338.217 6.217-.89 2.319-1.337 3.518-3.877 4.446-6.271 1.356-3.747 2.527-7.561 3.884-11.308.386-1.072 1.639-1.275 2.634-1.373 2.085-.14 4.201-.2 6.268.146.576.101 1.332.371 1.357 1.066.037 1.64-.705 3.156-1.241 4.67-1.377 3.49-2.556 7.063-4.102 10.484-1.407 3.097-3.686 6.048-7.037 7.156 1.672.72 3.297 1.643 4.558 2.976 1.907 1.998 3.117 4.526 4.161 7.05 1.342 3.373 2.674 6.748 4.014 10.121.488 1.302 1.131 2.585 1.261 3.989.062.486-.133 1.032-.615 1.232-1.103.489-2.342.492-3.526.548-1.676.012-3.377.068-5.024-.292-.725-.152-1.405-.63-1.622-1.359-1.408-3.913-2.827-7.82-4.245-11.727-.92-2.422-2.043-4.968-4.206-6.535-2.082-1.471-4.756-1.32-7.182-1.316-.011 6.582.017 13.167-.014 19.753-.003.841-.976 1.114-1.65 1.263-2.102.32-4.26.295-6.367.053-.908-.115-2.175-.517-2.033-1.665-.012-15.283-.006-30.564-.003-45.847-.079-.602.276-1.08.696-1.46zm45.158-.242c2.065-.234 4.169-.254 6.228.05.725.113 1.789.433 1.656 1.37 0 13.188 0 26.378-.003 39.568h14.807c-.006-12.808.005-25.615-.006-38.426.025-.582-.079-1.19.113-1.75.539-.72 1.526-.759 2.341-.877 1.98-.146 3.994-.194 5.952.171.657.119 1.512.504 1.385 1.317.009 13.187-.003 26.377.006 39.568 4.942-.006 9.887-.003 14.829-.003.002-13.185-.003-26.37.002-39.554-.11-1.114 1.227-1.322 2.051-1.446 2.082-.22 4.212-.253 6.285.099.682.118 1.644.467 1.515 1.336-.012 15.004.011 30.012-.012 45.016.04 1.354-1.035 2.684-2.443 2.676-17.945.022-35.891 0-53.837.011-.908.034-1.842-.377-2.344-1.142-.528-.777-.494-1.755-.522-2.65.011-14.636-.011-29.275.011-43.911-.07-1.075 1.174-1.31 1.986-1.423z" fill="#72B236"/></g><defs><clipPath id="clip0"><path fill="#fff" d="M0 0h223v118H0z"/></clipPath></defs></svg>