<svg width="230" height="129" fill="none" xmlns="http://www.w3.org/2000/svg"><g clip-path="url(#clip0)"><path d="M0 9a9 9 0 019-9h223a9 9 0 019 9v126H0V9z" fill="#DB538C"/><path fill-rule="evenodd" clip-rule="evenodd" d="M29.483 45.784c17.89-5.552 33.51-23.445 51.73-18.227 18.536 5.309 33.636 24.308 38.243 43.994 4.325 18.481-16.099 33.549-15.662 52.487.551 23.882 27.651 46.001 18.433 67.57-8.701 20.36-36.562 28.406-57.592 24.06-20.198-4.175-24.493-35.856-43.306-44.915-18.964-9.131-47.21 12.142-60.371-5.007-12.4-16.157 7.377-38.648 11.536-58.625 3.513-16.873-.463-36.968 10.915-49.214 11.295-12.156 30.52-7.297 46.074-12.123z" fill="#BD67D5"/><path fill-rule="evenodd" clip-rule="evenodd" d="M270.975 40.908c11.899 12.427 25.129 25.347 25.113 44.43-.016 18.784-11.572 38.549-25.197 54.981-11.957 14.421-29.214 21.121-45.282 30.021-15.407 8.534-30.46 20.211-46.378 20.748-16.507.557-32.302-5.478-40.623-17.813-7.876-11.674.229-30.022-1.73-44.965-2.235-17.054-21.169-31.58-10.507-48.375 10.796-17.005 36.582-8.114 53.429-19.233 18.872-12.456 26.763-42.832 47.394-47.31 19.945-4.33 31.673 14.872 43.781 27.516z" fill="#F6B028"/><g filter="url(#filter0_bi)"><path fill-rule="evenodd" clip-rule="evenodd" d="M171.144 46.611c11.566 12.405 32.904 19.976 33.243 36.868.331 16.505-20.416 23.859-31.791 35.498-10.681 10.928-17.432 29.235-32.696 30.482-15.358 1.254-24.234-18.286-38.422-24.675-14.325-6.45-33.622-.653-44.109-12.485-10.767-12.149-11.636-30.938-8.344-46.696 3.106-14.867 15.064-25.18 25.6-35.91 9.987-10.17 19.527-22.818 33.707-24.487 13.869-1.632 26.213 8.255 38.029 16.043 10.087 6.65 16.517 16.499 24.783 25.363z" fill="#fff" fill-opacity=".2"/></g><rect x="83.861" y="28.253" width="102.139" height="74.84" rx="10" fill="#131930"/><rect x="91.717" y="34.073" width="86.172" height="63.198" rx="10" fill="#2C3A6A"/><path fill="#131930" d="M119 103h31.427v9.701H119z"/><rect x="119.343" y="103.093" width="8.617" height="9.701" rx="4.309" fill="#2C3A6A"/><rect x="91.717" y="111.794" width="86.172" height="5.266" rx="2.633" fill="#131930"/><rect x="91.717" y="112.794" width="9.378" height="5.266" rx="2.633" fill="#2C3A6A"/><path d="M139.29 69.617c.88-26.552-17.268-48.703-40.534-49.475-23.266-.773-42.84 20.125-43.72 46.676-.879 26.552 17.269 48.703 40.535 49.476 23.265.773 42.839-20.125 43.719-46.677z" fill="#8CC754"/><path d="M78.962 35.933c6.748 0 12.218-5.477 12.218-12.233s-5.47-12.233-12.218-12.233S66.744 16.944 66.744 23.7s5.47 12.233 12.218 12.233z" fill="#FBFBFB" stroke="#272727" stroke-miterlimit="10"/><path d="M78.653 35.933c5.04 0 9.125-4.16 9.125-9.291s-4.086-9.291-9.125-9.291c-5.04 0-9.125 4.16-9.125 9.29 0 5.132 4.085 9.292 9.125 9.292z" fill="#272727" stroke="#272727" stroke-miterlimit="10"/><path d="M109.429 35.933c6.833 0 12.372-5.477 12.372-12.233s-5.539-12.233-12.372-12.233S97.056 16.944 97.056 23.7s5.54 12.233 12.373 12.233z" fill="#FBFBFB" stroke="#272727" stroke-miterlimit="10"/><path d="M96.438 115.835c14.521 0 26.292-12.271 26.292-27.408 0-15.138-11.771-27.409-26.292-27.409-14.52 0-26.291 12.271-26.291 27.409 0 15.137 11.771 27.408 26.291 27.408z" fill="#72B236"/><path d="M109.12 35.933c5.124 0 9.279-4.16 9.279-9.291s-4.155-9.291-9.279-9.291c-5.125 0-9.28 4.16-9.28 9.29 0 5.132 4.155 9.292 9.28 9.292z" fill="#272727" stroke="#272727" stroke-miterlimit="10"/><path d="M82.59 48.822a18.992 18.992 0 0010.042 4.115c9.321.841 15.64-5.978 16.424-6.858" stroke="#063" stroke-width="3" stroke-miterlimit="10"/><rect x="148" y="39" width="26" height="20" rx="10" fill="#EE9E15"/><rect x="149" y="65" width="10" height="27" rx="5" fill="#EE771A"/><rect x="166" y="77" width="10" height="15" rx="5" fill="#DCDD25"/></g><defs><clipPath id="clip0"><path d="M0 0h221a9 9 0 019 9v120H0V0z" fill="#fff"/></clipPath><filter id="filter0_bi" x="12" y="-30" width="217.87" height="217.869" filterUnits="userSpaceOnUse" color-interpolation-filters="sRGB"><feFlood flood-opacity="0" result="BackgroundImageFix"/><feGaussianBlur in="BackgroundImage" stdDeviation="5"/><feComposite in2="SourceAlpha" operator="in" result="effect1_backgroundBlur"/><feBlend in="SourceGraphic" in2="effect1_backgroundBlur" result="shape"/><feColorMatrix in="SourceAlpha" values="0 0 0 0 0 0 0 0 0 0 0 0 0 0 0 0 0 0 127 0" result="hardAlpha"/><feOffset/><feGaussianBlur stdDeviation="5"/><feComposite in2="hardAlpha" operator="arithmetic" k2="-1" k3="1"/><feColorMatrix values="0 0 0 0 1 0 0 0 0 1 0 0 0 0 1 0 0 0 0.2 0"/><feBlend in2="shape" result="effect2_innerShadow"/></filter></defs></svg>