<svg width="231" height="129" fill="none" xmlns="http://www.w3.org/2000/svg"><g clip-path="url(#clip0)"><path d="M231 9a9 9 0 00-9-9H-1a9 9 0 00-9 9v126h241V9z" fill="#BD67D5"/><path fill-rule="evenodd" clip-rule="evenodd" d="M216.435 43.494c-15.694-4.69-29.64-19.017-45.42-15.268-16.05 3.814-28.849 18.428-32.493 33.78-3.421 14.411 14.66 26.612 14.636 41.455-.03 18.719-23.227 35.553-14.789 52.641 7.966 16.131 32.394 22.966 50.637 19.953 17.52-2.893 20.666-27.657 36.888-34.406 16.353-6.804 41.365 10.411 52.51-2.789 10.5-12.437-7.156-30.447-11.156-46.192-3.379-13.298-.293-28.98-10.438-38.799-10.071-9.746-26.732-6.297-40.375-10.375z" fill="#DB538C"/><path fill-rule="evenodd" clip-rule="evenodd" d="M-7.183 35.117C-20.732 49.193-35.734 63.886-37.01 84.26c-1.257 20.057 9.743 40.378 23.177 57 11.79 14.589 29.762 20.573 46.317 28.987 15.873 8.068 31.155 19.516 48.115 19.01 17.589-.525 34.864-8.04 44.586-21.774 9.201-13 1.79-32.042 4.895-48.131 3.544-18.363 24.746-35.157 14.499-52.367-10.374-17.427-38.511-6.185-55.746-16.915C69.525 38.05 63.158 6.15 41.432 2.766 20.427-.506 6.603 20.794-7.183 35.116z" fill="#F6B028"/><g filter="url(#filter0_bi)"><path fill-rule="evenodd" clip-rule="evenodd" d="M39.45 116.993c4.645 17.793-2.373 43.188 14.587 51.73 16.573 8.348 38.375-9.202 58.073-15.133 18.494-5.569 41.787-3.555 53.59-18.488 11.874-15.024-1.891-33.542 1.397-51.085 3.321-17.712 22.537-34.541 17.73-50.957-4.936-16.857-23.462-26.86-41.774-31.156-17.276-4.054-36.026 3.114-54.22 8.632-17.243 5.23-36.7 8.802-48.184 22.426-11.233 13.325-9.688 30.689-9.913 46.495-.192 13.495 5.395 24.821 8.714 37.536z" fill="#fff" fill-opacity=".2"/></g><rect x="46" y="18" width="116.259" height="85.186" rx="10" fill="#131930"/><rect x="54.942" y="24.626" width="98.085" height="71.935" rx="10" fill="#2C3A6A"/><path fill="#131930" d="M86.388 103.186h35.772v11.043H86.388z"/><path fill="#2C3A6A" d="M86.388 103.186h9.808v11.043h-9.808z"/><rect x="54.942" y="114.228" width="98.085" height="5.995" rx="2.997" fill="#131930"/><rect x="54.942" y="114.228" width="10.674" height="5.995" rx="2.997" fill="#2C3A6A"/><path d="M150.678 61.178c.55-16.53-10.797-30.321-25.345-30.803-14.548-.48-26.787 12.53-27.337 29.06-.55 16.53 10.797 30.321 25.345 30.802 14.548.482 26.787-12.529 27.337-29.06z" fill="#8CC754"/><path d="M112.957 40.304c4.245 0 7.686-3.43 7.686-7.662 0-4.232-3.441-7.662-7.686-7.662-4.244 0-7.686 3.43-7.686 7.662 0 4.232 3.442 7.662 7.686 7.662z" fill="#FBFBFB" stroke="#272727" stroke-miterlimit="10"/><path d="M113.29 40.122c3.183 0 5.764-2.572 5.764-5.745s-2.581-5.746-5.764-5.746c-3.182 0-5.763 2.573-5.763 5.746 0 3.173 2.581 5.745 5.763 5.745z" fill="#272727" stroke="#272727" stroke-miterlimit="10"/><path d="M132.024 40.304c4.245 0 7.686-3.43 7.686-7.662 0-4.232-3.441-7.662-7.686-7.662s-7.686 3.43-7.686 7.662c0 4.232 3.441 7.662 7.686 7.662z" fill="#FBFBFB" stroke="#272727" stroke-miterlimit="10"/><path d="M123.801 89.95c9.071 0 16.425-7.642 16.425-17.07 0-9.427-7.354-17.07-16.425-17.07-9.071 0-16.424 7.643-16.424 17.07 0 9.428 7.353 17.07 16.424 17.07z" fill="#72B236"/><path d="M132.336 40.122c3.183 0 5.763-2.572 5.763-5.745s-2.58-5.746-5.763-5.746-5.763 2.573-5.763 5.746c0 3.173 2.58 5.745 5.763 5.745z" fill="#272727" stroke="#272727" stroke-miterlimit="10"/><path d="M120.015 48.727a32.69 32.69 0 009.941-1.703" stroke="#063" stroke-width="3" stroke-miterlimit="10"/><path d="M68.19 35.927c.3-.921 1.603-.921 1.903 0l.652 2.008a1 1 0 00.951.69h2.111c.969 0 1.372 1.24.588 1.81l-1.708 1.24a1 1 0 00-.363 1.119l.652 2.007c.3.922-.755 1.688-1.539 1.118l-1.708-1.24a1 1 0 00-1.175 0l-1.708 1.24c-.784.57-1.838-.196-1.539-1.118l.653-2.007a1 1 0 00-.364-1.118l-1.708-1.241c-.783-.57-.38-1.81.588-1.81h2.111a1 1 0 00.951-.69l.653-2.008zm18 0c.3-.921 1.603-.921 1.903 0l.652 2.008a1 1 0 00.951.69h2.111c.969 0 1.372 1.24.588 1.81l-1.708 1.24a1 1 0 00-.363 1.119l.652 2.007c.3.922-.755 1.688-1.539 1.118l-1.708-1.24a1 1 0 00-1.175 0l-1.708 1.24c-.784.57-1.838-.196-1.539-1.118l.653-2.007a1 1 0 00-.364-1.118l-1.708-1.241c-.783-.57-.38-1.81.588-1.81h2.111a1 1 0 00.951-.69l.653-2.008z" fill="#FAFF00"/><rect x="41" y="109.738" width="38.917" height="21.114" rx="10" transform="rotate(-75 41 109.738)" fill="#DB538C"/><rect x="79.799" y="120.135" width="38.917" height="21.114" rx="10" transform="rotate(-75 79.799 120.135)" fill="#DB538C"/><rect x="51.072" y="72.148" width="61.281" height="25.296" rx="10" transform="rotate(15 51.072 72.148)" fill="#DB538C"/><rect x="53.308" y="73.754" width="55.617" height="22.863" rx="10" transform="rotate(15 53.308 73.754)" fill="#B45C81"/><ellipse cx="62.038" cy="87.928" rx="6.437" ry="6.081" transform="rotate(15 62.038 87.928)" fill="#2C3A6A"/><ellipse cx="91.147" cy="92.706" rx="2.317" ry="2.189" transform="rotate(15 91.147 92.706)" fill="#FAFF00"/><ellipse cx="98.608" cy="94.706" rx="2.317" ry="2.189" transform="rotate(15 98.608 94.706)" fill="#72B236"/><ellipse cx="96.72" cy="101.754" rx="2.317" ry="2.189" transform="rotate(15 96.72 101.754)" fill="#2C3A6A"/><ellipse cx="89.258" cy="99.754" rx="2.317" ry="2.189" transform="rotate(15 89.258 99.754)" fill="#EC671C"/><rect x="72.814" y="84.521" width="15.964" height="10.702" rx="5.351" transform="rotate(15 72.814 84.52)" fill="#269C95"/><rect x="73.683" y="85.257" width="14.419" height="9.729" rx="4.865" transform="rotate(15 73.683 85.257)" fill="#5DDAD2" fill-opacity=".64"/></g><defs><clipPath id="clip0"><path d="M231 0H9a9 9 0 00-9 9v120h231V0z" fill="#fff"/></clipPath><filter id="filter0_bi" x="-22" y="-42" width="258" height="247.143" filterUnits="userSpaceOnUse" color-interpolation-filters="sRGB"><feFlood flood-opacity="0" result="BackgroundImageFix"/><feGaussianBlur in="BackgroundImage" stdDeviation="5"/><feComposite in2="SourceAlpha" operator="in" result="effect1_backgroundBlur"/><feBlend in="SourceGraphic" in2="effect1_backgroundBlur" result="shape"/><feColorMatrix in="SourceAlpha" values="0 0 0 0 0 0 0 0 0 0 0 0 0 0 0 0 0 0 127 0" result="hardAlpha"/><feOffset/><feGaussianBlur stdDeviation="5"/><feComposite in2="hardAlpha" operator="arithmetic" k2="-1" k3="1"/><feColorMatrix values="0 0 0 0 1 0 0 0 0 1 0 0 0 0 1 0 0 0 0.2 0"/><feBlend in2="shape" result="effect2_innerShadow"/></filter></defs></svg>