<svg width="231" height="129" fill="none" xmlns="http://www.w3.org/2000/svg"><g clip-path="url(#clip0)"><path d="M0 9a9 9 0 019-9h223a9 9 0 019 9v126H0V9z" fill="#F6B028"/><path fill-rule="evenodd" clip-rule="evenodd" d="M88.21 68.862c10.441 15.552 32.057 25.394 32.274 44.347.22 19.28-13.66 39.186-31.203 49.237-16.47 9.435-36.755-5.821-54.775.02-22.725 7.366-36.159 39.663-59.464 37.006-21.999-2.508-37.685-26.898-39.54-48.293-1.783-20.547 27.342-33.733 30.635-54.351 3.32-20.785-25.15-41.758-12.486-59.278 11.93-16.506 39.142-3.997 59.474-5.731 17.173-1.465 35.288-11.027 50.279-3.632 14.881 7.342 15.73 27.154 24.806 40.675z" fill="#DB538C"/><path fill-rule="evenodd" clip-rule="evenodd" d="M262.474 180.856c-15.737 6.954-32.391 14.992-50.327 8.476-17.655-6.413-32.301-24.011-43.109-42.418-9.486-16.154-9.907-34.661-12.801-52.8-2.775-17.393-8.626-35.523-3.709-50.672 5.1-15.71 16.154-28.504 30.586-32.126 13.658-3.429 28.148 10.442 42.864 13.69 16.797 3.708 36.903-9.145 49.061 6.6 12.311 15.944-4.832 37.158-.117 56.785 5.282 21.987 31.154 39.753 28.337 60.676-2.723 20.228-24.772 24.712-40.785 31.789z" fill="#BD67D5"/><g filter="url(#filter0_bi)"><path fill-rule="evenodd" clip-rule="evenodd" d="M174.032 101.255c-4.959 16.219-.847 38.484-15.306 47.223-14.129 8.54-30.871-5.751-46.639-9.783-14.804-3.786-34.034-.478-42.745-13.074-8.765-12.673 3.72-30.13 2.157-45.612-1.576-15.631-16.244-29.444-11.241-44.442 5.137-15.4 20.974-25.546 36.267-30.574 14.428-4.744 29.339.456 43.9 4.216 13.8 3.563 29.523 5.501 38.059 16.947 8.348 11.194 5.958 26.828 5.121 40.955-.715 12.06-6.029 22.554-9.573 34.144z" fill="#fff" fill-opacity=".2"/></g><path d="M155.671 60.316c.857-24.922-16.835-45.715-39.518-46.44-22.683-.725-41.766 18.89-42.624 43.814-.858 24.922 16.835 45.714 39.518 46.44 22.683.725 41.766-18.89 42.624-43.814z" fill="#8CC754"/><path d="M96.854 28.699c6.579 0 11.912-5.141 11.912-11.483 0-6.342-5.333-11.483-11.912-11.483-6.578 0-11.911 5.141-11.911 11.483 0 6.342 5.333 11.483 11.911 11.483z" fill="#FBFBFB" stroke="#272727" stroke-miterlimit="10"/><path d="M96.554 28.699c4.913 0 8.896-3.905 8.896-8.721 0-4.817-3.983-8.721-8.896-8.721s-8.896 3.904-8.896 8.72c0 4.817 3.983 8.722 8.896 8.722z" fill="#272727" stroke="#272727" stroke-miterlimit="10"/><path d="M126.558 28.699c6.662 0 12.062-5.141 12.062-11.483 0-6.342-5.4-11.483-12.062-11.483-6.662 0-12.062 5.141-12.062 11.483 0 6.342 5.4 11.483 12.062 11.483z" fill="#FBFBFB" stroke="#272727" stroke-miterlimit="10"/><path d="M113.893 103.699c14.156 0 25.632-11.518 25.632-25.727s-11.476-25.727-25.632-25.727c-14.157 0-25.633 11.518-25.633 25.727s11.476 25.727 25.633 25.727z" fill="#72B236"/><path d="M126.256 28.699c4.997 0 9.047-3.905 9.047-8.721 0-4.817-4.05-8.721-9.047-8.721-4.996 0-9.047 3.904-9.047 8.72 0 4.817 4.051 8.722 9.047 8.722z" fill="#272727" stroke="#272727" stroke-miterlimit="10"/><path d="M98.41 39.523a18.91 18.91 0 009.789 3.863c9.087.789 15.248-5.612 16.013-6.438" stroke="#063" stroke-width="3" stroke-miterlimit="10"/><rect x="54.161" y="104" width="76.528" height="23.333" rx="10" fill="#2C3A6A"/><rect x="58.987" y="98.259" width="13.789" height="9.333" rx="2" fill="#2C3A6A"/><rect x="85.186" y="98.259" width="13.789" height="9.333" rx="2" fill="#2C3A6A"/><rect x="53" y="104" width="36.54" height="23.333" rx="10" fill="#465998"/><rect x="111.385" y="98.259" width="13.789" height="9.333" rx="2" fill="#2C3A6A"/><rect x="113.913" y="75.333" width="59.981" height="20" rx="10" fill="#DF9300"/><rect x="117.694" y="68.259" width="10.807" height="8" rx="2" fill="#DF9300"/><rect x="111" y="75.403" width="29.612" height="20.358" rx="10" fill="#F6B028"/><rect x="138.229" y="68.259" width="10.807" height="8" rx="2" fill="#DF9300"/><rect x="158.763" y="68.259" width="10.807" height="8" rx="2" fill="#DF9300"/></g><defs><clipPath id="clip0"><path d="M0 9a9 9 0 019-9h213a9 9 0 019 9v120H0V9z" fill="#fff"/></clipPath><filter id="filter0_bi" x="12" y="-35" width="217.87" height="217.869" filterUnits="userSpaceOnUse" color-interpolation-filters="sRGB"><feFlood flood-opacity="0" result="BackgroundImageFix"/><feGaussianBlur in="BackgroundImage" stdDeviation="5"/><feComposite in2="SourceAlpha" operator="in" result="effect1_backgroundBlur"/><feBlend in="SourceGraphic" in2="effect1_backgroundBlur" result="shape"/><feColorMatrix in="SourceAlpha" values="0 0 0 0 0 0 0 0 0 0 0 0 0 0 0 0 0 0 127 0" result="hardAlpha"/><feOffset/><feGaussianBlur stdDeviation="5"/><feComposite in2="hardAlpha" operator="arithmetic" k2="-1" k3="1"/><feColorMatrix values="0 0 0 0 1 0 0 0 0 1 0 0 0 0 1 0 0 0 0.2 0"/><feBlend in2="shape" result="effect2_innerShadow"/></filter></defs></svg>