<svg width="230" height="129" fill="none" xmlns="http://www.w3.org/2000/svg"><g clip-path="url(#clip0)"><path d="M0 9a9 9 0 019-9h223a9 9 0 019 9v126H0V9z" fill="#BD67D5"/><path fill-rule="evenodd" clip-rule="evenodd" d="M-68.02 81.001c9.164-15.67 18.444-32.833 37.81-38.34 19.064-5.421 42.463.584 63.078 9.651C50.961 60.27 62.754 75.84 76.436 89.568c13.117 13.162 29.322 25.056 34.474 41.051 5.343 16.587 3.791 34.361-6.315 46.374-9.565 11.37-30.528 8.456-45.122 14.769-16.657 7.205-25.916 30.619-46.042 24.662-20.379-6.031-18.821-34.768-34.979-48.643-18.1-15.543-51.204-14.757-61.72-34.394-10.167-18.984 5.922-36.441 15.247-52.386z" fill="#F6B028"/><path fill-rule="evenodd" clip-rule="evenodd" d="M132.217 106c-1.607-18.663-15.757-37.74-6.772-54.428 9.14-16.977 30.922-27.676 51.138-27.978 18.979-.284 29.344 22.885 47.939 26.497 23.45 4.556 50.84-17.202 69.946-3.596 18.036 12.844 19.954 41.78 11.222 61.399-8.387 18.842-40.255 16.281-53.118 32.728-12.967 16.581 1.792 48.714-17.77 57.914-18.43 8.668-36.184-15.451-54.815-23.775-15.736-7.032-36.216-7.433-45.753-21.162-9.467-13.628-.619-31.374-2.017-47.599z" fill="#DB538C"/><g filter="url(#filter0_bi)"><path fill-rule="evenodd" clip-rule="evenodd" d="M174.032 100.746c-4.959 16.218-5.073 12.014-19.532 20.754-14.129 8.539-42.208 1.032-57.975-3-14.805-3.786-27.556 8.096-36.268-4.5-8.764-12.673 12.804-19.018 11.242-34.5-1.577-15.631-16.245-29.444-11.241-44.442 5.137-15.4 20.974-25.546 36.267-30.574 14.428-4.744 29.339.456 43.9 4.216 13.8 3.563 29.523 5.501 38.058 16.946 8.349 11.195 5.959 26.83 5.122 40.956-.715 12.06-6.03 22.554-9.573 34.144z" fill="#fff" fill-opacity=".2"/></g><path d="M87.903 26.867c-4.115 4.31-4.684 11.136-2.687 15.617 5.443 12.185 31.369 10.512 39.529 9.992 10.516-.68 18.975-1.22 22.251-6.721 5.772-9.605-9.867-28.152-11.705-27.415-.419.17.26 1.2-.19 2.363-2.686 6.873-35.853-5.71-47.198 6.164z" fill="#3A2222"/><path d="M160.849 76.262c.854-24.27-17.237-44.531-40.407-45.255-23.17-.725-42.646 18.363-43.5 42.633-.855 24.27 17.236 44.531 40.406 45.256 23.17.724 42.646-18.364 43.501-42.634z" fill="#8CC754"/><path d="M132.625 47.135c6.76 0 12.241-5.037 12.241-11.25 0-6.212-5.481-11.249-12.241-11.249-6.761 0-12.242 5.037-12.242 11.25 0 6.212 5.481 11.249 12.242 11.249zm-28.872 0c6.761 0 12.242-5.037 12.242-11.25 0-6.212-5.481-11.249-12.242-11.249-6.761 0-12.242 5.037-12.242 11.25 0 6.212 5.481 11.249 12.242 11.249z" fill="#FBFBFB" stroke="#272727" stroke-miterlimit="10"/><path d="M143.984 93.822c0 13.693-11.591 24.811-25.911 24.811-14.32 0-25.91-11.118-25.91-24.811s11.59-24.811 25.91-24.811 25.911 11.118 25.911 24.81z" fill="url(#paint0_linear)" stroke="#75B539" stroke-width=".5"/><path d="M104.437 46.891c5.069 0 9.179-3.776 9.179-8.435 0-4.659-4.11-8.435-9.179-8.435-5.07 0-9.18 3.776-9.18 8.435 0 4.658 4.11 8.435 9.18 8.435zm27.597 0c5.07 0 9.179-3.776 9.179-8.435 0-4.659-4.109-8.435-9.179-8.435-5.069 0-9.179 3.776-9.179 8.435 0 4.658 4.11 8.435 9.179 8.435z" fill="#272727" stroke="#272727" stroke-miterlimit="10"/><path d="M142.044 24.337c-.559.079-1.128-.028-1.692-.009-5.232.176-10.23 2.534-15.461 3.06-7.91.788-21.282 4.466-31.46 12.255-6.081 4.692-9.267 9.44-11.314 8.445-2.048-.994-1-6.287-.58-8.445.914-6.097 3.948-11.738 8.63-16.046 5.342-4.74 11.075-5.987 17.467-7.385a55.896 55.896 0 0119.564-.723c6.612.845 4.744 1.792 12.085 3.069 1.077.184 2.93.48 3.967 1.549.351.362.64.799.791 1.28a2.207 2.207 0 01-.298 1.923c-.268.387-.654.69-1.107.87a2.6 2.6 0 01-.592.157z" fill="#9F2E2E"/><path d="M106.975 17.852c.608-1.655-5.269-6.658-9.42-5.15-1.088.388-2.482 1.387-2.452 2.487.059 1.923 4.474 3.56 8.104 3.55 1.276-.009 3.454-.009 3.768-.887z" fill="#3A2222"/><path d="M95.102 56.645c6.152 5.11 14.13 7.815 22.314 7.565 7.263-.33 14.222-2.856 19.852-7.208" stroke="#063" stroke-width="3" stroke-miterlimit="10"/><path d="M167.421 103.052c9.928-12.804 10.643-29.06 1.596-36.311-9.046-7.25-24.428-2.75-34.356 10.054-9.929 12.804-10.643 29.061-1.597 36.311 9.047 7.251 24.429 2.749 34.357-10.054z" fill="#B17F4A"/><path d="M149.206 109.161c2.518-3.246 2.893-7.212.839-8.858-2.054-1.646-5.76-.35-8.277 2.897-2.517 3.246-2.893 7.212-.839 8.859 2.054 1.646 5.76.349 8.277-2.898z" fill="#FBFBFB"/><path d="M156.787 77.76c2.501 0 4.529-2.002 4.529-4.472 0-2.47-2.028-4.471-4.529-4.471-2.502 0-4.53 2.002-4.53 4.471 0 2.47 2.028 4.472 4.53 4.472z" fill="#C21B1C"/><path d="M146.369 87.598c2.752 0 4.983-2.403 4.983-5.366 0-2.964-2.231-5.366-4.983-5.366-2.751 0-4.982 2.402-4.982 5.366 0 2.963 2.231 5.366 4.982 5.366z" fill="#DCDD25"/><path d="M168.563 90.28c2.001 0 3.623-1.6 3.623-3.576s-1.622-3.578-3.623-3.578c-2.002 0-3.624 1.602-3.624 3.578 0 1.975 1.622 3.577 3.624 3.577z" fill="#2E4697"/><path d="M159.051 102.802c2.752 0 4.983-2.403 4.983-5.366 0-2.964-2.231-5.366-4.983-5.366-2.751 0-4.982 2.402-4.982 5.366 0 2.963 2.231 5.366 4.982 5.366z" fill="#72B236"/><path d="M159.051 88.492c1.751 0 3.171-1.601 3.171-3.577s-1.42-3.578-3.171-3.578-3.17 1.602-3.17 3.578c0 1.976 1.419 3.577 3.17 3.577z" fill="#752D87"/><path d="M142.688 95.106c1.923 4.832 3.146 4.599 3.218 7.027a7.12 7.12 0 01-1.392 4.632 5.687 5.687 0 01-3.556 2.237c-2.944.466-4.979-1.904-5.253-2.237-.684-.832-1.979-2.819-1.239-3.992.603-.948 2.196-.831 2.317-.831a4.045 4.045 0 011.546.511c.858.492.584.935-.27.435-1.257-.736-2.943-2.081-3.593-3.982-.418-1.214-.547-3.035.306-3.675 1.11-.832 3.628 1.006 4.827 2.079.673.64 1.294 1.335 1.858 2.079 0 0-2.993-2.578-2.478-4.632.266-1.065 1.473-1.971 2.317-1.763.7.224.982 1.056 1.392 2.112z" fill="#72B236" stroke="#72B236" stroke-width=".25" stroke-miterlimit="10"/></g><defs><linearGradient id="paint0_linear" x1="118.073" y1="68.761" x2="118.073" y2="118.883" gradientUnits="userSpaceOnUse"><stop offset=".427" stop-color="#72B236"/></linearGradient><clipPath id="clip0"><path d="M0 0h221a9 9 0 019 9v120H0V0z" fill="#fff"/></clipPath><filter id="filter0_bi" x="14.72" y="-35.509" width="205.654" height="207.676" filterUnits="userSpaceOnUse" color-interpolation-filters="sRGB"><feFlood flood-opacity="0" result="BackgroundImageFix"/><feGaussianBlur in="BackgroundImage" stdDeviation="5"/><feComposite in2="SourceAlpha" operator="in" result="effect1_backgroundBlur"/><feBlend in="SourceGraphic" in2="effect1_backgroundBlur" result="shape"/><feColorMatrix in="SourceAlpha" values="0 0 0 0 0 0 0 0 0 0 0 0 0 0 0 0 0 0 127 0" result="hardAlpha"/><feOffset/><feGaussianBlur stdDeviation="5"/><feComposite in2="hardAlpha" operator="arithmetic" k2="-1" k3="1"/><feColorMatrix values="0 0 0 0 1 0 0 0 0 1 0 0 0 0 1 0 0 0 0.2 0"/><feBlend in2="shape" result="effect2_innerShadow"/></filter></defs></svg>