<svg width="230" height="129" fill="none" xmlns="http://www.w3.org/2000/svg"><g clip-path="url(#clip0)"><path d="M0 9a9 9 0 019-9h223a9 9 0 019 9v126H0V9z" fill="#BD67D5"/><path fill-rule="evenodd" clip-rule="evenodd" d="M14.565 43.494c15.694-4.69 29.64-19.017 45.42-15.268 16.05 3.814 28.85 18.428 32.493 33.78 3.42 14.411-14.66 26.612-14.636 41.455.03 18.719 23.227 35.553 14.789 52.641-7.966 16.131-32.394 22.966-50.637 19.953-17.52-2.893-20.666-27.657-36.888-34.406-16.352-6.804-41.365 10.411-52.51-2.789-10.5-12.437 7.156-30.447 11.156-46.192 3.379-13.298.293-28.98 10.438-38.799 10.07-9.746 26.732-6.297 40.375-10.375z" fill="#F6B028"/><path fill-rule="evenodd" clip-rule="evenodd" d="M238.183 35.117c13.549 14.076 28.551 28.769 29.828 49.144 1.257 20.057-9.743 40.378-23.177 57-11.79 14.589-29.763 20.573-46.317 28.987-15.873 8.068-31.155 19.516-48.115 19.01-17.589-.525-34.864-8.04-44.586-21.774-9.201-13-1.79-32.042-4.895-48.131-3.544-18.363-24.746-35.157-14.5-52.367 10.375-17.427 38.512-6.185 55.747-16.915 19.307-12.02 25.674-43.921 47.4-47.305 21.005-3.272 34.829 18.028 48.615 32.35z" fill="#DB538C"/><g filter="url(#filter0_bi)"><path fill-rule="evenodd" clip-rule="evenodd" d="M168.476 105.746c-5.034 16.768 1.6 7.341-13.476 16.254-14.731 8.709-38.42 4.344-55 0-15.567-4.079-37.732 13.152-47 0-9.325-13.232 9.508-23.274 7.71-39.344-1.816-16.226-17.344-30.702-12.251-46.202 5.23-15.916 21.736-26.274 37.725-31.33 15.085-4.77 30.778.776 46.09 4.825 14.513 3.838 19.655 14.548 28.726 26.505 8.873 11.696 17.897 19.344 17.165 33.985-.625 12.499-6.091 23.326-9.689 35.307z" fill="#fff" fill-opacity=".3"/></g><path d="M79.994 21.166c-4.119 4.32-4.689 11.16-2.69 15.651 5.449 12.213 31.4 10.536 39.567 10.015 10.527-.682 18.994-1.222 22.273-6.736 5.778-9.626-9.877-28.215-11.716-27.476-.42.17.26 1.203-.19 2.368-2.689 6.888-35.888-5.722-47.244 6.178z" fill="#3A2222"/><path d="M153.01 70.671c.855-24.324-17.253-44.63-40.445-45.357-23.193-.726-42.688 18.404-43.543 42.728-.855 24.324 17.253 44.631 40.446 45.357 23.192.726 42.687-18.404 43.542-42.728z" fill="#8CC754"/><path d="M124.759 41.479c6.768 0 12.254-5.048 12.254-11.275 0-6.226-5.486-11.274-12.254-11.274-6.767 0-12.253 5.048-12.253 11.274 0 6.227 5.486 11.275 12.253 11.275zm-28.899 0c6.767 0 12.253-5.048 12.253-11.275 0-6.226-5.486-11.274-12.254-11.274-6.767 0-12.253 5.048-12.253 11.274 0 6.227 5.486 11.275 12.254 11.275z" fill="#FBFBFB" stroke="#272727" stroke-miterlimit="10"/><path d="M136.129 88.27c0 13.724-11.601 24.867-25.935 24.867-14.334 0-25.936-11.143-25.936-24.867s11.602-24.867 25.936-24.867 25.935 11.143 25.935 24.867z" fill="#75B539" stroke="#75B539" stroke-width=".5"/><path d="M96.544 41.234c5.075 0 9.188-3.785 9.188-8.453 0-4.67-4.113-8.454-9.188-8.454-5.074 0-9.188 3.785-9.188 8.454 0 4.669 4.114 8.453 9.189 8.453zm27.624 0c5.074 0 9.188-3.785 9.188-8.453 0-4.67-4.114-8.454-9.188-8.454-5.074 0-9.188 3.785-9.188 8.454 0 4.669 4.114 8.453 9.188 8.453z" fill="#272727" stroke="#272727" stroke-miterlimit="10"/><path d="M134.188 18.63c-.559.08-1.129-.028-1.694-.009-5.237.176-10.239 2.54-15.476 3.067-7.917.79-21.303 4.476-31.49 12.282-6.087 4.703-9.276 9.461-11.326 8.464-2.049-.996-1-6.3-.58-8.464.915-6.11 3.952-11.764 8.638-16.082 5.348-4.75 11.086-6 17.484-7.401a55.887 55.887 0 0119.584-.724c6.618.846 4.748 1.796 12.096 3.075 1.078.185 2.934.48 3.972 1.554.351.362.639.799.79 1.28.064.2.098.41.102.622a2.22 2.22 0 01-.399 1.306 2.442 2.442 0 01-1.109.873c-.19.076-.39.128-.592.157z" fill="#9F2E2E"/><path d="M99.085 12.13c.609-1.658-5.274-6.672-9.429-5.161-1.09.39-2.485 1.39-2.455 2.493.059 1.927 4.478 3.568 8.112 3.559 1.277-.01 3.457-.01 3.772-.89z" fill="#3A2222"/><path d="M87.2 51.01c6.159 5.121 14.144 7.832 22.336 7.582 7.27-.33 14.236-2.863 19.871-7.224" stroke="#063" stroke-width="3" stroke-miterlimit="10"/><rect width="68.991" height="40.278" rx="10" transform="matrix(.99873 .05037 -.05976 .99821 65.407 84.622)" fill="#C4C4C4"/><rect width="63.894" height="33.172" rx="10" transform="matrix(.99873 .05037 -.05976 .99821 67.637 88.097)" fill="#DFDFDF"/><rect width="13.956" height="55.733" rx="6.978" transform="matrix(.91572 .40182 -.46202 .88687 166.575 61.71)" fill="#2C3A6A"/><rect width="6.978" height="55.733" rx="3.489" transform="matrix(.91572 .40182 -.46202 .88687 169.77 63.112)" fill="#586BAF"/><path d="M141.909 113.579c-.408-4.062 4.013-6.932 8.05-5.225 4.125 1.743 4.752 6.935 1.122 9.292-3.63 2.356-8.755.084-9.172-4.067z" fill="#9A968E"/><path d="M142.379 119.545c-.166-1.644 1.624-2.805 3.258-2.115 1.67.706 1.924 2.808.454 3.761-1.469.954-3.543.034-3.712-1.646z" fill="#EE9E15"/></g><defs><clipPath id="clip0"><path d="M0 9a9 9 0 019-9h212a9 9 0 019 9v120H0V9z" fill="#fff"/></clipPath><filter id="filter0_bi" x="1.361" y="-31.103" width="212.742" height="211.512" filterUnits="userSpaceOnUse" color-interpolation-filters="sRGB"><feFlood flood-opacity="0" result="BackgroundImageFix"/><feGaussianBlur in="BackgroundImage" stdDeviation="5"/><feComposite in2="SourceAlpha" operator="in" result="effect1_backgroundBlur"/><feBlend in="SourceGraphic" in2="effect1_backgroundBlur" result="shape"/><feColorMatrix in="SourceAlpha" values="0 0 0 0 0 0 0 0 0 0 0 0 0 0 0 0 0 0 127 0" result="hardAlpha"/><feOffset/><feGaussianBlur stdDeviation="5"/><feComposite in2="hardAlpha" operator="arithmetic" k2="-1" k3="1"/><feColorMatrix values="0 0 0 0 1 0 0 0 0 1 0 0 0 0 1 0 0 0 0.2 0"/><feBlend in2="shape" result="effect2_innerShadow"/></filter></defs></svg>