<svg width="230" height="129" fill="none" xmlns="http://www.w3.org/2000/svg"><g clip-path="url(#clip0)"><path d="M0 9a9 9 0 019-9h223a9 9 0 019 9v126H0V9z" fill="#F6B028"/><path fill-rule="evenodd" clip-rule="evenodd" d="M275.838 68.862c10.441 15.552 32.057 25.394 32.274 44.347.22 19.28-13.66 39.186-31.204 49.237-16.469 9.435-36.754-5.821-54.774.02-22.725 7.366-36.159 39.663-59.464 37.006-21.999-2.508-37.685-26.898-39.541-48.293-1.782-20.547 27.343-33.733 30.636-54.351 3.32-20.785-25.149-41.758-12.486-59.278 11.931-16.506 39.142-3.997 59.474-5.731 17.173-1.465 35.288-11.027 50.279-3.632 14.881 7.342 15.729 27.154 24.806 40.675z" fill="#BD67D5"/><path fill-rule="evenodd" clip-rule="evenodd" d="M44.754 180.856c-15.737 6.954-32.391 14.992-50.327 8.476-17.655-6.413-32.301-24.011-43.11-42.418-9.485-16.154-9.906-34.661-12.8-52.8-2.775-17.393-8.626-35.523-3.709-50.672 5.1-15.71 32.26 14.18 46.692 10.558 13.659-3.428 16.284-27.748 31-24.5 16.797 3.708 32.661-13.639 44.82 2.107 12.31 15.943-4.833 37.157-.118 56.784 5.282 21.987 31.154 39.753 28.337 60.676-2.723 20.228-24.773 24.712-40.785 31.789z" fill="#DB538C"/><g filter="url(#filter0_bi)"><path fill-rule="evenodd" clip-rule="evenodd" d="M65.438 48.966c2.034-15.03-5.095-34.28 6.71-43.876 11.533-9.376 28.92 1.188 43.858 2.767 14.026 1.482 30.991-3.896 40.824 6.183 9.893 10.14 1.212 27.226 4.99 40.775 3.814 13.68 19.244 24.084 16.985 38.036-2.321 14.327-15.162 25.347-28.288 31.753-12.385 6.044-26.722 3.32-40.523 1.83-13.08-1.412-27.659-1.137-37.156-10.217-9.29-8.881-9.501-23.066-10.893-35.717-1.188-10.8 2.04-20.792 3.493-31.534z" fill="#fff" fill-opacity=".2"/></g><path d="M152.866 62.68c.804-24.257-15.775-44.494-37.03-45.2-21.255-.706-39.137 18.386-39.94 42.643-.805 24.257 15.775 44.493 37.029 45.199 21.255.706 39.137-18.386 39.941-42.642z" fill="#8CC754"/><path d="M97.751 32.043c6.202 0 11.23-5.034 11.23-11.244s-5.028-11.243-11.23-11.243c-6.201 0-11.229 5.034-11.229 11.243 0 6.21 5.028 11.244 11.23 11.244z" fill="#FBFBFB" stroke="#272727" stroke-miterlimit="10"/><path d="M97.461 31.783c4.65 0 8.42-3.774 8.42-8.43s-3.77-8.431-8.42-8.431-8.42 3.775-8.42 8.43c0 4.657 3.77 8.431 8.42 8.431z" fill="#272727" stroke="#272727" stroke-miterlimit="10"/><path d="M125.617 32.043c6.202 0 11.23-5.034 11.23-11.244s-5.028-11.243-11.23-11.243c-6.202 0-11.229 5.034-11.229 11.243 0 6.21 5.027 11.244 11.229 11.244z" fill="#FBFBFB" stroke="#272727" stroke-miterlimit="10"/><path d="M113.595 104.902c13.253 0 23.997-11.215 23.997-25.049 0-13.833-10.744-25.048-23.997-25.048S89.598 66.02 89.598 79.853c0 13.835 10.744 25.049 23.997 25.049z" fill="#72B236"/><path d="M125.288 31.783c4.65 0 8.42-3.774 8.42-8.43s-3.77-8.431-8.42-8.431-8.42 3.775-8.42 8.43c0 4.657 3.77 8.431 8.42 8.431z" fill="#272727" stroke="#272727" stroke-miterlimit="10"/><path d="M102.664 40.93a18.818 18.818 0 009.95 4.077c9.236.833 15.498-5.924 16.275-6.796" stroke="#063" stroke-width="3" stroke-miterlimit="10"/><path d="M93.683 69.918a.453.453 0 01-.112.005c-11.05-.833-20.314 12.263-15.78 22.388 4.425 11.005 21.076 13.99 28.995 5.176 7.673-7.53 10.631-19.119 20.028-25.064 9.548-6.529 24.919-.364 26.782 11.238 1.817 11.11-10.142 21.917-20.96 18.653-7.999-1.807-13.74-8.65-17.001-15.855-4.017-6.878-9.269-14.223-17.466-16.088-1.443-.328-2.932-.46-4.41-.46a.438.438 0 00-.076.007v0z" stroke="#2C3A6A" stroke-width="7"/><path d="M87.106 85.666h13.974m34.584-5.829v11.658m-5.706-5.829h11.644-11.644z" stroke="#2C3A6A" stroke-width="4"/><path d="M84.188 122.962c-.6 0-1.125-.4-1.285-.977l-.1-.367a1.832 1.832 0 00-1.766-1.344H79.12a1.85 1.85 0 00-1.78 1.344l-.135.471a1.203 1.203 0 11-2.311-.669l3.035-10.313a2.372 2.372 0 014.55 0l2.987 10.147a1.332 1.332 0 01-1.278 1.708zm-2.795-6.476c-.362-1.306-2.213-1.309-2.579-.004a1.338 1.338 0 102.579.004zm15.386 6.509a3.827 3.827 0 01-3.447-2.303c-.39-.89-.822-1.856-1.147-2.521-.754-1.143-2.121.166-2.134 1.535-.007.707-.01 1.412-.01 1.985a1.272 1.272 0 01-1.272 1.271c-.7 0-1.267-.567-1.267-1.267v-6.554c0-3.195 2.562-6.018 5.729-5.596 3.13.357 3.987 4.003 2.312 5.899-.438.495-.794 2.206-.523 2.808l2.03 4.231c.143.29.14.515-.271.512zm-3.1-9.628c-.007-1.249-.75-1.669-1.677-1.807-1.066-.159-1.953.815-1.953 1.894 0 1.046.842 1.977 1.87 1.781 1.003-.192 1.737-.692 1.76-1.868zm14.766 6.136c.001-.005-.006-.006-.008-.002-1.238 2.826-3.914 3.485-6.452 3.438a3.12 3.12 0 01-3.12-3.12v-5.694a4.72 4.72 0 014.744-4.72c5.868.193 6.077 6.568 4.836 10.098zm-3.239-7.209c.002-.001.002-.003.001-.005-.675-.582-1.386-.764-2.119-.813-.927-.063-1.683.755-1.683 1.685v4.097c0 1.952 1.837 4.059 3.41 2.903 2.098-1.332 1.833-6.376.391-7.863v-.004zm15.434 5.643c-.003 0-.005.003-.005.006.245 6.843-9.453 6.818-9.743 1.478-.177-1.636-.031-3.272-.079-4.909v-3.892a1.273 1.273 0 012.546-.006l.041 8.433c.298 2.677 3.827 2.443 4.361.959.54-1.181.29-2.513.345-3.776v-5.613a1.27 1.27 0 112.54 0v7.314c0 .003-.002.006-.006.006zm3.476-6.545a1.046 1.046 0 110-2.092h6.433a1.046 1.046 0 010 2.092h-.439c-.82 0-1.484.665-1.484 1.484v6.428c0 .82.664 1.485 1.484 1.485h.427a1.058 1.058 0 110 2.115h-6.409a1.058 1.058 0 010-2.115h.427c.82 0 1.484-.665 1.484-1.485v-6.428c0-.819-.664-1.484-1.484-1.484h-.439zm18.154 11.57a1.879 1.879 0 01-1.718-1.118l-.573-1.297c-.752-1.701-3.293-1.164-3.293.696v.565a1.154 1.154 0 11-2.308 0v-10.512a1.89 1.89 0 013.619-.767l.591 1.332c.768 1.729 3.254 1.203 3.253-.689v-.614a1.153 1.153 0 112.307.001v10.525a1.878 1.878 0 01-1.878 1.878zm12.347-1.139c0-.012-.014-.018-.022-.01-2.822 2.421-7.717 1.873-8.688-2.929-1.334-7.317 2.597-11.524 8.072-9.07 3.354 1.9 3.179 9.703.659 12.019-.008.007-.021.001-.021-.01zm-3.399-10.396c-2.4-.064-2.748 2.408-2.841 3.6-.02 2.255-.218 6.007 2.888 5.843.962 0 1.797-.703 2.111-1.601.632-1.414 1.108-7.959-2.158-7.842zm.752-43.583a.137.137 0 100 .274h.162c.165 0 .298.134.298.299v1.136a.154.154 0 00.309 0V68.42c0-.167.135-.302.301-.302h.165a.137.137 0 100-.273h-1.235zm1.842 0a.262.262 0 00-.262.263v1.455a.14.14 0 10.281 0v-.07c0-.242.341-.294.413-.064l.045.142a.188.188 0 00.36-.001l.039-.128c.068-.222.396-.173.396.06v.063a.139.139 0 10.278 0v-1.466a.253.253 0 00-.495-.074l-.03.097c-.111.367-.63.368-.745.002l-.029-.094a.263.263 0 00-.251-.184z" fill="#2C3A6A" stroke="#2C3A6A"/></g><defs><clipPath id="clip0"><path d="M0 0h221a9 9 0 019 9v120H0V0z" fill="#fff"/></clipPath><filter id="filter0_bi" x="22" y="-28" width="191.673" height="188.97" filterUnits="userSpaceOnUse" color-interpolation-filters="sRGB"><feFlood flood-opacity="0" result="BackgroundImageFix"/><feGaussianBlur in="BackgroundImage" stdDeviation="5"/><feComposite in2="SourceAlpha" operator="in" result="effect1_backgroundBlur"/><feBlend in="SourceGraphic" in2="effect1_backgroundBlur" result="shape"/><feColorMatrix in="SourceAlpha" values="0 0 0 0 0 0 0 0 0 0 0 0 0 0 0 0 0 0 127 0" result="hardAlpha"/><feOffset/><feGaussianBlur stdDeviation="5"/><feComposite in2="hardAlpha" operator="arithmetic" k2="-1" k3="1"/><feColorMatrix values="0 0 0 0 1 0 0 0 0 1 0 0 0 0 1 0 0 0 0.2 0"/><feBlend in2="shape" result="effect2_innerShadow"/></filter></defs></svg>