<svg width="229" height="129" fill="none" xmlns="http://www.w3.org/2000/svg"><g clip-path="url(#clip0)"><path d="M229 9a9 9 0 00-9-9H-3a9 9 0 00-9 9v126h241V9z" fill="#BD67D5"/><path fill-rule="evenodd" clip-rule="evenodd" d="M-46.838 68.862c-10.441 15.552-32.057 25.394-32.274 44.347-.22 19.28 13.66 39.186 31.204 49.237 16.47 9.435 36.754-5.821 54.774.02 22.725 7.366 36.159 39.663 59.464 37.006 22-2.508 37.685-26.898 39.541-48.293 1.782-20.547-27.343-33.733-30.636-54.351-3.32-20.785 25.149-41.758 12.486-59.278-11.93-16.506-39.142-3.997-59.474-5.731-17.173-1.465-35.288-11.027-50.279-3.632-14.88 7.342-15.729 27.154-24.806 40.675z" fill="#F6B028"/><path fill-rule="evenodd" clip-rule="evenodd" d="M184.246 180.856c15.737 6.954 32.391 14.992 50.327 8.476 17.655-6.413 32.302-24.011 43.11-42.418 9.485-16.154 9.906-34.661 12.8-52.8 2.775-17.393 8.626-35.523 3.709-50.672-5.1-15.71-16.154-28.504-30.585-32.126-13.659-3.429-28.149 10.442-42.865 13.69-16.797 3.708-36.903-9.145-49.061 6.6-12.311 15.944 4.832 37.158.117 56.785-5.282 21.987-31.154 39.753-28.337 60.676 2.723 20.228 24.773 24.712 40.785 31.789z" fill="#DB538C"/><g filter="url(#filter0_bi)"><path fill-rule="evenodd" clip-rule="evenodd" d="M120.142 123.499c19.84-.812 42.798 8.294 58.106-3.177 14.957-11.208 5.745-30.254 7.472-45.965 1.621-14.751 12.803-31.97 2.315-43.098-10.552-11.197-34.705-3.633-51.177-8.75C120.226 17.34 110.728.35 92.219 1.491 73.213 2.665 55.814 15.093 44.275 28.22 33.39 40.606 33.286 55.79 31.732 70.308c-1.473 13.759-5.493 28.934 3.794 39.626 9.083 10.458 27.272 11.912 43.188 14.464 13.589 2.178 27.25-.318 41.428-.899z" fill="#fff" fill-opacity=".3"/></g><rect x="43" y="13" width="116.259" height="85.186" rx="10" fill="#131930"/><rect x="51.942" y="19.626" width="98.085" height="71.935" rx="10" fill="#2C3A6A"/><path fill="#131930" d="M83.388 98.186h35.772v11.043H83.388z"/><path fill="#2C3A6A" d="M83.388 98.186h9.808v11.043h-9.808z"/><rect x="51.942" y="109.228" width="98.085" height="5.995" rx="2.997" fill="#131930"/><rect x="51.942" y="109.228" width="10.674" height="5.995" rx="2.997" fill="#2C3A6A"/><path d="M117.509 56.4c.545-16.53-10.704-30.321-25.126-30.802-14.421-.482-26.555 12.53-27.1 29.06-.545 16.53 10.704 30.32 25.126 30.802 14.421.48 26.555-12.53 27.1-29.06z" fill="#8CC754"/><path d="M80.115 35.526c4.208 0 7.62-3.43 7.62-7.662 0-4.232-3.412-7.662-7.62-7.662s-7.62 3.43-7.62 7.662c0 4.232 3.412 7.662 7.62 7.662z" fill="#FBFBFB" stroke="#272727" stroke-miterlimit="10"/><path d="M80.445 35.344c3.155 0 5.713-2.572 5.713-5.745s-2.558-5.745-5.713-5.745c-3.155 0-5.713 2.572-5.713 5.745s2.558 5.745 5.713 5.745z" fill="#272727" stroke="#272727" stroke-miterlimit="10"/><path d="M99.017 35.526c4.208 0 7.619-3.43 7.619-7.662 0-4.232-3.411-7.662-7.62-7.662-4.208 0-7.619 3.43-7.619 7.662 0 4.232 3.411 7.662 7.62 7.662z" fill="#FBFBFB" stroke="#272727" stroke-miterlimit="10"/><path d="M90.865 85.173c8.992 0 16.282-7.642 16.282-17.07 0-9.427-7.29-17.07-16.282-17.07-8.993 0-16.282 7.642-16.282 17.07s7.29 17.07 16.282 17.07z" fill="#72B236"/><path d="M99.326 35.344c3.155 0 5.713-2.572 5.713-5.745s-2.558-5.745-5.713-5.745c-3.156 0-5.714 2.572-5.714 5.745s2.558 5.745 5.714 5.745z" fill="#272727" stroke="#272727" stroke-miterlimit="10"/><path d="M87.11 43.949a32.156 32.156 0 009.856-1.703" stroke="#063" stroke-width="3" stroke-miterlimit="10"/><rect x="113.301" y="122.643" width="38.917" height="21.114" rx="10" transform="rotate(-103.048 113.301 122.643)" fill="#F6B028"/><rect x="152.431" y="113.575" width="38.917" height="21.114" rx="10" transform="rotate(-103.048 152.431 113.575)" fill="#F6B028"/><rect x="104.515" y="84.731" width="61.281" height="25.296" rx="10" transform="rotate(-13.048 104.515 84.731)" fill="#F6B028"/><rect x="107.242" y="85.098" width="55.617" height="22.863" rx="10" transform="rotate(-13.048 107.242 85.098)" fill="#EFC680"/><ellipse cx="121.613" cy="93.502" rx="6.437" ry="6.081" transform="rotate(-13.048 121.613 93.502)" fill="#2C3A6A"/><ellipse cx="149.55" cy="84.032" rx="2.317" ry="2.189" transform="rotate(-13.048 149.55 84.032)" fill="#FAFF00"/><ellipse cx="157.075" cy="82.288" rx="2.317" ry="2.189" transform="rotate(-13.048 157.075 82.288)" fill="#72B236"/><ellipse cx="158.722" cy="89.396" rx="2.317" ry="2.189" transform="rotate(-13.048 158.722 89.396)" fill="#2C3A6A"/><ellipse cx="151.197" cy="91.14" rx="2.317" ry="2.189" transform="rotate(-13.048 151.197 91.14)" fill="#EC671C"/><rect x="129.521" y="85.428" width="15.964" height="10.702" rx="5.351" transform="rotate(-13.048 129.521 85.428)" fill="#269C95"/><rect x="130.634" y="85.669" width="14.419" height="9.729" rx="4.865" transform="rotate(-13.048 130.634 85.669)" fill="#5DDAD2" fill-opacity=".64"/><path d="M128.111 31.306c.3-.922 1.603-.922 1.902 0l.653 2.007a1 1 0 00.951.691h2.111c.968 0 1.371 1.24.588 1.81l-1.708 1.24a1 1 0 00-.364 1.118l.653 2.008c.299.921-.755 1.687-1.539 1.118l-1.708-1.24a1 1 0 00-1.175 0l-1.708 1.24c-.784.57-1.839-.197-1.539-1.118l.652-2.008a1 1 0 00-.363-1.118l-1.708-1.24c-.784-.57-.381-1.81.588-1.81h2.111a1 1 0 00.951-.69l.652-2.008z" fill="#FAFF00"/></g><defs><clipPath id="clip0"><path d="M229 9a9 9 0 00-9-9H9a9 9 0 00-9 9v120h229V9z" fill="#fff"/></clipPath><filter id="filter0_bi" x="2" y="-29" width="217.582" height="192.695" filterUnits="userSpaceOnUse" color-interpolation-filters="sRGB"><feFlood flood-opacity="0" result="BackgroundImageFix"/><feGaussianBlur in="BackgroundImage" stdDeviation="5"/><feComposite in2="SourceAlpha" operator="in" result="effect1_backgroundBlur"/><feBlend in="SourceGraphic" in2="effect1_backgroundBlur" result="shape"/><feColorMatrix in="SourceAlpha" values="0 0 0 0 0 0 0 0 0 0 0 0 0 0 0 0 0 0 127 0" result="hardAlpha"/><feOffset/><feGaussianBlur stdDeviation="5"/><feComposite in2="hardAlpha" operator="arithmetic" k2="-1" k3="1"/><feColorMatrix values="0 0 0 0 1 0 0 0 0 1 0 0 0 0 1 0 0 0 0.2 0"/><feBlend in2="shape" result="effect2_innerShadow"/></filter></defs></svg>