<svg width="27" height="26" fill="none" xmlns="http://www.w3.org/2000/svg"><path d="M13.496 8.665c-2.479 0-4.501 1.948-4.501 4.335s2.023 4.335 4.501 4.335c2.48 0 4.502-1.948 4.502-4.335s-2.023-4.335-4.502-4.335zM26.998 13c0-1.795.017-3.574-.087-5.366-.105-2.082-.598-3.929-2.179-5.45C23.148.657 21.234.185 19.072.085 17.208-.015 15.361 0 13.5 0c-1.864 0-3.712-.016-5.573.085-2.161.1-4.08.575-5.66 2.097C.683 3.708.194 5.553.09 7.633-.016 9.43 0 11.209 0 13c0 1.792-.017 3.574.088 5.366.105 2.082.598 3.929 2.178 5.45 1.584 1.526 3.499 1.998 5.66 2.099 1.865.1 3.712.084 5.573.084 1.864 0 3.711.016 5.572-.084 2.162-.101 4.08-.576 5.66-2.098 1.584-1.526 2.074-3.37 2.179-5.45.108-1.793.087-3.572.087-5.367zm-13.502 6.67c-3.833 0-6.926-2.979-6.926-6.67s3.093-6.67 6.926-6.67 6.927 2.979 6.927 6.67-3.093 6.67-6.927 6.67zm7.21-12.056c-.894 0-1.617-.696-1.617-1.557 0-.862.723-1.558 1.618-1.558.895 0 1.617.696 1.617 1.558a1.513 1.513 0 01-.472 1.102 1.67 1.67 0 01-1.144.456z" fill="#fff"/></svg>